<?xml version="1.0" encoding="utf-8"?>
<!-- Generator: Adobe Illustrator 24.0.2, SVG Export Plug-In . SVG Version: 6.00 Build 0)  -->
<svg version="1.1" id="Layer_1" xmlns="http://www.w3.org/2000/svg" xmlns:xlink="http://www.w3.org/1999/xlink" x="0px" y="0px"
	 viewBox="0 0 800 600" enable-background="new 0 0 800 600" xml:space="preserve">
<g>
	<defs>
		<rect id="SVGID_1_" width="800" height="600"/>
	</defs>
	<clipPath id="SVGID_2_">
		<use xlink:href="#SVGID_1_"  overflow="visible"/>
	</clipPath>
	<g id="custom_5" clip-path="url(#SVGID_2_)">
		<g id="Group_2175" transform="translate(0.194 -19)">
			<path id="Path_2603" opacity="0.51" fill="#EEEEFF" enable-background="new    " d="M495.4,561.3
				c-144.6,7-385.6-89.6-381.6-223.4s251.4-254.3,396-261.3s258.7,95.8,254.7,229.6S640,554.2,495.4,561.3z"/>
			<g id="Group_2173">
				<g id="Group_2130">
					<path id="Path_19814" fill="#A9A7FC" d="M302.8,202.2c4.2,1.6,8.6,2.4,13.1,2.5c7,0,13.5-3,17.4-8c6.5,2.6,14.2,0.2,17.2-5.3
						s0.2-12.1-6.2-14.7c-1.7-0.7-3.6-1-5.5-1c-0.1,0-0.3,0-0.4,0c0.3-1.2,0.4-2.4,0.4-3.6c0.1-9.4-8.8-17-19.7-17.1
						c-5.5-0.1-10.8,1.9-14.9,5.7c-6.7-8.1-19.8-10-29.2-4.2c-4.2,2.4-7.3,6.5-8.4,11.3c-9.6-2.1-19.3,2.9-21.7,11.1
						s3.3,16.5,12.9,18.6c3.1,0.7,6.3,0.6,9.4-0.1c4.9,4.6,12.8,7.5,21.8,7.5C293.8,204.7,298.4,203.9,302.8,202.2z"/>
					<path id="Path_2604" fill="#EEEEFF" d="M42.1,175.9c6.5-27.6,17.1-55.5,37.9-74.9c21.3-19.8,51.3-28.5,80.4-28
						s57.4,9.4,84.1,20.9C301.3,118.5,352.1,155,393.4,201c13.1,14.6,32.2,20.6,51.9,21.4s39.1-3.5,58.6-6.4
						c28.2-4.2,56.8-5.5,85.3-3.9c27.9,1.6,57.7,7.1,77.5,26.8c26.8,26.8,26.4,69.9,21.8,107.5c-8.8,71.8-27.8,146.2-77.8,198.5
						c-5.6,5.9-11.7,11.5-19,15.1c-8.3,4.1-17.7,5.4-26.9,5.7c-65.3,2.1-124.9-43-190.3-42.5c-41.4,0.3-80.2,18.9-120.3,28.9
						c-38.2,9.5-105.7,11.8-123.3-33.7c-9.4-24.4-16-49.8-19.6-75.7c-1.4-10-2.4-20.3-5.6-29.9c-3.3-9.8-9.1-13.2-15.9-20.3
						c-12.5-13.1-22.9-27.9-31-44.1c-16.6-32.8-23.9-69.9-24.1-106.5C34.5,219.8,37,197.6,42.1,175.9z"/>
					<path id="Path_19814-2" fill="#C4BEFF" d="M271,193.6c4.1,1.8,8.6,2.9,13.1,3c7,0,13.6-3.6,17.4-9.5c6.4,3,14.1,0.3,17.1-6.1
						c0-0.1,0.1-0.1,0.1-0.2c3-6.6,0.3-14.3-6.2-17.5c-1.7-0.8-3.6-1.2-5.5-1.2c-0.1,0-0.3,0-0.4,0c0.3-1.4,0.4-2.8,0.4-4.3
						c0.1-11-8.7-20.1-19.7-20.3c-5.7,0-11.1,2.4-14.9,6.7c-6.5-9.4-19.4-11.8-28.8-5.3c-0.1,0.1-0.3,0.2-0.4,0.3
						c-4.4,3.2-7.4,8-8.4,13.4c-9.6-2.4-19.3,3.4-21.7,12.9c0,0.1,0,0.1,0,0.2c-2.5,9.7,3.3,19.5,12.9,22.1c3.1,0.8,6.4,0.7,9.4-0.2
						c4.9,5.4,12.8,9,21.8,9C262,196.6,266.7,195.6,271,193.6z"/>
				</g>
				<g id="Group_2162">
					<g>
						<defs>
							<path id="SVGID_3_" d="M43.4,177.4c6.4-27.5,17.1-55.3,37.8-74.6c21.2-19.7,51.1-28.3,80.1-27.9s57.2,9.3,83.8,20.8
								c56.5,24.5,107.1,60.8,148.3,106.7c13.1,14.6,32.1,20.5,51.7,21.3s39-3.5,58.3-6.4c28.1-4.2,56.5-5.5,84.9-3.8
								c27.8,1.6,57.4,7,77.1,26.7c26.7,26.7,26.3,69.6,21.7,107.1c-8.7,71.5-27.7,145.6-77.4,197.7c-5.6,5.9-11.7,11.5-18.9,15.1
								c-8.2,4.1-17.6,5.4-26.8,5.7c-65.1,2.1-124.4-42.8-189.5-42.3c-41.2,0.3-79.8,18.8-119.8,28.8c-38,9.5-105.3,11.8-122.8-33.6
								c-9.4-24.3-15.9-49.6-19.5-75.4c-1.4-10-2.4-20.2-5.6-29.8c-3.3-9.7-9-13.1-15.8-20.2c-12.4-13-22.8-27.8-30.9-43.9
								c-16.5-32.7-23.8-69.6-24-106.1C35.9,221.2,38.4,199.1,43.4,177.4z"/>
						</defs>
						<clipPath id="SVGID_4_">
							<use xlink:href="#SVGID_3_"  overflow="visible"/>
						</clipPath>
						<g id="Group_2161" clip-path="url(#SVGID_4_)">
							<g id="Group_2147">
								<g id="Group_2134">
									<path id="Path_2605" fill="#C4BEFF" d="M618.8,335.9v50.8h-39.6v-50.8l19.7-12.1L618.8,335.9z"/>
									<path id="Path_2606" opacity="0.1" fill="#C4BEFF" enable-background="new    " d="M618.8,335.9v50.8h-39.6v-50.8
										l19.7-12.1L618.8,335.9z"/>
									<g id="Group_2131">
										<rect id="Rectangle_152" x="596.9" y="341" fill="#FFFFFF" width="4.4" height="8.4"/>
										<rect id="Rectangle_153" x="598.1" y="345.9" fill="#C4BEFF" width="2.8" height="3"/>
										<rect id="Rectangle_154" x="598.1" y="342.9" fill="#C4BEFF" width="2.8" height="1.9"/>
									</g>
									<g id="Group_2132">
										<rect id="Rectangle_155" x="596.9" y="355.2" fill="#FFFFFF" width="4.4" height="8.4"/>
										<rect id="Rectangle_156" x="598.1" y="360.1" fill="#C4BEFF" width="2.8" height="3"/>
										<rect id="Rectangle_157" x="598.1" y="357.1" fill="#C4BEFF" width="2.8" height="1.9"/>
									</g>
									<g id="Group_2133">
										<rect id="Rectangle_158" x="596.9" y="369.4" fill="#FFFFFF" width="4.4" height="8.4"/>
										<rect id="Rectangle_159" x="598.1" y="374.3" fill="#C4BEFF" width="2.8" height="3"/>
										<rect id="Rectangle_160" x="598.1" y="371.3" fill="#C4BEFF" width="2.8" height="1.9"/>
									</g>
								</g>
								<g id="Group_2137">
									<path id="Path_2607" fill="#C4BEFF" d="M704.8,323.1v63.6h-43.1v-63.6l21.4-15.1L704.8,323.1z"/>
									<path id="Path_2608" opacity="0.18" enable-background="new    " d="M704.7,323l0.2,63.6l-43.1,0.1l-0.2-63.6l21.4-15.2
										L704.7,323z"/>
									<g id="Group_2135">
										<rect id="Rectangle_161" x="680.9" y="330" fill="#FFFFFF" width="4.8" height="10.8"/>
										<rect id="Rectangle_162" x="682.2" y="336.3" fill="#C5C5FC" width="3" height="3.9"/>
										<rect id="Rectangle_163" x="682.2" y="332.4" fill="#C5C5FC" width="3" height="2.4"/>
									</g>
									<g id="Group_2136">
										<rect id="Rectangle_164" x="680.9" y="348.3" fill="#FFFFFF" width="4.8" height="10.8"/>
										<rect id="Rectangle_165" x="682.2" y="354.6" fill="#C5C5FC" width="3" height="3.9"/>
										<rect id="Rectangle_166" x="682.2" y="350.7" fill="#C5C5FC" width="3" height="2.4"/>
									</g>
								</g>
								<g id="Group_2143">
									<rect id="Rectangle_167" x="616.7" y="265.1" fill="#C5C5FC" width="42.8" height="121.6"/>
									<g id="Group_2138">
										<rect id="Rectangle_168" x="623.9" y="256" fill="#C5C5FC" width="16.3" height="9.1"/>
										
											<rect id="Rectangle_169" x="623.9" y="256" opacity="0.18" fill="#C5C5FC" enable-background="new    " width="16.3" height="9.1"/>
									</g>
									<g id="Group_2139">
										<rect id="Rectangle_170" x="635.4" y="275.1" fill="#FFFFFF" width="4.7" height="8.6"/>
										
											<rect id="Rectangle_171" x="636.8" y="277.9" opacity="0.18" fill="#B0B0F7" enable-background="new    " width="3.3" height="5.8"/>
									</g>
									<g id="Group_2140">
										<rect id="Rectangle_172" x="635.4" y="290" fill="#FFFFFF" width="4.7" height="8.6"/>
										
											<rect id="Rectangle_173" x="636.8" y="292.8" opacity="0.18" fill="#B0B0F7" enable-background="new    " width="3.3" height="5.8"/>
									</g>
									<g id="Group_2141">
										<rect id="Rectangle_174" x="635.4" y="304.9" fill="#FFFFFF" width="4.7" height="8.6"/>
										
											<rect id="Rectangle_175" x="636.8" y="307.7" opacity="0.18" fill="#B0B0F7" enable-background="new    " width="3.3" height="5.8"/>
									</g>
									<g id="Group_2142">
										<rect id="Rectangle_176" x="635.4" y="319.8" fill="#FFFFFF" width="4.7" height="8.6"/>
										
											<rect id="Rectangle_177" x="636.8" y="322.6" opacity="0.18" fill="#B0B0F7" enable-background="new    " width="3.3" height="5.8"/>
									</g>
								</g>
								<g id="Group_2146">
									<rect id="Rectangle_178" x="630.5" y="336.1" fill="#B0B0F7" width="46.7" height="45.7"/>
									<g id="Group_2144">
										
											<rect id="Rectangle_179" x="646.1" y="336.1" opacity="0.3" fill="#F2EDE5" enable-background="new    " width="15.6" height="15.6"/>
										
											<rect id="Rectangle_180" x="661.7" y="336.1" opacity="0.2" fill="#F2EDE5" enable-background="new    " width="15.6" height="15.6"/>
										
											<rect id="Rectangle_181" x="661.7" y="351.7" opacity="0.15" fill="#F2EDE5" enable-background="new    " width="15.6" height="15.6"/>
										
											<rect id="Rectangle_182" x="646.1" y="367.3" opacity="0.15" fill="#F2EDE5" enable-background="new    " width="15.6" height="15.6"/>
										
											<rect id="Rectangle_183" x="646.1" y="351.7" opacity="0.1" fill="#F2EDE5" enable-background="new    " width="15.6" height="15.6"/>
										
											<rect id="Rectangle_184" x="630.5" y="367.3" opacity="0.1" fill="#F2EDE5" enable-background="new    " width="15.6" height="15.6"/>
										
											<rect id="Rectangle_185" x="630.5" y="351.7" opacity="0.25" fill="#F2EDE5" enable-background="new    " width="15.6" height="15.6"/>
									</g>
									<path id="Path_2609" fill="#8380F9" d="M646.1,320.7v15.6h15.6v-15.6H646.1z M655.6,333.1H651v-8.8h4.7V333.1z"/>
									<path id="Path_2610" fill="#A4A4FF" d="M661.7,320.7v15.6h15.6v-15.6H661.7z M671.2,333.1h-4.7v-8.8h4.7V333.1z"/>
									<g id="Group_2145">
										<rect id="Rectangle_186" x="635.4" y="369.9" fill="#FFFFFF" width="4.7" height="8.8"/>
										<rect id="Rectangle_187" x="635.4" y="354.7" fill="#FFFFFF" width="4.7" height="8.8"/>
										<rect id="Rectangle_188" x="651" y="369.9" fill="#FFFFFF" width="4.7" height="8.8"/>
										<rect id="Rectangle_189" x="651" y="354.7" fill="#FFFFFF" width="4.7" height="8.8"/>
										<rect id="Rectangle_190" x="666.6" y="369.9" fill="#FFFFFF" width="4.7" height="8.8"/>
										<rect id="Rectangle_191" x="666.6" y="354.7" fill="#FFFFFF" width="4.7" height="8.8"/>
										<rect id="Rectangle_192" x="635.4" y="339.6" fill="#FFFFFF" width="4.7" height="8.8"/>
										<rect id="Rectangle_193" x="651" y="339.6" fill="#FFFFFF" width="4.7" height="8.8"/>
										<rect id="Rectangle_194" x="666.6" y="339.6" fill="#FFFFFF" width="4.7" height="8.8"/>
									</g>
									<rect id="Rectangle_195" x="630.5" y="382" fill="#51586D" width="46.8" height="4.7"/>
								</g>
							</g>
							<g id="Group_2149">
								<rect id="Rectangle_196" x="77" y="382" fill="#A9A7FC" width="617" height="16"/>
								<rect id="Rectangle_197" x="77" y="397" fill="#BBBBF9" width="617" height="164"/>
								<path id="Path_2611" fill="#C4BEFF" d="M326,454c-27.8-24.6-26.4-64.4-26-72h168c2.2,11.9,3.5,30.8-5.9,48.4
									C439.6,472.6,365.3,488.8,326,454z"/>
								<g id="Group_2148">
									<circle id="Ellipse_42" fill="#8380F9" cx="347.4" cy="447.1" r="3"/>
									<circle id="Ellipse_43" fill="#8380F9" cx="455.4" cy="431.1" r="3"/>
									<circle id="Ellipse_44" fill="#8380F9" cx="410.4" cy="445.1" r="3"/>
									<circle id="Ellipse_45" fill="#8380F9" cx="361.7" cy="459.8" r="3"/>
									<circle id="Ellipse_46" fill="#8380F9" cx="418.7" cy="409.8" r="3"/>
									<circle id="Ellipse_47" fill="#8380F9" cx="395.7" cy="450.8" r="3"/>
									<circle id="Ellipse_48" fill="#8380F9" cx="323.3" cy="400.2" r="2"/>
									<circle id="Ellipse_49" fill="#8380F9" cx="431.3" cy="402.2" r="2"/>
									<circle id="Ellipse_50" fill="#8380F9" cx="447.3" cy="417.2" r="2"/>
									<circle id="Ellipse_51" fill="#8380F9" cx="353.3" cy="398.2" r="2"/>
									<circle id="Ellipse_52" fill="#8380F9" cx="445.1" cy="437.7" r="1.5"/>
									<circle id="Ellipse_53" fill="#8380F9" cx="431.1" cy="447.7" r="1.5"/>
									<circle id="Ellipse_54" fill="#8380F9" cx="333.1" cy="421.7" r="1.5"/>
									<circle id="Ellipse_55" fill="#8380F9" cx="371" cy="464.8" r="1.5"/>
									<circle id="Ellipse_56" fill="#8380F9" cx="327.2" cy="443.6" r="1"/>
									<circle id="Ellipse_57" fill="#8380F9" cx="364.7" cy="449.9" r="1"/>
									<circle id="Ellipse_58" fill="#8380F9" cx="430.7" cy="433.9" r="1"/>
									<circle id="Ellipse_59" fill="#8380F9" cx="346.7" cy="431.9" r="1"/>
									<circle id="Ellipse_60" fill="#8380F9" cx="318.8" cy="421.2" r="1"/>
									<circle id="Ellipse_61" fill="#8380F9" cx="443.8" cy="407.2" r="1"/>
									<circle id="Ellipse_62" fill="#8380F9" cx="400.8" cy="460.2" r="1"/>
									<circle id="Ellipse_63" fill="#8380F9" cx="391.9" cy="460.7" r="1"/>
									<circle id="Ellipse_64" fill="#8380F9" cx="367.3" cy="434.5" r="2"/>
								</g>
							</g>
							<g id="Group_2160">
								<rect id="Rectangle_198" x="515.8" y="355.6" fill="#1A1A1A" width="37.6" height="3.4"/>
								<path id="Path_2612" fill="#363A49" d="M584.3,383.8h-99.4c-6,0-10.9-4.9-10.9-10.9l0,0c0-6,4.9-10.9,10.9-10.9l31.9-3h36.6
									l30.9,3c6,0,10.9,4.9,10.9,10.9l0,0C595.2,379,590.4,383.8,584.3,383.8z"/>
								<circle id="Ellipse_65" fill="#999999" cx="497.4" cy="377.5" r="2.6"/>
								<circle id="Ellipse_66" fill="#999999" cx="506.8" cy="377.5" r="2.6"/>
								<circle id="Ellipse_67" fill="#999999" cx="516.2" cy="377.5" r="2.6"/>
								<circle id="Ellipse_68" fill="#999999" cx="525.6" cy="377.5" r="2.6"/>
								<circle id="Ellipse_69" fill="#999999" cx="535" cy="377.5" r="2.6"/>
								<circle id="Ellipse_70" fill="#999999" cx="544.4" cy="377.5" r="2.6"/>
								<circle id="Ellipse_71" fill="#999999" cx="553.8" cy="377.5" r="2.6"/>
								<circle id="Ellipse_72" fill="#999999" cx="516.9" cy="365" r="2.6"/>
								<circle id="Ellipse_73" fill="#999999" cx="563.2" cy="377.5" r="2.6"/>
								<circle id="Ellipse_74" fill="#999999" cx="552.3" cy="365" r="2.6"/>
								<circle id="Ellipse_75" fill="#999999" cx="572.3" cy="377.5" r="2.6"/>
								<rect id="Rectangle_199" x="484.9" y="367.3" fill="#51586D" width="99.4" height="9.8"/>
								<g id="Group_2150">
									<circle id="Ellipse_76" fill="#999999" cx="484.9" cy="372.2" r="6.8"/>
									<circle id="Ellipse_77" fill="#363A49" cx="484.9" cy="372.2" r="4.9"/>
								</g>
								<g id="Group_2151">
									<circle id="Ellipse_78" fill="#999999" cx="583.2" cy="372.2" r="6.8"/>
									<circle id="Ellipse_79" fill="#363A49" cx="583.2" cy="372.2" r="4.9"/>
								</g>
								<path id="Path_2613" fill="#FF8364" d="M508.3,328.5c0,0-11.7-12.4-51.9-5.3s-90.6,26.3-73,8.7c0.8-0.8,76.4-31.2,91.8-30.1
									s20.7,3.8,36.1,13.6"/>
								<path id="Rectangle_200" fill="#B3B3B3" d="M498,336.8L498,336.8c-0.4,0.4-1.2,0.4-1.6,0l-24.1-24.1c-0.4-0.4-0.4-1.2,0-1.6
									l0,0c0.4-0.4,1.2-0.4,1.6,0l24.1,24.1C498.4,335.6,498.4,336.3,498,336.8z"/>
								
									<rect id="Rectangle_201" x="498.5" y="330.8" transform="matrix(0.7071 -0.7071 0.7071 0.7071 -93.8677 454.5014)" width="6.4" height="19.6"/>
								<path id="Rectangle_202" fill="#B3B3B3" d="M370.7,378.8L370.7,378.8c0.6-0.1,1.2,0.2,1.4,0.9l7.7,33.2
									c0.1,0.6-0.2,1.2-0.9,1.4l0,0c-0.6,0.1-1.2-0.2-1.4-0.9l-7.7-33.2C369.7,379.6,370,379,370.7,378.8z"/>
								
									<rect id="Rectangle_203" x="367.6" y="358.9" transform="matrix(0.9739 -0.2272 0.2272 0.9739 -75.4687 93.8031)" fill="#363A49" width="4.4" height="31.7"/>
								<g id="Group_2153">
									<g id="Group_2152">
										<path id="Path_2614" fill="#FFCBC2" d="M505.3,334.8v15.8h39.1c1.4-2.6,2.9-5.1,4.3-7.7v-18.5c-1-5.6-2-11.1-3-16.7h-32.1
											c-0.2,0.7-0.4,1.3-0.6,2c-0.5,1.6-1,3.2-1.4,4.7l0,0c-0.7,2.2-1.3,4.4-2,6.6C508.1,325.7,506.7,330.2,505.3,334.8z"/>
										<path id="Rectangle_204" fill="#51586D" d="M545.6,307.8H514c-1,0-1.8-0.8-1.8-1.8v-0.1c0-1,0.8-1.8,1.8-1.8h31.6
											c1,0,1.8,0.8,1.8,1.8v0.1C547.4,307,546.6,307.8,545.6,307.8z"/>
										<path id="Rectangle_205" fill="#F15A24" d="M540.4,304.2h-6.5l0,0v-8.9c0-1.8,1.5-3.3,3.3-3.3l0,0l0,0
											c1.8,0,3.3,1.5,3.3,3.3V304.2L540.4,304.2z"/>
										<rect id="Rectangle_206" x="533.9" y="302.4" fill="#1A1A1A" width="6.5" height="1.8"/>
										<path id="Path_2615" opacity="0.16" fill="#FFFFFF" enable-background="new    " d="M512.9,309.7l8.9,22.8
											c0.7,1.9,2.8,2.9,4.7,2.1c0,0,0.1,0,0.1,0c1.9-0.8,2.8-3,2-5l-8.5-21.9h-6.6C513.3,308.4,513.1,309.1,512.9,309.7z"/>
										<path id="Path_2616" opacity="0.16" fill="#FFFFFF" enable-background="new    " d="M509.5,321.1l3.3,8.5
											c0.4,1.1,1.6,1.7,2.7,1.2c0,0,0,0,0.1,0c1.1-0.5,1.6-1.8,1.2-2.9l-5.3-13.5C510.8,316.7,510.1,318.9,509.5,321.1z"/>
									</g>
								</g>
								<path id="Path_2617" fill="#FF8364" d="M600.1,354.1h-67.7v-20.9c-0.1-1.7,1.1-3.2,2.7-3.6c4.4-1,8.8-1.7,13.3-1.8h49.5
									c0.9,0,1.8,0.4,2.4,1.1c0.6,0.7,1,1.7,1,2.7l2.2,18.7c0,0,0,0.1,0,0.1C603.6,352.4,602.1,354,600.1,354.1z"/>
								<path id="Rectangle_207" fill="#333333" d="M505.3,350.7h98.2l0,0l0,0c0,2.7-2.2,4.9-4.9,4.9h-88.5
									C507.5,355.6,505.3,353.4,505.3,350.7L505.3,350.7L505.3,350.7z"/>
								<path id="Rectangle_208" fill="#1A1A1A" d="M575.2,334.9h15.6c1.6,0,2.9,1.3,2.9,2.9v5.4c0,1.6-1.3,2.9-2.9,2.9h-15.6
									c-1.6,0-2.9-1.3-2.9-2.9v-5.4C572.3,336.2,573.6,334.9,575.2,334.9z"/>
								<path id="Path_2618" fill="#1A1A1A" d="M564,319.4v2.7h-1.9v5.6H558v-5.6h-1.9v-2.6c0-1.9,1.6-3.5,3.5-3.5h1.1
									C562.5,316.1,564,317.6,564,319.4C564,319.4,564,319.4,564,319.4z"/>
								<path id="Path_2619" fill="#FC9A86" d="M367.1,313.8l-5.6,19.2l38,91.5l3.8-1.5l-18-86.9l-14.7-22.3L367.1,313.8z"/>
								<g id="Group_2154">
									<circle id="Ellipse_80" fill="#DD6D57" cx="369.4" cy="315.8" r="5"/>
									<circle id="Ellipse_81" fill="#FC9A86" cx="369.4" cy="315.8" r="2"/>
								</g>
								<g id="Group_2155">
									<circle id="Ellipse_82" fill="#DD6D57" cx="471.6" cy="310.6" r="5"/>
									<circle id="Ellipse_83" fill="#FC9A86" cx="471.6" cy="310.6" r="2"/>
								</g>
								<g id="Group_2156">
									<circle id="Ellipse_84" fill="#DD6D57" cx="383.3" cy="335.8" r="3.7"/>
									<circle id="Ellipse_85" fill="#FC9A86" cx="383.3" cy="335.8" r="1.5"/>
								</g>
								<path id="Path_2620" fill="#363A49" d="M419.4,429.8l4.1,0.4l10.9-10.5h-5.3L419.4,429.8z"/>
								<path id="Path_2621" fill="#FF8364" d="M369.8,352.9v2.7c0,2.3-1.9,4.1-4.2,4.1c-2.2,0-4-1.8-4.1-4.1V333L369.8,352.9z"/>
								<g id="Group_2157">
									<circle id="Ellipse_86" fill="#FC9A86" cx="365.4" cy="355.9" r="1.8"/>
								</g>
								
									<rect id="Rectangle_209" x="376.3" y="406.2" transform="matrix(0.7909 -0.612 0.612 0.7909 -168.7089 321.6798)" fill="#FF8364" width="20.1" height="2.9"/>
								
									<rect id="Rectangle_210" x="382.1" y="411.1" transform="matrix(0.7446 -0.6675 0.6675 0.7446 -181.3503 362.8585)" fill="#FF8364" width="2.9" height="14.7"/>
								<path id="Path_2622" fill="#51586D" d="M428.1,423.8c0,0-15.8,15.1-16.9,15.4c-14.3,6-14.7-10.5-14.7-10.5h-4.1l-0.2-0.1
									c-1.5,1.5-3.8,1.5-5.3,0c-1.5-1.5-1.5-3.8,0-5.3c0.7-0.7,1.6-1.1,2.5-1.1l1.7-4.3c-0.3-0.5-0.4-1.1-0.4-1.7
									c0-2.1,1.7-3.7,3.7-3.8c1.7,0,3.2,1.1,3.6,2.7L428.1,423.8z"/>
								<circle id="Ellipse_87" fill="#363A49" cx="389.5" cy="425.9" r="1.5"/>
								<circle id="Ellipse_88" fill="#363A49" cx="394.4" cy="416.1" r="1.5"/>
								<g id="Group_2158">
									<circle id="Ellipse_89" fill="#DD6D57" cx="394.4" cy="401.7" r="3.7"/>
									<circle id="Ellipse_90" fill="#FC9A86" cx="394.4" cy="401.7" r="1.5"/>
								</g>
								<g id="Group_2159">
									<circle id="Ellipse_91" fill="#DD6D57" cx="378.1" cy="412.8" r="3.7"/>
									<circle id="Ellipse_92" fill="#FC9A86" cx="378.1" cy="412.8" r="1.5"/>
								</g>
							</g>
						</g>
					</g>
				</g>
				<g id="Group_2172">
					<g id="Group_2166">
						<g id="Group_2164">
							<path id="Path_2624" fill="#FCA286" d="M134.3,348.6c0.3,0.4,0.7,0.7,1.2,0.9c0.5,0.1,0.9,0.1,1.4-0.1
								c0.3-0.2,0.7-0.2,1.1-0.1c0.2,0.1,0.4,0.3,0.5,0.6l0.6,1.2c0.2,0.3,0.2,0.7,0,0.9c-0.1,0.2-0.3,0.4-0.5,0.4s-0.4-0.2-0.6-0.4
								c-0.2-0.2-0.6-0.2-0.8-0.1c-0.1,0-0.2,0.1-0.2,0.2c-0.1,0.2,0.1,0.5,0.3,0.6s0.5,0.1,0.7,0.2c0.1,0,0.1,0.1,0.1,0.1l0,0
								c0,0.2-0.2,0.3-0.3,0.4c-0.2,0.1-0.3,0.1-0.5,0.1c-0.2,0-0.4,0-0.6-0.1c-0.4-0.2-0.7-0.5-1-0.8c-0.5-0.3-1-0.6-1.5-0.8
								c-0.6-0.2-1.1-0.4-1.6-0.8c-0.5-0.3-0.8-0.9-0.8-1.5c0-0.1,0-0.1,0-0.2c0,0,0.1-0.1,0.2-0.1
								C132.5,349.1,133.4,348.9,134.3,348.6L134.3,348.6z"/>
							<path id="Path_2625" opacity="0.1" enable-background="new    " d="M134.3,348.6c0.3,0.4,0.7,0.7,1.2,0.9
								c0.5,0.1,0.9,0.1,1.4-0.1c0.3-0.2,0.7-0.2,1.1-0.1c0.2,0.1,0.4,0.3,0.5,0.6l0.6,1.2c0.2,0.3,0.2,0.7,0,0.9
								c-0.1,0.2-0.3,0.4-0.5,0.4s-0.4-0.2-0.6-0.4c-0.2-0.2-0.6-0.2-0.8-0.1c-0.1,0-0.2,0.1-0.2,0.2c-0.1,0.2,0.1,0.5,0.3,0.6
								s0.5,0.1,0.7,0.2c0.1,0,0.1,0.1,0.1,0.1l0,0c0,0.2-0.2,0.3-0.3,0.4c-0.2,0.1-0.3,0.1-0.5,0.1c-0.2,0-0.4,0-0.6-0.1
								c-0.4-0.2-0.7-0.5-1-0.8c-0.5-0.3-1-0.6-1.5-0.8c-0.6-0.2-1.1-0.4-1.6-0.8c-0.5-0.3-0.8-0.9-0.8-1.5c0-0.1,0-0.1,0-0.2
								c0,0,0.1-0.1,0.2-0.1C132.5,349.1,133.4,348.9,134.3,348.6L134.3,348.6z"/>
							<path id="Path_2626" opacity="0.1" enable-background="new    " d="M125.8,328.8c-0.8-0.3-1.6-0.7-2.4-1.2l-2.6-1.7
								c0.7-0.1,1.3-0.5,1.7-1.2c0.3-0.6,0.5-1.3,0.6-2c1.1,0.5,2.1,1.1,3,2c0.4,0.3,1.1,0.8,1.2,1.3s-0.6,0.9-0.9,1.2
								C126.4,327.3,125.5,328.8,125.8,328.8z"/>
							<path id="Path_2627" fill="#6C63FF" d="M124.4,328.7c0.5-0.1,1,0,1.4,0.4c0.4,0.3,0.7,0.8,0.9,1.3c0.2,0.5,0.3,0.9,0.4,1.4
								c0.1,0.5,0.1,1,0.1,1.4c0.1,0.8,0.4,1.7,0.7,2.5c0.1,0.5,0.4,1,0.6,1.5c0.3,0.4,0.6,0.8,0.8,1.3c0,0.2,0,0.3,0.1,0.5
								c0.2,0.5,0.5,0.9,0.8,1.3c0.9,1.2,1.1,2.8,1.8,4.1c0.3,0.6,0.7,1.1,1,1.6c0.3,0.5,0.5,1.1,0.8,1.6c0.3,0.5,0.7,1,1.2,1.3
								c-0.7,0.7-1.5,1.3-2.3,1.7c-0.9,0.4-1.9,0.4-2.8-0.2c-0.3-0.2-0.5-0.5-0.5-0.9c0-0.2,0-0.3,0-0.5c0-0.1-0.1-0.3-0.2-0.4
								c-2.7-3.4-5.1-7-7.3-10.8c-0.6-1-1.2-2-1.8-3c-0.2-0.3-0.4-0.7-0.6-1.1c-0.4-1.2,0-2.5,0.9-3.3c0.4-0.3,0.8-0.5,1.2-0.8
								C122.6,329.3,123.5,328.9,124.4,328.7z"/>
							<path id="Path_2628" opacity="0.1" enable-background="new    " d="M124.4,328.7c0.5-0.1,1,0,1.4,0.4
								c0.4,0.3,0.7,0.8,0.9,1.3c0.2,0.5,0.3,0.9,0.4,1.4c0.1,0.5,0.1,1,0.1,1.4c0.1,0.8,0.4,1.7,0.7,2.5c0.1,0.5,0.4,1,0.6,1.5
								c0.3,0.4,0.6,0.8,0.8,1.3c0,0.2,0,0.3,0.1,0.5c0.2,0.5,0.5,0.9,0.8,1.3c0.9,1.2,1.1,2.8,1.8,4.1c0.3,0.6,0.7,1.1,1,1.6
								c0.3,0.5,0.5,1.1,0.8,1.6c0.3,0.5,0.7,1,1.2,1.3c-0.7,0.7-1.5,1.3-2.3,1.7c-0.9,0.4-1.9,0.4-2.8-0.2
								c-0.3-0.2-0.5-0.5-0.5-0.9c0-0.2,0-0.3,0-0.5c0-0.1-0.1-0.3-0.2-0.4c-2.7-3.4-5.1-7-7.3-10.8c-0.6-1-1.2-2-1.8-3
								c-0.2-0.3-0.4-0.7-0.6-1.1c-0.4-1.2,0-2.5,0.9-3.3c0.4-0.3,0.8-0.5,1.2-0.8C122.6,329.3,123.5,328.9,124.4,328.7z"/>
							<path id="Path_2629" fill="#3F3D56" d="M129.9,379.7c0.3,0.1,0.5,0.3,0.7,0.4c0.1,0.1,0.1,0.2,0.2,0.2
								c0.2,0.2,0.5,0.2,0.8,0.4c0.2,0.1,0.4,0.2,0.6,0.3c0.1,0,0.3,0,0.4,0l1.4,0c0.4-0.1,0.9,0.1,1.2,0.4c0.1,0.1,0.1,0.3,0.2,0.4
								c0.2,0.4,0.1,0.8,0,1.2c-0.3,0.4-0.8,0.6-1.3,0.5c-1.9,0.1-3.9,0.1-5.8-0.1c-0.3,0-0.5,0-0.8,0c-0.2,0-0.4,0.1-0.6,0.1
								c-1,0.1-2.1,0.1-3.1,0c-0.2,0-0.4,0-0.5-0.1c-0.2-0.1-0.3-0.2-0.3-0.4c0-0.3,0.2-0.5,0.3-0.8c0-0.2-0.1-0.4,0-0.6
								c0-0.1,0.1-0.1,0.1-0.1c0.2-0.2,0.3-0.5,0.3-0.7l0.2-1.4c0-0.1,0-0.2,0.1-0.3c0.1,0,0.1-0.1,0.2-0.1c1.1-0.2,2.2-0.1,3.2,0.1
								c0.5,0.1,1.1,0.1,1.7,0.1c0.2,0,0.3,0,0.5,0.1S129.7,379.6,129.9,379.7z"/>
							<path id="Path_2630" fill="#3F3D56" d="M104.1,381.5c0.2,0.1,0.4,0.2,0.6,0.2c0.6,0.2,1.1,0.3,1.7,0.5c0.1,0,0.3,0.1,0.4,0.2
								c0.2,0.2,0.3,0.4,0.3,0.7c0,0.1,0,0.3,0,0.4c-0.1,0.1-0.2,0.2-0.3,0.3c-0.7,0.4-1.4,0.7-2.2,0.6c-0.8,0-1.6-0.1-2.4-0.2
								c-1,0.1-1.9,0-2.8-0.2c-0.2-0.1-0.4-0.1-0.5-0.1c-0.1,0-0.2,0-0.4,0c-0.5,0-1,0-1.5-0.1c-0.1,0-0.3-0.1-0.4-0.2
								c-0.1-0.1-0.2-0.3-0.1-0.4c0.1-0.1,0.2-0.2,0.2-0.3c0-0.1,0-0.1,0-0.2c0-0.2,0-0.4,0.1-0.6c0.1-0.6,0.2-1.1,0.5-1.6
								c0.4-0.4,0.9-0.7,1.5-0.7c0.5-0.1,0.9-0.1,1.4,0c0.5,0.1,1,0.3,1.5,0.5c0.6,0.2,1.2,0.2,1.8,0.2c0.4,0,0.3,0,0.4,0.4
								C103.7,381.1,103.9,381.3,104.1,381.5z"/>
							<path id="Path_2631" fill="#FCA286" d="M130.6,322.8c0-2.2-1.8-4.1-4.1-4.1c-2.2,0-4.1,1.8-4.1,4.1c0,0.6,0.1,1.2,0.4,1.8
								c0,0.1-0.1,0.1-0.1,0.2c-0.3,0.6-1,1.1-1.7,1.2l2.6,1.7c0.7,0.5,1.5,0.9,2.4,1.2c-0.3-0.1,0.6-1.5,0.7-1.6
								c0.1-0.1,0.3-0.3,0.4-0.4C129.1,326.5,130.6,324.8,130.6,322.8z"/>
							<path id="Path_2632" fill="#433DD9" d="M97,380c1.3,1,3,1.6,4.6,1.6c0.7,0,1.4-0.1,2-0.4c0-0.2,0.1-0.5,0.1-0.7
								c0.7-0.2,1.3-0.7,1.6-1.4c0.3-0.7,0.6-1.4,0.8-2.1c0.4-1,1-2.1,1.6-3c0.5-0.9,1.1-1.8,1.7-2.6c0.4-0.6,0.8-1.1,1.2-1.6
								c1.1-1.6,1.9-3.3,2.4-5.2c0.1-0.4,0.2-0.7,0.3-1.1c0.3-0.6,0.6-1.1,1-1.6c0.4-0.6,0.6-1.2,0.7-1.9c0.1-0.4,0.2-0.8,0.6-0.8
								l0,0c0.7,1.6,1.7,3.1,2.8,4.4c0.2,0.2,0.4,0.4,0.5,0.6c0.1,0.2,0.2,0.4,0.3,0.6c0.2,0.4,0.4,0.8,0.7,1.1
								c0.3,0.3,0.6,0.5,1,0.5c-0.3,1.3-0.1,2.7,0.5,4c0.2,0.4,0.4,0.7,0.5,1.1c0.7,1.5,0.5,3.3,0.6,5c0,0.4,0,0.7,0.1,1
								c0.3,0.7,0.4,1.4,0.4,2.1c1.8,0.6,3.7,0.7,5.6,0.3c0.4,0,0.7-0.1,1-0.3c0.3-0.2,0.5-0.4,0.7-0.7c0.1-0.1,0.1-0.2,0.2-0.3
								c0.1-0.3-0.3-0.6-0.4-0.8c-0.2-0.3-0.2-0.7,0-1c-0.1-1.8-0.6-3.6-0.7-5.5c0-0.7,0-1.5-0.1-2.2s-0.1-1.4-0.2-2.2
								c-0.3-1.6-0.5-3.3-0.6-4.9c0-0.5-0.1-1-0.3-1.5c-0.2-0.3-0.4-0.7-0.7-1c-1-1-1.7-2.3-2.2-3.6c-0.2-0.7-0.5-1.4-0.9-2
								c-0.2-0.4-0.4-0.7-0.8-1c-0.2-0.1-0.3-0.3-0.5-0.4c-0.2-0.3-0.3-0.7-0.4-1.1c-0.1-0.2-0.2-0.4-0.2-0.5c0-0.2-0.1-0.4-0.1-0.6
								c-0.1-0.7-0.3-1.3-0.6-2c0.6-0.4,1.2-0.9,1.7-1.5c0.2-0.2,0.3-0.4,0.4-0.6c0.2-0.6,0.4-1.2,0.5-1.8c0.3-1.5,1.1-2.9,1.2-4.4
								c0-0.5,0-0.9,0.2-1.4c0.1-0.2,0.2-0.4,0.3-0.5c0.1-0.2,0.2-0.4,0.2-0.5c0-0.4,0-0.8,0-1.3c0.1-0.4,0.2-0.7,0.3-1.1
								c0.1-0.5,0.1-1,0-1.4c-0.1-0.6-0.1-1.1-0.1-1.7c0.2-1.9-0.5-3.7-1.8-5l0,0c-0.3-0.3-0.6-0.5-0.8-0.8
								c-0.3-0.4-0.6-0.9-0.9-1.3c-0.2-0.2-0.3-0.3-0.5-0.5c-0.1-0.2-0.3-0.4-0.5-0.5c-0.2-0.2-0.4-0.2-0.6-0.2
								c0,0.2-0.1,0.4-0.2,0.6c-0.3,0-0.6,0.1-0.8,0.1c-0.1,0-0.3,0-0.4,0.1c-0.3,0.1-0.5,0.3-0.7,0.5c-0.6,0.4-1.3,0.6-1.9,1
								c-0.8,0.7-1.4,1.6-1.8,2.6c-0.7,1.2-1.8,2.3-2.2,3.6l-0.7,1.8c-0.4,1.2-0.9,2.3-1.4,3.5c-0.8,1.5-1.9,2.9-2.6,4.6
								c-0.1,0.2-0.2,0.3-0.3,0.4c-0.9,1.2-1.7,2.6-2.4,3.9c-0.4,0.7-0.7,1.5-0.8,2.3c-0.1,1.1,0.1,2.3,0.6,3.3
								c0.1,0.2,0.1,0.3,0.1,0.5c0,0.3,0,0.5-0.1,0.8c0,0.3,0,0.5,0.1,0.7c0.1,0.2,0.2,0.3,0.2,0.5c0,0.3,0,0.7-0.1,1
								c-0.2,1.1-0.2,2.2-0.1,3.3c0,0.6-0.4,1-0.8,1.4c-0.7,0.8-1.3,1.7-1.8,2.6c-0.3,0.5-0.5,0.9-0.7,1.4c-0.2,0.6-0.3,1.2-0.4,1.8
								c-0.4,1.8-1.5,3.5-1.8,5.3c-0.1,0.8-0.5,1.6-1.1,2.3c-0.2,0.2-0.3,0.4-0.5,0.6c-0.1,0.2-0.2,0.3-0.2,0.5
								c-0.1,0.4-0.2,0.9-0.2,1.3c0,0.2,0,0.4,0,0.6c-0.1,0.4-0.6,0.7-0.8,1.1s-0.1,0.9-0.1,1.4C97.5,379.4,97.3,379.8,97,380z"/>
							<path id="Path_2633" fill="#3F3D56" d="M128.3,320.3c0.2,0.1,0.5,0.2,0.7,0.3c0.3,0.1,0.6,0.1,0.9,0c0.1-0.1,0.2-0.1,0.3-0.2
								c0.1-0.3,0.2-0.6,0-0.9c-0.5-1.4-1.8-2.3-3.3-2.4c-1.4,0-2.8,0.6-3.9,1.6c-0.3,0.3-0.6,0.6-0.9,0.9c-0.6,0.9-0.9,1.9-0.9,2.9
								c0,0.4,0,0.9,0.1,1.3c0.1,0.4,0.4,0.8,0.7,1c0.4,0.2,0.9,0.2,1.2-0.1c0.4-0.2,0.7-0.5,1.1-0.8c0.2-0.2,0.3-0.3,0.5-0.4
								c0.2-0.1,0.4,0,0.6,0.1c0.2,0.2,0.1,0.6,0.3,0.8c0.2,0.2,0.5,0.3,0.8,0.3c0.3,0,0.6-0.1,0.8-0.3c0.1-0.2,0.2-0.5,0.1-0.8
								c-0.1-0.3-0.1-0.5-0.1-0.8c0.1-0.6,0.5-0.9,0.7-1.4c0.1-0.3-0.1-0.5-0.1-0.8C127.8,320.5,128,320.3,128.3,320.3
								C128.3,320.3,128.3,320.3,128.3,320.3z"/>
							<path id="Path_2634" opacity="0.1" enable-background="new    " d="M115.7,359.1L115.7,359.1L115.7,359.1
								c0.7,1.6,1.7,3.1,2.8,4.5c0.2,0.2,0.4,0.4,0.5,0.6c0.1,0.2,0.2,0.4,0.3,0.6c0.2,0.4,0.4,0.8,0.7,1.1l1,0.5l-3.2-16.9
								L115.7,359.1z"/>
							<path id="Path_2635" opacity="0.1" enable-background="new    " d="M119.4,332.5c0.2,0.4,0.3,0.7,0.6,1.1
								c0.6,1,1.2,1.9,1.8,2.9c0.5,0.8,0.9,1.6,1.4,2.4c0.2-0.1,0.3-0.3,0.4-0.4c0.2-0.4,0.3-0.8,0.4-1.2c0.2-0.3,0.4-0.6,0.6-0.9
								c0.2-0.4,0.4-0.9,0.5-1.3c0.1-0.6,0.3-1.1,0.5-1.6c0.8-1.7,0.9-3.6,0.1-5.4l0,0c-0.1-0.1-0.2-0.3-0.4-0.4
								c-0.4-0.3-0.9-0.5-1.5-0.4c-0.9,0.3-1.8,0.6-2.6,1.1c-0.4,0.2-0.8,0.5-1.2,0.8C119.3,330,119,331.3,119.4,332.5z"/>
							<g id="Group_2163" opacity="0.1">
								<path id="Path_2636" d="M129.2,320.6c-0.2-0.1-0.4-0.2-0.7-0.3c-0.2,0-0.5,0.1-0.5,0.4c0,0,0,0,0,0c0,0.3,0.2,0.4,0.1,0.8
									c-0.2,0.5-0.6,0.9-0.7,1.4c0,0.3,0,0.6,0.1,0.8c0.1,0.3,0.1,0.6-0.1,0.8c-0.5,0.4-1.1,0.4-1.6,0c-0.1-0.1-0.1-0.3-0.2-0.4
									c0.2,0.1,0.5,0.2,0.7,0.1c0.3,0,0.6-0.1,0.8-0.3c0.1-0.2,0.2-0.5,0.1-0.8c-0.1-0.3-0.1-0.5-0.1-0.8c0.1-0.6,0.5-0.9,0.7-1.4
									c0.1-0.3-0.1-0.5-0.1-0.8c0-0.2,0.3-0.4,0.5-0.4c0,0,0,0,0,0c0.2,0.1,0.5,0.2,0.7,0.3c0.3,0.1,0.7,0.1,1-0.1
									c0.1,0,0.2-0.1,0.3-0.2"/>
								<path id="Path_2637" d="M121.7,324.2c0.4,0.2,0.9,0.2,1.3-0.1c0.4-0.2,0.8-0.5,1.1-0.8c0.2-0.2,0.3-0.3,0.5-0.3
									c0.2-0.1,0.4,0,0.6,0.1c0.1,0.1,0.2,0.3,0.2,0.5c-0.1-0.1-0.3-0.1-0.5-0.1c-0.2,0.1-0.4,0.2-0.5,0.4
									c-0.3,0.3-0.7,0.6-1.1,0.8c-0.4,0.2-0.9,0.2-1.3,0.1c-0.4-0.2-0.6-0.5-0.7-0.9C121.4,323.9,121.5,324.1,121.7,324.2z"/>
							</g>
						</g>
						<g id="Group_2165">
							<path id="Path_2638" fill="#F7931E" d="M120.4,320.1c0,0.1,0,0.3,0,0.4s0,0.3,0,0.4v0c0.1,0.3,0.4,0.5,0.7,0.5l9.7,0.3
								c0.1-0.4,0.2-0.8,0.2-1.3c0-0.1,0-0.2,0-0.3c0-2.9-2.5-5.3-5.4-5.2c-2.7,0-5,2.2-5.2,4.9C120.4,319.9,120.4,320,120.4,320.1z
								"/>
							<path id="Path_2639" fill="#EA821B" d="M120.4,320.1c0,0,0,0.2,0,0.4s0,0.3,0,0.4v0c0.1,0.3,0.4,0.5,0.7,0.5l11,0.4
								c0.7-0.3,0.9-0.6,0.9-0.7c0.2-0.6-0.7-1.6-2.2-2.1c0.2,0.4,0.3,1,0.1,1.3c-0.3,0.4-1.2,0.1-1.5,0
								C125.7,318.9,120.5,319.7,120.4,320.1z"/>
						</g>
					</g>
					<g id="Group_2169">
						
							<linearGradient id="Path_2640_1_" gradientUnits="userSpaceOnUse" x1="-349.5785" y1="-3413.0942" x2="-348.5785" y2="-3413.0942" gradientTransform="matrix(0.212 0 0 -2.301025e-02 345.2736 238.1733)">
							<stop  offset="0" style="stop-color:#808080;stop-opacity:0.251"/>
							<stop  offset="0.54" style="stop-color:#808080;stop-opacity:0.122"/>
							<stop  offset="1" style="stop-color:#808080;stop-opacity:0.102"/>
						</linearGradient>
						<path id="Path_2640" fill="url(#Path_2640_1_)" d="M271.2,316.7l0.2,0C271.3,316.7,271.2,316.7,271.2,316.7z"/>
						<path id="Path_2641" fill="#FCA286" d="M257.2,344.9c1,1.5,4.7,0.7,4.7,0.7l2.9-2.7l0.4-0.4l-0.6-1.4l-0.6,0.2
							C262.1,341.9,256.4,343.7,257.2,344.9z"/>
						<path id="Path_2642" fill="#6253FF" d="M273.8,326c1.6,0.7,2.5,2.3,2.5,4c-0.1,1.9-0.3,3.7-0.6,5.5c0,0,0.5,4.3-1.7,5.4
							s-4.3,2-4.3,2s-3.5,0.4-4,0.5s-1.8-2.2-1.5-2.6s3.5-1.2,3.9-1.8c0.4-0.4,0.8-0.8,1.4-1c0,0,1-0.6,1-1.1c0-0.4-0.1-0.8-0.3-1.2
							c-0.1-0.2-0.2-2.5-0.2-2.5S268.9,325.3,273.8,326z"/>
						<path id="Path_2643" opacity="0.1" enable-background="new    " d="M268.3,336.6c0,0,3.6,0.6,3.3,1.9
							C270.7,337.6,269.6,337,268.3,336.6z"/>
						<path id="Path_2644" opacity="0.1" enable-background="new    " d="M268.3,337.1c0,0,2,1.6,1.6,1.7S268.3,337.1,268.3,337.1z"
							/>
						<path id="Path_2645" opacity="0.1" enable-background="new    " d="M267.4,337.7c0,0,0.5,1.1,0.2,1S267.4,337.7,267.4,337.7z"
							/>
						<path id="Path_2646" opacity="0.1" enable-background="new    " d="M263.9,341.5l0.2-0.1c-0.1-0.1-0.1-0.3,0-0.5
							c0.3-0.4,3.5-1.2,3.9-1.8c0.4-0.4,0.8-0.8,1.4-1c0,0,1-0.6,1-1.1c0-0.4-0.1-0.8-0.3-1.2c-0.1-0.2-0.2-2.5-0.2-2.5
							s-1.1-8.1,3.8-7.4c1.6,0.7,2.5,2.3,2.5,4c-0.1,1.9-0.3,3.7-0.6,5.5c0,0,0.5,4.3-1.7,5.4s-4.3,2-4.3,2s-3.5,0.4-4,0.5
							c-0.2,0.1-0.5-0.2-0.8-0.7l-0.2,0.2l-2.9,2.7c0,0-3.7,0.8-4.7-0.7C256.3,343.8,262.1,342,263.9,341.5z"/>
						<path id="Path_2647" fill="#433DD9" d="M268.5,324.9l-1.6,1.9l0.2,1.9l1.9-3L268.5,324.9z"/>
						<path id="Path_2648" fill="#3F3D56" d="M265.5,378.1c0.9,0.2,1.8,0.2,2.7,0l0.8,0c1-0.1,2.7-0.2,3.4-0.2
							c0.9-0.1,0.7-0.4,0.7-0.4v-2.2l-4.3-1.1c-0.8,0.2-1.5,0.6-2.2,1.1c-0.4,0.5-0.7,0.1-1.5,0.3c0,0-0.1,0-0.1,0
							c-0.8,0.2-1.2,0.2-1.4,0.9c0,0.1-0.1,0.3-0.1,0.4C263.2,377.7,264.7,377.7,265.5,378.1z"/>
						<path id="Path_2649" opacity="0.1" enable-background="new    " d="M263.6,376.3c0.2,0.1,0.3,0.2,0.5,0.2
							c0.6,0.3,1.1,0.6,1.7,0.8c0.6,0.3,1.2,0.4,1.8,0.4c0.3-0.1,0.6-0.1,1,0c0.2,0.1,0.4,0.2,0.5,0.3c1-0.1,2.7-0.2,3.4-0.2
							c0.9-0.1,0.7-0.4,0.7-0.4v-0.3c0,0-0.1,0-0.1,0c-0.2,0-0.4,0-0.6,0.1c-0.4,0.1-0.9,0.2-1.3,0.4c-0.1-0.3-0.3-0.5-0.5-0.7
							c-0.3-0.1-0.5-0.2-0.8-0.2c-0.7,0-1.3,0.3-2,0.4c-0.2,0-0.4,0-0.6-0.1c-0.1,0-0.2-0.1-0.3-0.2c-0.1-0.1-0.3-0.1-0.5-0.2
							c-0.5-0.1-0.9-0.3-1.3-0.4c-0.1,0-0.3-0.1-0.3-0.3c0-0.2,0.3-0.2,0.4-0.4c0-0.1,0-0.1,0-0.2c0,0-0.1,0-0.1,0
							C264.2,375.6,263.8,375.7,263.6,376.3z"/>
						<path id="Path_2650" fill="#3F3D56" d="M266.4,382.9c1,0.2,2.1,0.2,3.2,0l0.9-0.1c1.2-0.1,3.2-0.2,4-0.3
							c1-0.1,0.8-0.5,0.8-0.5v-2.6l-5.1-1.3c-0.9,0.3-1.8,0.7-2.6,1.3c-0.5,0.6-0.8,0.1-1.8,0.3c0,0-0.1,0-0.1,0
							c-0.9,0.2-1.4,0.3-1.6,1c-0.1,0.2-0.1,0.3-0.1,0.5C263.7,382.4,265.4,382.4,266.4,382.9z"/>
						<path id="Path_2651" opacity="0.1" enable-background="new    " d="M264.1,380.8c0.2,0.1,0.4,0.2,0.6,0.3c0.7,0.3,1.3,0.7,2,1
							c0.7,0.3,1.4,0.5,2.1,0.4c0.4-0.1,0.8-0.1,1.1,0c0.2,0.1,0.4,0.2,0.6,0.4c1.2-0.1,3.2-0.2,4-0.3c1-0.1,0.8-0.5,0.8-0.5v-0.3
							c0,0-0.1,0-0.1,0c-0.3,0-0.5,0-0.7,0.1l-1.6,0.4c-0.1-0.3-0.3-0.6-0.6-0.8c-0.3-0.2-0.6-0.2-1-0.2c-0.8,0-1.6,0.4-2.4,0.4
							c-0.2,0-0.5,0-0.7-0.1c-0.1-0.1-0.2-0.1-0.3-0.2c-0.2-0.1-0.4-0.1-0.5-0.2c-0.5-0.1-1.1-0.3-1.6-0.5c-0.1-0.1-0.3-0.2-0.3-0.3
							c0-0.2,0.3-0.2,0.4-0.4c0-0.1,0-0.1,0-0.2c0,0-0.1,0-0.1,0C264.9,380,264.4,380.1,264.1,380.8z"/>
						<path id="Path_2652" fill="#444053" d="M268.6,365.1l0.3,6.5c0,0,0.4,1.3,0.2,1.7s-0.6,0.8-0.5,1s1.8,2.6,2.3,1.7
							s1.1-4.9,1.1-4.9l-0.5-5L268.6,365.1z"/>
						<path id="Path_2653" fill="#444053" d="M267.4,349l-0.8,1v8.9c-0.1,0.9-0.1,1.9,0,2.9c0.4,0.5,0.8,1,1.4,1.5l1-4.9l-0.2-5.2
							L267.4,349z"/>
						<path id="Path_2654" fill="#FCA286" d="M269.1,326.7c0,0-0.1-0.3-0.3-0.7l-0.1-0.2c-0.1-0.2-0.2-0.5-0.4-0.8
							c-0.1-0.2-0.2-0.4-0.3-0.6h0c-0.3,0-0.6-0.1-0.9-0.2c-0.9-0.2-1.8-0.8-2.3-1.6c-0.2-0.3-0.3-0.6-0.4-0.9
							c-0.2-0.8-0.8-2-0.5-2.8c0.5-0.9,1.2-1.5,2.2-1.9c0.6-0.3,1.2-0.4,1.8-0.4c0.9,0.1,1.8,0.6,2.3,1.3c0.5,0.7,0.9,1.6,1,2.5
							c0,0.3,0.1,0.5,0.1,0.8c0.1,0.3,0.3,0.7,0.4,1l0,0.1c0.3,0.6,0.6,1,0.8,1.1C273.2,323.6,269.1,326.7,269.1,326.7z"/>
						<path id="Path_2655" fill="#6253FF" d="M268.6,365.1l0.3,6.5c0,0,0.4,1.3,0.2,1.7s-0.6,0.8-0.5,1s1.8,2.6,2.3,1.7
							s1.1-4.9,1.1-4.9l-0.5-5L268.6,365.1z"/>
						<path id="Path_2656" fill="#6253FF" d="M267.4,349l-0.8,1v8.9c-0.1,0.9-0.1,1.9,0,2.9c0.4,0.5,0.8,1,1.4,1.5l1-4.9l-0.2-5.2
							L267.4,349z"/>
						<path id="Path_2657" fill="#433DD9" d="M266.7,345.2v4.8l0.9,3.7c0,0,0.3,9,0,10.1c-0.1,0.8,0.2,1.6,0.8,2.1
							c0,0,0.6,0.1,0.6,0.5c0.2,0.7,0.6,1.3,1,1.9l0,2.7c0,0-0.4,5,0.2,6s-0.2,1.1-0.2,1.1c0.9,2.8,5,2.2,5.3,1.9s0-6.4,0-6.4
							s-0.9-9.3-1.6-9.7s0-0.9-0.3-1.5c-0.1-0.8,0-1.6,0.2-2.3c0.1-1,0.3-2,0.7-2.9c0.4-1.2,0.5-2.4,0.4-3.6c0,0,1.4-1.9,1.9-2.7
							c0.5-1.3,0.7-2.8,0.6-4.2c-0.2-1.1-0.5-2.2-0.9-3.3c-0.2-0.4-0.3-0.7-0.3-0.7l-0.1,0l-5.6,1.5L266.7,345.2z"/>
						<path id="Path_2658" opacity="0.1" enable-background="new    " d="M267.1,328.5l0,0.1l1.7-2.7c0.2,0.4,0.3,0.7,0.3,0.7
							s4.1-3.1,3.4-3.3c-0.2-0.1-0.5-0.5-0.8-1.1l0-0.1c-0.7,1.3-1.7,2.4-2.8,3.4c-0.1,0.1-0.2,0.1-0.2,0.2l-0.1,0.1l-0.1,0.1
							C267.9,326.7,267.4,327.6,267.1,328.5z"/>
						<path id="Path_2659" fill="#433DD9" d="M265.9,337.6l0.2,6l0,1.1c0,0,2.2-0.2,4.3-0.4c1.2-0.1,2.3-0.3,3.5-0.5
							c0.5-0.2,1-0.3,1.5-0.3c0.4-0.1,0.7-0.1,0.7-0.1c0.1,0,0.2,0,0.3,0.1c0.5,0.1,1.1,0.1,1.5-0.2c0.5-0.5-0.8-2.1-1.2-2.5
							l-0.1-0.1l0.1-1.2l0.3-3.1c0.1-0.9,0.3-1.8,0.5-2.7c0.1-0.3,0.1-0.5,0.2-0.8c0.1-0.9,0.1-1.8-0.2-2.6
							c-0.1-0.4-0.2-0.7-0.2-1.1c-0.1-1-3-4.6-3.7-5c-0.3-0.2-0.6-0.4-0.7-0.7c-0.1-0.1-0.1-0.2-0.1-0.3c-0.3-1.3-1.1-0.8-1.1-0.8
							c-0.2,1-3.1,3.8-3.1,3.8l-0.1,0.1c-0.3,0.3-1.6,1.7-1.5,2.9c0,0.4-0.1,0.9-0.2,1.3c-0.6,1.9-0.9,3.8-1,5.8L265.9,337.6z"/>
						<path id="Path_2660" opacity="0.1" enable-background="new    " d="M270,330.5c0,0,0.7,1.7,1.3,2S269.7,333.1,270,330.5z"/>
						<path id="Path_2661" opacity="0.1" enable-background="new    " d="M269.5,333.7c0,0,1.6,0.2,1.6,0.5S269.5,333.7,269.5,333.7
							z"/>
						<path id="Path_2662" opacity="0.1" enable-background="new    " d="M268.7,326.4l2,0.9l2.4-3.6c-0.1-0.1-0.1-0.2-0.1-0.3
							c-0.3-1.3-1.1-0.8-1.1-0.8C271.7,323.6,268.8,326.3,268.7,326.4L268.7,326.4z"/>
						<path id="Path_2663" fill="#333333" d="M271,319.2c0.1,0.4,0.3,0.8,0.4,1.1c0.1,0.6-0.1,0.8,0.1,1.2c0.1,0.1,0.2,0.2,0.2,0.3
							c0.1,0.2-0.1,0.4-0.1,0.7s0.3,0.4,0.3,0.6c0,0.1-0.1,0.2-0.2,0.2c-0.2,0.1-0.3,0.1-0.5,0.1c-0.3,0-0.5-0.3-0.8-0.3
							c-0.2,0-0.5,0.1-0.7,0.1c0,0-0.1,0-0.1,0c0,0,0,0,0-0.1c-0.2-0.7-0.3-1.4-0.5-2.1c0-0.2-0.1-0.4-0.2-0.6
							c-0.1-0.2-0.2-0.3-0.4-0.4c-0.3-0.1-0.6,0-0.8,0.3c-0.2,0.2-0.3,0.5-0.3,0.8c0,0.3-0.1,0.6-0.2,0.8c0,0.1-0.1,0.2-0.2,0.2
							c-0.2,0.1-0.4,0-0.5-0.1c-0.1-0.1-0.2-0.3-0.2-0.5c0-0.2-0.1-0.3-0.2-0.5c-0.2-0.2-0.5-0.4-0.7-0.4c-0.3,0-0.6-0.1-0.8-0.3
							c-0.2-0.2-0.3-0.3-0.5-0.6c-0.2-0.3-0.3-0.6-0.3-0.9c0-0.3,0.2-0.6,0.4-0.9c0.4-0.5,0.9-0.9,1.5-1.1c0.3-0.1,0.6-0.2,1-0.2
							c0.8-0.3,1.7-0.3,2.4,0c0.7,0.4,1.2,1,1.5,1.7C270.8,318.6,270.8,318.6,271,319.2z"/>
						<g id="Group_2167" opacity="0.1">
							<path id="Path_2664" d="M272.2,320.6c0-0.1,0-0.3,0.1-0.4c0,0,0,0,0,0C272.3,320.3,272.3,320.5,272.2,320.6
								C272.2,320.6,272.2,320.6,272.2,320.6z"/>
							<path id="Path_2665" d="M271.9,318.9c0,0.1,0,0.3,0,0.4C271.9,319.2,271.9,319,271.9,318.9z"/>
						</g>
						<path id="Path_2666" opacity="0.1" enable-background="new    " d="M272.7,362.5c0,0-1.7,1.7-2.5,1.5
							C270.2,364,272.4,363.9,272.7,362.5z"/>
						<path id="Path_2667" opacity="0.1" enable-background="new    " d="M273.1,363.3c0,0-0.2,0.9-0.6,0.8S273.1,363.3,273.1,363.3
							z"/>
						<path id="Path_2668" fill="#6253FF" d="M273.4,328.8c1.5,0.8,2.4,2.4,2.3,4.1c-0.2,1.8-0.4,3.7-0.8,5.5c0,0,0.4,4.3-1.9,5.4
							s-4.4,1.9-4.4,1.9s-3.5,0.2-4,0.4s-1.7-2.3-1.4-2.7s3.5-1,4-1.6c0.4-0.4,0.9-0.8,1.4-0.9c0,0,1-0.6,1.1-1.1
							c0-0.4,0-0.8-0.2-1.2c-0.1-0.2-0.1-2.5-0.1-2.5S268.5,327.9,273.4,328.8z"/>
						<g id="Group_2168">
							<path id="Path_2669" fill="#F7931E" d="M271.5,317.8c0,0.1,0,0.2,0,0.3s0,0.2,0,0.4l0,0c-0.1,0.3-0.3,0.4-0.5,0.5l-8.1,1.3
								c-0.1-0.3-0.2-0.7-0.3-1c0-0.1,0-0.1,0-0.2c-0.2-2.5,1.6-4.7,4-4.9c2.3-0.2,4.3,1.3,4.8,3.5
								C271.5,317.6,271.5,317.7,271.5,317.8z"/>
							<path id="Path_2670" fill="#EA821B" d="M271.5,317.8c0,0,0,0.2,0,0.3s0,0.2,0,0.4l0,0c-0.1,0.3-0.3,0.4-0.5,0.5l-9.2,1.5
								c-0.6-0.1-0.8-0.4-0.8-0.5c-0.2-0.5,0.4-1.4,1.6-2c-0.1,0.4-0.2,0.9,0.1,1.1c0.3,0.3,1-0.1,1.2-0.2
								C267,317.4,271.4,317.5,271.5,317.8z"/>
						</g>
					</g>
					<g id="Group_2171">
						<path id="Path_2671" fill="#363A49" d="M260.9,344.6v5.1c0,5-4.8,9.1-10.8,9.1h-49.3v9.4h-1.6c0.1-0.3,0.2-0.6,0.1-0.9
							c-0.3-0.9-1.3-1.5-2.2-1.3c-0.9,0.1-1.6,0.8-1.5,1.7c0,0,0,0.1,0,0.1c0,0.1,0.1,0.2,0.1,0.3h-2.5v-9.4h-51.9
							c-5.9,0-10.8-4.1-10.8-9.1h7.8c0.1,1.5,1.4,2.6,2.9,2.5h108.8c1.5,0.1,2.8-1,2.9-2.5v-5.1H260.9z"/>
						<rect id="Rectangle_211" x="225.7" y="350.8" fill="#51586D" width="2.8" height="9.2"/>
						<rect id="Rectangle_212" x="251.7" y="345.3" fill="#51586D" width="10.9" height="2.4"/>
						<rect id="Rectangle_213" x="192.1" y="362.8" fill="#51586D" width="10.9" height="2.4"/>
						<rect id="Rectangle_214" x="159.7" y="350.7" fill="#51586D" width="2.4" height="10.9"/>
						<g id="Group_2170">
							<path id="Path_2672" fill="#363A49" stroke="#363A49" stroke-width="1.49" stroke-miterlimit="10" d="M200.7,371.4
								c-0.1,0-0.1,0-0.2,0c0.2,0.2,0.3,0.5,0.4,0.7c0.1,1-0.5,1.9-1.5,2.1c0,0-0.1,0-0.1,0c-0.8,0.2-1.7-0.2-2.2-0.8
								c-0.7,1-2.2,1.2-3.2,0.5c-0.4-0.3-0.6-0.6-0.8-1c-0.1-0.6,0.1-1.3,0.7-1.7c-0.7-0.2-1.2-0.7-1.4-1.3c-0.1-1,0.5-1.9,1.5-2.1
								c0,0,0.1,0,0.1,0l0,0c0.4-0.1,0.8,0,1.2,0.1c0-1,0.7-1.8,1.7-1.9c1.1-0.2,2.1,0.4,2.5,1.4c0,0.2,0.1,0.4,0,0.6
								c0.1,0,0.3-0.1,0.4-0.1c0.1,0,0.1,0,0.2,0c1-0.2,2,0.5,2.3,1.4c0.1,1-0.5,1.9-1.5,2.1C200.8,371.3,200.8,371.3,200.7,371.4z
								 M197.3,372.7c0.2,0.7,1,1.2,1.8,1c0.7-0.1,1.3-0.7,1.2-1.4c0,0,0-0.1,0-0.1c-0.2-0.7-1-1.2-1.8-1c-0.7,0.1-1.3,0.7-1.2,1.4
								C197.3,372.6,197.3,372.7,197.3,372.7z M198.4,370.7c0.1,0,0.1,0,0.2,0c-0.2-0.2-0.3-0.5-0.4-0.7c0-0.2,0-0.4,0-0.6
								c-0.1,0-0.3,0.1-0.4,0.1c-0.4,0.1-0.9,0-1.3-0.1c0,0.6-0.2,1.2-0.7,1.5c0.4,0.1,0.8,0.4,1.1,0.8
								C197.3,371.1,197.8,370.8,198.4,370.7L198.4,370.7z M193.6,372.8c0.2,0.7,1,1.2,1.8,1c0.7-0.1,1.3-0.7,1.2-1.4
								c0,0,0-0.1,0-0.1c-0.2-0.7-1-1.2-1.8-1c-0.7,0-1.3,0.7-1.2,1.4C193.6,372.7,193.6,372.7,193.6,372.8L193.6,372.8z
								 M192.9,369.7c0.2,0.7,1,1.2,1.8,1c0.7-0.1,1.3-0.7,1.2-1.4c0,0,0-0.1,0-0.1c-0.2-0.7-1-1.2-1.8-1
								C193.4,368.3,192.9,368.9,192.9,369.7C192.9,369.7,192.9,369.7,192.9,369.7L192.9,369.7z M198.9,367.5c-0.2-0.7-1-1.2-1.8-1
								c-0.7,0.1-1.3,0.7-1.2,1.4c0,0,0,0.1,0,0.1c0,0.1,0,0.2,0.1,0.2c0.3,0.6,1,0.9,1.7,0.8c0.5-0.1,0.9-0.3,1.1-0.8
								C198.9,368,199,367.7,198.9,367.5L198.9,367.5z M201.8,369.4c-0.2-0.7-1-1.2-1.8-1c-0.7,0.1-1.3,0.7-1.2,1.4c0,0,0,0.1,0,0.1
								c0.2,0.7,1,1.2,1.8,1c0.7-0.1,1.3-0.7,1.2-1.4C201.8,369.4,201.8,369.4,201.8,369.4L201.8,369.4z"/>
						</g>
						<ellipse id="Ellipse_93" fill="#51586D" cx="197.4" cy="370.5" rx="1.4" ry="1.2"/>
						<ellipse id="Ellipse_94" fill="#363A49" cx="197.4" cy="370.5" rx="0.6" ry="0.5"/>
					</g>
					<path id="Path_2673" fill="#FCA286" d="M255.8,347.4c1,1.5,4.7,0.9,4.7,0.9l3-2.6l0.4-0.3l-0.6-1.4c0,0-0.2,0-0.6,0.1
						C260.9,344.6,255,346.2,255.8,347.4z"/>
					<path id="Path_2674" fill="#FCA286" d="M133.7,347.4c0.3,0.4,0.7,0.7,1.2,0.9c0.5,0.1,0.9,0.1,1.4-0.1c0.3-0.2,0.7-0.2,1.1-0.1
						c0.2,0.1,0.4,0.3,0.5,0.6l0.6,1.2c0.1,0.2,0.2,0.4,0.2,0.6c0,0.1-0.1,0.3-0.2,0.4c-0.1,0.2-0.3,0.4-0.5,0.4s-0.4-0.2-0.6-0.4
						c-0.2-0.2-0.6-0.2-0.8-0.1c-0.1,0-0.2,0.1-0.2,0.2c-0.1,0.2,0.1,0.5,0.3,0.6s0.5,0.1,0.7,0.2c0.1,0,0.1,0.1,0.1,0.1
						c0,0,0,0,0,0l0,0c0,0.2-0.2,0.3-0.3,0.4c-0.2,0.1-0.3,0.1-0.5,0.1c-0.2,0-0.4,0-0.6-0.1c-0.4-0.2-0.7-0.5-1-0.8
						c-0.5-0.3-1-0.6-1.5-0.8c-0.6-0.2-1.1-0.4-1.6-0.8c-0.5-0.3-0.8-0.9-0.8-1.5c0-0.1,0-0.1,0-0.2c0,0,0.1-0.1,0.2-0.1
						C131.9,347.9,132.8,347.6,133.7,347.4L133.7,347.4z"/>
					<path id="Path_2675" fill="#6253FF" d="M123.8,327.5c0.5-0.1,1,0,1.4,0.4c0.4,0.3,0.7,0.8,0.9,1.3c0.2,0.5,0.3,0.9,0.4,1.4
						c0.1,0.5,0.1,1,0.1,1.4c0.1,0.8,0.4,1.7,0.7,2.5c0.1,0.5,0.4,1,0.6,1.5c0.3,0.4,0.6,0.8,0.8,1.3c0,0.2,0,0.3,0.1,0.5
						c0.2,0.5,0.5,0.9,0.8,1.3c0.9,1.2,1.1,2.8,1.8,4.1c0.3,0.6,0.7,1.1,1,1.6c0.3,0.5,0.5,1.1,0.8,1.6c0.3,0.5,0.7,1,1.2,1.3
						c-0.7,0.7-1.5,1.3-2.3,1.7c-0.9,0.4-1.9,0.4-2.8-0.2c-0.3-0.2-0.5-0.5-0.5-0.9c0-0.2,0-0.3,0-0.5c0-0.1-0.1-0.3-0.2-0.4
						c-2.7-3.4-5.1-7-7.3-10.8c-0.6-1-1.2-2-1.8-3c-0.2-0.3-0.4-0.7-0.6-1.1c-0.4-1.2,0-2.5,0.9-3.3c0.4-0.3,0.8-0.5,1.2-0.8
						C122,328.1,122.9,327.7,123.8,327.5z"/>
				</g>
			</g>
			<g id="Group_2174">
				<path id="Path_2676" fill="#333333" d="M675.6,440c-2.9,0-5.2,2.3-5.2,5.2v80.7H575v-80.7c0-2.9-2.3-5.2-5.2-5.2
					c-2.9,0-5.2,2.3-5.2,5.2V550c0,2.9,2.3,5.2,5.2,5.2c2.9,0,5.2-2.3,5.2-5.2v-13.6h95.3V550c0,2.9,2.3,5.2,5.2,5.2
					c2.9,0,5.2-2.3,5.2-5.2V445.2C680.8,442.3,678.5,440,675.6,440z"/>
				<path id="Rectangle_215" fill="#ED1C24" d="M558.9,451.5h124.5c3.2,0,5.9,2.6,5.9,5.9v34.4c0,3.2-2.6,5.9-5.9,5.9H558.9
					c-3.2,0-5.9-2.6-5.9-5.9v-34.4C553,454.1,555.6,451.5,558.9,451.5z"/>
				<path id="Path_2677" fill="#ED1C24" d="M603.6,451.5c-0.1,1.3-0.5,2.7-1,3.9l-19.7,42.2H561c-1,0-2-0.3-2.9-0.8l21.1-45.3
					L603.6,451.5z"/>
				<path id="Path_2678" fill="#ED1C24" d="M642.4,455.4l-19.7,42.2h-25.2c0.1-0.1,0.1-0.3,0.2-0.4l21.3-45.7h24.4
					C643.3,452.9,642.9,454.2,642.4,455.4z"/>
				<path id="Path_2679" fill="#ED1C24" d="M684.3,451.5c-0.1,1.3-0.5,2.7-1,3.9l-19.7,42.2h-25.2c0.1-0.1,0.1-0.3,0.2-0.4
					l21.3-45.7L684.3,451.5z"/>
				<path id="Path_2680" fill="#E6E6E6" d="M643.4,451.5c-0.1,1.3-0.5,2.7-1,3.9l-19.7,42.2h-25.2c0.1-0.1,0.1-0.3,0.2-0.4
					l21.3-45.7L643.4,451.5z"/>
				<path id="Path_2681" fill="#E6E6E6" d="M684.3,451.5c-0.1,1.3-0.5,2.7-1,3.9l-19.7,42.2h-25.2c0.1-0.1,0.1-0.3,0.2-0.4
					l21.3-45.7L684.3,451.5z"/>
				<path id="Path_2682" fill="#E6E6E6" d="M603.6,451.5c-0.1,1.3-0.5,2.7-1,3.9l-19.7,42.2H561c-1,0-2-0.3-2.9-0.8l21.1-45.3
					L603.6,451.5z"/>
			</g>
		</g>
	</g>
</g>
</svg>
