<?xml version="1.0" encoding="utf-8"?>
<!-- Generator: Adobe Illustrator 24.0.2, SVG Export Plug-In . SVG Version: 6.00 Build 0)  -->
<svg version="1.1" id="Layer_1" xmlns="http://www.w3.org/2000/svg" xmlns:xlink="http://www.w3.org/1999/xlink" x="0px" y="0px"
	 viewBox="0 0 800 600" enable-background="new 0 0 800 600" xml:space="preserve">
<g>
	<defs>
		<rect id="SVGID_1_" width="800" height="600"/>
	</defs>
	<clipPath id="SVGID_2_">
		<use xlink:href="#SVGID_1_"  overflow="visible"/>
	</clipPath>
	<g id="custom_4" clip-path="url(#SVGID_2_)">
		<g id="Group_2129" transform="translate(809.194 2)">
			<g id="Group_2124">
				<path id="Path_2572" opacity="0.51" fill="#EEEEFF" enable-background="new    " d="M-703,159.3
					c58.6-107.6,280-101.5,416.7-27.1s200,222,141.4,329.6s-216.9,134.5-353.6,60S-761.6,266.9-703,159.3z"/>
				<g id="Group_2123">
					<g>
						<defs>
							<path id="SVGID_3_" d="M-92.3,302.9c1.5,122.5-194.6,225.4-350.3,227.3s-283-95.9-284.5-218.4S-603.6,88.5-448,86.6
								S-93.8,180.4-92.3,302.9z"/>
						</defs>
						<clipPath id="SVGID_4_">
							<use xlink:href="#SVGID_3_"  overflow="visible"/>
						</clipPath>
						<g id="Group_2122" clip-path="url(#SVGID_4_)">
							<g id="Group_2121">
								<rect id="Rectangle_150" x="-796" y="357" fill="#BBBBF9" width="799" height="192"/>
								<rect id="Rectangle_151" x="-797" y="-52" fill="#EEEEFF" width="801" height="409"/>
								<path id="Path_2573" fill="#3FC3D1" d="M-144.1,358c-1.6-4-3.3-6.9-4.6-6.6c-1.3,0.3-1.7,3-1.6,6.6H-144.1z"/>
								<path id="Path_2574" fill="#3FC3D1" d="M-154.1,358c-2.3-1.5-4.8-3.1-7-3.3c-2.2-0.2-2.7,1.5-3,3.3H-154.1z"/>
								<path id="Path_2575" fill="#6CE3F0" d="M-492.7,358c-1.5-1.8-3.6-2.9-5.9-3.2c-2.2-0.2-3.7,1.5-3.1,3.2H-492.7z"/>
								<path id="Path_2576" fill="#8380F9" d="M-444.5,323.4c-14.7,6.8-29.2,3-47.5-9.2c-54.1-36.1-92.4-31.2-142.8,1.4
									c-10.7,6.9-28.1,18.5-57.1,10.3c-42.5-12-86.2,0.1-104.5,33.5h482.2C-328,333.3-379.3,293.3-444.5,323.4z"/>
								<path id="Path_2577" fill="#6253FF" d="M-743.7,358.4c2.1-3.4,12.5-10.2,25.7-8.4c14.4,2,17.6-2.4,23.5-4.2
									c10.9-3.3,19.3,7.6,23,0.7c4.8-8.9,12.6-13.3,36.4-4.5c5.6,2.1,5.3-2.5,7.8-5.2c5-5.2,11,4.4,13.8,3.9
									c3.2-0.6,2.2-4.7,4-8.2c3.8-7.3,10.5-0.4,15-1c4.6-0.6,7-8.7,12.1-7c11,3.5,7.6,23.9,6.9,28.5c3.1-3.9,8.6-6.7,8.6,5.6
									H-743.7z"/>
								<path id="Path_2578" fill="#6253FF" d="M-209.7,358.4c2.1-3.4,12.5-10.2,25.7-8.4c14.4,2,17.6-2.4,23.5-4.2
									c10.9-3.3,19.3,7.6,23.1,0.7c4.8-8.9,12.6-13.3,36.4-4.5c5.6,2.1,5.3-2.5,7.8-5.2c5-5.2,11,4.4,13.8,3.9
									c3.2-0.6,2.2-4.7,4-8.2c3.8-7.3,10.5-0.4,15-1c4.6-0.6,7-8.7,12.1-7c11,3.5,7.6,23.9,6.9,28.5c3.1-3.9,8.6-6.7,8.6,5.6
									H-209.7z"/>
								<path id="Path_2579" fill="#433DD9" d="M-615.6,352.8c0,0,4.1-11.7-0.1-10.5c-4.1,1.2-5.9,10.3-5.9,10.3s-2.2-14.9-7.1-15.8
									c-3.2-0.6-0.7,14.1-0.7,14.1c-1.3-1-2.9-1.6-4.5-1.6c-2.2,0-1.7,2.9-1.7,2.9s-4.7-9.6-7.1-9.5c-3.1,0.2,0.2,10.2,0.2,10.2
									s-6-6.6-8.4-6.4c-3.3,0.2,2.5,9.6,2.5,9.6c-2.9-1.6-6.2-2.4-9.6-2.2c-3.5,0.3-5,1.6-3.7,3.9c-1.3,0.6,0.2,0.9,3.7,1
									c3,0.1,6-0.1,8.9-0.5h0.4c-1,0.4-5.2,2.3-2.3,2.3c2.4,0,8.4-1.6,8.4-1.6s-3.3,2.5-0.2,2.6c2.4,0,7.1-2.4,7.1-2.4
									s-0.5,0.7,1.7,0.7c1.5,0,3-0.1,4.5-0.4c0,0-2.5,3.7,0.7,3.6c2.9-0.1,5.5-1.6,7.1-4c1.5,1.6,3.7,2.5,5.9,2.6
									c4.3,0.3,0.1-2.6,0.1-2.6s10.6,1.3,8.3-1.3C-604.9,347.5-615.6,352.8-615.6,352.8z"/>
								<path id="Path_2580" fill="#433DD9" d="M-335.5,364.9c3.2-2.4,3.8-4.9-1-4.2c-2.8,0.4-5.6,1.1-8.3,2.1c0,0,4.6-5.5,0.3-5
									c-1.6,0.4-3.1,1.2-4.3,2.3c0,0,2-6.1-0.9-6.2c-2.3-0.1-5.8,5.9-5.8,5.9s1.1-2.7-1.6-2.6c-1.5,0.1-3,0.6-4.2,1.5
									c0,0,2.3-13.3-0.6-12.8c-3.4,0.5-5.9,14.4-5.9,14.4s-1.1-9.7-3.5-9.3c-2.5,0.4-3.6,9.9-3.6,9.9s-3.3-8-3.6,4h0
									c0,0,0,0.1,0,0.1c0,0.2,0,0.3,0,0.5h0.1c0.6,2.6,3.6,0.6,3.6,0.6s1.1,2.6,3.6,2.7c2.3,0.1,3.5-2.6,3.5-2.6s2.6,3.8,5.9,4
									c3,0.1,0.6-3.6,0.6-3.6c1.4,0.3,2.8,0.4,4.2,0.4c2.8,0,1.6-0.7,1.6-0.7s3.5,1.7,5.8,1.6c2.9,0,0.9-1.7,0.9-1.7
									c1.4,0.4,2.9,0.6,4.3,0.6c4.3,0.2-0.3-1.4-0.3-1.4s3.1,0.3,8.3,0.6C-331.7,366.2-332.3,365.5-335.5,364.9z"/>
								<path id="Path_2581" fill="#8380F9" d="M-638.7,354.2c0,0,4.1-11.7-0.1-10.5c-4.1,1.2-5.9,10.3-5.9,10.3s-2.2-14.9-7.1-15.8
									c-3.2-0.6-0.7,14.1-0.7,14.1c-1.3-1-2.9-1.6-4.5-1.6c-2.2,0-1.7,2.9-1.7,2.9s-4.7-9.6-7.1-9.5c-3.1,0.2,0.2,10.2,0.2,10.2
									s-6-6.6-8.4-6.4c-3.3,0.2,2.5,9.6,2.5,9.6c-2.9-1.6-6.2-2.4-9.6-2.2c-3.2,0.3-4.7,1.4-3.9,3.4c-0.4,0.2-0.3,0.4,0.3,0.5
									c0.1,0.2,0.2,0.3,0.3,0.5h11.2c-1.4,0.7-2.8,1.6-0.8,1.6c2.4,0,8.4-1.6,8.4-1.6s-3.3,2.5-0.2,2.6c2.4,0,7.1-2.4,7.1-2.4
									s-0.5,0.7,1.7,0.7c1.5,0,3-0.1,4.5-0.4c0,0-2.5,3.7,0.7,3.6c2.9-0.1,5.5-1.6,7.1-4c1.5,1.6,3.7,2.5,5.9,2.6
									c4.3,0.3,0.1-2.6,0.1-2.6s10.3,1.3,8.4-1.1C-628.4,349-638.7,354.2-638.7,354.2z"/>
								<path id="Path_2582" fill="#8380F9" d="M-312.7,358.4c0,0,4.1-11.7-0.1-10.5c-4.1,1.2-5.9,10.3-5.9,10.3s-2.2-14.9-7.1-15.8
									c-3.1-0.6-0.7,14.1-0.7,14.1c-1.3-1-2.9-1.6-4.5-1.6c-2.2,0-1.7,2.9-1.7,2.9s-4.7-9.6-7.1-9.5c-3.1,0.2,0.2,10.2,0.2,10.2
									s-6-6.6-8.4-6.4c-3.3,0.2,2.5,9.6,2.5,9.6c-2.9-1.6-6.2-2.4-9.6-2.2c-3.2,0.3-4.7,1.4-3.9,3.4c-0.4,0.2-0.3,0.4,0.3,0.5
									c0.1,0.2,0.2,0.3,0.3,0.5h11.2c-1.4,0.7-2.8,1.6-0.8,1.6c2.4,0,8.4-1.6,8.4-1.6s-3.3,2.5-0.2,2.6c2.4,0,7.1-2.4,7.1-2.4
									s-0.5,0.7,1.7,0.7c1.5,0,3-0.1,4.5-0.4c0,0-2.5,3.7,0.7,3.6c2.9-0.1,5.5-1.6,7.1-4c1.5,1.6,3.7,2.5,5.9,2.6
									c4.3,0.3,0.1-2.6,0.1-2.6s10.3,1.3,8.4-1.1C-302.4,353.3-312.7,358.4-312.7,358.4z"/>
								<path id="Path_2583" fill="#433DD9" d="M-81.6,354.8c0,0,4.1-11.7-0.1-10.5c-4.1,1.2-5.9,10.3-5.9,10.3s-2.2-14.9-7.1-15.8
									c-3.2-0.6-0.7,14.1-0.7,14.1c-1.3-1-2.9-1.6-4.5-1.6c-2.2,0-1.7,2.9-1.7,2.9s-4.7-9.6-7.1-9.5c-3.1,0.2,0.2,10.2,0.2,10.2
									s-6-6.6-8.4-6.4c-3.3,0.2,2.5,9.6,2.5,9.6c-2.9-1.6-6.2-2.4-9.6-2.2c-3.5,0.3-5,1.6-3.7,3.9c-1.3,0.6,0.2,0.9,3.7,1
									c3,0.1,6-0.1,8.9-0.5h0.4c-1,0.4-5.2,2.3-2.3,2.3c2.4,0,8.4-1.6,8.4-1.6s-3.3,2.5-0.2,2.6c2.4,0,7.1-2.4,7.1-2.4
									s-0.5,0.7,1.7,0.7c1.5,0,3-0.1,4.5-0.4c0,0-2.5,3.7,0.7,3.6c2.9-0.1,5.5-1.6,7.1-4c1.5,1.6,3.7,2.5,5.9,2.6
									c4.3,0.3,0.1-2.6,0.1-2.6s10.6,1.3,8.3-1.3C-70.9,349.5-81.6,354.8-81.6,354.8z"/>
								<path id="Path_2584" fill="#8380F9" d="M-104.7,356.2c0,0,4.1-11.7-0.1-10.5c-4.1,1.2-5.9,10.3-5.9,10.3s-2.2-14.9-7.1-15.8
									c-3.2-0.6-0.7,14.1-0.7,14.1c-1.3-1-2.9-1.6-4.5-1.6c-2.2,0-1.7,2.9-1.7,2.9s-4.7-9.6-7.1-9.5c-3.1,0.2,0.2,10.2,0.2,10.2
									s-6-6.6-8.4-6.4c-3.3,0.2,2.5,9.6,2.5,9.6c-2.9-1.6-6.2-2.4-9.6-2.2c-3.2,0.3-4.7,1.4-3.9,3.4c-0.4,0.2-0.3,0.4,0.3,0.5
									c0.1,0.2,0.2,0.3,0.3,0.5h11.2c-1.4,0.7-2.8,1.6-0.8,1.6c2.4,0,8.4-1.6,8.4-1.6s-3.3,2.5-0.2,2.6c2.4,0,7.1-2.4,7.1-2.4
									s-0.5,0.7,1.7,0.7c1.5,0,3-0.1,4.5-0.4c0,0-2.5,3.7,0.7,3.6c2.9-0.1,5.5-1.6,7.1-4c1.5,1.6,3.7,2.5,5.9,2.6
									c4.3,0.3,0.1-2.6,0.1-2.6s10.3,1.3,8.4-1.1C-94.4,351-104.7,356.2-104.7,356.2z"/>
							</g>
						</g>
					</g>
				</g>
			</g>
			<g id="Group_2128">
				<g id="Group_2126">
					<path id="Path_2586" fill="#FCA286" d="M-318.4,330.5c-0.3,2.1-0.6,4.3-1.9,5.9c-1.3,1.4-3.1,2.2-5,2.4
						c-1.5,0.3-3.3,0.4-4.1,1.6c-0.4,0.9-0.6,2-0.3,3l0.6,5.5c0,0.9,0.3,1.7,0.8,2.4c0.4,0.4,0.9,0.7,1.5,1c0.9,0.4,2,0.9,2.8,0.4
						s0.8-1.7,1.1-2.6c0.4-1.1,1.5-1.9,2.7-1.9c0.5,0,1,0.1,1.4,0.4c0.8,0.8,0.9,2,0.2,2.9c-0.6,0.9-1.5,1.4-2,2.3
						c-0.2,0.2-0.2,0.5,0,0.7c0,0,0,0,0,0l0,0c0.5,0.6,1.3,0.9,2.1,0.8c0.7-0.1,1.4-0.4,2.1-0.7c0.8-0.4,1.5-0.9,2.1-1.5
						c1.1-1.3,1.2-3.2,1.7-4.9c0.8-2.2,2-4.2,3.5-6c1.5-1.8,2.7-3.8,3.6-6c0.9-2.3,0.6-4.9-0.6-7c-0.1-0.2-0.3-0.4-0.5-0.5
						c-0.3-0.1-0.5-0.1-0.8,0c-3.9,1-7.2,0.2-10.7,1.9L-318.4,330.5z"/>
					<path id="Path_2587" opacity="0.1" enable-background="new    " d="M-318.6,330.6c-0.2,2.1-0.5,4.3-1.8,5.9
						c-1.3,1.4-3.1,2.3-5,2.5c-1.5,0.3-3.3,0.4-4.1,1.7c-0.4,0.9-0.5,2-0.3,3l0.7,5.5c0,0.9,0.3,1.7,0.8,2.4
						c0.4,0.4,0.9,0.7,1.5,0.9c0.9,0.4,2,0.9,2.8,0.3s0.8-1.7,1.1-2.6c0.4-1.1,1.5-1.9,2.7-2c0.5-0.1,1,0.1,1.4,0.3
						c0.8,0.7,0.9,2,0.3,2.9c-0.6,0.9-1.4,1.5-2,2.3c-0.2,0.2-0.2,0.5,0,0.7c0,0,0,0,0,0l0,0c0.6,0.6,1.3,0.8,2.1,0.7
						c0.7-0.1,1.4-0.4,2.1-0.8c0.8-0.4,1.5-0.9,2.1-1.6c1.1-1.3,1.2-3.2,1.6-4.9c0.7-2.2,1.9-4.3,3.4-6.1c1.5-1.8,2.6-3.8,3.5-6
						c0.8-2.3,0.6-4.9-0.7-7c-0.1-0.2-0.3-0.4-0.5-0.5c-0.3-0.1-0.5-0.1-0.8,0c-3.9,1.1-7.2,0.3-10.7,2.1L-318.6,330.6z"/>
					<g id="Group_2125">
						<path id="Path_2588" fill="#51586D" d="M-462,434c-4.9-0.7-8.7-3.3-11.6-7.7c-8.8-13.4-17.8-26.6-26.7-39.9
							c-0.7-1-1.2-2.1-1.6-3.2c0.3-0.7,1-0.7,1.6-0.8c44.4-8.4,88.9-16.9,133.3-25.3c0.9-0.2,1.8-0.3,2.7-0.2
							c0.4,2.3-0.2,4.5-0.6,6.7c-0.5,2.7-1,5.3-1.6,8c-1,4.5-3.2,8.3-5.7,12c-0.5,0.4-1,0.7-1.5,1c-27.2,15.3-54.4,30.6-81.7,45.8
							C-457.4,431.9-459.7,433.1-462,434z"/>
						<path id="Path_2589" fill="#363A49" d="M-462,434c2.3-1,4.6-2.1,6.7-3.5c27.2-15.3,54.5-30.5,81.7-45.8c0.5-0.3,1-0.7,1.5-1
							c2.8-1.3,5.5-2.8,8.1-4.4c10-5.6,20-11.2,30-16.8c0.3-0.1,0.6-0.3,0.9-0.4c0.8,1.3,1.4,2.7,1.9,4.2
							c-5.6,3.2-11.1,6.3-16.7,9.5c-11.7,6.6-23.4,13.1-35.1,19.7c-0.9,0.3-1.5,1.3-1.3,2.2c0.2,4.4,0.3,8.8,0.5,13.1
							c0.2,6.2,0.4,12.3,0.6,18.5c0.2,4.4,0.4,8.8,0.5,13.1c0.1,2.5,0.3,4.9,0.2,7.4c-0.2,3.7-2.8,6.8-6.4,7.6
							c-6.1,1.2-12.2,2.2-18.3,3.5c-5,1-8.7-0.8-11.5-5.3c-4.3-7-8.7-14-13.1-21.1c-1.6-2.5-3.2-5.1-4.8-7.6
							c-0.5-0.8-0.9-0.9-1.8-0.4c-8.2,4.7-16.4,9.3-24.7,13.9c-3.1,1.8-6.3,3.5-9.4,5.3c-2.1,1.1-4.3,2.3-6.4,3.4
							c-0.5,0.2-0.8,0.8-0.6,1.4c0,0,0,0,0,0.1c0.3,1.1,0.5,2.2,0.5,3.3c0.2,6.8-4.1,13.1-10,14.7c-6.4,1.7-12.6-1.6-15.1-8.1
							c-2.4-6.4-0.3-13.5,5.2-17.6c5-3.7,11.9-3,16.1,1.5c0.4,0.4,0.7,1.2,1.4,0.8c2.2-1.4,4.6-2.3,6.6-3.9c1.5-0.6,3-1.3,4.4-2.3
							c2.4-1.3,4.8-2.7,7.3-4.1C-462.7,434.7-462.3,434.4-462,434z M-399.6,454.6c3.1-0.6,6.1-1.1,9.2-1.7c2.4-0.5,3.5-1.8,3.5-4.2
							c-0.1-3.3-0.3-6.6-0.4-9.9c-0.2-4.2-0.3-8.4-0.5-12.5c-0.2-5.3-0.4-10.6-0.5-15.9c-0.1-3.3-0.3-6.6-0.4-9.9c0-1.6,0-1.7-1.4-1
							c-5.9,3.3-11.9,6.7-17.8,10c-8.1,4.5-16.1,9-24.2,13.6c-0.7,0.4-1.1,0.7-0.5,1.6c6.1,9.7,12.1,19.4,18.2,29.1
							c1.1,2,3.4,3,5.7,2.5C-405.7,455.8-402.6,455.1-399.6,454.6z M-503.2,456.8c0.9,6.8,6.4,11.2,12.6,10.2
							c6.6-1.1,11.1-8.4,9.5-15.5c-0.2-0.7-0.3-1-1-0.5c-0.6,0.3-1,1.1-0.8,1.8c0.9,7.3-4.7,13.3-11.3,12c-4.5-0.9-7.8-5.9-7.2-10.9
							c0.7-5.5,4.9-9.5,9.6-9.3c2,0,4,0.8,5.5,2.1c0.5,0.5,1.4,0.6,1.9,0c0.1-0.1,0.2-0.2,0.2-0.3c0.5-0.7-0.4-1.1-0.8-1.4
							c-3.6-3.2-8.9-3.5-12.8-0.8C-501.7,447-503.9,451.9-503.2,456.8L-503.2,456.8z"/>
						<path id="Path_2590" fill="#363A49" d="M-364.3,357c-0.9-0.1-1.8,0-2.7,0.2c-44.4,8.4-88.9,16.8-133.3,25.3
							c-0.6,0.1-1.2,0.1-1.6,0.8c-1.1-0.4-2.1,0.2-3.2,0.3c-2.2,0.3-3.3-0.4-3.6-2.8c-0.2-1.2-0.3-2.3-0.5-3.5
							c-0.4-1.5,0.6-3.1,2.1-3.5c0.1,0,0.2,0,0.3-0.1c0.3-0.1,0.5-0.1,0.8-0.2l145.5-27.6c2.7-0.5,3.7,0.2,4,3.1
							c0.1,0.7,0.2,1.5,0.3,2.2c0.4,2.9-0.3,4-3,4.5C-360.8,356.1-362.6,356.5-364.3,357z"/>
						<path id="Path_2591" fill="#363A49" d="M-474.8,441.2c-2,1.7-4.4,2.6-6.6,3.9c-0.7,0.5-1-0.4-1.4-0.8
							c-4.2-4.6-11.2-5.2-16.1-1.5c-5.4,4.1-7.5,11.2-5.2,17.6c2.4,6.5,8.7,9.8,15.1,8.1c6-1.6,10.3-7.9,10-14.7
							c0-1.1-0.2-2.3-0.5-3.3c-0.2-0.5,0-1.2,0.5-1.4c0,0,0,0,0.1,0c2.1-1.1,4.3-2.3,6.4-3.4c2.3,6.3,1.9,13.2-1,19.3
							c-4.4,9.3-14.1,14.4-23.4,12.3c-9.4-2.1-15.9-10.8-16.1-21.4c-0.3-10.2,6.1-19.7,15.2-22.8
							C-489.1,430-479.5,433.4-474.8,441.2z"/>
						<path id="Path_2592" fill="#333333" d="M-331.3,366.3c-0.5-1.4-1.1-2.8-1.9-4.2c-0.2-0.6-0.4-1.2-0.6-1.8
							c-0.3-0.7,0-1.4,0.6-1.8c0.5-0.4,1.2-0.3,1.6,0.1c0,0.1,0.1,0.1,0.1,0.2c0.5,0.9,0.9,0.6,1.5,0.2c6.6-3.7,13.2-7.4,19.8-11.1
							c0.4-0.2,0.8-0.5,1.1-0.9c0.6-1.1,1.1-1.1,1.6,0c0.8,1.6,1.5,3.2,2.2,4.9c0.4,1,0.3,1.7-0.9,1.5c-0.4-0.1-0.7,0.2-1,0.4
							c-6.7,3.7-13.3,7.5-20,11.2c-0.5,0.3-1.1,0.4-0.7,1.4c0.3,0.7,0,1.5-0.7,1.8c0,0,0,0-0.1,0c-0.8,0.4-1.4,0-1.8-0.8
							C-330.9,367.1-330.9,366.6-331.3,366.3z"/>
					</g>
					<path id="Path_2593" fill="#6C63FF" d="M-270.8,252.5c-2-0.8-4.2-0.5-6,0.7c-1.7,1.3-3.1,2.9-4.1,4.9c-1,1.9-1.7,3.9-2.2,6
						c-0.5,2-0.7,4.1-1.2,6.1c-0.9,3.5-2.2,7-3.7,10.3c-0.8,2.1-1.9,4.1-3.2,5.9c-1.4,1.7-3.1,3-3.8,5c-0.2,0.7-0.3,1.4-0.5,2
						c-0.7,2.1-2.4,3.6-3.7,5.2c-3.9,4.7-5.5,11.4-9,16.5c-1.5,2.2-3.4,4.1-4.8,6.4c-1.4,2.1-2.4,4.4-3.7,6.5s-3.1,4-5.4,4.8
						c2.4,3.4,5.3,6.5,8.7,8.9c3.4,2.3,7.9,3.2,11.2,1.1c1.3-0.7,2.2-2,2.4-3.4c0-0.7,0-1.5,0.1-2.2c0.2-0.6,0.6-1.1,1.1-1.6
						c12.3-13.1,23.5-27.1,33.6-42c2.7-4,5.5-7.7,8.3-11.6c1-1.3,2-2.8,2.7-4.3c2-4.9,1.2-10.6-2.2-14.7c-1.4-1.5-2.9-2.9-4.5-4.1
						C-263.8,256.3-267.2,254.1-270.8,252.5z"/>
					<path id="Path_2594" fill="#3F3D56" d="M-299.4,468.7c-1,0.6-2.2,1-2.9,2c-0.2,0.3-0.4,0.7-0.6,1c-0.7,1-2.1,1-3.1,1.6
						c-0.8,0.4-1.5,1.2-2.4,1.5c-0.5,0.1-1.1,0.2-1.6,0.1l-5.5-0.2c-1.7-0.1-3.8,0-4.8,1.6c-0.3,0.6-0.6,1.2-0.7,1.9
						c-0.4,1.8-0.8,3.8,0.1,5.3c1.1,1.9,3.4,2.2,5.4,2.4c7.7,0.5,15.4,0.3,23.1-0.5c1-0.1,2.1-0.2,3.1-0.1c0.8,0.1,1.6,0.3,2.5,0.4
						c4.1,0.8,8.4,0.3,12.6-0.1c0.7,0,1.4-0.2,2.1-0.5c0.7-0.3,1.2-1,1.3-1.7c0.2-1.3-0.9-2.3-1-3.6c-0.1-0.9,0.3-1.9-0.1-2.7
						c-0.2-0.2-0.4-0.4-0.6-0.6c-0.7-1-1.1-2.1-1.2-3.3l-1-6.3c0-0.4-0.2-0.9-0.5-1.2c-0.2-0.2-0.4-0.3-0.7-0.3
						c-4.3-1.1-8.7-0.1-12.9,0.5c-2.2,0.4-4.4,0.5-6.6,0.4c-1-0.1-1.3-0.2-2,0.5S-298.6,468.2-299.4,468.7z"/>
					<path id="Path_2595" fill="#3F3D56" d="M-204.9,476.4c-0.7,0.5-1.6,0.8-2.4,1c-2.2,0.7-4.4,1.4-6.6,2.2
						c-0.6,0.2-1.1,0.5-1.6,0.9c-0.7,0.9-1.1,2-1,3.1c-0.1,0.6,0,1.3,0.2,1.9c0.3,0.5,0.6,1,1.1,1.4c2.6,1.9,5.7,2.9,9,2.7
						c3.2,0,6.3-0.6,9.5-0.7c3.8-0.1,7.7,0.5,11.4-0.7c0.7-0.3,1.4-0.5,2.2-0.6c0.5,0,1,0,1.5,0.1c2,0.2,4,0,5.9-0.6
						c0.6-0.1,1.1-0.4,1.6-0.8c0.5-0.5,0.6-1.1,0.4-1.7c-0.2-0.5-0.7-0.9-0.7-1.4c0-0.3,0.1-0.5,0.2-0.8c0.1-0.9,0-1.8-0.4-2.6
						c-0.7-2.4-0.6-5.1-1.9-7.2s-3.7-2.9-5.9-3.2c-1.8-0.3-3.7-0.2-5.5,0.2c-2.1,0.5-4,1.5-6,2.1c-2.3,0.7-4.8,1-7.2,0.7
						c-1.6-0.1-1.1,0.1-1.6,1.6C-203.4,474.9-204.1,475.8-204.9,476.4z"/>
					<path id="Path_2596" fill="#FCA286" d="M-301.5,215c0-10.5,7.5-19,16.8-19s16.8,8.5,16.8,19c0,2.9-0.6,5.7-1.7,8.3
						c0.1,0.3,0.3,0.7,0.5,1c1.5,2.9,4,5.2,7,5.5l-10.8,7.8c-3.1,2.2-6.3,4.5-9.8,5.6c1.1-0.4-2.5-7.1-2.9-7.6
						c-0.5-0.6-1.1-1.2-1.7-1.8C-295.4,232.4-301.5,224.5-301.5,215z"/>
					<path id="Path_2597" fill="#433DD9" d="M-180.2,470c-4.3,4.5-10.2,7-16.3,6.9c-2.5,0.2-5-0.5-7.1-1.9c-0.1-1-0.2-2.1-0.4-3.1
						c-2.6-0.7-4.5-3.3-5.8-6.1c-1.1-3-2-6-2.8-9.1c-1.5-4.5-3.3-8.9-5.5-13.2c-1.9-3.9-3.8-7.8-5.9-11.5c-1.4-2.5-3-4.8-4.4-7.2
						c-4.1-7.1-6.9-14.8-8.4-22.9c-0.2-1.6-0.6-3.1-1-4.6c-0.9-2.6-2.4-4.7-3.6-7c-1.3-2.6-2.2-5.4-2.6-8.3c-0.2-1.7-0.7-3.5-2-3.7
						l0,0c-2.8,6.9-5.7,13.9-10,19.5c-0.7,0.8-1.3,1.7-1.8,2.6c-0.4,0.9-0.8,1.9-1.2,2.8c-0.6,1.7-1.5,3.3-2.6,4.8
						c-0.8,1.1-2,2-3.4,2.3c1,5.9,0.4,11.9-1.6,17.6c-0.6,1.6-1.3,3.2-1.9,4.8c-2.3,6.8-1.8,14.4-2,21.8c0,1.5-0.2,3.1-0.4,4.6
						c-0.6,3-1.8,6.2-1.2,9.2c-6.2,3-13.1,2.8-19.6,1.5c-1.3-0.2-2.6-0.6-3.7-1.4c-1-0.9-1.8-1.9-2.4-3c-0.3-0.4-0.4-0.8-0.5-1.2
						c-0.3-1.4,1-2.5,1.6-3.7s0.7-3.2-0.1-4.2c0.4-8.1,2.2-16,2.6-24c0.2-3.2,0.1-6.4,0.2-9.6s0.4-6.3,0.7-9.5
						c0.7-7.2,2.2-14.3,2-21.5c-0.1-2.2,0.3-4.4,1.2-6.4c0.7-1.5,1.5-2.9,2.4-4.2c3-4.9,6.7-9.8,7.8-15.8c0.7-3,1.7-6,3-8.8
						c0.6-1.7,1.5-3.2,2.6-4.6c0.6-0.6,1.2-1.2,1.7-1.9c0.8-1.3,0.8-3.1,1.3-4.6c0.2-0.8,0.6-1.5,0.8-2.4c0.2-0.9,0.2-1.8,0.2-2.8
						c0.3-2.9,1-5.8,2-8.6c-2.4-1.7-4.4-3.9-5.9-6.4c-0.6-0.9-1-1.8-1.4-2.7c-1-2.5-1.2-5.4-1.7-8.1c-1.1-6.5-3.8-12.7-4.1-19.4
						c0-2-0.1-4.1-0.6-6.1c-0.3-0.8-0.6-1.6-0.9-2.4c-0.3-0.8-0.6-1.6-0.8-2.4c-0.3-1.8,0.1-3.7,0-5.5c-0.2-1.6-0.6-3.2-1-4.8
						c-0.3-2.1-0.3-4.2-0.1-6.3c0.3-2.5,0.4-5,0.4-7.5c-0.6-7.9,1.6-15.7,6.2-22.2l0.1-0.1c0.9-1.2,2-2.3,2.8-3.6
						c1.2-1.8,2-3.8,3.2-5.5c0.5-0.8,1.1-1.4,1.7-2.2c0.5-0.8,1-1.5,1.6-2.2c0.5-0.7,1.4-1,2.2-0.7c0.1,0.9,0.3,1.8,0.7,2.6
						c1,0.1,1.9,0.3,3,0.4c0.5,0,0.9,0.1,1.4,0.3c1,0.5,1.8,1.2,2.6,2c2.1,1.8,4.6,2.6,6.6,4.5c3,2.7,4.4,7.3,6.2,11.3
						c2.4,5.4,6.2,10.1,7.9,15.9l2.3,7.9c1.4,5.2,3.1,10.3,5.1,15.2c2.9,6.8,6.7,12.9,9,20c0.2,0.7,0.6,1.3,1.2,1.7
						c3.2,5.6,5.9,11.3,8.3,17.3c1.4,3.2,2.4,6.6,2.8,10c0.5,5-0.5,10-2.1,14.7c-0.2,0.7-0.4,1.4-0.5,2.1c0,1.2,0.1,2.4,0.4,3.5
						c0.1,1.1,0,2.2-0.4,3.2c-0.3,0.7-0.6,1.5-0.8,2.2c-0.1,1.4,0.1,2.9,0.5,4.3c0.7,4.9,0.9,9.8,0.5,14.7c-0.1,2.5,1.5,4.4,2.8,6.2
						c2.4,3.6,4.5,7.3,6.3,11.3c1,2,1.9,4.2,2.6,6.3c0.6,2.6,1.1,5.2,1.4,7.8c1.3,8.1,5.4,15.2,6.5,23.3c0.5,3.6,1.8,7,3.8,10
						c0.6,0.8,1.2,1.6,1.6,2.5c0.3,0.7,0.6,1.4,0.8,2.2c0.5,1.8,0.7,3.7,0.7,5.6c-0.1,0.9,0,1.8,0.1,2.7c0.5,1.9,2.1,2.9,2.8,4.7
						s0.2,4,0.5,6C-182,467.4-181.3,468.9-180.2,470z"/>
					<path id="Path_2598" fill="#FCA286" d="M-307.2,340c-1.3,1.7-2.7,3.4-4.7,4c-1.9,0.5-3.8,0.3-5.6-0.5c-1.4-0.6-3-1.4-4.4-0.7
						c-0.8,0.6-1.5,1.4-1.8,2.4l-2.3,5c-0.4,0.8-0.6,1.6-0.6,2.5c0.1,0.6,0.4,1.1,0.8,1.6c0.6,0.9,1.3,1.8,2.2,1.8s1.5-1.1,2.3-1.7
						c1-0.7,2.3-0.8,3.3-0.3c0.5,0.2,0.8,0.6,1,1c0.3,1.1-0.2,2.2-1.3,2.6c-0.9,0.4-2,0.5-2.9,0.9c-0.3,0.1-0.4,0.3-0.3,0.6
						c0,0,0,0,0,0v0c0.2,0.8,0.7,1.4,1.4,1.7c0.7,0.3,1.4,0.4,2.2,0.4c0.9,0.1,1.8,0,2.6-0.2c1.6-0.5,2.7-2.1,4-3.3
						c1.8-1.5,3.9-2.6,6.1-3.4c2.2-0.8,4.3-1.9,6.1-3.3c1.9-1.5,3-3.8,3-6.3c0-0.2-0.1-0.5-0.2-0.7c-0.2-0.2-0.4-0.3-0.7-0.4
						c-3.9-1.2-6.2-3.5-10.2-3.9L-307.2,340z"/>
					<path id="Path_2599" opacity="0.1" enable-background="new    " d="M-247,378.1v0.2l0,0c-3.2,6.9-6.5,13.9-11.4,19.5
						c-0.8,0.8-1.5,1.7-2.1,2.6c-0.5,0.9-1,1.9-1.3,2.8c-0.7,1.7-1.7,3.3-3,4.8l-4.1,2.2l12.9-74L-247,378.1z"/>
					<path id="Path_2600" fill="#6253FF" d="M-275,251.7c-2.1-0.5-4.2,0.1-5.8,1.6c-1.5,1.5-2.7,3.4-3.3,5.4c-0.7,2-1.2,4.1-1.3,6.2
						c-0.2,2.1-0.1,4.1-0.3,6.2c-0.4,3.6-1.1,7.2-2.2,10.7c-0.5,2.2-1.3,4.3-2.3,6.3c-1.1,1.9-2.6,3.4-3,5.5
						c-0.1,0.7-0.1,1.4-0.2,2.1c-0.4,2.2-1.8,3.9-2.9,5.7c-3.2,5.3-3.8,12-6.5,17.6c-1.2,2.4-2.7,4.6-3.9,7c-1.1,2.3-1.7,4.7-2.7,7
						s-2.5,4.4-4.6,5.5c2.8,3.1,6.2,5.6,9.9,7.6c3.7,1.8,8.2,2,11.2-0.5c1.2-0.9,1.8-2.2,1.9-3.7c-0.1-0.7-0.2-1.5-0.2-2.2
						c0.1-0.6,0.4-1.2,0.8-1.7c10.3-14.7,19.3-30.2,27.1-46.4c2.1-4.4,4.3-8.4,6.5-12.7c0.8-1.5,1.5-3,2-4.7
						c1.3-5.2-0.3-10.6-4.3-14.2c-1.6-1.3-3.3-2.4-5.1-3.4C-267.6,254.5-271.2,252.9-275,251.7z"/>
				</g>
				<g id="Group_2127">
					<path id="Path_2601" fill="#FBB03B" d="M-265,206.9c0.1,0.6,0.1,1.1,0.1,1.7c0,0.6,0,1.2,0,1.9v0c-0.3,1.3-1.3,2.2-2.6,2.4
						l-39.2,5.2c-0.6-1.8-1-3.6-1.2-5.5c0-0.4-0.1-0.7-0.1-1.1c-0.8-12.5,7.5-23.7,19-25.2s22,7.2,23.9,19.6
						C-265.1,206.1-265.1,206.5-265,206.9z"/>
					<path id="Path_2602" fill="#F9C075" d="M-265,206.9c0,0.1,0.1,1.1,0.1,1.7s0,1.2,0,1.9v0c-0.3,1.3-1.3,2.2-2.6,2.4l-44.5,5.9
						c-3.1-0.9-3.7-2.5-3.8-2.9c-0.9-2.7,2.1-7.3,8.2-10.3c-0.5,2-1,4.6,0.2,5.8c1.5,1.5,4.8-0.2,6-0.7
						C-286.7,203.7-265.4,205.2-265,206.9z"/>
				</g>
			</g>
		</g>
	</g>
</g>
</svg>
