<?xml version="1.0" encoding="utf-8"?>
<!-- Generator: Adobe Illustrator 24.0.2, SVG Export Plug-In . SVG Version: 6.00 Build 0)  -->
<svg version="1.1" id="Layer_1" xmlns="http://www.w3.org/2000/svg" xmlns:xlink="http://www.w3.org/1999/xlink" x="0px" y="0px"
	 viewBox="0 0 800 600" enable-background="new 0 0 800 600" xml:space="preserve">
<g>
	<defs>
		<rect id="SVGID_1_" width="800" height="600"/>
	</defs>
	<clipPath id="SVGID_2_">
		<use xlink:href="#SVGID_1_"  overflow="visible"/>
	</clipPath>
	<g id="custom_3" clip-path="url(#SVGID_2_)">
		<g id="Group_51" transform="translate(1633.194 3)">
			<ellipse id="Ellipse_1" opacity="0.33" fill="#CCCCCC" enable-background="new    " cx="-926.5" cy="539" rx="82.5" ry="22"/>
			<path id="Path_19814" fill="#A9A7FC" d="M-1555.3,166.7c-3.3,1.2-6.7,1.9-10.2,2c-5.2,0.1-10.2-2.2-13.5-6.2
				c-5,2-11,0.2-13.3-4.1s-0.2-9.4,4.8-11.4c1.3-0.5,2.8-0.8,4.2-0.8c0.1,0,0.2,0,0.3,0c-0.2-0.9-0.3-1.9-0.3-2.8
				c0-7.3,6.8-13.2,15.3-13.2c4.3-0.1,8.4,1.5,11.5,4.4c5.2-6.3,15.3-7.7,22.6-3.3c3.3,1.9,5.6,5.1,6.5,8.7c7.4-1.6,15,2.2,16.8,8.6
				s-2.6,12.8-10,14.4c-2.4,0.5-4.9,0.5-7.3-0.1c-3.8,3.5-10,5.9-16.9,5.9C-1548.3,168.7-1551.9,168-1555.3,166.7z"/>
			<g id="Group_48">
				<g id="Group_26">
					<g>
						<defs>
							<path id="SVGID_3_" d="M-1403.5,96.4c42.8,10.7,58.1,42.6,123.6,51.8c30.7,4.3,55,1.2,72.7-1.2
								c90.2-12.2,108.6-53.3,159.5-43.9c46.3,8.6,73.7,50.5,81.1,61.8c24.9,38,28.7,75.6,23.7,116.9c-9.5,78.1-30.2,159-84.6,215.9
								c-6.1,6.4-12.7,12.5-20.6,16.5c-9,4.5-19.2,5.9-29.3,6.2c-71.1,2.2-135.9-46.7-206.9-46.2c-45,0.4-87.2,20.5-130.8,31.5
								c-41.5,10.4-114.9,12.9-134-36.6c-10.2-26.5-17.4-54.1-21.3-82.3c-1.5-10.9-2.6-22-6.1-32.5c-4.4-13-14.4-19.4-17.3-22.1
								c-24.3-22-28.6-73.8-28.5-88.7C-1621.8,165.9-1493.3,74-1403.5,96.4z"/>
						</defs>
						<clipPath id="SVGID_4_">
							<use xlink:href="#SVGID_3_"  overflow="visible"/>
						</clipPath>
						<g id="Group_25" clip-path="url(#SVGID_4_)">
							<rect id="Rectangle_1" x="-1640" y="17" fill="#E8E8FC" width="796" height="347.9"/>
							<g id="Group_17">
								<g id="Group_4">
									<path id="Path_1" fill="#C4BEFF" d="M-1191.1,274.1v89.9h-70.1v-89.9l34.8-21.4L-1191.1,274.1z"/>
									<path id="Path_2" opacity="0.1" fill="#C4BEFF" enable-background="new    " d="M-1191.1,274.1v89.9h-70.1v-89.9l34.8-21.4
										L-1191.1,274.1z"/>
									<g id="Group_1">
										<rect id="Rectangle_2" x="-1229.8" y="283.1" fill="#FFFFFF" width="7.8" height="14.8"/>
										<rect id="Rectangle_3" x="-1227.8" y="291.8" fill="#C4BEFF" width="4.9" height="5.4"/>
										<rect id="Rectangle_4" x="-1227.8" y="286.4" fill="#C4BEFF" width="4.9" height="3.3"/>
									</g>
									<g id="Group_2">
										<rect id="Rectangle_5" x="-1229.8" y="308.3" fill="#FFFFFF" width="7.8" height="14.8"/>
										<rect id="Rectangle_6" x="-1227.8" y="316.9" fill="#C4BEFF" width="4.9" height="5.4"/>
										<rect id="Rectangle_7" x="-1227.8" y="311.6" fill="#C4BEFF" width="4.9" height="3.3"/>
									</g>
									<g id="Group_3">
										<rect id="Rectangle_8" x="-1229.8" y="333.4" fill="#FFFFFF" width="7.8" height="14.8"/>
										<rect id="Rectangle_9" x="-1227.8" y="342.1" fill="#C4BEFF" width="4.9" height="5.4"/>
										<rect id="Rectangle_10" x="-1227.8" y="336.7" fill="#C4BEFF" width="4.9" height="3.3"/>
									</g>
								</g>
								<g id="Group_7">
									<path id="Path_3" fill="#C4BEFF" d="M-1038.9,251.4v112.6h-76.3V251.4l37.9-26.8L-1038.9,251.4z"/>
									<path id="Path_4" opacity="0.18" enable-background="new    " d="M-1039.1,251.3l0.3,112.6l-76.3,0.2l-0.3-112.6l37.8-26.9
										L-1039.1,251.3z"/>
									<g id="Group_5">
										<rect id="Rectangle_11" x="-1081.1" y="263.7" fill="#FFFFFF" width="8.5" height="19.1"/>
										<rect id="Rectangle_12" x="-1078.9" y="274.9" fill="#C5C5FC" width="5.4" height="6.9"/>
										<rect id="Rectangle_13" x="-1078.9" y="268" fill="#C5C5FC" width="5.4" height="4.2"/>
									</g>
									<g id="Group_6">
										<rect id="Rectangle_14" x="-1081.1" y="296.1" fill="#FFFFFF" width="8.5" height="19.1"/>
										<rect id="Rectangle_15" x="-1078.9" y="307.2" fill="#C5C5FC" width="5.4" height="6.9"/>
										<rect id="Rectangle_16" x="-1078.9" y="300.3" fill="#C5C5FC" width="5.4" height="4.2"/>
									</g>
								</g>
								<g id="Group_13">
									<rect id="Rectangle_17" x="-1194.8" y="148.7" fill="#C5C5FC" width="75.9" height="215.2"/>
									<g id="Group_8">
										<rect id="Rectangle_18" x="-1182" y="132.6" fill="#C5C5FC" width="28.9" height="16.1"/>
										
											<rect id="Rectangle_19" x="-1182" y="132.6" opacity="0.18" fill="#C5C5FC" enable-background="new    " width="28.9" height="16.1"/>
									</g>
									<g id="Group_9">
										<rect id="Rectangle_20" x="-1161.8" y="166.5" fill="#FFFFFF" width="8.2" height="15.3"/>
										
											<rect id="Rectangle_21" x="-1159.3" y="171.4" opacity="0.18" fill="#B0B0F7" enable-background="new    " width="5.8" height="10.3"/>
									</g>
									<g id="Group_10">
										<rect id="Rectangle_22" x="-1161.8" y="192.8" fill="#FFFFFF" width="8.2" height="15.3"/>
										
											<rect id="Rectangle_23" x="-1159.3" y="197.8" opacity="0.18" fill="#B0B0F7" enable-background="new    " width="5.8" height="10.3"/>
									</g>
									<g id="Group_11">
										<rect id="Rectangle_24" x="-1161.8" y="219.2" fill="#FFFFFF" width="8.2" height="15.3"/>
										
											<rect id="Rectangle_25" x="-1159.3" y="224.2" opacity="0.18" fill="#B0B0F7" enable-background="new    " width="5.8" height="10.3"/>
									</g>
									<g id="Group_12">
										<rect id="Rectangle_26" x="-1161.8" y="245.6" fill="#FFFFFF" width="8.2" height="15.3"/>
										
											<rect id="Rectangle_27" x="-1159.3" y="250.6" opacity="0.18" fill="#B0B0F7" enable-background="new    " width="5.8" height="10.3"/>
									</g>
								</g>
								<g id="Group_16">
									<rect id="Rectangle_28" x="-1170.5" y="274.5" fill="#B0B0F7" width="82.7" height="80.9"/>
									<g id="Group_14">
										
											<rect id="Rectangle_29" x="-1142.8" y="274.5" opacity="0.3" fill="#F2EDE5" enable-background="new    " width="27.6" height="27.6"/>
										
											<rect id="Rectangle_30" x="-1115.2" y="274.5" opacity="0.2" fill="#F2EDE5" enable-background="new    " width="27.6" height="27.6"/>
										
											<rect id="Rectangle_31" x="-1115.2" y="302.1" opacity="0.15" fill="#F2EDE5" enable-background="new    " width="27.6" height="27.6"/>
										
											<rect id="Rectangle_32" x="-1142.8" y="329.7" opacity="0.15" fill="#F2EDE5" enable-background="new    " width="27.6" height="27.6"/>
										
											<rect id="Rectangle_33" x="-1142.8" y="302.1" opacity="0.1" fill="#F2EDE5" enable-background="new    " width="27.6" height="27.6"/>
										
											<rect id="Rectangle_34" x="-1170.5" y="329.7" opacity="0.1" fill="#F2EDE5" enable-background="new    " width="27.6" height="27.6"/>
										
											<rect id="Rectangle_35" x="-1170.5" y="302.1" opacity="0.25" fill="#F2EDE5" enable-background="new    " width="27.6" height="27.6"/>
									</g>
									<path id="Path_5" fill="#8380F9" d="M-1142.8,247.3v27.6h27.6v-27.6H-1142.8z M-1125.9,269.1h-8.2v-15.7h8.2V269.1z"/>
									<path id="Path_6" fill="#A4A4FF" d="M-1115.2,247.3v27.6h27.6v-27.6H-1115.2z M-1098.3,269.1h-8.2v-15.7h8.2V269.1z"/>
									<g id="Group_15">
										<rect id="Rectangle_36" x="-1161.8" y="334.3" fill="#FFFFFF" width="8.2" height="15.7"/>
										<rect id="Rectangle_37" x="-1161.8" y="307.5" fill="#FFFFFF" width="8.2" height="15.7"/>
										<rect id="Rectangle_38" x="-1134.2" y="334.3" fill="#FFFFFF" width="8.2" height="15.7"/>
										<rect id="Rectangle_39" x="-1134.2" y="307.5" fill="#FFFFFF" width="8.2" height="15.7"/>
										<rect id="Rectangle_40" x="-1106.6" y="334.3" fill="#FFFFFF" width="8.2" height="15.7"/>
										<rect id="Rectangle_41" x="-1106.6" y="307.5" fill="#FFFFFF" width="8.2" height="15.7"/>
										<rect id="Rectangle_42" x="-1161.8" y="280.7" fill="#FFFFFF" width="8.2" height="15.7"/>
										<rect id="Rectangle_43" x="-1134.2" y="280.7" fill="#FFFFFF" width="8.2" height="15.7"/>
										<rect id="Rectangle_44" x="-1106.6" y="280.7" fill="#FFFFFF" width="8.2" height="15.7"/>
									</g>
									<rect id="Rectangle_45" x="-1170.5" y="355.7" fill="#51586D" width="82.9" height="8.2"/>
								</g>
							</g>
							<rect id="Rectangle_46" x="-1640" y="360.7" fill="#EFEFEF" width="800" height="200.6"/>
							<g id="Group_18">
								<path id="Path_7" fill="#ED1C24" d="M-1395.3,429.7c0.2,0.9,0.5,1.8,0.7,2.6c0,0.2,0.2,0.4,0.4,0.4c1.6,0.3,3.3,0.6,4.9,1.2
									c0.7,0.2,1.4,0.5,2,0.9c0.5,0.3,1,0.7,1.2,1.3v0.8c-0.1,0-0.1,0-0.1,0.1c-0.1,0.3-0.3,0.5-0.6,0.7c-0.8,0.6-1.6,1-2.5,1.3
									c-1.7,0.6-3.5,1-5.2,1.2c-0.9,0.2-1.9,0.3-2.8,0.4c-1.1,0.1-2.3,0.2-3.4,0.3c-0.8,0.1-1.5,0.1-2.3,0.1c-1,0-1.9,0.1-2.9,0.1
									c-2.1,0-4.2,0-6.4-0.1c-0.5,0-0.9,0-1.4-0.1c-0.2,0-0.5,0-0.7,0c-0.7-0.1-1.4-0.1-2.1-0.2c-0.5,0-1-0.1-1.6-0.2
									c-0.6-0.1-1.3-0.2-1.9-0.3c-0.8-0.1-1.7-0.3-2.5-0.4c-0.9-0.2-1.8-0.4-2.6-0.6c-1.1-0.3-2.3-0.7-3.3-1.3
									c-0.4-0.2-0.8-0.5-1-0.9c-0.1-0.1,0-0.2-0.2-0.3v-0.6c0.3-0.6,0.8-1.2,1.4-1.4c1.2-0.6,2.5-1.1,3.8-1.4c1-0.3,2-0.5,3.1-0.6
									c0.1,0,0.2-0.1,0.2-0.2c0.2-0.9,0.5-1.8,0.8-2.8c0.1,0,0.1,0,0.2,0c0.6,0.1,1.2,0.3,1.8,0.4c2.8,0.6,5.6,1,8.4,1.1
									c2,0.1,3.9,0,5.8-0.1c2.1-0.2,4.1-0.5,6.1-0.9C-1396.9,430-1396.1,429.9-1395.3,429.7z M-1407.4,439.8c0.6,0,1.4,0,2.2,0
									c1,0,2-0.1,3-0.2c0.4,0,0.8-0.1,1.2-0.1c0.6-0.1,1.2-0.1,1.9-0.2c0.7-0.1,1.3-0.2,2-0.3c0.9-0.2,1.9-0.4,2.8-0.7
									c0.9-0.2,1.7-0.6,2.4-1.2c0.4-0.3,0.6-0.8,0.3-1.3c0,0,0,0,0,0c-0.1-0.2-0.3-0.4-0.5-0.5c-0.4-0.3-0.8-0.5-1.2-0.6
									c-0.1-0.1-0.3-0.2-0.4-0.1s0,0.3,0.1,0.4c0.1,0.3,0.1,0.6-0.1,0.8c-0.2,0.2-0.4,0.4-0.6,0.5c-0.7,0.4-1.4,0.7-2.1,0.8
									c-1.3,0.3-2.7,0.6-4,0.8c-0.8,0.1-1.7,0.2-2.5,0.3c-0.9,0.1-1.7,0.1-2.6,0.1c-1.5,0-2.9,0-4.4,0c-1.1,0-2.1-0.1-3.2-0.2
									c-0.8-0.1-1.5-0.1-2.3-0.3c-1.1-0.1-2.1-0.4-3.2-0.6c-0.8-0.2-1.5-0.5-2.3-0.9c-0.7-0.4-1-0.8-0.6-1.6c0,0,0,0,0,0
									c0-0.1,0.1-0.1,0-0.2s-0.1,0-0.2,0c-0.6,0.2-1.2,0.5-1.7,0.9c-0.4,0.3-0.6,0.9-0.2,1.4c0.2,0.2,0.4,0.4,0.7,0.6
									c0.9,0.5,1.8,0.8,2.7,1.1c0.9,0.2,1.9,0.4,2.8,0.6c1,0.2,2.1,0.3,3.1,0.4c0.7,0.1,1.5,0.1,2.2,0.2c0.8,0,1.6,0.1,2.4,0.1
									C-1408.9,439.8-1408.3,439.8-1407.4,439.8L-1407.4,439.8z"/>
								<path id="Path_8" fill="#C1272D" d="M-1404.4,444c-0.2,0-0.4,0.1-0.6,0c-0.3-0.1-0.6-0.1-0.9,0h-3.5c-0.3-0.1-0.6-0.1-0.8,0
									h-0.7c0-0.1-0.1,0-0.1,0c-2.8-0.1-5.6-0.3-8.4-0.7c-1.9-0.2-3.7-0.6-5.5-1.1c-1.1-0.3-2.2-0.7-3.2-1.3
									c-0.5-0.3-0.9-0.7-1.1-1.3v-2.8c0.1,0,0.1,0.2,0.2,0.3c0.3,0.4,0.6,0.7,1,0.9c1,0.6,2.1,1,3.3,1.3c0.9,0.3,1.7,0.4,2.6,0.6
									c0.8,0.2,1.7,0.3,2.5,0.4c0.6,0.1,1.3,0.2,1.9,0.3c0.5,0.1,1,0.1,1.6,0.2c0.7,0.1,1.4,0.1,2.1,0.2c0.2,0,0.5,0,0.7,0
									c0.5,0,0.9,0,1.4,0.1c2.1,0.1,4.2,0.1,6.4,0.1c1,0,1.9,0,2.9-0.1c0.8,0,1.5-0.1,2.3-0.1c1.1-0.1,2.3-0.2,3.4-0.3
									c0.9-0.1,1.9-0.2,2.8-0.4c1.8-0.3,3.5-0.7,5.2-1.2c0.9-0.3,1.8-0.7,2.5-1.3c0.2-0.2,0.4-0.4,0.6-0.7c0,0,0-0.1,0.1-0.1v2.9
									c-0.3,0.5-0.7,1-1.2,1.3c-0.7,0.4-1.5,0.8-2.3,1c-3.1,0.9-6.3,1.5-9.5,1.7C-1400.9,443.8-1402.6,443.9-1404.4,444z"/>
								<path id="Path_9" fill="#FFFFFF" d="M-1406.6,397.1c0.3,0.1,0.7,0.1,1,0.1c0.4,0.1,0.9,0.2,1.3,0.3c0.2,0.1,0.3,0.2,0.3,0.4
									c-0.1,0.1-0.2,0.2-0.3,0.2c-0.4,0.2-0.9,0.3-1.3,0.3c-0.8,0.1-1.7,0.1-2.5,0.1c-0.7,0-1.5-0.1-2.2-0.3
									c-0.3-0.1-0.7-0.1-0.9-0.5c0-0.2,0.2-0.3,0.4-0.4c0.5-0.2,1-0.3,1.5-0.4c0.2,0,0.4,0,0.7-0.1L-1406.6,397.1z"/>
								<path id="Path_10" fill="#FFFFFF" d="M-1395.3,429.7c-0.8,0.2-1.6,0.4-2.4,0.5c-2,0.4-4.1,0.7-6.1,0.9
									c-1.9,0.2-3.9,0.2-5.8,0.1c-2.8-0.1-5.6-0.5-8.4-1.1c-0.6-0.1-1.2-0.3-1.8-0.4c-0.1,0-0.1,0-0.2,0l1.4-5.2
									c0.2-0.7,0.4-1.3,0.5-2c0-0.1,0.1-0.2,0.1-0.3c0.1,0,0.1,0,0.2,0c3.1,0.8,6.2,1.2,9.3,1.3c1.8,0,3.5-0.1,5.3-0.3
									c1.9-0.2,3.8-0.6,5.6-1c0.1,0,0.2,0,0.2-0.1c0.2,0.6,0.4,1.2,0.5,1.7c0.2,0.7,0.4,1.4,0.6,2.1c0.3,1.1,0.6,2.2,0.9,3.2
									C-1395.4,429.4-1395.3,429.5-1395.3,429.7z"/>
								<path id="Path_11" fill="#ED1C24" d="M-1397.4,422.2c0,0.1-0.1,0.1-0.2,0.1c-1.9,0.5-3.7,0.8-5.6,1
									c-1.8,0.2-3.5,0.3-5.3,0.3c-3.2-0.1-6.3-0.5-9.3-1.3c-0.1,0-0.1,0-0.2,0l0,0c0,0,0,0,0,0c0.7-2.5,1.4-4.9,2-7.4c0,0,0,0,0,0
									c0,0,0.1,0,0.1,0c1.9,0.4,3.8,0.6,5.7,0.7c1.6,0.1,3.2,0.1,4.8,0c1.1-0.1,2.3-0.2,3.4-0.3c0.9-0.1,1.7-0.3,2.5-0.4
									c0.7,2.4,1.3,4.7,2,7.1C-1397.4,422.1-1397.4,422.1-1397.4,422.2z"/>
								<path id="Path_12" fill="#FFFFFF" d="M-1399.4,414.9c-0.8,0.1-1.7,0.3-2.5,0.4c-1.1,0.1-2.3,0.3-3.4,0.3
									c-1.6,0.1-3.2,0.1-4.8,0c-1.9-0.1-3.8-0.3-5.7-0.7c0,0-0.1,0-0.1,0c0.7-2.5,1.4-5,2-7.5c0.1,0.1,0.2,0.1,0.3,0.1
									c2.1,0.4,4.2,0.5,6.4,0.5c2,0,3.9-0.2,5.8-0.5c0.1,0.5,0.3,1,0.4,1.5c0.3,1,0.5,2,0.8,3c0.2,0.8,0.4,1.6,0.6,2.3
									C-1399.5,414.4-1399.4,414.6-1399.4,414.9z"/>
								<path id="Path_13" fill="#ED1C24" d="M-1401.4,407.4c-1.9,0.3-3.9,0.5-5.8,0.5c-2.1,0-4.3-0.1-6.4-0.5c-0.1,0-0.2,0-0.3-0.1
									l2.6-9.3c0-0.1,0-0.1,0.1-0.2c0.2,0.4,0.6,0.4,0.9,0.5c0.7,0.2,1.5,0.2,2.2,0.3c0.8,0,1.7,0,2.5-0.1c0.5,0,0.9-0.2,1.3-0.3
									c0.1,0,0.2-0.2,0.3-0.2c0.2,0.7,0.4,1.5,0.6,2.2C-1402.8,402.6-1402.1,405-1401.4,407.4z"/>
								<path id="Path_14" fill="#FFFFFF" d="M-1407.4,439.8c-0.8,0-1.5,0-2.2,0c-0.8,0-1.6,0-2.4-0.1c-0.7,0-1.5-0.1-2.2-0.2
									c-1-0.1-2.1-0.2-3.1-0.4c-1-0.2-1.9-0.3-2.8-0.6c-1-0.2-1.9-0.6-2.7-1.1c-0.3-0.2-0.5-0.4-0.7-0.6c-0.3-0.4-0.2-1.1,0.2-1.4
									c0.5-0.4,1.1-0.7,1.7-0.9c0,0,0.1-0.1,0.2,0s0,0.1,0,0.2c0,0,0,0,0,0c-0.3,0.8-0.1,1.1,0.6,1.6c0.7,0.4,1.5,0.7,2.3,0.9
									c1,0.3,2.1,0.5,3.2,0.6c0.8,0.1,1.5,0.2,2.3,0.3c1.1,0.1,2.1,0.1,3.2,0.2c1.5,0.1,2.9,0,4.4,0c0.9,0,1.7-0.1,2.6-0.1
									c0.8-0.1,1.7-0.2,2.5-0.3c1.3-0.2,2.7-0.4,4-0.8c0.7-0.2,1.5-0.5,2.1-0.8c0.2-0.1,0.4-0.3,0.6-0.5c0.2-0.2,0.2-0.5,0.1-0.8
									c-0.1-0.1-0.2-0.4-0.1-0.4s0.3,0.1,0.4,0.1c0.4,0.2,0.8,0.4,1.2,0.6c0.2,0.1,0.4,0.3,0.5,0.5c0.3,0.4,0.2,1-0.2,1.3
									c0,0,0,0,0,0c-0.7,0.5-1.5,0.9-2.4,1.2c-0.9,0.3-1.8,0.5-2.8,0.7c-0.7,0.1-1.3,0.2-2,0.3c-0.6,0.1-1.2,0.2-1.9,0.2
									c-0.4,0-0.8,0.1-1.2,0.1c-1,0.1-2,0.1-3,0.2C-1406.1,439.8-1406.8,439.8-1407.4,439.8z"/>
							</g>
							<g id="Group_19">
								<path id="Path_15" fill="#ED1C24" d="M-1177.2,448.3c0.3,1.1,0.6,2.1,0.9,3.2c0,0.3,0.3,0.5,0.5,0.5c2,0.3,4,0.8,5.9,1.4
									c0.9,0.3,1.7,0.6,2.5,1.1c0.6,0.3,1.2,0.9,1.5,1.5v0.9c-0.1,0-0.1,0-0.1,0.1c-0.2,0.3-0.4,0.6-0.7,0.8
									c-0.9,0.7-2,1.2-3.1,1.5c-2.1,0.7-4.2,1.2-6.3,1.5c-1.1,0.2-2.3,0.4-3.4,0.5c-1.4,0.2-2.8,0.3-4.1,0.4
									c-0.9,0.1-1.8,0.1-2.7,0.2c-1.2,0.1-2.3,0.1-3.5,0.1c-2.6,0-5.2,0-7.7-0.1c-0.6,0-1.1,0-1.7-0.1c-0.3,0-0.6,0-0.9-0.1
									c-0.8-0.1-1.7-0.1-2.5-0.2c-0.6-0.1-1.3-0.1-1.9-0.2c-0.8-0.1-1.5-0.2-2.3-0.3c-1-0.1-2-0.3-3-0.5c-1.1-0.2-2.1-0.4-3.2-0.8
									c-1.4-0.4-2.7-0.9-4-1.6c-0.5-0.3-0.9-0.7-1.3-1.1c-0.1-0.1,0-0.3-0.2-0.3v-0.7c0.3-0.8,1-1.4,1.7-1.8
									c1.5-0.8,3-1.3,4.6-1.7c1.2-0.3,2.5-0.6,3.7-0.8c0.1,0,0.2-0.1,0.3-0.2c0.3-1.1,0.6-2.2,0.9-3.4c0.1,0,0.2,0,0.3,0
									c0.7,0.2,1.5,0.4,2.2,0.5c3.3,0.7,6.7,1.2,10.2,1.3c2.4,0.1,4.7,0,7.1-0.2c2.5-0.2,5-0.6,7.4-1.1
									C-1179.1,448.8-1178.1,448.6-1177.2,448.3z M-1191.9,460.6c0.7,0,1.7,0,2.6,0c1.2-0.1,2.5-0.1,3.7-0.2c0.5,0,1-0.1,1.5-0.1
									c0.8-0.1,1.5-0.2,2.3-0.3c0.8-0.1,1.6-0.2,2.4-0.4c1.1-0.2,2.2-0.5,3.4-0.8c1-0.3,2-0.7,2.9-1.4c0.5-0.3,0.7-1,0.4-1.5
									c0,0,0,0,0,0c-0.2-0.2-0.4-0.5-0.6-0.6c-0.5-0.3-1-0.6-1.5-0.8c-0.2-0.1-0.4-0.3-0.5-0.1s0,0.4,0.1,0.5
									c0.2,0.3,0.1,0.7-0.1,1c-0.2,0.3-0.4,0.5-0.7,0.6c-0.8,0.5-1.7,0.8-2.6,1c-1.6,0.4-3.2,0.7-4.9,0.9c-1,0.1-2,0.2-3,0.3
									c-1,0.1-2.1,0.2-3.1,0.2c-1.8,0-3.5,0-5.3,0c-1.3-0.1-2.6-0.1-3.8-0.2c-0.9-0.1-1.8-0.2-2.8-0.3c-1.3-0.2-2.6-0.4-3.8-0.8
									c-1-0.2-1.9-0.6-2.7-1.1c-0.9-0.5-1.2-1-0.8-1.9c0,0,0,0,0-0.1c0-0.1,0.1-0.2,0-0.2s-0.1,0-0.2,0c-0.7,0.3-1.4,0.6-2.1,1.1
									c-0.5,0.4-0.7,1.1-0.3,1.7c0.2,0.3,0.5,0.5,0.8,0.7c1,0.6,2.2,1,3.3,1.3c1.1,0.3,2.3,0.5,3.4,0.7c1.2,0.2,2.5,0.4,3.8,0.5
									c0.9,0.1,1.8,0.2,2.7,0.2c1,0.1,2,0.1,2.9,0.1C-1193.7,460.7-1192.9,460.6-1191.9,460.6L-1191.9,460.6z"/>
								<path id="Path_16" fill="#C1272D" d="M-1188.3,465.7c-0.2,0.1-0.5,0.1-0.7,0c-0.4-0.1-0.8-0.1-1.1,0h-4.3
									c-0.3-0.1-0.7-0.1-1,0h-0.9c0-0.1-0.1,0-0.2,0c-3.4-0.1-6.8-0.4-10.2-0.9c-2.3-0.3-4.5-0.8-6.7-1.4
									c-1.4-0.3-2.7-0.9-3.9-1.6c-0.6-0.3-1.1-0.9-1.4-1.5v-3.4c0.2,0,0.1,0.2,0.2,0.3c0.3,0.5,0.8,0.9,1.3,1.1
									c1.3,0.7,2.6,1.2,4,1.6c1.1,0.3,2.1,0.5,3.2,0.8c1,0.2,2,0.4,3,0.5c0.8,0.1,1.5,0.2,2.3,0.3c0.6,0.1,1.3,0.1,1.9,0.2
									c0.8,0.1,1.7,0.1,2.5,0.2c0.3,0,0.6,0,0.9,0.1c0.6,0.1,1.1,0,1.7,0.1c2.6,0.1,5.2,0.1,7.7,0.1c1.2,0,2.3-0.1,3.5-0.1
									c0.9,0,1.8-0.1,2.7-0.2c1.4-0.1,2.8-0.2,4.1-0.4c1.1-0.1,2.3-0.3,3.4-0.5c2.2-0.3,4.3-0.8,6.3-1.5c1.1-0.3,2.1-0.9,3.1-1.5
									c0.3-0.2,0.5-0.5,0.7-0.8c0-0.1,0.1-0.1,0.1-0.1v3.5c-0.3,0.7-0.9,1.2-1.5,1.5c-0.9,0.5-1.8,0.9-2.8,1.2
									c-3.8,1.1-7.6,1.8-11.5,2.1C-1183.9,465.5-1186.1,465.6-1188.3,465.7z"/>
								<path id="Path_17" fill="#FFFFFF" d="M-1190.9,408.8c0.4,0.1,0.8,0.1,1.2,0.2c0.5,0.1,1,0.2,1.5,0.4
									c0.2,0.1,0.4,0.3,0.4,0.5c-0.1,0.1-0.2,0.2-0.4,0.3c-0.5,0.2-1.1,0.4-1.6,0.4c-1,0.1-2,0.2-3,0.1c-0.9,0-1.8-0.1-2.7-0.3
									c-0.4-0.1-0.9-0.2-1.1-0.6c0-0.3,0.2-0.4,0.4-0.5c0.6-0.2,1.2-0.4,1.9-0.4c0.3,0,0.5,0,0.8-0.1H-1190.9z"/>
								<path id="Path_18" fill="#FFFFFF" d="M-1177.2,448.3c-1,0.2-2,0.5-2.9,0.7c-2.5,0.5-4.9,0.9-7.4,1.1
									c-2.4,0.2-4.7,0.2-7.1,0.2c-3.4-0.1-6.8-0.6-10.2-1.3c-0.7-0.2-1.5-0.4-2.2-0.5c-0.1,0-0.2,0-0.3,0c0.6-2.1,1.1-4.2,1.7-6.3
									c0.2-0.8,0.4-1.6,0.7-2.4c0-0.1,0.1-0.2,0.1-0.3c0.1,0,0.2,0,0.2,0c3.7,0.9,7.5,1.5,11.3,1.5c2.2,0,4.3-0.1,6.4-0.3
									c2.3-0.3,4.6-0.7,6.8-1.2c0.1,0,0.2,0,0.2-0.1c0.2,0.7,0.4,1.4,0.6,2.1c0.2,0.9,0.5,1.7,0.7,2.5c0.3,1.3,0.7,2.6,1.1,3.9
									C-1177.2,448-1177.1,448.1-1177.2,448.3z"/>
								<path id="Path_19" fill="#ED1C24" d="M-1179.6,439.2c0,0.1-0.1,0.1-0.2,0.1c-2.3,0.6-4.5,1-6.8,1.2
									c-2.1,0.2-4.3,0.4-6.4,0.3c-3.8-0.1-7.6-0.6-11.3-1.5c-0.1,0-0.2,0-0.2,0l0,0c0,0,0,0,0,0c0.8-3,1.6-6,2.5-8.9c0,0,0,0,0,0
									c0,0,0.1,0,0.1,0c2.3,0.4,4.6,0.7,7,0.9c2,0.1,3.9,0.1,5.9,0c1.4-0.1,2.8-0.2,4.1-0.4c1-0.1,2.1-0.3,3.1-0.5l2.4,8.6
									C-1179.7,439.1-1179.7,439.2-1179.6,439.2z"/>
								<path id="Path_20" fill="#FFFFFF" d="M-1182.1,430.4c-1,0.2-2.1,0.3-3.1,0.5c-1.4,0.2-2.8,0.3-4.1,0.4c-2,0.1-3.9,0.1-5.9,0
									c-2.3-0.1-4.7-0.4-7-0.9c0,0-0.1,0-0.1,0c0.8-3,1.7-6,2.5-9.1c0.1,0.1,0.2,0.1,0.4,0.1c2.5,0.4,5.1,0.6,7.7,0.6
									c2.4,0,4.7-0.2,7.1-0.7c0.2,0.6,0.3,1.2,0.5,1.8c0.3,1.2,0.7,2.4,1,3.6c0.3,0.9,0.5,1.9,0.8,2.8
									C-1182.2,429.8-1182.2,430.1-1182.1,430.4z"/>
								<path id="Path_21" fill="#ED1C24" d="M-1184.6,421.3c-2.3,0.4-4.7,0.6-7.1,0.7c-2.6,0-5.2-0.2-7.7-0.6c-0.1,0-0.3,0-0.4-0.1
									c1-3.8,2.1-7.5,3.1-11.3c0-0.1,0.1-0.1,0.1-0.2c0.2,0.4,0.7,0.5,1.1,0.6c0.9,0.2,1.8,0.3,2.7,0.3c1,0,2,0,3-0.1
									c0.6-0.1,1.1-0.2,1.6-0.4c0.1-0.1,0.2-0.2,0.4-0.3c0.3,0.9,0.5,1.8,0.8,2.7C-1186.2,415.5-1185.4,418.4-1184.6,421.3z"/>
								<path id="Path_22" fill="#FFFFFF" d="M-1191.9,460.6c-1,0-1.8,0-2.6,0c-1,0-2-0.1-2.9-0.1c-0.9-0.1-1.8-0.1-2.7-0.2
									c-1.3-0.1-2.5-0.3-3.8-0.5c-1.2-0.2-2.3-0.4-3.4-0.7c-1.2-0.3-2.3-0.7-3.3-1.3c-0.3-0.2-0.6-0.4-0.8-0.7
									c-0.4-0.5-0.2-1.3,0.3-1.7c0.6-0.5,1.3-0.9,2.1-1.1c0.1,0,0.1-0.1,0.2,0s0,0.1,0,0.2c0,0,0,0,0,0.1
									c-0.4,0.9-0.1,1.4,0.8,1.9c0.9,0.5,1.8,0.8,2.7,1.1c1.3,0.3,2.6,0.6,3.8,0.8c0.9,0.1,1.8,0.2,2.8,0.3
									c1.3,0.1,2.6,0.2,3.8,0.2c1.8,0.1,3.5,0,5.3,0c1,0,2.1-0.1,3.1-0.2c1-0.1,2-0.2,3-0.3c1.6-0.2,3.3-0.5,4.9-0.9
									c0.9-0.2,1.8-0.6,2.6-1c0.3-0.2,0.5-0.4,0.7-0.6c0.2-0.3,0.2-0.7,0.1-1c-0.1-0.2-0.2-0.4-0.1-0.5s0.3,0.1,0.5,0.1
									c0.5,0.2,1,0.4,1.5,0.8c0.2,0.2,0.5,0.4,0.6,0.6c0.3,0.5,0.2,1.2-0.3,1.5c0,0,0,0,0,0c-0.8,0.7-1.8,1.1-2.9,1.4
									c-1.1,0.3-2.2,0.6-3.4,0.8c-0.8,0.2-1.6,0.3-2.4,0.4c-0.8,0.1-1.5,0.2-2.3,0.3c-0.5,0.1-1,0.1-1.5,0.1
									c-1.2,0.1-2.5,0.1-3.7,0.2C-1190.2,460.6-1191.2,460.6-1191.9,460.6z"/>
							</g>
							<g id="Group_20">
								<path id="Path_23" fill="#ED1C24" d="M-1084.8,389.1c0.1,0.5,0.3,1,0.4,1.5c0,0.1,0.1,0.2,0.2,0.2c0.9,0.1,1.9,0.4,2.8,0.7
									c0.4,0.1,0.8,0.3,1.2,0.5c0.3,0.2,0.6,0.4,0.7,0.7v0.4c0,0,0,0-0.1,0c-0.1,0.2-0.2,0.3-0.3,0.4c-0.4,0.3-0.9,0.6-1.4,0.7
									c-1,0.3-2,0.6-3,0.7c-0.5,0.1-1.1,0.2-1.6,0.2c-0.6,0.1-1.3,0.1-1.9,0.2c-0.4,0-0.9,0.1-1.3,0.1c-0.5,0-1.1,0-1.6,0.1
									c-1.2,0-2.4,0-3.6,0c-0.3,0-0.5,0-0.8,0c-0.1,0-0.3,0-0.4,0c-0.4,0-0.8-0.1-1.2-0.1c-0.3,0-0.6,0-0.9-0.1
									c-0.4,0-0.7-0.1-1.1-0.1c-0.5-0.1-1-0.1-1.4-0.2c-0.5-0.1-1-0.2-1.5-0.4c-0.7-0.2-1.3-0.4-1.9-0.7c-0.2-0.1-0.4-0.3-0.6-0.5
									c0,0,0-0.1-0.1-0.1v-0.3c0.2-0.4,0.5-0.7,0.8-0.8c0.7-0.4,1.4-0.6,2.2-0.8c0.6-0.1,1.2-0.3,1.8-0.4c0.1,0,0.1-0.1,0.1-0.1
									c0.1-0.5,0.3-1.1,0.4-1.6c0,0,0.1,0,0.1,0c0.3,0.1,0.7,0.2,1,0.2c1.6,0.3,3.2,0.6,4.8,0.6c1.1,0,2.2,0,3.3-0.1
									c1.2-0.1,2.4-0.3,3.5-0.5C-1085.7,389.3-1085.3,389.2-1084.8,389.1z M-1091.7,394.9c0.3,0,0.8,0,1.2,0
									c0.6,0,1.2-0.1,1.7-0.1c0.2,0,0.5,0,0.7-0.1c0.4,0,0.7-0.1,1.1-0.1c0.4-0.1,0.8-0.1,1.1-0.2c0.5-0.1,1.1-0.2,1.6-0.4
									c0.5-0.1,0.9-0.3,1.3-0.7c0.2-0.1,0.3-0.5,0.2-0.7c0,0,0,0,0,0c-0.1-0.1-0.2-0.2-0.3-0.3c-0.2-0.2-0.5-0.3-0.7-0.4
									c-0.1,0-0.2-0.1-0.2-0.1s0,0.2,0.1,0.3c0.1,0.1,0.1,0.3,0,0.5c-0.1,0.1-0.2,0.2-0.3,0.3c-0.4,0.2-0.8,0.4-1.2,0.5
									c-0.8,0.2-1.5,0.3-2.3,0.4c-0.5,0.1-1,0.1-1.4,0.2c-0.5,0-1,0.1-1.5,0.1c-0.8,0-1.7,0-2.5,0c-0.6,0-1.2-0.1-1.8-0.1
									c-0.4,0-0.9-0.1-1.3-0.1c-0.6-0.1-1.2-0.2-1.8-0.4c-0.5-0.1-0.9-0.3-1.3-0.5c-0.4-0.3-0.6-0.5-0.4-0.9c0,0,0,0,0,0
									c0,0,0-0.1,0-0.1s-0.1,0-0.1,0c-0.4,0.1-0.7,0.3-1,0.5c-0.3,0.2-0.3,0.5-0.1,0.8c0.1,0.1,0.2,0.3,0.4,0.3
									c0.5,0.3,1,0.5,1.6,0.6c0.5,0.1,1.1,0.2,1.6,0.3c0.6,0.1,1.2,0.2,1.8,0.2c0.4,0,0.8,0.1,1.3,0.1c0.5,0,0.9,0,1.4,0.1
									C-1092.6,394.9-1092.2,394.9-1091.7,394.9L-1091.7,394.9z"/>
								<path id="Path_24" fill="#C1272D" d="M-1090,397.2c-0.1,0-0.2,0-0.3,0c-0.2,0-0.4,0-0.5,0h-2c-0.2,0-0.3,0-0.5,0h-0.4
									c0,0-0.1,0-0.1,0c-1.6-0.1-3.2-0.2-4.8-0.4c-1.1-0.1-2.1-0.4-3.2-0.6c-0.6-0.2-1.3-0.4-1.8-0.8c-0.3-0.2-0.5-0.4-0.6-0.7
									v-1.6c0.1,0,0.1,0.1,0.1,0.1c0.2,0.2,0.4,0.4,0.6,0.5c0.6,0.3,1.2,0.6,1.9,0.7c0.5,0.1,1,0.3,1.5,0.4c0.5,0.1,1,0.2,1.4,0.2
									c0.4,0.1,0.7,0.1,1.1,0.1c0.3,0,0.6,0.1,0.9,0.1c0.4,0,0.8,0.1,1.2,0.1c0.1,0,0.3,0,0.4,0c0.3,0,0.5,0,0.8,0
									c1.2,0.1,2.4,0.1,3.6,0c0.5,0,1.1,0,1.6-0.1c0.4,0,0.9,0,1.3-0.1c0.7-0.1,1.3-0.1,1.9-0.2c0.5-0.1,1.1-0.1,1.6-0.2
									c1-0.2,2-0.4,3-0.7c0.5-0.2,1-0.4,1.4-0.7c0.1-0.1,0.3-0.2,0.3-0.4c0,0,0,0,0.1,0v1.6c-0.2,0.3-0.4,0.6-0.7,0.7
									c-0.4,0.2-0.9,0.4-1.3,0.6c-1.8,0.5-3.6,0.8-5.4,1C-1088,397.2-1089,397.2-1090,397.2z"/>
								<path id="Path_25" fill="#FFFFFF" d="M-1091.3,370.4c0.2,0,0.4,0.1,0.6,0.1c0.2,0,0.5,0.1,0.7,0.2c0.1,0,0.2,0.1,0.2,0.2
									c-0.1,0-0.1,0.1-0.2,0.1c-0.2,0.1-0.5,0.2-0.8,0.2c-0.5,0.1-1,0.1-1.4,0.1c-0.4,0-0.9-0.1-1.3-0.1c-0.2,0-0.4-0.1-0.5-0.3
									c0-0.1,0.1-0.2,0.2-0.2c0.3-0.1,0.6-0.2,0.9-0.2c0.1,0,0.3,0,0.4-0.1L-1091.3,370.4z"/>
								<path id="Path_26" fill="#FFFFFF" d="M-1084.8,389.1c-0.5,0.1-0.9,0.2-1.4,0.3c-1.2,0.2-2.3,0.4-3.5,0.5
									c-1.1,0.1-2.2,0.1-3.3,0.1c-1.6-0.1-3.2-0.3-4.8-0.6c-0.3-0.1-0.7-0.2-1-0.2c0,0-0.1,0-0.1,0c0.3-1,0.5-2,0.8-3
									c0.1-0.4,0.2-0.8,0.3-1.1c0-0.1,0-0.1,0.1-0.1c0,0,0.1,0,0.1,0c1.8,0.4,3.5,0.7,5.4,0.7c1,0,2,0,3-0.1
									c1.1-0.1,2.2-0.3,3.2-0.6c0,0,0.1,0,0.1-0.1c0.1,0.3,0.2,0.7,0.3,1c0.1,0.4,0.2,0.8,0.3,1.2c0.2,0.6,0.3,1.2,0.5,1.9
									C-1084.8,388.9-1084.8,389-1084.8,389.1z"/>
								<path id="Path_27" fill="#ED1C24" d="M-1086,384.8C-1086,384.9-1086,384.8-1086,384.8c-1.2,0.3-2.2,0.5-3.3,0.6
									c-1,0.1-2,0.2-3,0.1c-1.8,0-3.6-0.3-5.4-0.7c0,0-0.1,0-0.1,0l0,0c0,0,0,0,0,0c0.4-1.4,0.8-2.8,1.2-4.2c0,0,0,0,0,0
									c0,0,0,0,0.1,0c1.1,0.2,2.2,0.3,3.3,0.4c0.9,0,1.8,0,2.8,0c0.7,0,1.3-0.1,1.9-0.2c0.5-0.1,1-0.2,1.5-0.2
									c0.4,1.4,0.8,2.7,1.1,4.1C-1086,384.7-1086,384.8-1086,384.8z"/>
								<path id="Path_28" fill="#FFFFFF" d="M-1087.1,380.6c-0.5,0.1-1,0.2-1.5,0.2c-0.6,0.1-1.3,0.1-1.9,0.2c-0.9,0-1.8,0-2.8,0
									c-1.1-0.1-2.2-0.2-3.3-0.4c0,0,0,0-0.1,0l1.2-4.3c0.1,0,0.1,0.1,0.2,0c1.2,0.2,2.4,0.3,3.6,0.3c1.1,0,2.2-0.1,3.3-0.3
									c0.1,0.3,0.2,0.6,0.2,0.8c0.2,0.6,0.3,1.1,0.5,1.7c0.1,0.4,0.2,0.9,0.4,1.3C-1087.2,380.3-1087.2,380.5-1087.1,380.6z"/>
								<path id="Path_29" fill="#ED1C24" d="M-1088.3,376.3c-1.1,0.2-2.2,0.3-3.3,0.3c-1.2,0-2.4-0.1-3.6-0.3c-0.1,0-0.1,0-0.2,0
									c0.5-1.8,1-3.5,1.5-5.3c0,0,0-0.1,0-0.1c0.1,0.2,0.3,0.2,0.5,0.3c0.4,0.1,0.8,0.1,1.3,0.1c0.5,0,1,0,1.4-0.1
									c0.3,0,0.5-0.1,0.8-0.2c0.1,0,0.1-0.1,0.2-0.1c0.1,0.4,0.2,0.8,0.4,1.3C-1089.1,373.6-1088.7,375-1088.3,376.3z"/>
								<path id="Path_30" fill="#FFFFFF" d="M-1091.7,394.9c-0.5,0-0.9,0-1.2,0c-0.5,0-0.9,0-1.4-0.1c-0.4,0-0.9-0.1-1.3-0.1
									c-0.6-0.1-1.2-0.1-1.8-0.2c-0.5-0.1-1.1-0.2-1.6-0.3c-0.5-0.1-1.1-0.3-1.6-0.6c-0.2-0.1-0.3-0.2-0.4-0.3
									c-0.2-0.3-0.1-0.6,0.1-0.8c0.3-0.2,0.6-0.4,1-0.5c0,0,0.1,0,0.1,0s0,0.1,0,0.1c0,0,0,0,0,0c-0.2,0.4,0,0.7,0.4,0.9
									c0.4,0.2,0.8,0.4,1.3,0.5c0.6,0.2,1.2,0.3,1.8,0.4c0.4,0.1,0.9,0.1,1.3,0.1c0.6,0,1.2,0.1,1.8,0.1c0.8,0,1.7,0,2.5,0
									c0.5,0,1,0,1.5-0.1s1-0.1,1.4-0.2c0.8-0.1,1.5-0.2,2.3-0.4c0.4-0.1,0.8-0.3,1.2-0.5c0.1-0.1,0.3-0.2,0.3-0.3
									c0.1-0.1,0.1-0.3,0-0.5c0-0.1-0.1-0.2-0.1-0.3s0.2,0,0.2,0.1c0.2,0.1,0.5,0.2,0.7,0.4c0.1,0.1,0.2,0.2,0.3,0.3
									c0.2,0.2,0.1,0.6-0.1,0.7c0,0,0,0,0,0c-0.4,0.3-0.9,0.5-1.3,0.7c-0.5,0.2-1,0.3-1.6,0.4c-0.4,0.1-0.8,0.1-1.1,0.2
									c-0.4,0-0.7,0.1-1.1,0.1c-0.2,0-0.5,0-0.7,0.1c-0.6,0-1.2,0.1-1.7,0.1C-1090.9,394.9-1091.4,394.9-1091.7,394.9z"/>
							</g>
							<g id="Group_24">
								
									<rect id="Rectangle_47" x="-1017.3" y="318.1" transform="matrix(6.467164e-02 -0.9979 0.9979 6.467164e-02 -1275.9324 -696.4386)" fill="#51586D" width="15.7" height="28.6"/>
								<g id="Group_21">
									
										<rect id="Rectangle_48" x="-1076.9" y="370.6" transform="matrix(0.3981 -0.9173 0.9173 0.3981 -966.2208 -728.5608)" fill="#1A1A1A" width="77.1" height="2.9"/>
									
										<rect id="Rectangle_49" x="-1071.7" y="372.9" transform="matrix(0.3981 -0.9173 0.9173 0.3981 -965.1521 -722.382)" fill="#1A1A1A" width="77.1" height="2.9"/>
									<path id="Path_31" fill="#51586D" d="M-1042.6,399.8l-2.6-1.2l-2.6-1.2l-2.6-1.2l-1-0.4l-48.9,108.8l0,0.3l-2.9,20.1
										l13.1-15.5l0,0l49-109L-1042.6,399.8z M-1085.3,492.1l-5.2-2.4l6.6-14.2l5.2,2.4L-1085.3,492.1z"/>
								</g>
								<g id="Group_22">
									
										<rect id="Rectangle_50" x="-987.1" y="336.9" transform="matrix(0.9611 -0.276 0.276 0.9611 -141.9464 -257.4975)" fill="#1A1A1A" width="2.9" height="77.1"/>
									
										<rect id="Rectangle_51" x="-992.6" y="338.5" transform="matrix(0.9611 -0.276 0.276 0.9611 -142.5957 -258.9525)" fill="#1A1A1A" width="2.9" height="77.1"/>
									<path id="Path_32" fill="#51586D" d="M-941.3,515.2v-0.3l-34.5-114.2l-1,0.3l-2.7,0.8l-2.7,0.8l-2.7,0.8l-1.6,0.5
										l34.6,114.4l0,0.1l11,17L-941.3,515.2z M-953.9,502.1l-4.7-14.9l5.5-1.7l4.7,14.9L-953.9,502.1z"/>
								</g>
								<g id="Group_23">
									
										<rect id="Rectangle_52" x="-1042.4" y="373" transform="matrix(8.097693e-02 -0.9967 0.9967 8.097693e-02 -1299.9053 -661.3549)" fill="#1A1A1A" width="67.6" height="2.5"/>
									
										<rect id="Rectangle_53" x="-1047.4" y="372.6" transform="matrix(8.061633e-02 -0.9967 0.9967 8.061633e-02 -1304.5933 -666.6218)" fill="#1A1A1A" width="67.5" height="2.5"/>
									<path id="Path_33" fill="#51586D" d="M-1009.3,397.9l-5.1-0.3l-2.5-0.2l-1.5-0.1l-7.1,104.3l0,0l3.8,17.3l6.1-16.7l0.1-0.2
										l7-104.1L-1009.3,397.9z M-1016.1,489.5l-5.7-0.4l0.7-11.4l5.7,0.4L-1016.1,489.5z"/>
									<path id="Rectangle_54" fill="#1A1A1A" d="M-1015.5,402.9L-1015.5,402.9c0.6,0,1,0.6,1,1.2l-3.1,38.5c0,0.6-0.6,1-1.2,1
										l0,0c-0.6,0-1-0.6-1-1.2l3.1-38.5C-1016.6,403.3-1016.1,402.9-1015.5,402.9z"/>
									<path id="Rectangle_55" fill="#1A1A1A" d="M-1011.2,403.2L-1011.2,403.2c0.6,0,1,0.6,1,1.2l-3.1,38.5c0,0.6-0.6,1-1.2,1
										l0,0c-0.6,0-1-0.6-1-1.2l3.1-38.5C-1012.3,403.6-1011.8,403.1-1011.2,403.2z"/>
								</g>
								<path id="Rectangle_56" fill="#363A49" d="M-1016.5,325.6l2.7,1.2c1.6,0.7,2.4,2.6,1.7,4.2l-3.3,7.7
									c-0.7,1.6-2.6,2.4-4.2,1.7l-2.7-1.2c-1.6-0.7-2.4-2.6-1.7-4.2l3.3-7.7C-1020,325.6-1018.1,324.9-1016.5,325.6z"/>
								<path id="Rectangle_57" fill="#363A49" d="M-996.8,340.8l-2.8,0.8c-1.7,0.5-3.5-0.5-4-2.2l-2.3-8c-0.5-1.7,0.5-3.5,2.2-4
									l2.8-0.8c1.7-0.5,3.5,0.5,4,2.2l2.3,8C-994.1,338.5-995.1,340.3-996.8,340.8z"/>
								
									<rect id="Rectangle_58" x="-1013.4" y="283.3" transform="matrix(6.467164e-02 -0.9979 0.9979 6.467164e-02 -1245.193 -719.8233)" fill="#363A49" width="13.6" height="42.2"/>
								
									<rect id="Rectangle_59" x="-1013.5" y="288.5" transform="matrix(6.467164e-02 -0.9979 0.9979 6.467164e-02 -1242.2831 -724.7464)" fill="#51586D" width="11.4" height="23.6"/>
								<path id="Path_34" fill="#51586D" d="M-996.1,314l0.3-4.3l-24.2-1.6l-0.3,4.3l-1.4-0.1l-0.3,4.3l27.1,1.8l0.3-4.3
									L-996.1,314z"/>
								
									<rect id="Rectangle_60" x="-1012" y="305" transform="matrix(6.467164e-02 -0.9979 0.9979 6.467164e-02 -1263.5486 -705.9923)" fill="#363A49" width="7.1" height="32.1"/>
								
									<rect id="Rectangle_61" x="-1016.3" y="292.6" transform="matrix(6.467164e-02 -0.9979 0.9979 6.467164e-02 -1243.9456 -729.0746)" width="10.7" height="12.9"/>
								
									<rect id="Rectangle_62" x="-1035.1" y="302.2" transform="matrix(6.467164e-02 -0.9979 0.9979 6.467164e-02 -1264.1238 -742.8401)" width="13.6" height="1.4"/>
								<path id="Path_35" d="M-1028.7,297.4l-1.4-0.1l0-0.6l-2.1-0.1l-0.8,12.1l2.1,0.1l0-0.6l1.4,0.1L-1028.7,297.4z"/>
								<path id="Rectangle_63" d="M-986,312.5L-986,312.5L-986,312.5l0.9-13.5l0,0l0,0c0.8,0.1,1.4,0.7,1.3,1.5l-0.7,10.7
									C-984.5,311.9-985.2,312.5-986,312.5z"/>
								<circle id="Ellipse_2" cx="-1012.5" cy="312.2" r="2.1"/>
								<circle id="Ellipse_3" cx="-1003.9" cy="312.7" r="2.1"/>
								<circle id="Ellipse_4" cx="-1008.7" cy="321" r="0.7"/>
								<path id="Rectangle_64" fill="#363A49" d="M-1017.7,397l8.7,0.6c0.6,0,1,0.5,0.9,1.1l-0.4,5.8c0,0.6-0.5,1-1.1,0.9l-8.7-0.6
									c-0.6,0-1-0.5-0.9-1.1l0.4-5.8C-1018.7,397.4-1018.2,397-1017.7,397z"/>
								<circle id="Ellipse_5" fill="#1A1A1A" cx="-1013.9" cy="400.9" r="2.1"/>
								<circle id="Ellipse_6" fill="#CCCCCC" cx="-1013.9" cy="400.9" r="0.7"/>
								<path id="Rectangle_65" fill="#363A49" d="M-1015.4,428.7l3.6,0.2c0.2,0,0.3,0.2,0.3,0.3l-0.7,11.5c0,0.2-0.2,0.3-0.3,0.3
									l-3.6-0.2c-0.2,0-0.3-0.2-0.3-0.3l0.7-11.5C-1015.7,428.8-1015.6,428.7-1015.4,428.7z"/>
								<path id="Rectangle_66" fill="#363A49" d="M-1019.7,428.4l3.6,0.2c0.2,0,0.3,0.2,0.3,0.3l-0.7,11.5c0,0.2-0.2,0.3-0.3,0.3
									l-3.6-0.2c-0.2,0-0.3-0.2-0.3-0.3l0.7-11.5C-1020,428.5-1019.9,428.4-1019.7,428.4z"/>
								<path id="Path_36" d="M-965.3,422.2L-965.3,422.2c-0.8,0.3-1.5,0-1.8-0.6l-6.1-14.1l-5.4-0.2c-0.5,0-0.9-0.4-0.9-0.9
									c0,0,0,0,0,0l0.1-1.5c0-0.5,0.4-0.9,0.9-0.9c0,0,0,0,0,0l5.1,0.2c0,0,0.1,0,0.1-0.1l0.1,0c0.7-0.3,1.5,0,1.7,0.7l6.8,15.7
									C-964.3,421.1-964.6,421.9-965.3,422.2z"/>
								<path id="Path_37" d="M-1064.7,416.4L-1064.7,416.4c0.7,0.4,1.5,0.2,1.9-0.4l7.9-13.2l5.4,0.5c0.5,0,0.9-0.3,1-0.8
									c0,0,0,0,0,0l0.1-1.5c0-0.5-0.3-0.9-0.8-1c0,0,0,0,0,0l-5.1-0.5c0,0-0.1-0.1-0.1-0.1l-0.1,0c-0.6-0.4-1.4-0.2-1.8,0.5
									l-8.8,14.7C-1065.5,415.3-1065.3,416.1-1064.7,416.4z"/>
							</g>
						</g>
					</g>
				</g>
				<g id="Group_31">
					<g id="Group_30">
						<path id="Path_39" fill="#FCA286" d="M-1485.2,399.9c0,0-1.1,7.2-3.1,8.4s9.9,3.8,9.9,3.8l1.9-11.4L-1485.2,399.9z"/>
						<path id="Path_40" fill="#51586D" d="M-1471.1,317.1l4.2,5l-1.9,17.2l-1.5,33.9c0,0,3.1,29.4,0,30.1s-16.8,0.4-16.4-1.5
							s0.8-3.4,1.5-6.1s-0.8-12.2-0.8-12.2l1.9-10.7l-6.9-46.1L-1471.1,317.1z"/>
						<path id="Path_41" fill="#363A49" d="M-1484.8,407.1c0,0-4.2-0.8-4.6,0s-7.6,8.8-8.8,8.8s-9.5,7.6-0.8,8s23.3-6.5,23.3-6.5
							s-2.1-9.7-2-9.2S-1484.8,409-1484.8,407.1z"/>
						<path id="Path_42" fill="#FCA286" d="M-1489.4,389.6c0,0,10.7,11.8,11.1,13s6.1,0,6.1,0l2.3-7.6l-1.9-2.7l-10.7-8.8
							L-1489.4,389.6z"/>
						<path id="Path_43" fill="#363A49" d="M-1474.1,398.4l-5.5,5.2c0,0,7.1,10.8,7.1,12s0.4,10.7,4.2,9.2s4.2-16.8,4.2-16.8
							s-0.4-15.6-2.7-16.8s-7.3-0.8-7.3-0.8S-1471.1,398-1474.1,398.4z"/>
						<path id="Path_44" fill="#51586D" d="M-1505.8,283.2c0,0-1.9,6.1-2.3,7.6s-2.7,5.7-2.7,12.2s0.8,14.1,0,14.9s-13,43.5-7.6,48
							s22.9,19.8,24,21.7s1.5,6.5,3.8,5.7s11.1-8.4,11.4-9.9s-5-4.2-5-4.2s-10.7-15.6-13.3-15.3s-2.3-1.9-1.9-3s1.1-1.9,0-1.9
							s-0.4-3,0-4.6s9.2-22.1,9.2-22.1l23.3-10.3c0,0-1.1-27.8-9.5-35.5l-1.9-4.6C-1478.3,282.1-1499.7,280.5-1505.8,283.2z"/>
						<path id="Path_45" fill="#FCA286" d="M-1496.2,223c0,0,1.9,13.3-2.7,14.1s-8.4,0.4-8.4,0.8s11.4,12.2,11.4,12.2l10.7-0.8
							l9.5-10.3c0,0-8.8-1.5-8.8-6.9s-0.4-9.2-0.4-9.2L-1496.2,223z"/>
						<ellipse id="Ellipse_7" fill="#FCA286" cx="-1491" cy="217.6" rx="10" ry="13.7"/>
						<path id="Path_46" fill="#D8D8D8" d="M-1500.8,235.9c0,0-14.9,1.9-16,6.9s7.6,35.8,8.8,38.5c0.7,1.4,0.9,3,0.8,4.6
							c3.5-2.6,7.9-3.6,12.2-2.7c7.2,1.5,17.5,0.8,17.5,0.8s3.4-14.1,4.2-15.6s3.8-9.9,3.8-12.2s4.6-11.8,4.6-11.8
							s-2.3-6.9-10.7-6.5c0,0-3.7-1.6-4.7-0.4s-6.7,6.5-14,4.3S-1500.8,235.9-1500.8,235.9z"/>
						<g id="Group_27">
							<path id="Path_47" fill="#6253FF" d="M-1464.5,311.4c-4.1,1.2-8.3,2.4-12.4,3.7c-0.8-3.4-1.5-6.8-2.3-10.2
								c-0.4-1.8-0.8-3.7-1-5.5c-0.3-1.7-0.5-3.4-0.6-5c-0.2-1.9-0.4-3.7-0.5-5.6c-0.1-1.7-0.2-3.4-0.3-5.1c0-0.7-0.1-1.4-0.1-2
								c-1-15.3-2-31.1,2.8-45.8c0.3-0.8,0.7-1.7,1.5-1.8c1.3,1.2,3,2,4.7,2.3l-2.5-0.4c2.7,0.8,5.4,1.6,8.1,2.4
								c0.4,6.3-1.1,12.6-1.7,18.8c-0.7,8.4-0.4,16.8,0.8,25.1c0.2,1.7,0.4,3.4,0.7,5c0.3,1.9,0.5,3.7,0.8,5.6
								c0.2,1.7,0.5,3.4,0.7,5C-1465.4,302.4-1464.9,306.9-1464.5,311.4z"/>
							<path id="Path_48" fill="#E6E6E6" d="M-1467.5,287.3l-13.8,1.3c-0.1-1.7-0.2-3.4-0.3-5.1l13.5-1.3
								C-1468,284-1467.7,285.7-1467.5,287.3z"/>
							<path id="Path_49" fill="#E6E6E6" d="M-1466,298l-14.2,1.4c-0.3-1.7-0.5-3.4-0.6-5l14.1-1.4
								C-1466.5,294.6-1466.2,296.3-1466,298z"/>
						</g>
						<g id="Group_28">
							<path id="Path_50" fill="#6253FF" d="M-1490.8,299.6c-0.1,4-0.2,8-0.5,12c-0.2,1.7-0.4,3.5-0.4,5.3c0-0.1-0.1-0.8-0.1-0.9
								c-1.8,0.3-3.6,0.3-5.4-0.2c-2.7-0.6-5.5-1-8.3-1.2c-1.6-0.1-3.1-0.6-4.6-1.3c-1-0.6-1.9-1.5-3-2.1c0.2-3.9,0.4-7.7,0.6-11.6
								l0.2-5.1c0.1-1.9,0.2-3.8,0.3-5.6c0.1-1.7,0.2-3.4,0.3-5.1c0.1-1.7,0.2-3.4,0.3-5.1c0.6-9.8,0-19.5-0.3-29.3
								c0-1.5-0.2-3.1-0.5-4.6c-0.5-2,0.2-3.9-1.6-4.8c-0.4-0.2-0.8-0.4-1.3-0.6c-0.5-0.6,0.5-1.3,1.2-1.5c3.7-0.9,7.4-1.8,11.1-2.8
								c0.4-0.1,0.7-0.1,1.1,0c0.3,0.2,0.5,0.4,0.6,0.7c0.9,2,1.9,4.1,2.8,6.1c0.8,1.7,1.6,3.4,2.2,5.2c0.7,2.2,1.2,4.5,1.6,6.9
								c1.7,9.9,2.7,19.8,3.2,29.8c0.1,1.7,0.1,3.4,0.2,5.1c0.1,1.9,0.1,3.8,0.1,5.6C-1490.8,296.3-1490.8,297.9-1490.8,299.6z"/>
							<path id="Path_51" fill="#E6E6E6" d="M-1491.1,283.9h-20.5c-0.1,1.7-0.2,3.4-0.3,5.1h20.9L-1491.1,283.9z"/>
							<path id="Path_52" fill="#E6E6E6" d="M-1490.8,294.6h-21.3l-0.2,5.1h21.5L-1490.8,294.6z"/>
						</g>
						<path id="Path_53" fill="#D8D8D8" d="M-1512.6,242.4h-4.2l-2.3,30.1c0,0,8.4,2.3,9.5,0.8S-1512.6,242.4-1512.6,242.4z"/>
						<path id="Path_54" fill="#D8D8D8" d="M-1518,269.5l-1.1,3c0,0-0.8,9.9,3.8,9.5s7.2-6.1,7.2-6.1s-2.7-7.2-5.7-6.5
							S-1518,269.5-1518,269.5z"/>
						<path id="Path_55" fill="#D8D8D8" d="M-1472.2,242.4l7.2,1.9c0,0,5.3,19.4,5.7,19.8c0.4,0.8,0.6,1.7,0.8,2.7
							c0,0,0,0.4,0.8,1.5s1.9,0.4,1.1,1.9s-1.9,0.8-1.1,2.3s0.4,5.7,0.4,5.7s-1.9-7.2-8.8-5.3l-4.6-20.6L-1472.2,242.4z"/>
						<path id="Path_56" fill="#333333" d="M-1477.6,208.1c2.4,4.2,2.9,9.2,3.3,14.1c0.3,2.1,0.1,4.2-0.4,6.2
							c-0.7,2.1-2.1,4.2-1.4,6.3c0.7,2,3.1,2.8,4.5,4.5c1.1,1.5,1.5,3.3,1.3,5.1c-0.1,1.8-0.5,3.6-0.7,5.4c-0.3,3.9,1,7.8,3.4,10.9
							c-5.7-0.2-11.9-2.8-14.3-8c-0.7-1.6-1.1-3.3-1.7-4.9c-0.7-1.8-1.9-3.4-2.6-5.2c-1.1-2.7-1.1-5.7-1.2-8.7
							c-0.1-1.8,0.1-3.5,0.6-5.2c1.3-3.6,5.5-6,5.9-9.8c0.1-0.4,0-0.8-0.2-1.2c-0.2-0.3-0.4-0.5-0.7-0.7c-2.6-2.3-2.2-7.1-5.3-8.7
							c-1.5-0.6-3.1-0.6-4.5,0c-1.7,0.4-3.2,1.3-4.4,2.6c-2.2,2.7-1.3,6.6-0.6,10.1c1,4.9,1.3,10,1,15c0,0.8-0.1,1.6-0.4,2.4
							c-0.5,1.2-1.1,2.4-1.9,3.5c-1.3,2.4-1.7,5.1-1.2,7.8c0.5,2.3,1.6,4.8,0.6,6.9c-0.5,0.8-1.1,1.5-1.9,2.1
							c-3.4,2.6-7.7,4.3-10.2,7.8c-0.4-2.8,0.4-5.7,1-8.5s1-5.9-0.3-8.5c-0.5-1.1-1.4-2.1-1.8-3.3c-1-2.7,0.2-5.7,0.9-8.5
							c0.5-2.2,0.9-4.5,1.2-6.7l0.8-6.1c0.6-5.1,1.3-10.2,3.5-14.8c4.2-8.6,13.6-11.8,22.1-7.1
							C-1480.7,204-1478.9,205.8-1477.6,208.1z"/>
						<path id="Path_57" fill="#FCA286" d="M-1514.2,271.4c0,0-2.3,6.9,0.4,6.9s7.6-4.2,8-7.6s7.2-16.4,2.3-15.3s-7.2,10.7-7.2,10.7
							L-1514.2,271.4z"/>
						<path id="Path_58" fill="#999999" d="M-1475.7,242.4l-12.6,40.8l17.2,3.8l12.6-39.7L-1475.7,242.4z"/>
						<path id="Path_59" fill="#FCA286" d="M-1459.6,271.8l2.4,4c0,0,1,7.5-4.3,7.5s-13-7.2-13-7.2s-3.8-1.5-6.1-1.1
							s-14.9,0-9.5-6.5s14.5,0,14.5,0l9.5,4.6l5-2.7L-1459.6,271.8z"/>
						<path id="Path_60" fill="#D8D8D8" d="M-1462.9,266.6l-3.8,6.1c0,0,8.8,1.1,9.5,3s-3.4-9.9-3.4-9.9L-1462.9,266.6z"/>
						<g id="Group_29">
							<path id="Path_61" fill="#EA821B" d="M-1476.9,213.3c-0.5,2.3-2.7,3.5-3.5,3.9c-1,0.6-2.8,1.3-12.1,0.6
								c-1.6,0-3.1-0.2-4.6-0.6c-0.2-0.1-4.8-1.6-6.9-5.3c-0.1-0.2-1.1-2-0.8-2.2c0.1-0.1,0.4,0.1,0.4,0.1c1.3,0.3,6.6,0.8,6.6,0.8
								c6.2,0.2,5.7-0.2,9.3,0.1c1.8,0.2,3.6,0.3,5.4,0.2c1.3-0.1,2.5-0.3,3.8-0.6c0.9-0.2,1.2-0.7,1.6-0.6
								C-1476.9,210-1476.6,211.9-1476.9,213.3z"/>
							<path id="Path_62" fill="#F7931E" d="M-1477.3,206.8c0,1-0.1,1.9-0.4,2.9c-0.6,0.2-1.3,0.5-1.7,0.6c-1.3,0.3-2.6,0.5-3.9,0.6
								c-5,0.6-10.1,0.5-15.1-0.3c-2.3-0.3-4.5-0.4-6.8-0.8c-0.3-1-0.4-1.9-0.4-2.9c0-6.3,5.7-11.5,11.9-12.6V193h4.4v1.1
								C-1482.9,195.1-1477.3,200.4-1477.3,206.8z"/>
							<path id="Path_63" opacity="0.27" enable-background="new    " d="M-1479.4,209.2c0.2,0,0.5,0.1,0.9,0.2
								c-0.3,0.1-0.6,0.1-0.9,0.2c-1.8,0.2-3.1,0.3-3.9,0.4c-3.8,0.1-3.5,0.2-6.1,0.2c-0.9,0-2.6,0-9-0.4c-2.4-0.1-4.3-0.3-5.6-0.3
								c1.3-0.1,3.2-0.3,5.6-0.3c3.6-0.1,3.7,0,8.4-0.1"/>
							
								<ellipse id="Ellipse_8" transform="matrix(0.5873 -0.8094 0.8094 0.5873 -781.7253 -1131.2159)" fill="#F2F2F2" cx="-1500.1" cy="200.9" rx="3.5" ry="1"/>
						</g>
					</g>
				</g>
				<g id="Group_32">
					<path id="Rectangle_67" d="M-1437.6,287.9h0.6c1.2,0,2.2,1,2.2,2.2v143.5c0,1.2-1,2.2-2.2,2.2h-0.6c-1.2,0-2.2-1-2.2-2.2V290.1
						C-1439.7,288.9-1438.8,287.9-1437.6,287.9z"/>
					<rect id="Rectangle_68" x="-1447.2" y="301.6" fill="#1A1A1A" width="5" height="8.7"/>
					<rect id="Rectangle_69" x="-1442.2" y="304" fill="#1A1A1A" width="2.5" height="3.7"/>
					<rect id="Rectangle_70" x="-1439.7" y="285.4" fill="#1A1A1A" width="5" height="6.2"/>
					<path id="Path_64" fill="#6253FF" d="M-1448.4,285.4h24.8l-1.2-26.1l-23.6-3.7L-1448.4,285.4z"/>
					<ellipse id="Ellipse_9" fill="#CCCCCC" cx="-1435.4" cy="271.8" rx="5.6" ry="6.2"/>
				</g>
				<g id="Group_35">
					<rect id="Rectangle_71" x="-1267.3" y="143" fill="#FF6E33" width="19.4" height="23.5"/>
					<g id="Group_33">
						<path id="Path_65" fill="#28282D" d="M-1323,139.3l-0.8-1l53.6-43.6l1.4-1l93.2,34.6l-0.4,1.2l-92.9-34.5L-1323,139.3z"/>
					</g>
					<circle id="Ellipse_10" fill="#FF8364" cx="-1322.5" cy="141.7" r="4.1"/>
					<circle id="Ellipse_11" fill="#FF8364" cx="-1268.1" cy="97.2" r="4.1"/>
					<circle id="Ellipse_12" fill="#FF8364" cx="-1174.9" cy="129.8" r="4.1"/>
					<path id="Path_66" fill="#363A49" d="M-1253.7,296.3L-1253.7,296.3l0-153.4c0,0,0,0,0,0h117.4c0.4,0,0.8-0.2,1.1-0.5
						c0.4-0.6,0.2-1.3-0.3-1.7c0,0,0,0-0.1,0l-18.6-11.1c-0.2-0.1-0.4-0.2-0.6-0.2l-59.5-0.3h0c-0.3-0.1-0.6-0.1-0.9,0h0l-19.6-0.1
						h0c-0.1,0-0.2,0-0.3,0c0,0,0,0-0.1,0c-0.1,0-0.1,0-0.2,0.1c0,0,0,0,0,0l-18.9,10c0,0,0,0,0,0c0,0,0,0,0,0l-13.2-42.3
						c-0.2-0.6-0.9-1-1.5-0.8c-0.6,0.2-0.9,0.7-0.9,1.3v42.2c0,0,0,0,0,0c0,0,0,0,0,0l-16.6-10.3c-0.2-0.1-0.4-0.2-0.7-0.2h-19.8
						c-0.1,0-0.2,0-0.2,0c-0.3,0-0.5,0-0.8,0.1c-0.3,0.2-0.5,0.4-0.6,0.8l0,0l-13.9,10.8c-0.3,0.2-0.5,0.6-0.5,1
						c0,0.7,0.6,1.2,1.2,1.2h51.9c0,0,0,0,0,0v170.6c0,0.3,0.1,0.6,0.3,0.9c0.2,0.2,0.6,0.4,0.9,0.4c0.3,0,0.7-0.1,0.9-0.4
						l11.4-12.4c0,0,0,0,0,0c0,0,0,0,0,0v11.5c0,0.6,0.4,1.1,1,1.3c0.7,0.1,1.3-0.3,1.4-1c0-0.1,0-0.2,0-0.2v-14.2c0,0,0,0,0,0
						 M-1308.5,140.5h-9.6l9.6-7.5V140.5z M-1306,140.5v-8.1l13.4,8.1H-1306z M-1289.4,139.5l-13.4-8.1h13.4V139.5z M-1286.9,140.5
						v-8.8l14.1,8.8H-1286.9z M-1257.7,136.2l-8-8.4h5.3L-1257.7,136.2z M-1267.3,105.3l6.2,19.9h-6.2V105.3z M-1267.3,129.6
						l10.3,10.9h-10.3V129.6z M-1267.3,182.4h9.8l-9.8,12.7V182.4z M-1267.3,199.9h9.8l-9.8,12V199.9z M-1267.3,216.6h9.7l-9.7,11.7
						V216.6z M-1267.3,233h9.8l-9.8,12V233z M-1267.3,249.7h9.7l-9.7,11.5V249.7z M-1267.3,265.8h9.7l-9.7,11.7V265.8z
						 M-1267.3,282.2h9.7l-9.7,11.7V282.2z M-1267.3,310.5v-11.8l10.8,0.1L-1267.3,310.5z M-1256.2,296.3l-9.8-0.1l9.8-11.8V296.3z
						 M-1256.2,279.7h-9.7l9.7-11.7V279.7z M-1256.2,263.3h-9.7l9.7-11.5V263.3z M-1256.2,247.2h-9.8l9.8-12V247.2z M-1256.2,230.5
						h-9.7l9.7-11.7V230.5z M-1256.2,214.1h-9.8l9.8-12V214.1z M-1256.2,197.4h-9.8l9.8-12.7L-1256.2,197.4z M-1256.2,179.9h-9.5
						l9.5-10.3V179.9z M-1256.2,166l-11.1,12v-35h11.1V166z M-1159,140.5h-12.8l12.8-7.7V140.5z M-1194.3,131.6l13.5,0.1l-13.5,7.9
						V131.6z M-1213.4,131.5l13.4,0.1l-13.4,8V131.5z M-1233.5,131.4l14.1,0.1l-14.1,8.1V131.4z M-1215.9,132.3v8.2h-14.2
						L-1215.9,132.3z M-1196.7,132.6v7.9h-13.4L-1196.7,132.6z M-1177.4,132.6v7.9h-13.5L-1177.4,132.6z M-1174.9,139.5v-7.8
						l12.8,0.1L-1174.9,139.5z M-1236,132.2v8.2h-15.5L-1236,132.2z M-1156.5,140.5v-8.7l1.4,0l14.4,8.7L-1156.5,140.5z"/>
					<rect id="Rectangle_72" x="-1308.5" y="143" fill="#CCCCCC" width="22.3" height="11.5"/>
					<path id="Path_67" fill="#35353A" d="M-1155.1,143v3.7h-2.1v11.5h-1.6v-11.5h-13.6v11.5h-1.6v-11.5h-2.9V143H-1155.1z"/>
					<g id="Group_34">
						<path id="Path_68" fill="#222154" d="M-1179.7,179.2c-0.2,0-0.4-0.1-0.5-0.3c-0.2-0.3-0.1-0.7,0.2-0.9l13.2-9.1
							c0.2-0.1,0.5-0.1,0.7,0l12.8,9.1c0.3,0.2,0.3,0.6,0.1,0.9c-0.2,0.3-0.6,0.3-0.9,0.1c0,0,0,0,0,0l-12.4-8.8l-12.8,8.8
							C-1179.4,179.2-1179.6,179.2-1179.7,179.2z"/>
					</g>
					<path id="Path_69" fill="#FF8364" d="M-1156.6,159.6l-8.5,5.5c1.8,1.5,2.9,4.1,0.7,5.9c-1,0.9-2.4,1.2-3.6,0.7
						c-1.2-0.4-2-1.4-2.2-2.6c-0.1-0.8,1.1-1.1,1.2-0.3c0.2,1.3,1.4,2.1,2.7,1.9c0.5-0.1,0.9-0.3,1.2-0.6c1.6-1.4,0.3-3.3-1-4.2
						c-0.1-0.1-0.2-0.2-0.2-0.3c-0.1,0-0.1,0-0.1-0.1l-8.9-5.7c-0.4-0.3-0.6-0.9-0.3-1.3c0.2-0.3,0.5-0.5,0.8-0.4h17.9
						c0.5,0,1,0.4,1,0.9C-1156.2,159.1-1156.4,159.4-1156.6,159.6z"/>
					<path id="Rectangle_73" fill="#222154" d="M-1169.1,170.8l2-1.4c0.2-0.2,0.5-0.1,0.7,0.1l0.1,0.1c0.2,0.2,0.1,0.5-0.1,0.7
						l-2,1.4c-0.2,0.2-0.5,0.1-0.7-0.1l-0.1-0.1C-1169.3,171.3-1169.3,171-1169.1,170.8z"/>
					<rect id="Rectangle_74" x="-1275.1" y="312.8" fill="#363A49" width="26.8" height="50.9"/>
					<path id="Path_70" fill="#8380F9" d="M-1180.3,178.4V206h27.6v-27.6H-1180.3z M-1163.4,200.3h-8.2v-15.7h8.2V200.3z"/>
					<rect id="Rectangle_75" x="-1267.3" y="143" fill="#363A49" width="19.4" height="23.5"/>
					<rect id="Rectangle_76" x="-1263.6" y="147.9" fill="#C8C7C9" width="13.6" height="11.5"/>
				</g>
				<g id="Group_47">
					<path id="Rectangle_77" fill="#363A49" d="M-1319.4,371.7h12.5c1.1,0,2,0.9,2,2l0,0c0,1.1-0.9,2-2,2h-12.5c-1.1,0-2-0.9-2-2
						l0,0C-1321.4,372.6-1320.5,371.7-1319.4,371.7z"/>
					<path id="Rectangle_78" fill="#363A49" d="M-1319.4,382.2h12.5c1.1,0,2,0.9,2,2l0,0c0,1.1-0.9,2-2,2h-12.5c-1.1,0-2-0.9-2-2
						l0,0C-1321.4,383.1-1320.5,382.2-1319.4,382.2z"/>
					<path id="Path_71" fill="#FF8364" d="M-1298,344.3h4.8l12.5,17.3l-13.7,22.6l-6.5,5.2h-8.1v-19l11.3-13.3L-1298,344.3z"/>
					<path id="Path_72" fill="#DD6D57" d="M-1308.9,389.5v-12.1l10.1-0.4c5.2-6.2,10.5-12.4,15.7-18.6l0.1,0
						c1.7,3.1,4.6,5.8,6.4,8.9c-5.5,5.5-12.2,11.4-17.8,16.9l-6.5,5.2L-1308.9,389.5z"/>
					<g id="Group_36">
						<path id="Rectangle_79" opacity="0.69" fill="#B3B3B3" enable-background="new    " d="M-1289.7,303.6L-1289.7,303.6
							c0.8,0,1.4,0.5,1.5,1.3l1.2,19.3c0,0.8-0.5,1.4-1.3,1.5l0,0c-0.8,0-1.4-0.5-1.5-1.3l-1.2-19.3
							C-1291,304.3-1290.5,303.6-1289.7,303.6z"/>
						<path id="Rectangle_80" opacity="0.69" fill="#B3B3B3" enable-background="new    " d="M-1266,315.8L-1266,315.8
							c0.7,0.4,0.8,1.3,0.4,2l-10.5,16.3c-0.4,0.7-1.3,0.8-2,0.4l0,0c-0.7-0.4-0.8-1.3-0.4-2l10.5-16.3
							C-1267.5,315.6-1266.7,315.4-1266,315.8z"/>
						<path id="Path_73" fill="#363A49" d="M-1291.2,322.5h4.1l1.9,15.3l5.6-5.2l4.8,1.6l-8.1,12.1l-8.5-1.7L-1291.2,322.5z"/>
					</g>
					<g id="Group_37">
						<path id="Path_74" fill="#FC9A86" d="M-1280.3,313.6l-10.5-6.5l4-6.1l19.8,6.1L-1280.3,313.6z"/>
						<path id="Path_75" fill="#FC9A86" d="M-1250,305.9l-21,14.5l-20.6,28.8l-2.4-3.4c0,0,6.1-29.9,14.9-33.9s25-10.9,25-10.9
							L-1250,305.9z"/>
						<path id="Path_76" opacity="0.18" fill="#FC9A86" enable-background="new    " d="M-1250,305.9l-21,14.5l-20.6,28.8l-2.4-3.4
							c0,0,6.1-29.9,14.9-33.9s25-10.9,25-10.9L-1250,305.9z"/>
					</g>
					<g id="Group_38">
						<circle id="Ellipse_13" fill="#51586D" cx="-1274.6" cy="385.7" r="19.8"/>
						<path id="Path_77" fill="#FF8364" d="M-1274.2,374.9c-6,0-10.9,4.9-10.9,10.9c0,6,4.9,10.9,10.9,10.9c6,0,10.9-4.9,10.9-10.9
							C-1263.4,379.7-1268.2,374.9-1274.2,374.9z M-1274.2,389.8c-2.2,0-4-1.8-4-4c0-2.2,1.8-4,4-4c0,0,0,0,0,0c2.2,0,4,1.8,4,4
							c0,0,0,0,0,0C-1270.2,388-1272,389.8-1274.2,389.8C-1274.2,389.8-1274.2,389.8-1274.2,389.8z"/>
					</g>
					<g id="Group_40">
						<path id="Path_78" fill="none" stroke="#000000" stroke-width="3.133" stroke-miterlimit="10" d="M-1398.5,376.6"/>
						<path id="Path_79" fill="none" stroke="#000000" stroke-width="3.133" stroke-miterlimit="10" d="M-1387.2,396.3"/>
						<path id="Path_80" fill="#FF8364" d="M-1318.6,387h-14.4c-0.6,0-1.2-0.1-1.8-0.4l-8.8-4.4c-0.6-0.3-1.2-0.4-1.8-0.4h-50.5
							c-2.2,0-4-1.8-4-4c0-0.2,0-0.4,0-0.6c1.8-11.3,3.5-22.7,5.3-34c0.3-1.7,1.6-3.1,3.4-3.3l19.4-2.8c0.2,0,0.3,0,0.5,0l48.5-0.7
							c2.2,0,4,1.7,4.1,3.9c0,0,0,0,0,0.1l8.1,13.7v8.5h-8.1L-1318.6,387z"/>
						<path id="Path_81" fill="#363A49" d="M-1385.5,339c-1.2,0.6-2,1.7-2.2,3.1c-1.8,11.6-3.5,23.3-5.3,34.9
							c-0.4,2.2,1.1,4.3,3.4,4.7c0.1,0,0.2,0,0.4,0v0.1h-6.6c-2.2,0-4-1.8-4-4c0-0.2,0-0.4,0-0.6c1.8-11.3,3.5-22.7,5.3-34
							c0.3-1.7,1.6-3.1,3.4-3.3L-1385.5,339z"/>
						<path id="Path_82" opacity="0.18" fill="#FFFFFF" enable-background="new    " d="M-1338.7,336.5l-13.2,45.3h-24.6l13-44.9
							C-1355.2,336.8-1346.9,336.6-1338.7,336.5z"/>
						<path id="Path_83" fill="#DD6D57" d="M-1333.1,367.3v23.8h-16.1v-4.4h-48.1c-1.3,0-2.3-1-2.3-2.3c0,0,0,0,0,0v-3.8
							c0-1.3,1-2.3,2.3-2.3c0,0,0,0,0,0h16.7c2.3-11,12-19,23.3-19c6.8,0,13.3,2.9,17.9,8.1L-1333.1,367.3z"/>
						<path id="Rectangle_81" fill="#51586D" d="M-1399.6,372.1h5.5c1.4,0,2.5,1.1,2.5,2.5v7.1c0,1.4-1.1,2.5-2.5,2.5h-5.5
							c-1.4,0-2.5-1.1-2.5-2.5v-7.1C-1402.1,373.2-1401,372.1-1399.6,372.1z"/>
						<g id="Group_39">
							<circle id="Ellipse_14" fill="#51586D" cx="-1356.9" cy="385.4" r="19.8"/>
							<path id="Path_84" fill="#FF8364" d="M-1356.5,374.5c-6,0-10.9,4.9-10.9,10.9c0,6,4.9,10.9,10.9,10.9c0,0,0,0,0,0
								c6,0,10.9-4.9,10.9-10.9c0,0,0,0,0,0C-1345.6,379.4-1350.5,374.5-1356.5,374.5z M-1356.5,389.5c-2.2,0-4-1.8-4-4c0,0,0,0,0,0
								c0-2.2,1.8-4,4-4c0,0,0,0,0,0c2.2,0,4,1.8,4,4C-1352.5,387.6-1354.3,389.5-1356.5,389.5
								C-1356.5,389.5-1356.5,389.5-1356.5,389.5z"/>
						</g>
					</g>
					<g id="Group_42">
						<path id="Path_85" fill="#51586D" d="M-1366.2,320.5l4.8-2.8l-6.5-4.8l0.4,6.5L-1366.2,320.5z"/>
						<path id="Path_86" fill="#363A49" d="M-1361.4,317.6l-4.8,2.8l0.4,14.5h4.4L-1361.4,317.6z"/>
						<path id="Rectangle_82" fill="#51586D" d="M-1371.9,335h52.1l0,0v2.8l0,0h-54.5l0,0v-0.4C-1374.3,336.1-1373.2,335-1371.9,335
							C-1371.9,335-1371.9,335-1371.9,335z"/>
						<g id="Group_41">
							<path id="Path_87" fill="#FFCBC2" d="M-1304.5,345.9v10.3c0,2.1-1.7,3.8-3.8,3.8c0,0,0,0,0,0h-32.5c-1.3-2.3-2.7-4.6-4-6.9
								v-16.5c0.9-5,1.9-9.9,2.8-14.9h29.9c0.2,0.6,0.4,1.2,0.6,1.8c0.4,1.4,0.9,2.8,1.3,4.2l0,0c0.6,2,1.3,4,1.9,5.9
								C-1307.1,337.7-1305.8,341.8-1304.5,345.9z"/>
							<path id="Rectangle_83" fill="#51586D" d="M-1342,318.5h29.4c0.9,0,1.6,0.7,1.6,1.6l0,0c0,0.9-0.7,1.6-1.6,1.6h-29.4
								c-0.9,0-1.6-0.7-1.6-1.6l0,0C-1343.6,319.2-1342.9,318.5-1342,318.5z"/>
							<path id="Rectangle_84" fill="#F15A24" d="M-1334.2,307.6L-1334.2,307.6c1.7,0,3,1.4,3,3v7.9l0,0h-6.1l0,0v-7.9
								C-1337.2,308.9-1335.8,307.6-1334.2,307.6z"/>
							<rect id="Rectangle_85" x="-1337.2" y="316.8" fill="#363A49" width="6.1" height="1.6"/>
							<path id="Path_88" opacity="0.11" fill="#FF8364" enable-background="new    " d="M-1311.6,323.4l-8.2,20.4
								c-0.7,1.8-2.7,2.6-4.5,1.9c-1.8-0.7-2.6-2.7-1.9-4.5l7.9-19.6h6.1C-1312,322.3-1311.8,322.9-1311.6,323.4z"/>
							<path id="Path_89" opacity="0.11" fill="#FF8364" enable-background="new    " d="M-1308.4,333.6l-3.1,7.6
								c-0.4,1-1.6,1.5-2.6,1.1c-1-0.4-1.5-1.6-1.1-2.6l4.9-12.1C-1309.6,329.7-1309,331.6-1308.4,333.6z"/>
						</g>
					</g>
					<path id="Path_90" fill="#FFFFFF" d="M-1372.2,293.6c-0.8,0-1.6,0.1-2.4,0.4c1.5-2.1,2.4-4.6,2.4-7.2c0-6.8-5.5-12.3-12.3-12.3
						c-6.8,0-12.3,5.5-12.3,12.3s5.5,12.3,12.3,12.3c2.1,0,4.1-0.5,5.9-1.5c-0.5,1-0.8,2.1-0.8,3.2c0,1,0.2,1.9,0.6,2.8
						c-0.3-0.1-0.6-0.1-0.9-0.1c-3.2,0-5.8,2.6-5.8,5.8c0,3.2,2.6,5.8,5.8,5.8c0,0,0,0,0,0c3.2,0,5.8-2.6,5.8-5.8
						c0-0.6-0.1-1.1-0.2-1.6c0.6,0.2,1.3,0.3,1.9,0.3c4,0,7.2-3.2,7.2-7.2C-1365,296.8-1368.2,293.6-1372.2,293.6
						C-1372.2,293.6-1372.2,293.6-1372.2,293.6z"/>
					<path id="Path_91" fill="#51586D" d="M-1262.1,298.1c2.3,0.5,4.6,0.9,6.9,1.2c4.5,0.6,7.5,0.4,9.5,2.6c0.4,0.4,0.7,0.9,1,1.4
						l20.9-21.8c0.6-0.7,0.6-1.8-0.1-2.4c0,0,0,0,0,0c-4.1-3.6-8.8-6.4-14-8.2c-8.4-2.7-17.5-2.6-25.8,0.2c-0.7,0.2-1.2,0.9-1.2,1.7
						c0.5,7.9,0.9,15.8,1.4,23.8C-1263.5,297.3-1262.9,297.9-1262.1,298.1z"/>
					<path id="Path_92" fill="#363A49" d="M-1264.1,286.3l5.3-4.8c0.3-0.2,0.4-0.6,0.4-1l-0.9-18.5c0-0.1-0.1-0.2-0.2-0.2
						c-0.1,0-0.1,0-0.1,0.1l-5.3,9.4c0,0.1-0.1,0.2-0.1,0.3L-1264.1,286.3z"/>
					<path id="Path_93" fill="#363A49" d="M-1226.1,283.7l5-4.9c0.1-0.1,0.1-0.3,0-0.4c0,0-0.1-0.1-0.1-0.1l-4.3-0.7l-1.6,0.1
						c-0.3,0-0.6,0.2-0.7,0.5l-0.7,1.4c-0.1,0.2-0.1,0.5,0.1,0.7L-1226.1,283.7z"/>
					<g id="Group_43">
						<circle id="Ellipse_15" fill="#DD6D57" cx="-1286.7" cy="347.9" r="5.6"/>
						<circle id="Ellipse_16" fill="#FC9A86" cx="-1286.7" cy="347.9" r="2.3"/>
					</g>
					<g id="Group_44">
						<circle id="Ellipse_17" fill="#DD6D57" cx="-1250" cy="302.8" r="5.6"/>
						<circle id="Ellipse_18" fill="#FC9A86" cx="-1250" cy="302.8" r="2.3"/>
					</g>
					<g id="Group_45">
						<circle id="Ellipse_19" fill="#DD6D57" cx="-1266.7" cy="316.2" r="5.6"/>
						<circle id="Ellipse_20" fill="#FC9A86" cx="-1266.7" cy="316.2" r="2.3"/>
					</g>
					<g id="Group_46">
						<circle id="Ellipse_21" fill="#DD6D57" cx="-1288.4" cy="304.5" r="5.6"/>
						<circle id="Ellipse_22" fill="#FC9A86" cx="-1288.4" cy="304.5" r="2.3"/>
					</g>
				</g>
			</g>
			<g id="Group_50">
				<path id="Path_94" d="M-926.5,538.6l-1-23.3c-3.3-0.3-12.2-2.7-15.1-0.8c-2.8,1.8-1.2,6-3.2,7.8c-0.6,0.5-1.3,0.7-2.1,0.8
					c-6.7,1.2-13.2,0.4-18.3,1.8c-3.9,1.1-9.1,4.1-9.1,7.3c0.1,3.6,7,6.1,10.4,7.4c7,2.4,14.4,3.1,21.7,2c0.2-1.8,1.8-3,3.6-2.9
					c1.8,0.1,3.2,1.5,3.2,3.3c2,0.1,4.1,0.3,6.1,0.4c2,0.1,3.7-1.4,3.8-3.4C-926.5,538.8-926.5,538.7-926.5,538.6z"/>
				<path id="Path_95" d="M-859.1,531.6l-9.7-21.2c-3.1,1-12.3,2.1-14.3,4.9c-1.9,2.7,1.1,6.1,0,8.4c-0.4,0.7-0.9,1.2-1.6,1.5
					c-5.7,3.6-12.1,5.3-16.3,8.6c-3.2,2.5-6.9,7.2-5.7,10.2c1.4,3.3,8.8,3.1,12.4,2.9c7.4-0.3,14.5-2.5,20.9-6.3
					c-0.4-1.7,0.6-3.5,2.3-4c1.7-0.6,3.6,0.2,4.2,1.9c1.9-0.6,3.9-1.3,5.8-2c1.9-0.7,2.9-2.7,2.2-4.6
					C-859,531.8-859.1,531.7-859.1,531.6z"/>
				<path id="Path_96" fill="#51586D" d="M-927.6,408.8c-0.1,1.9-1.2,3.7-2.4,5.2c-7.1,9.5-16,18.3-18.4,30
					c-1.7,8.5,0.3,17.2,2.3,25.5c1.6,6.6-2.7,12-2.5,19c0.2,6.5,1.9,12.4,0.9,19c-0.6,4-4.2,9.7-1.6,13.2c3.6,4.9,13.5,6.1,19,5.4
					c2.5-0.3,4.9-0.2,6.5-2.3c2.2-3.1-0.8-8.2-0.5-12c0.7-9.8,0.6-19.2,3.8-28.5c1.6-4.7,2.5-9.7,2.6-14.6c0.1-3.9-0.7-6.1,1.9-8.9
					c2.2-2.3,5.1-3.6,7.2-6.1c2.5-3,4.2-6.6,6.7-9.7c4.9-6.2,10.3-12,15.3-18c3.9-4.7,8.9-9.3,12.2-14.4c-8.6-2.4-19.1,0.1-27.9,0.1
					c-8.4,0-16.9-2.7-25.2-2.9C-927.5,408.8-928,408.8-927.6,408.8z"/>
				<path id="Path_97" fill="#363A49" d="M-870.7,526c-2.7,0.8-5.5,1.9-8.3,1.9c-2.8-0.1-5.5-0.6-8.1-1.6
					c-3.2-7.4-8.8-14.3-14.2-20.1c-3.8-4.1-7.3-8.5-10.5-13.1c-2.5-3.3-4.4-6.9-5.7-10.8c-1.9-6-1.3-12.5-0.7-18.8
					c0-1.1,0.3-2.1,0.8-3c0.6-0.8,1.3-1.5,2.1-2.1c5.5-4.3,9.4-10.4,13.5-16.2c6.8-9.4,14.6-18.1,22.4-26.7c1.3-1.7,3-3.1,4.8-4.2
					c1.9-1.1,4.2-1,6,0.1c-12.4,16.6-22.5,34.9-29.8,54.3c5.3,5.4,10.8,11.1,13.8,18.2c1.8,4.4,2.6,9.2,5,13.3
					c2.2,3.8,5.5,6.6,8.4,9.9c4.1,4.7,7.1,10.3,8.8,16.3"/>
				<path id="Path_98" fill="#FDC6B5" d="M-991.8,299.4c-1,0.5-0.3,2.7-0.5,6.4c-0.3,4.2-1.3,4.8-1.1,8.1c0.2,1.7,0.7,3.3,1.4,4.8
					c1.5,3.9,2.4,7.9,2.9,12c1.5-1.8,3.4-3.1,5.6-3.9c0.6-0.1,1.2-0.5,1.6-0.9c0.4-0.8,0.4-1.8,0-2.6c-0.6-2.5-0.6-5,0-7.5
					c0.4-1.5,1-2.9,1.2-4.4c0.3-1.5,0-3.1-1-4.3c-0.6-0.7-1.5-1.1-2.2-1.8c-1.1-1.1-0.9-1.4-1.9-2.5c-1.1-1.3-2.6-2.2-4.2-2.8
					C-991,299.5-991.5,299.3-991.8,299.4z"/>
				<path id="Path_99" fill="#FDC6B5" d="M-970.9,303.5l0-0.7c0.8,2.8-0.8,5-2.6,7.3c-0.4,0.4-0.7,0.9-0.8,1.5
					c0,0.6,0.2,1.1,0.6,1.6c1.4,2.8,0.6,6.3,1.7,9.3c1.2,3.1,4.4,5.1,7.7,4.8c4.1-0.4,7-4,10.5-6.2c2.1-1.3,4.5-2.1,6.5-3.6
					c1.2-0.8,2.7-2.6,2.5-4.5c-0.3-2-2.4-2.1-3-4.7c-0.3-1.3,0.2-1.6-0.2-3.5c-0.2-1-0.5-2.5-1.6-2.8c-0.7-0.1-1.3,0-1.9,0.2
					c-2.5,0.9-4.8,2.3-6.8,4c-0.3-1.8-0.7-3.5-1-5.3c-0.4-0.6-0.7-1.2-0.9-1.8c-0.3-0.8-0.1-1.1-0.3-1.4c-0.7-1-3.2-0.3-4.6,0
					c-2.3,0.6-3.5,0.9-4.4,2C-970.6,300.9-971,302.2-970.9,303.5z"/>
				<path id="Path_100" fill="#EFEFEF" d="M-959.6,326.1c0.1,0,0.1-0.3-0.1-0.3c-0.1,0-0.3,0.1-0.4,0.2c-1.4,1.3-3.4,1.7-5.2,2.4
					s-3.7,1.5-4.5,3.2c-0.5,0.9-0.7,2.1-1.7,2.5c-0.4-2.5-1.1-4.9-2.2-7.2c-1.2-2.2-3.6-4.7-6.1-5.2c-6.4,4.1-12.7,9.3-15.1,16.5
					c-0.2,0.4-0.2,0.9-0.1,1.4c0.2,0.4,0.4,0.7,0.8,1c2.1,1.7,4.8,2.4,7,3.9c1.7,1.2,3.2,2.5,4.7,3.9c1.5,1.3,2.6,1,4.5,1.2
					c4.5,0.4,8.7,2,13.2,2.7c2.5,0.4,5.1,0.6,7.7,0.9c1.5,0.1,2.9,0.7,3.9,1.7c0.6,1,1,2,1.2,3.1c1.2,3.4,4.5,5.7,6.8,8.5
					c1.3,1.6,2.4,3.4,3.4,5.2l6.6,11.6c0.1-0.2,0.1,0.5,0.1,0.7s0.1,0.4,0.2,0.6c3.1,3.4,5.3,7.4,6.5,11.8c0.6,2.4,1,4.9,1,7.4
					c0.1,0.9,0,1.9-0.3,2.8c-0.3,0.9-0.9,1.7-1.3,2.6c-0.5,0.9-0.4,2,0.2,2.7c17.5,3.1,35.1,0.3,52.9,1.7c3.8,0.5,7.6,0.6,11.4,0.4
					c0.5-11.8-1.3-23.9-6.2-34.6c-2.8-5.9-6.2-11.5-10.1-16.7c-4.9-6.9-9.9-13.7-15.2-20.3c-6.1-7.7-12.6-15.2-20.7-20.7
					c-2.5-1.7-5.1-3.2-7.2-5.4c-0.8-1-1.7-1.9-2.6-2.8c-1.3-0.9-2.8-1.4-4.3-1.7l-4.2-1c-0.8-0.2-1.9-0.3-2.3,0.4
					c-1.8,0.1-3.5,0.8-4.8,2.1c-1.2,1.2-2.3,2.6-3.6,3.7c-2.1,1.7-4.8,2.4-7.1,3.6c-3.3,1.7-6,4.3-8.6,6.9"/>
				<path id="Path_101" fill="#1A1A1A" d="M-968.1,295.4c1.5-2.1,3.6-3.6,6.1-4.2c2.5-0.6,5.1-0.7,7.6-0.3c1.2,0.1,2.4,0.4,3.5,1
					c0.8,0.5,1.6,1.1,2.2,1.8c2.4,2.4,3.6,2,5.8,4c1.5,1.3,2.4,3.2,4.2,6.9c1.8,3.7,1.8,5,1.2,5.9c-0.3,0.3-0.6,0.5-0.9,0.8
					c-1.8,1.4-2.7,2-3.3,2.4c-1.1,0.7-2.8,1.1-3.8,0.2c-0.6-0.5-0.4-1-1-2.1c-1-1.7-2.2-1.3-2.9-2.5c-1-1.7,1.1-3.2,0-5.6
					c-0.1-0.3-0.7-1.6-1.6-1.6c-0.5,0-1,0.3-1.4,0.7c-2.7,2.7-4.9,6.6-5.9,6.3c-1.3-0.3-2.4-7.3-3-9.1c-0.1-0.3-0.3-0.6-0.5-0.8
					c-0.3-0.2-0.7-0.3-1.1-0.4c-1.9-0.2-3.8,0-5.6,0.6c-0.6,0.2-1.5,0.3-1.7-0.3c0-0.2,0-0.4,0.1-0.6
					C-969.4,297.3-968.8,296.3-968.1,295.4z"/>
				<path id="Path_102" opacity="9.000000e-02" enable-background="new    " d="M-940.5,312.2c9.1,2.8,15.4,10.5,15.7,18.7
					c0.4,10.7-9.2,21.2-22.3,21.4c-3.3,0.9-6.8,1.3-10.2,1.2c-2.6-0.1-5.1-0.4-7.7-0.9c-4.4-0.7-8.7-2.4-13.2-2.7
					c-1.9-0.2-3,0.1-4.5-1.2c-1.5-1.4-3.1-2.7-4.7-3.9c-2.2-1.5-4.9-2.2-7-3.9c-0.3-0.2-0.6-0.6-0.8-1c-0.1-0.5,0-0.9,0.1-1.4
					c2.5-7.2,8.7-12.4,15.1-16.5c2.5,0.5,4.9,3,6.1,5.2c1.1,2.3,1.8,4.7,2.2,7.2c1-0.4,1.2-1.6,1.7-2.5c0.9-1.7,2.7-2.6,4.5-3.2
					c1.8-0.4,3.4-1.2,4.9-2.2c2.2-2.3,4.7-4.2,7.4-5.8c2.4-1.2,5-2,7.1-3.6c1.3-1.1,2.4-2.5,3.6-3.7
					C-941.7,313-941.1,312.6-940.5,312.2z"/>
				<path id="Path_103" fill="#6253FF" d="M-881.7,361.4l-21.1-26.9c-2-2.7-4.2-5.1-6.7-7.4c-5.4-5.4-11.5-10-18.2-13.6
					c-5.9-3.2-7.9-3.3-9.3-3.2c-3.8,0.3-6.9,2.8-9.8,5.2c-1.2,1-2.5,2.1-2.8,3.5c1.7-0.8,3.5-1.3,5.3-1.5c1.8-0.2,3.6-0.1,5.4,0.2
					c11,2.4,20.6,9.3,26.3,19c3.2,5.5,6.3,10.7,4.9,17.1c-1.6,7.2-8,12.6-14.7,14c-12.8,2.8-22.2-10-22.8-10.9c-1.1-1.5-2-3.2-2.7-5
					c-0.6-0.2-5.5-1.6-6.9,0.4c-0.8,1.2-0.1,3,0.2,3.8c2.5,6.1,5.8,11.8,10,17c10.4,12.2,12.4,14.1,14.1,18.7
					c1.2,3.2,1.8,6.5,1.9,9.9c4.1-5.5,8.7-10.5,13.8-15c8.9-7.8,15.9-14,25.4-13.9c2.8,0,9.6,0.6,17.3,7.1
					C-872.8,372.9-877.3,367-881.7,361.4z"/>
				<path id="Path_104" fill="#E6E6E6" d="M-882.7,360.1l-47.5,32.8c-0.1-0.3-0.2-0.6-0.3-1c-0.6-1.6-1.3-3.1-2.3-4.5l46.4-32
					C-885.1,357-883.9,358.5-882.7,360.1z"/>
				<path id="Path_105" fill="#E6E6E6" d="M-890.2,350.5l-46.4,32c-1.1-1.3-2.4-2.8-3.9-4.6l14.1-9.7c1.4,0,2.7-0.1,4.1-0.4
					c6.5-1.4,11.8-6,14.2-12.2l14.3-9.8C-892.6,347.4-891.4,349-890.2,350.5z"/>
				<g id="Group_49">
					<path id="Path_106" fill="#F7931E" d="M-939.9,293.9c0.1,0.4,0.1,0.8,0.1,1.2c0,0.4,0.1,0.9,0.1,1.3v0c-0.2,0.9-1,1.6-1.9,1.8
						l-30,4.9c-0.5-1.2-0.9-2.5-1.1-3.8c0-0.3-0.1-0.5-0.1-0.8c-1-8.8,5.1-16.9,13.9-18.3c8.8-1.4,17.1,4.3,18.9,13
						C-940,293.4-939.9,293.7-939.9,293.9z"/>
					<path id="Path_107" fill="#EA821B" d="M-939.9,293.9c0,0.1,0.1,0.7,0.1,1.2s0.1,0.9,0.1,1.3v0c-0.2,0.9-1,1.6-1.9,1.8
						l-34.1,5.5c-2.4-0.6-2.9-1.6-3-1.9c-0.7-1.9,1.4-5.2,6-7.5c-0.3,1.4-0.6,3.3,0.3,4.1c1.2,1,3.7-0.3,4.6-0.7
						C-956.6,292.4-940.2,292.8-939.9,293.9z"/>
				</g>
			</g>
			<path id="Path_19814-2" fill="#C4BEFF" d="M-1533.7,156.9c-3.2,1.4-6.7,2.2-10.2,2.3c-5.5,0-10.5-2.8-13.5-7.4
				c-5,2.4-10.9,0.2-13.3-4.7c0-0.1-0.1-0.1-0.1-0.2c-2.4-5.1-0.2-11.1,4.8-13.6c1.3-0.6,2.8-1,4.2-1c0.1,0,0.2,0,0.3,0
				c-0.2-1.1-0.3-2.2-0.3-3.3c-0.1-8.6,6.7-15.6,15.3-15.7c4.4,0,8.6,1.9,11.5,5.2c5-7.3,15-9.1,22.3-4.1c0.1,0.1,0.2,0.1,0.3,0.2
				c3.4,2.5,5.8,6.2,6.5,10.4c7.4-1.9,14.9,2.6,16.8,10c0,0.1,0,0.1,0,0.2c1.9,7.5-2.5,15.1-10,17.1c-2.4,0.6-4.9,0.6-7.3-0.1
				c-3.8,4.2-10,6.9-16.9,6.9C-1526.7,159.2-1530.3,158.4-1533.7,156.9z"/>
		</g>
	</g>
</g>
</svg>
