<?xml version="1.0" encoding="utf-8"?>
<!-- Generator: Adobe Illustrator 24.0.2, SVG Export Plug-In . SVG Version: 6.00 Build 0)  -->
<svg version="1.1" id="Layer_1" xmlns="http://www.w3.org/2000/svg" xmlns:xlink="http://www.w3.org/1999/xlink" x="0px" y="0px"
	 viewBox="0 0 800 600" enable-background="new 0 0 800 600" xml:space="preserve">
<g>
	<defs>
		<rect id="SVGID_1_" width="800" height="600"/>
	</defs>
	<clipPath id="SVGID_2_">
		<use xlink:href="#SVGID_1_"  overflow="visible"/>
	</clipPath>
	<g id="custom_10" clip-path="url(#SVGID_2_)">
		<rect display="none" fill="#FFFFFF" width="800" height="600"/>
		<g id="Group_2208" transform="translate(0.164 -619.687)">
			<path id="Path_2740" opacity="0.35" fill="#EEEEFF" enable-background="new    " d="M555,1154.8
				c-137.5,55-414.1,36.3-469.1-101.2S218.5,711.9,356,656.9s293.5,11.9,348.4,149.4S692.5,1099.8,555,1154.8z"/>
			<g id="Group_2207">
				<g>
					<defs>
						<path id="SVGID_3_" d="M385.6,1189.3C218.1,1150.1-22.2,967.9,30.4,824.8s377.9-192.9,545.4-153.7S812.5,886.9,760,1030
							S553.1,1228.6,385.6,1189.3z"/>
					</defs>
					<clipPath id="SVGID_4_">
						<use xlink:href="#SVGID_3_"  overflow="visible"/>
					</clipPath>
					<g id="Group_2206" clip-path="url(#SVGID_4_)">
						<g id="Group_2205">
							<rect id="Rectangle_262" x="22.9" y="624" fill="#E8E8FC" width="755.1" height="232.1"/>
							<rect id="Rectangle_263" x="22.9" y="821.1" fill="#A9A7FC" width="755.1" height="36.4"/>
							<path id="Path_18755" fill="#A4A4FF" d="M76.6,774.1c0,0,127.9-23.2,247.4-5.6s237.4-3.3,251.2-4.9s98.4-20.2,167.8-1
								c17.7,4.9,39.7,17-20.7,21.7c-177.5,13.9-638.2,17-644.4,4.1C69.6,771.1,76.6,774.1,76.6,774.1z"/>
							<path id="Path_18756" fill="#B4B4FC" d="M24.8,820.9v-62.7c0,0,99.1,33,151.9,29s168.5-43,282.4-19.7s319.8-6.3,319.8-6.3
								v59.7"/>
							<rect id="Rectangle_264" x="22.4" y="853.2" fill="#BBBBF9" width="755.1" height="369.8"/>
							<g id="Group_2193">
								<g id="Group_2188">
									<rect id="Rectangle_265" x="133" y="842.3" fill="#51586D" width="247.5" height="21.5"/>
									<circle id="Ellipse_171" fill="#363A49" cx="315.7" cy="867.9" r="24.8"/>
									<circle id="Ellipse_172" fill="#FF8364" cx="315.7" cy="867.9" r="12.1"/>
									<circle id="Ellipse_173" fill="#363A49" cx="184.6" cy="867.9" r="24.8"/>
									<circle id="Ellipse_174" fill="#FF8364" cx="184.6" cy="867.9" r="12.1"/>
									<circle id="Ellipse_175" fill="#363A49" cx="368.6" cy="867.9" r="24.8"/>
									<circle id="Ellipse_176" fill="#FF8364" cx="368.6" cy="867.9" r="12.1"/>
									<path id="Rectangle_266" fill="#51586D" d="M212.8,842.3h-21c-4.2,0-7.5-3.4-7.5-7.5V810c0-4.2,3.4-7.5,7.5-7.5h21
										c4.2,0,7.5,3.4,7.5,7.5v24.8C220.3,838.9,217,842.3,212.8,842.3z"/>
									<path id="Rectangle_267" fill="#51586D" d="M224.7,842.3h-6.4c-1.3,0-2.3-1-2.3-2.3v-7.6c0-1.3,1-2.3,2.3-2.3h6.4
										c1.3,0,2.3,1,2.3,2.3v7.6C227,841.3,226,842.3,224.7,842.3z"/>
									<path id="Path_2741" fill="#51586D" d="M130.7,817.8l75.1,0.7l-0.1-49.3c-1.4-2.2-3.9-3.6-6.5-3.5l-45.3-0.2
										c-2.7,0.1-5,2.1-5.4,4.8L130.7,817.8z"/>
									<path id="Path_2742" fill="#FFCBC2" d="M200.6,817.7v-17l-12-29.5h-32.5l-7,46.5H200.6z"/>
									<path id="Path_2743" opacity="0.16" fill="#FFFFFF" enable-background="new    " d="M177.6,800.9L177.6,800.9
										c2-0.8,3-3.2,2.2-5.2c0,0,0,0,0,0l-10.2-24.5h-9l11.8,27.6C173.2,800.8,175.6,801.8,177.6,800.9
										C177.6,800.9,177.6,800.9,177.6,800.9z"/>
									<path id="Path_2744" opacity="0.16" fill="#FFFFFF" enable-background="new    " d="M180.9,786.4L180.9,786.4
										c1-0.4,1.5-1.6,1.1-2.7l-5.2-12.5h-4.6l6,14.1C178.6,786.3,179.8,786.8,180.9,786.4z"/>
									<path id="Path_2745" fill="#FF8364" d="M147.9,817.7h62.7v6.8h-62.7v35.8h-17.3v-42.6H147.9z"/>
									<path id="Path_2746" fill="#DD6D57" d="M221.4,842.6l-10.8-18.1l-62.7,0v35.7h8.4l53.7-17.2L221.4,842.6z"/>
									<path id="Rectangle_268" fill="#363A49" d="M135.3,867.6h-10.8c-1.7,0-3-1.3-3-3v-14.7c0-1.7,1.3-3,3-3h10.8
										c1.7,0,3,1.3,3,3v14.7C138.3,866.2,137,867.6,135.3,867.6z"/>
									<path id="Path_2747" fill="#808080" d="M395.9,866H392c-1.2,0-2.2-1-2.2-2.2c0,0,0,0,0,0v-10c0-0.5-0.2-1-0.5-1.5l-8-9.3
										c-0.4-0.5-1-0.8-1.7-0.8H263.3c-1.2,0-2.2-1-2.2-2.2l-0.1-1.7c0-1.2,0.9-2.3,2.2-2.3c0,0,0,0,0.1,0h122.2
										c0.7,0,1.4,0.4,1.8,1l10.4,15.3c0.3,0.4,0.4,0.8,0.4,1.3v10.1C398.1,865.1,397.1,866.1,395.9,866L395.9,866L395.9,866z"/>
									<path id="Rectangle_269" fill="#51586D" d="M258.1,829.3h-29.5c-1.6,0-2.9-1.3-2.9-2.9v-22.6c0-1.6,1.3-2.9,2.9-2.9h29.5
										c1.6,0,2.9,1.3,2.9,2.9v22.6C261,828,259.7,829.3,258.1,829.3z"/>
									<rect id="Rectangle_270" x="230.3" y="829.3" fill="#363A49" width="26.1" height="13"/>
									<rect id="Rectangle_271" x="230.3" y="794" fill="#363A49" width="26.1" height="6.9"/>
									<rect id="Rectangle_272" x="231.8" y="807" fill="#363A49" width="23.8" height="1.5"/>
									<rect id="Rectangle_273" x="231.8" y="813.2" fill="#363A49" width="23.8" height="1.5"/>
									<rect id="Rectangle_274" x="231.8" y="810.1" fill="#363A49" width="23.8" height="1.5"/>
									<rect id="Rectangle_275" x="231.8" y="816.2" fill="#363A49" width="23.8" height="1.5"/>
									<rect id="Rectangle_276" x="231.8" y="822.4" fill="#363A49" width="23.8" height="1.5"/>
									<rect id="Rectangle_277" x="231.8" y="819.3" fill="#363A49" width="23.8" height="1.5"/>
									<circle id="Ellipse_177" fill="#51586D" cx="228.8" cy="795.5" r="4.6"/>
									<path id="Path_2748" fill="#363A49" d="M252.5,749.6l-3.8-3.1l-7.7,8.4v8.3h4.6v-7.5L252.5,749.6z"/>
									<circle id="Ellipse_178" fill="#51586D" cx="245.6" cy="780.2" r="17.6"/>
									<rect id="Rectangle_278" x="215.8" y="807" fill="#51586D" width="10" height="10.7"/>
									<path id="Path_2749" fill="#51586D" d="M256.7,807.5l6.5-2l-3.1-7.8c-0.3-0.7,0.1-1.5,0.8-1.8l3.1-1.2
										c0.7-0.3,1.5,0.1,1.8,0.8l3.3,8.3l4.5-1.4l3.1,10.3l-3.6,1.1l3.8,9.5c0.3,0.7-0.1,1.5-0.8,1.8l-3.1,1.2
										c-0.7,0.3-1.5-0.1-1.8-0.8l-4-10l-7.4,2.2L256.7,807.5z"/>
								</g>
								
									<rect id="Rectangle_279" x="397.4" y="787.9" transform="matrix(0.5873 -0.8094 0.8094 0.5873 -486.9546 662.1811)" fill="#CBCBCB" width="16.9" height="41.4"/>
								
									<rect id="Rectangle_280" x="407.7" y="756.1" transform="matrix(0.6775 -0.7355 0.7355 0.6775 -434.3791 548.9713)" fill="#363A49" width="2.3" height="27.6"/>
								
									<rect id="Rectangle_281" x="397.1" y="734" transform="matrix(0.7071 -0.7071 0.7071 0.7071 -404.3555 502.563)" fill="#363A49" width="14.7" height="10.8"/>
								<path id="Path_2750" fill="#51586D" d="M403.8,756.8l-5.2-16.1l14.9,3.2c0.5,0.1,0.9,0.6,0.8,1.2c0,0.2-0.1,0.3-0.2,0.5
									L403.8,756.8z"/>
								<g id="Group_2192">
									
										<rect id="Rectangle_282" x="301.4" y="744.1" transform="matrix(0.9513 -0.3082 0.3082 0.9513 -226.8177 139.7711)" fill="#51586D" width="55.2" height="87.4"/>
									<g id="Group_2189">
										<path id="Path_2751" fill="#363A49" d="M289.3,754.8L270,776.3c-2,2.2-2.6,5.2-1.7,8l14.4,44.4c1,3.1,3.7,5.3,6.9,5.7
											l26.7,3.5L289.3,754.8z"/>
									</g>
									<g id="Group_2190">
										<path id="Path_2752" fill="#363A49" d="M290,756.9l-22.2,21.7c-2.2,2-3.1,5-2.3,7.8l13.6,42.1c1.1,3.1,4,5.1,7.3,5.2
											l29.1,2.1L290,756.9z"/>
									</g>
									<path id="Path_2753" fill="#FF8364" d="M275.9,807.8l5,15.3l30.6,0.1l-5-15.3L275.9,807.8z"/>
									<path id="Path_2754" fill="#FF8364" d="M293.7,768.4L269,786.5l5,15.3l24.8-18.1L293.7,768.4z"/>
									<g id="Group_2191">
										<path id="Path_2755" fill="#363A49" d="M399.9,748.1l8.8,27.1c1,3,0.2,6.2-2.1,8.4l-37.9,37.3l-26.9-83.1l51.9,5.3
											C396.6,743.4,399,745.4,399.9,748.1z"/>
										<path id="Rectangle_283" fill="#FF8364" d="M389.8,806.4l-22.4-69.3c-0.3-1,0.2-2.1,1.2-2.4l0,0c1-0.3,2.1,0.2,2.4,1.2
											l22.4,69.3c0.3,1-0.2,2.1-1.2,2.4l0,0C391.2,808,390.1,807.4,389.8,806.4z"/>
										<path id="Rectangle_284" fill="#FF8364" d="M410,786.5l-14.6-45.2c-0.3-0.8,0.2-1.7,1-2l0.7-0.2c0.8-0.3,1.7,0.2,2,1
											l14.6,45.2c0.3,0.8-0.2,1.7-1,2l-0.7,0.2C411.1,787.8,410.2,787.4,410,786.5z"/>
										<path id="Rectangle_285" fill="#FF8364" d="M398,794.3l-17.4-53.6c-0.3-0.9,0.2-1.8,1.1-2.1l0.4-0.1
											c0.9-0.3,1.8,0.2,2.1,1.1l17.4,53.6c0.3,0.9-0.2,1.8-1.1,2.1l-0.4,0.1C399.2,795.7,398.3,795.2,398,794.3z"/>
									</g>
								</g>
								<circle id="Ellipse_179" fill="#363A49" cx="421.1" cy="819.3" r="8.4"/>
								<path id="Path_2756" fill="#51586D" d="M357.8,835.8l29.6-21.1l33.7-39.9l-36,61.3L357.8,835.8z"/>
							</g>
							<g id="Group_2198">
								<g id="Group_2194">
									<path id="Path_2757" fill="#989898" d="M776.8,908.8c-246.2-11.6-510.1,9.4-535.5,50.9c-49.4,80.8,275.8,187.9,535.5,257.1
										V908.8z"/>
									<path id="Path_2758" fill="#8B8B8B" d="M776.8,913.4c-243.1-13.6-500,2.3-524.4,40.6c-47.2,74.1,266.9,177.5,524.4,246.5
										V913.4z"/>
									<path id="Path_2759" fill="#808080" d="M776.8,898.2c-249.4,1.1-495.9,20.1-500,56.6c-6.9,61,265.9,114.2,500,174.6V898.2z
										"/>
								</g>
								<path id="Path_2760" fill="none" stroke="#808080" stroke-width="0.806" stroke-miterlimit="10" d="M733,1111.5l-58.8,58.8
									c-1.4,1.4-1.1,3.5-0.9,5.5c0.5,3.9,0.6,7.9,0.3,11.9c-0.2,0.1-0.4-0.2-0.2-0.3"/>
								<path id="Path_2761" fill="none" stroke="#808080" stroke-width="0.806" stroke-miterlimit="10" d="M547,1072.2
									c-14.9,6.8-29.1,15.2-43.2,23.6l-21.1,12.5c-1.6,1-2.8,2.5-3.3,4.2c-0.4,1.8-0.7,3.7-0.6,5.5c-0.1,2.3-0.3,4.7-0.6,7"/>
								<path id="Path_2762" fill="none" stroke="#808080" stroke-width="2.418" stroke-miterlimit="10" d="M378.7,1023.8l-70.1,8.9
									c-1.7,0.1-3.5,0.4-5.1,0.9c-1.5,4.2-2.5,8.6-3.2,13"/>
								<path id="Path_2763" fill="none" stroke="#808080" stroke-width="2.418" stroke-miterlimit="10" d="M240.5,993.8
									c3.7-3.2,7.6-6.1,11.6-8.7l41.1-3.2"/>
								<g id="Group_2195">
									<path id="Path_2764" fill="#ED1C24" d="M180.9,973.3c0.3,1.1,0.6,2.2,0.9,3.3c0,0.3,0.3,0.5,0.5,0.5c2,0.3,4.1,0.8,6,1.4
										c0.9,0.3,1.7,0.7,2.5,1.1c0.7,0.3,1.2,0.9,1.5,1.6v0.9c-0.1,0-0.1,0-0.1,0.1c-0.2,0.3-0.4,0.6-0.7,0.9
										c-0.9,0.7-2,1.2-3.1,1.6c-2.1,0.7-4.3,1.2-6.5,1.5c-1.1,0.2-2.3,0.4-3.5,0.5c-1.4,0.2-2.8,0.3-4.2,0.4
										c-0.9,0.1-1.9,0.1-2.8,0.2c-1.2,0.1-2.4,0.1-3.6,0.1c-2.6,0-5.3,0-7.9-0.1c-0.6,0-1.1,0-1.7-0.1c-0.3,0-0.6,0-0.9-0.1
										c-0.9-0.1-1.7-0.1-2.6-0.2c-0.6-0.1-1.3-0.1-1.9-0.2c-0.8-0.1-1.6-0.2-2.3-0.3c-1-0.2-2.1-0.3-3.1-0.5
										c-1.1-0.2-2.2-0.5-3.3-0.8c-1.4-0.4-2.8-0.9-4.1-1.6c-0.5-0.3-0.9-0.7-1.3-1.2c-0.1-0.1,0-0.3-0.2-0.3v-0.8
										c0.4-0.8,1-1.4,1.8-1.8c1.5-0.8,3.1-1.3,4.7-1.7c1.3-0.3,2.5-0.6,3.8-0.8c0.1,0,0.2-0.1,0.3-0.2c0.3-1.1,0.6-2.3,0.9-3.4
										c0.1,0,0.2,0,0.3,0c0.8,0.2,1.5,0.4,2.3,0.5c5.8,1.3,11.7,1.7,17.6,1.2c2.6-0.2,5.1-0.6,7.6-1.1
										C178.9,973.8,179.9,973.6,180.9,973.3z M165.8,985.9c0.7,0,1.7,0,2.7,0c1.3-0.1,2.5-0.1,3.8-0.2c0.5,0,1-0.1,1.5-0.1
										c0.8-0.1,1.5-0.2,2.3-0.3c0.8-0.1,1.7-0.2,2.5-0.4c1.2-0.2,2.3-0.5,3.4-0.8c1.1-0.3,2.1-0.8,2.9-1.4c0.5-0.3,0.7-1,0.4-1.6
										c0,0,0,0,0,0c-0.2-0.2-0.4-0.5-0.6-0.6c-0.5-0.3-1-0.6-1.5-0.8c-0.2-0.1-0.4-0.3-0.5-0.1s0,0.4,0.1,0.6
										c0.2,0.3,0.1,0.7-0.1,1c-0.2,0.3-0.5,0.5-0.8,0.7c-0.8,0.5-1.7,0.8-2.6,1c-1.6,0.4-3.3,0.7-5,0.9c-1,0.1-2.1,0.2-3.1,0.3
										c-1.1,0.1-2.1,0.2-3.2,0.2c-1.8,0-3.6,0-5.4,0c-1.3-0.1-2.6-0.1-3.9-0.2c-0.9-0.1-1.9-0.2-2.8-0.3
										c-1.3-0.2-2.6-0.4-3.9-0.8c-1-0.2-1.9-0.6-2.8-1.1c-0.9-0.6-1.2-1-0.8-2c0,0,0,0,0-0.1c0-0.1,0.1-0.2,0-0.2s-0.1,0-0.2,0
										c-0.8,0.3-1.5,0.6-2.1,1.1c-0.6,0.4-0.7,1.1-0.3,1.7c0.2,0.3,0.5,0.5,0.8,0.7c1.1,0.6,2.2,1,3.4,1.3
										c1.2,0.3,2.3,0.5,3.5,0.7c1.3,0.2,2.5,0.4,3.8,0.5c0.9,0.1,1.8,0.2,2.8,0.2c1,0.1,2,0.1,3,0.1
										C164,985.9,164.8,985.9,165.8,985.9z"/>
									<path id="Path_2765" fill="#C1272D" d="M169.5,991c-0.2,0.1-0.5,0.1-0.7,0c-0.4-0.1-0.8-0.1-1.1,0h-4.4
										c-0.3-0.1-0.7-0.1-1,0h-0.9c0-0.1-0.1,0-0.2-0.1c-3.5-0.1-6.9-0.4-10.4-0.9c-2.3-0.3-4.6-0.8-6.9-1.4
										c-1.4-0.4-2.7-0.9-4-1.6c-0.6-0.3-1.1-0.9-1.4-1.6v-3.5c0.2,0,0.2,0.2,0.2,0.3c0.3,0.5,0.8,0.9,1.3,1.2
										c1.3,0.7,2.7,1.3,4.1,1.6c1.1,0.3,2.2,0.5,3.3,0.8c1,0.2,2.1,0.4,3.1,0.5c0.8,0.1,1.6,0.2,2.3,0.3c0.6,0.1,1.3,0.1,1.9,0.2
										c0.9,0.1,1.7,0.2,2.6,0.2c0.3,0,0.6,0,0.9,0.1c0.6,0.1,1.1,0,1.7,0.1c2.6,0.1,5.3,0.1,7.9,0.1c1.2,0,2.4-0.1,3.6-0.1
										c0.9,0,1.9-0.1,2.8-0.2c1.4-0.1,2.8-0.2,4.2-0.4c1.2-0.1,2.3-0.3,3.5-0.5c2.2-0.3,4.4-0.9,6.5-1.5c1.1-0.3,2.2-0.9,3.1-1.6
										c0.3-0.2,0.5-0.5,0.7-0.9c0-0.1,0.1-0.1,0.1-0.1v3.5c-0.3,0.7-0.9,1.2-1.5,1.6c-0.9,0.5-1.9,0.9-2.9,1.2
										c-3.8,1.1-7.8,1.8-11.8,2.1C174,990.8,171.8,990.9,169.5,991z"/>
									<path id="Path_2766" fill="#FFFFFF" d="M166.9,933c0.4,0.1,0.8,0.1,1.2,0.2c0.5,0.1,1.1,0.2,1.6,0.4
										c0.2,0.1,0.4,0.3,0.4,0.5c-0.1,0.1-0.2,0.2-0.4,0.3c-0.5,0.2-1.1,0.4-1.6,0.4c-1,0.1-2.1,0.2-3.1,0.1
										c-0.9,0-1.8-0.1-2.7-0.3c-0.4-0.1-0.9-0.2-1.1-0.6c0-0.3,0.2-0.4,0.4-0.5c0.6-0.2,1.2-0.4,1.9-0.4c0.3,0,0.5,0,0.8-0.1
										L166.9,933z"/>
									<path id="Path_2767" fill="#FFFFFF" d="M180.9,973.3c-1,0.2-2,0.5-3,0.7c-2.5,0.5-5,0.9-7.6,1.1
										c-5.9,0.5-11.8,0.1-17.6-1.2c-0.8-0.2-1.5-0.4-2.3-0.5c-0.1,0-0.2,0-0.3,0c0.6-2.1,1.2-4.3,1.8-6.4
										c0.2-0.8,0.5-1.6,0.7-2.4c0-0.1,0.1-0.2,0.1-0.3c0.1,0,0.2,0,0.3,0.1c3.8,1,7.7,1.5,11.6,1.6c2.2,0,4.4-0.1,6.6-0.3
										c2.4-0.3,4.7-0.7,7-1.3c0.1,0,0.2,0,0.2-0.1c0.2,0.7,0.4,1.4,0.6,2.2c0.2,0.9,0.5,1.7,0.7,2.6c0.4,1.3,0.7,2.7,1.1,4
										C180.8,973,180.9,973.1,180.9,973.3z"/>
									<path id="Path_2768" fill="#ED1C24" d="M178.3,964.1c0,0.1-0.1,0.1-0.2,0.1c-2.3,0.6-4.6,1-7,1.3c-2.2,0.3-4.4,0.4-6.6,0.3
										c-3.9-0.1-7.8-0.6-11.6-1.6c-0.1,0-0.2,0-0.3-0.1l0,0c0,0,0,0,0,0c0.8-3,1.7-6.1,2.5-9.1c0,0,0,0,0,0c0,0,0.1,0,0.1,0
										c2.3,0.4,4.7,0.7,7.1,0.9c2,0.1,4,0.1,6,0c1.4-0.1,2.8-0.2,4.2-0.4c1.1-0.1,2.1-0.3,3.2-0.5c0.8,2.9,1.6,5.9,2.4,8.8
										C178.3,963.9,178.3,964,178.3,964.1z"/>
									<path id="Path_2769" fill="#FFFFFF" d="M175.8,955c-1.1,0.2-2.1,0.4-3.2,0.5c-1.4,0.2-2.8,0.3-4.2,0.4c-2,0.1-4,0.1-6,0
										c-2.4-0.1-4.8-0.4-7.1-0.9c0,0-0.1,0-0.1,0c0.8-3.1,1.7-6.2,2.5-9.2c0.1,0.1,0.2,0.1,0.4,0.1c2.6,0.4,5.2,0.6,7.9,0.6
										c2.4,0,4.8-0.3,7.2-0.7c0.2,0.6,0.3,1.2,0.5,1.8c0.3,1.2,0.7,2.5,1,3.7c0.3,1,0.5,1.9,0.8,2.9
										C175.7,954.4,175.7,954.7,175.8,955z"/>
									<path id="Path_2770" fill="#ED1C24" d="M173.2,945.8c-2.4,0.4-4.8,0.6-7.2,0.7c-2.6,0-5.3-0.2-7.9-0.6
										c-0.1,0-0.3,0-0.4-0.1c1.1-3.8,2.1-7.7,3.2-11.5c0-0.1,0.1-0.1,0.1-0.2c0.2,0.4,0.7,0.5,1.1,0.6c0.9,0.2,1.8,0.3,2.7,0.3
										c1,0,2.1,0,3.1-0.1c0.6-0.1,1.1-0.2,1.6-0.4c0.1-0.1,0.2-0.2,0.4-0.3c0.3,0.9,0.5,1.8,0.8,2.8
										C171.6,939.8,172.4,942.8,173.2,945.8z"/>
									<path id="Path_2771" fill="#FFFFFF" d="M165.8,985.9c-1.1,0-1.9,0-2.7,0c-1,0-2-0.1-3-0.1c-0.9-0.1-1.8-0.1-2.8-0.2
										c-1.3-0.1-2.6-0.3-3.8-0.5c-1.2-0.2-2.4-0.4-3.5-0.7c-1.2-0.3-2.3-0.7-3.4-1.3c-0.3-0.2-0.6-0.4-0.8-0.7
										c-0.4-0.6-0.2-1.3,0.3-1.7c0.6-0.5,1.3-0.9,2.1-1.1c0.1,0,0.1-0.1,0.2,0s0,0.1,0,0.2c0,0,0,0,0,0.1c-0.4,1-0.1,1.4,0.8,2
										c0.9,0.5,1.8,0.9,2.8,1.1c1.3,0.3,2.6,0.6,3.9,0.8c0.9,0.1,1.9,0.2,2.8,0.3c1.3,0.1,2.6,0.2,3.9,0.2c1.8,0.1,3.6,0,5.4,0
										c1.1,0,2.1-0.1,3.2-0.2c1-0.1,2.1-0.2,3.1-0.3c1.7-0.2,3.3-0.5,5-0.9c0.9-0.2,1.8-0.6,2.6-1c0.3-0.2,0.6-0.4,0.8-0.7
										c0.2-0.3,0.2-0.7,0.1-1c-0.1-0.2-0.2-0.4-0.1-0.6s0.3,0.1,0.5,0.1c0.5,0.2,1,0.5,1.5,0.8c0.2,0.2,0.5,0.4,0.6,0.6
										c0.3,0.5,0.2,1.2-0.3,1.6c0,0,0,0,0,0c-0.9,0.7-1.9,1.2-2.9,1.4c-1.1,0.3-2.3,0.6-3.4,0.8c-0.8,0.2-1.6,0.3-2.5,0.4
										c-0.8,0.1-1.5,0.2-2.3,0.3c-0.5,0.1-1,0.1-1.5,0.1c-1.2,0.1-2.5,0.1-3.8,0.2C167.5,985.9,166.6,985.9,165.8,985.9z"/>
								</g>
								<g id="Group_2196">
									<path id="Path_2772" fill="#ED1C24" d="M431.7,895.2c0.2,0.8,0.5,1.6,0.7,2.4c0,0.2,0.2,0.3,0.4,0.3c1.5,0.2,2.9,0.6,4.4,1
										c0.6,0.2,1.2,0.5,1.8,0.8c0.5,0.3,0.9,0.6,1.1,1.1v0.7c0,0-0.1,0-0.1,0.1c-0.1,0.2-0.3,0.5-0.5,0.6
										c-0.7,0.5-1.4,0.9-2.3,1.1c-1.5,0.5-3.1,0.9-4.7,1.1c-0.8,0.1-1.7,0.3-2.5,0.4c-1,0.1-2,0.2-3.1,0.3
										c-0.7,0.1-1.4,0.1-2,0.1c-0.9,0-1.7,0.1-2.6,0.1c-1.9,0-3.8,0-5.7-0.1c-0.4,0-0.8,0-1.2-0.1c-0.2,0-0.4,0-0.6,0
										c-0.6-0.1-1.3-0.1-1.9-0.2c-0.5,0-0.9-0.1-1.4-0.1c-0.6-0.1-1.1-0.1-1.7-0.2c-0.8-0.1-1.5-0.2-2.2-0.4
										c-0.8-0.2-1.6-0.3-2.4-0.6c-1-0.3-2-0.7-3-1.2c-0.4-0.2-0.7-0.5-0.9-0.8c0-0.1,0-0.2-0.2-0.2V901c0.3-0.6,0.7-1,1.3-1.3
										c1.1-0.6,2.2-1,3.4-1.2c0.9-0.2,1.8-0.4,2.8-0.6c0.1,0,0.2-0.1,0.2-0.2c0.2-0.8,0.5-1.7,0.7-2.5c0.1,0,0.1,0,0.2,0
										c0.5,0.1,1.1,0.3,1.6,0.4c2.5,0.5,5,0.9,7.5,1c1.8,0.1,3.5,0,5.3-0.1c1.9-0.2,3.7-0.4,5.5-0.8
										C430.2,895.6,430.9,895.4,431.7,895.2z M420.7,904.4c0.5,0,1.2,0,2,0c0.9,0,1.8-0.1,2.7-0.1c0.4,0,0.7-0.1,1.1-0.1
										c0.6-0.1,1.1-0.1,1.7-0.2c0.6-0.1,1.2-0.2,1.8-0.3c0.8-0.2,1.7-0.4,2.5-0.6c0.8-0.2,1.5-0.5,2.1-1c0.4-0.2,0.5-0.7,0.3-1.1
										c0,0,0,0,0,0c-0.1-0.2-0.3-0.3-0.5-0.5c-0.3-0.2-0.7-0.4-1.1-0.6c-0.1,0-0.3-0.2-0.4-0.1s0,0.3,0.1,0.4
										c0.1,0.2,0.1,0.5-0.1,0.7c-0.1,0.2-0.3,0.4-0.5,0.5c-0.6,0.3-1.2,0.6-1.9,0.8c-1.2,0.3-2.4,0.5-3.6,0.7
										c-0.7,0.1-1.5,0.2-2.2,0.2c-0.8,0.1-1.5,0.1-2.3,0.1c-1.3,0-2.6,0-3.9,0c-1,0-1.9-0.1-2.8-0.2c-0.7-0.1-1.4-0.1-2-0.2
										c-1-0.1-1.9-0.3-2.9-0.6c-0.7-0.2-1.4-0.4-2-0.8c-0.6-0.4-0.9-0.7-0.6-1.4c0,0,0,0,0,0c0-0.1,0.1-0.1,0-0.2s-0.1,0-0.1,0
										c-0.6,0.2-1.1,0.5-1.5,0.8c-0.4,0.3-0.5,0.8-0.2,1.2c0.2,0.2,0.4,0.4,0.6,0.5c0.8,0.4,1.6,0.7,2.5,0.9
										c0.8,0.2,1.7,0.4,2.5,0.5c0.9,0.2,1.9,0.3,2.8,0.4c0.7,0.1,1.3,0.1,2,0.2c0.7,0,1.5,0.1,2.2,0.1
										C419.4,904.4,420,904.4,420.7,904.4L420.7,904.4z"/>
									<path id="Path_2773" fill="#C1272D" d="M423.4,908.1c-0.2,0-0.3,0.1-0.5,0c-0.3-0.1-0.6-0.1-0.8,0h-3.2
										c-0.2-0.1-0.5-0.1-0.8,0h-0.6c0-0.1-0.1,0-0.1,0c-2.5-0.1-5-0.3-7.5-0.6c-1.7-0.2-3.4-0.6-5-1c-1-0.3-2-0.7-2.9-1.2
										c-0.5-0.2-0.8-0.7-1-1.1v-2.5c0.1,0,0.1,0.2,0.2,0.2c0.2,0.3,0.6,0.6,0.9,0.8c0.9,0.5,1.9,0.9,3,1.2
										c0.8,0.2,1.6,0.4,2.4,0.6c0.7,0.1,1.5,0.3,2.2,0.4c0.6,0.1,1.1,0.2,1.7,0.2c0.5,0.1,0.9,0.1,1.4,0.1
										c0.6,0.1,1.3,0.1,1.9,0.2c0.2,0,0.4,0,0.6,0c0.4,0,0.8,0,1.2,0.1c1.9,0.1,3.8,0.1,5.7,0.1c0.9,0,1.7,0,2.6-0.1
										c0.7,0,1.4-0.1,2-0.1c1-0.1,2-0.2,3.1-0.3c0.8-0.1,1.7-0.2,2.5-0.4c1.6-0.2,3.2-0.6,4.7-1.1c0.8-0.3,1.6-0.6,2.3-1.1
										c0.2-0.2,0.4-0.4,0.5-0.6c0,0,0-0.1,0.1-0.1v2.6c-0.2,0.5-0.6,0.9-1.1,1.1c-0.7,0.4-1.4,0.7-2.1,0.9
										c-2.8,0.8-5.6,1.3-8.5,1.6C426.7,907.9,425,908,423.4,908.1z"/>
									<path id="Path_2774" fill="#FFFFFF" d="M421.5,865.9c0.3,0.1,0.6,0.1,0.9,0.1c0.4,0,0.8,0.1,1.1,0.3c0.2,0,0.3,0.2,0.3,0.4
										c-0.1,0.1-0.2,0.2-0.3,0.2c-0.4,0.2-0.8,0.3-1.2,0.3c-0.7,0.1-1.5,0.1-2.3,0.1c-0.7,0-1.3-0.1-2-0.2
										c-0.3-0.1-0.6-0.1-0.8-0.4c0-0.2,0.2-0.3,0.3-0.3c0.4-0.2,0.9-0.3,1.4-0.3c0.2,0,0.4,0,0.6-0.1L421.5,865.9z"/>
									<path id="Path_2775" fill="#FFFFFF" d="M431.7,895.2c-0.7,0.2-1.4,0.3-2.2,0.5c-1.8,0.4-3.7,0.6-5.5,0.8
										c-1.8,0.1-3.5,0.2-5.3,0.1c-2.5-0.1-5.1-0.4-7.5-1c-0.5-0.1-1.1-0.3-1.6-0.4c-0.1,0-0.1,0-0.2,0l1.3-4.7
										c0.2-0.6,0.3-1.2,0.5-1.8c0-0.1,0.1-0.2,0.1-0.2c0.1,0,0.1,0,0.2,0c2.8,0.7,5.6,1.1,8.4,1.1c1.6,0,3.2,0,4.8-0.2
										c1.7-0.2,3.4-0.5,5.1-0.9c0.1,0,0.1,0,0.2-0.1c0.1,0.5,0.3,1,0.4,1.6c0.2,0.6,0.3,1.3,0.5,1.9c0.3,1,0.5,1.9,0.8,2.9
										C431.6,895,431.7,895.1,431.7,895.2z"/>
									<path id="Path_2776" fill="#ED1C24" d="M429.8,888.5c0,0.1-0.1,0.1-0.2,0.1c-1.7,0.4-3.4,0.7-5.1,0.9
										c-1.6,0.2-3.2,0.3-4.8,0.2c-2.8-0.1-5.7-0.4-8.4-1.1c-0.1,0-0.1,0-0.2,0l0,0c0,0,0,0,0,0c0.6-2.2,1.2-4.4,1.8-6.6
										c0,0,0,0,0,0c0,0,0.1,0,0.1,0c1.7,0.3,3.4,0.5,5.2,0.6c1.4,0.1,2.9,0.1,4.3,0c1-0.1,2-0.1,3.1-0.3c0.8-0.1,1.5-0.2,2.3-0.4
										l1.8,6.4C429.8,888.4,429.8,888.4,429.8,888.5z"/>
									<path id="Path_2777" fill="#FFFFFF" d="M428,881.9c-0.8,0.1-1.5,0.3-2.3,0.4c-1,0.1-2,0.2-3.1,0.3c-1.4,0.1-2.9,0.1-4.3,0
										c-1.7-0.1-3.5-0.3-5.2-0.6c0,0-0.1,0-0.1,0c0.6-2.2,1.2-4.5,1.8-6.7c0.1,0.1,0.2,0.1,0.3,0.1c1.9,0.3,3.8,0.5,5.7,0.4
										c1.8,0,3.5-0.2,5.2-0.5c0.1,0.4,0.3,0.9,0.4,1.3c0.2,0.9,0.5,1.8,0.7,2.7c0.2,0.7,0.4,1.4,0.6,2.1
										C427.9,881.5,427.9,881.7,428,881.9z"/>
									<path id="Path_2778" fill="#ED1C24" d="M426.1,875.2c-1.7,0.3-3.5,0.5-5.2,0.5c-1.9,0-3.8-0.1-5.7-0.4
										c-0.1,0-0.2,0-0.3-0.1c0.8-2.8,1.5-5.6,2.3-8.3c0-0.1,0-0.1,0.1-0.2c0.2,0.3,0.5,0.4,0.8,0.4c0.7,0.1,1.3,0.2,2,0.2
										c0.8,0,1.5,0,2.3-0.1c0.4,0,0.8-0.1,1.2-0.3c0.1,0,0.2-0.1,0.3-0.2c0.2,0.7,0.4,1.3,0.6,2
										C424.9,870.9,425.5,873.1,426.1,875.2z"/>
									<path id="Path_2779" fill="#FFFFFF" d="M420.7,904.4c-0.8,0-1.4,0-1.9,0c-0.7,0-1.5,0-2.2-0.1c-0.7,0-1.3-0.1-2-0.2
										c-0.9-0.1-1.9-0.2-2.8-0.4c-0.9-0.1-1.7-0.3-2.5-0.5c-0.9-0.2-1.7-0.5-2.5-0.9c-0.2-0.1-0.4-0.3-0.6-0.5
										c-0.3-0.4-0.2-1,0.2-1.2c0.5-0.4,1-0.6,1.5-0.8c0,0,0.1-0.1,0.1,0s0,0.1,0,0.2c0,0,0,0,0,0c-0.3,0.7-0.1,1,0.6,1.4
										c0.6,0.4,1.3,0.6,2,0.8c0.9,0.3,1.9,0.4,2.9,0.6c0.7,0.1,1.4,0.2,2,0.2c0.9,0.1,1.9,0.1,2.8,0.2c1.3,0.1,2.6,0,3.9,0
										c0.8,0,1.5-0.1,2.3-0.1c0.8-0.1,1.5-0.1,2.2-0.2c1.2-0.1,2.4-0.4,3.6-0.7c0.7-0.2,1.3-0.4,1.9-0.8c0.2-0.1,0.4-0.3,0.5-0.5
										c0.2-0.2,0.2-0.5,0.1-0.7c-0.1-0.1-0.2-0.3-0.1-0.4s0.2,0.1,0.4,0.1c0.4,0.1,0.8,0.3,1.1,0.6c0.2,0.1,0.3,0.3,0.5,0.5
										c0.3,0.4,0.2,0.9-0.2,1.1c0,0,0,0,0,0c-0.6,0.5-1.3,0.8-2.1,1c-0.8,0.2-1.6,0.5-2.5,0.6c-0.6,0.1-1.2,0.2-1.8,0.3
										c-0.6,0.1-1.1,0.1-1.7,0.2c-0.4,0-0.7,0.1-1.1,0.1c-0.9,0.1-1.8,0.1-2.7,0.1C422,904.4,421.3,904.3,420.7,904.4z"/>
								</g>
								<g id="Group_2197">
									<path id="Path_2780" fill="#ED1C24" d="M488,1161.9c0.3,1.2,0.7,2.5,1,3.7c0,0.3,0.3,0.5,0.6,0.5c2.3,0.4,4.6,0.9,6.8,1.6
										c1,0.3,2,0.7,2.9,1.3c0.7,0.4,1.4,1,1.8,1.8v1.1c-0.1,0-0.1,0.1-0.1,0.1c-0.2,0.4-0.5,0.7-0.8,1c-1.1,0.8-2.3,1.4-3.5,1.8
										c-2.4,0.8-4.9,1.4-7.4,1.8c-1.3,0.2-2.6,0.4-3.9,0.6c-1.6,0.2-3.2,0.3-4.8,0.5c-1.1,0.1-2.1,0.2-3.2,0.2
										c-1.3,0.1-2.7,0.1-4,0.1c-3,0-6,0-9-0.1c-0.6,0-1.3,0-1.9-0.1c-0.3,0-0.7,0-1-0.1c-1-0.1-2-0.2-2.9-0.3
										c-0.7-0.1-1.5-0.1-2.2-0.2c-0.9-0.1-1.8-0.2-2.7-0.4c-1.2-0.2-2.4-0.4-3.5-0.6c-1.2-0.2-2.5-0.5-3.7-0.9
										c-1.6-0.4-3.2-1-4.6-1.8c-0.6-0.3-1.1-0.8-1.5-1.3c-0.1-0.1-0.1-0.3-0.2-0.4v-0.9c0.4-0.9,1.1-1.6,2-2
										c1.7-0.9,3.5-1.5,5.4-1.9c1.4-0.4,2.9-0.6,4.3-0.9c0.2,0,0.3-0.1,0.3-0.3c0.4-1.3,0.7-2.6,1.1-3.9c0.1,0,0.2,0,0.3,0
										c0.9,0.2,1.7,0.4,2.6,0.6c3.9,0.9,7.8,1.4,11.8,1.5c2.7,0.1,5.5,0.1,8.2-0.2c2.9-0.2,5.8-0.7,8.6-1.2
										C485.7,1162.4,486.8,1162.1,488,1161.9z M470.9,1176.2c0.8,0,1.9,0,3.1,0c1.4-0.1,2.8-0.1,4.3-0.2c0.6,0,1.1-0.1,1.7-0.1
										c0.9-0.1,1.8-0.2,2.6-0.3c0.9-0.1,1.9-0.2,2.8-0.4c1.3-0.2,2.6-0.6,3.9-1c1.2-0.3,2.3-0.9,3.3-1.6c0.6-0.4,0.8-1.2,0.4-1.8
										c0,0,0,0,0-0.1c-0.2-0.3-0.4-0.5-0.7-0.7c-0.5-0.4-1.1-0.7-1.7-0.9c-0.2-0.1-0.5-0.3-0.6-0.2s0,0.4,0.1,0.6
										c0.2,0.4,0.2,0.8-0.1,1.1c-0.2,0.3-0.5,0.6-0.9,0.8c-0.9,0.5-1.9,0.9-3,1.2c-1.9,0.5-3.7,0.9-5.6,1.1
										c-1.2,0.1-2.3,0.3-3.5,0.4c-1.2,0.1-2.4,0.2-3.6,0.2c-2.1,0-4.1,0.1-6.2,0c-1.5-0.1-3-0.1-4.5-0.3
										c-1.1-0.1-2.1-0.2-3.2-0.4c-1.5-0.2-3-0.5-4.5-0.9c-1.1-0.3-2.2-0.7-3.2-1.2c-1-0.6-1.4-1.1-0.9-2.2c0,0,0,0,0-0.1
										c0-0.1,0.1-0.2,0-0.2s-0.1,0-0.2,0c-0.9,0.3-1.7,0.7-2.4,1.3c-0.6,0.4-0.8,1.3-0.4,1.9c0.3,0.3,0.6,0.6,1,0.8
										c1.2,0.7,2.5,1.2,3.9,1.5c1.3,0.3,2.6,0.6,4,0.8c1.4,0.2,2.9,0.4,4.4,0.6c1,0.1,2.1,0.2,3.1,0.3c1.1,0.1,2.3,0.1,3.4,0.1
										C468.8,1176.2,469.7,1176.2,470.9,1176.2L470.9,1176.2z"/>
									<path id="Path_2781" fill="#C1272D" d="M475.1,1182c-0.3,0.1-0.5,0.1-0.8,0c-0.4-0.1-0.9-0.1-1.3,0h-5
										c-0.4-0.1-0.8-0.1-1.2,0h-1c0-0.1-0.1-0.1-0.2-0.1c-3.9-0.1-7.9-0.5-11.8-1c-2.6-0.3-5.2-0.9-7.8-1.6
										c-1.6-0.4-3.1-1-4.5-1.8c-0.7-0.4-1.3-1-1.6-1.8v-4c0.2,0,0.2,0.2,0.2,0.4c0.4,0.5,0.9,1,1.5,1.3c1.5,0.8,3,1.4,4.6,1.8
										c1.2,0.4,2.5,0.6,3.7,0.9c1.2,0.2,2.3,0.4,3.5,0.6c0.9,0.1,1.8,0.2,2.7,0.4c0.7,0.1,1.5,0.2,2.2,0.2c1,0.1,2,0.2,2.9,0.3
										c0.3,0,0.7,0,1,0.1c0.6,0.1,1.3,0,1.9,0.1c3,0.2,6,0.1,9,0.1c1.3,0,2.7-0.1,4-0.1c1.1,0,2.1-0.1,3.2-0.2
										c1.6-0.1,3.2-0.3,4.8-0.5c1.3-0.2,2.6-0.4,3.9-0.6c2.5-0.4,5-1,7.4-1.8c1.3-0.4,2.5-1,3.5-1.8c0.3-0.3,0.6-0.6,0.8-1
										c0-0.1,0.1-0.1,0.1-0.1v4c-0.4,0.8-1,1.4-1.7,1.8c-1,0.6-2.1,1.1-3.3,1.4c-4.4,1.3-8.8,2.1-13.4,2.4
										C480.2,1181.8,477.6,1181.9,475.1,1182z"/>
									<path id="Path_2782" fill="#FFFFFF" d="M472,1116c0.5,0.1,0.9,0.2,1.4,0.2c0.6,0.1,1.2,0.2,1.8,0.5
										c0.3,0.1,0.4,0.3,0.4,0.6c-0.2,0.1-0.3,0.2-0.4,0.3c-0.6,0.2-1.2,0.4-1.9,0.5c-1.2,0.2-2.4,0.2-3.5,0.2
										c-1,0-2.1-0.1-3.1-0.4c-0.5-0.1-1-0.2-1.3-0.7c0-0.3,0.3-0.4,0.5-0.5c0.7-0.3,1.4-0.4,2.2-0.5c0.3,0,0.6,0,0.9-0.1
										L472,1116z"/>
									<path id="Path_2783" fill="#FFFFFF" d="M488,1161.9c-1.1,0.3-2.3,0.5-3.4,0.8c-2.9,0.6-5.7,1-8.6,1.2
										c-2.7,0.2-5.5,0.3-8.2,0.2c-4-0.2-7.9-0.7-11.8-1.5c-0.9-0.2-1.7-0.4-2.6-0.6c-0.1,0-0.2,0-0.3,0l2-7.3
										c0.3-0.9,0.5-1.9,0.8-2.8c0-0.1,0.1-0.2,0.2-0.4c0.1,0,0.2,0,0.3,0.1c4.3,1.1,8.7,1.7,13.2,1.8c2.5,0,5-0.1,7.5-0.4
										c2.7-0.3,5.3-0.8,7.9-1.4c0.1,0,0.2,0,0.3-0.2c0.2,0.8,0.5,1.6,0.7,2.5c0.2,1,0.5,2,0.8,2.9c0.4,1.5,0.8,3,1.3,4.6
										C487.9,1161.5,488,1161.7,488,1161.9z"/>
									<path id="Path_2784" fill="#ED1C24" d="M485.1,1151.3c0,0.2-0.2,0.1-0.3,0.2c-2.6,0.7-5.3,1.1-7.9,1.4
										c-2.5,0.3-5,0.4-7.5,0.4c-4.4-0.1-8.9-0.7-13.2-1.8c-0.1,0-0.2,0-0.3-0.1l0,0c0,0,0,0,0-0.1c1-3.5,1.9-6.9,2.9-10.4
										c0,0,0,0,0,0c0,0,0.1,0,0.1,0c2.7,0.5,5.4,0.8,8.1,1c2.3,0.1,4.5,0.1,6.8,0c1.6-0.1,3.2-0.2,4.8-0.4
										c1.2-0.2,2.4-0.4,3.6-0.6c0.9,3.3,1.8,6.7,2.8,10C485,1151.2,485.1,1151.2,485.1,1151.3z"/>
									<path id="Path_2785" fill="#FFFFFF" d="M482.2,1141c-1.2,0.2-2.4,0.4-3.6,0.6c-1.6,0.2-3.2,0.4-4.8,0.4
										c-2.3,0.1-4.5,0.1-6.8,0c-2.7-0.2-5.4-0.5-8.1-1c0,0-0.1,0-0.1,0c1-3.5,1.9-7,2.9-10.5c0.1,0.1,0.3,0.1,0.4,0.1
										c3,0.5,6,0.7,9,0.7c2.7,0,5.5-0.3,8.2-0.8c0.2,0.7,0.4,1.4,0.6,2c0.4,1.4,0.8,2.8,1.2,4.2c0.3,1.1,0.6,2.2,0.9,3.3
										C482.1,1140.4,482.2,1140.7,482.2,1141z"/>
									<path id="Path_2786" fill="#ED1C24" d="M479.3,1130.5c-2.7,0.5-5.4,0.7-8.2,0.8c-3,0-6-0.2-9-0.7c-0.2,0-0.3,0-0.4-0.1
										c1.2-4.4,2.4-8.7,3.6-13.1c0-0.1,0.1-0.2,0.1-0.2c0.3,0.5,0.8,0.6,1.3,0.7c1,0.2,2.1,0.3,3.1,0.4c1.2,0,2.4,0,3.5-0.2
										c0.6-0.1,1.3-0.2,1.9-0.5c0.2-0.1,0.3-0.2,0.4-0.3c0.3,1,0.6,2.1,0.9,3.1C477.4,1123.8,478.4,1127.1,479.3,1130.5z"/>
									<path id="Path_2787" fill="#FFFFFF" d="M470.9,1176.2c-1.2,0-2.1,0-3,0c-1.1,0-2.3-0.1-3.4-0.1c-1-0.1-2.1-0.2-3.1-0.3
										c-1.5-0.2-2.9-0.3-4.4-0.6c-1.3-0.2-2.7-0.5-4-0.8c-1.3-0.3-2.6-0.8-3.9-1.5c-0.4-0.2-0.7-0.5-1-0.8
										c-0.4-0.6-0.3-1.5,0.4-1.9c0.7-0.6,1.5-1,2.4-1.3c0.1,0,0.1-0.1,0.2,0s0,0.2,0,0.2c0,0,0,0,0,0.1c-0.5,1.1-0.1,1.6,0.9,2.2
										c1,0.6,2.1,1,3.2,1.2c1.5,0.4,3,0.7,4.5,0.9c1.1,0.2,2.1,0.3,3.2,0.4c1.5,0.1,3,0.2,4.5,0.3c2.1,0.1,4.1,0,6.2,0
										c1.2,0,2.4-0.1,3.6-0.2c1.2-0.1,2.4-0.2,3.5-0.4c1.9-0.2,3.8-0.6,5.6-1.1c1-0.3,2-0.7,3-1.2c0.3-0.2,0.6-0.4,0.9-0.8
										c0.2-0.3,0.3-0.8,0.1-1.1c-0.1-0.2-0.3-0.5-0.1-0.6s0.4,0.1,0.6,0.2c0.6,0.2,1.2,0.5,1.7,0.9c0.3,0.2,0.5,0.4,0.7,0.7
										c0.4,0.6,0.2,1.4-0.4,1.8c0,0,0,0-0.1,0c-1,0.8-2.1,1.3-3.3,1.6c-1.3,0.4-2.6,0.7-3.9,1c-0.9,0.2-1.9,0.3-2.8,0.4
										c-0.9,0.1-1.8,0.2-2.6,0.3c-0.6,0.1-1.1,0.1-1.7,0.1c-1.4,0.1-2.8,0.2-4.3,0.2C472.8,1176.2,471.7,1176.1,470.9,1176.2z"/>
								</g>
							</g>
							<path id="Path_2788" fill="#BBBBF9" d="M777.1,909v45.5c-6.4-0.2-13.1-0.6-20-1c-19.4-1.2-95.9-6-96.6-16.7
								c-0.3-4.6,13.6-12.9,98-26.9C764.7,909.6,770.9,909.3,777.1,909z"/>
							<g id="Group_2201">
								<path id="Path_2789" fill="#333333" d="M148.3,1037.9c2-5.4,2.6-8.1,7.4-16.4l5.1-8.8c1.1-1.8,2.7-2.8,4.1-2.5
									c2.8,0.6,4.7,2.7,5.9,3.9c1.7,1.7,3.6,3.3,5.6,4.5c1.9,1.1,4.3,1.8,4.9,4c0.5,2.5-0.1,5.1-1.5,7.2
									c-2.7,3.6-8.1,4.6-11.9,6.3c-4.6,2.1-8.8,5.1-12.2,8.9c-2.5,2.5-5.2,7.2-9.2,4.9C144.5,1048.8,147.5,1040,148.3,1037.9z"/>
								<path id="Path_2790" fill="#4B48EB" d="M249.2,988.7c-0.1,3.1-1.8,5.1-3.2,7.6c-2.8,4.8-3.3,12.9-4.3,18.3
									c-1.4,7.3-2.3,14.7-4.4,21.9c-1.7,5.8-4.1,11.4-7.2,16.7c-2.3,4-5.3,7.2-10.1,7.9c-4.9,0.7-9.9-3.3-13.8-5.7
									c-5.4-3.2-11-6.1-16.7-8.7c-8-3.9-16-7.9-23.2-13.1c-2.7-2-3.7-3-2.3-6c1.3-2.7,3.2-5.1,5.4-7.2c2.1-1.8,2.7-3.3,5.2-3
									c2.5,0.2,5.6,2.1,7.9,3c5.3,2,10.3,4.4,15.2,7.2c3.2,1.9,6.2,3.9,9.2,6.1c2.4,1.8,5.6,5.5,8.3,6.2c1.2-4.2,0.1-9.6-0.2-14
									c-0.2-3.7-0.1-7.4,0.4-11.1c0.7-5.2-1.9-12.7-4.9-16.9c-0.9-1.3-5.4-9.1-5.1-15.4c0.4-8.5,4.4-16.1,13.8-14.5
									c5.7,1.1,11.2,2.7,16.6,4.7c2.1,0.7,9.9,2.5,10.4,5C247.1,981.5,249.3,984.9,249.2,988.7z"/>
								<path id="Path_2791" fill="#4D4D4D" d="M161.9,1062.3c-1.3-0.8-2.1-3.4-3.2-6.8c-1-2.8-1.7-5.7-1.9-8.7
									c-0.1-2.3,0.7-4.7,1.3-6.9c1.2-5,1.9-10.3,3.9-15.1c0.5-1.3,1.9-4.8,3-5c1.4-0.2,4.8,1.5,6.1,2c2.4,0.9,4.6,2.2,7,3.1
									c1.5,0.6,3.1,0.9,4.7,1c0.8,0.1,2.1-0.2,2.7,0.1c2,1.2,0.2,5.3-0.3,6.9c-0.6,2.2-0.7,5.1-2.1,6.9c-2.5,3.3-7.7,4.8-11,7.1
									c-2,1.3-3.6,2.9-4.8,4.9c-1.5,2.5-0.7,4.8-1.4,7.6C165.5,1061.5,163.8,1063.5,161.9,1062.3z"/>
								<path id="Path_2792" fill="#6253FF" d="M251.8,983c0.5,3-0.7,5.3-1.6,8.1c-1.8,5.2-0.6,13.3-0.5,18.8
									c0.1,7.4,0.7,14.9,0.1,22.3c-0.5,6.1-1.7,12-3.6,17.8c-1.5,4.4-3.8,8.1-8.3,9.8c-4.7,1.7-10.4-1.2-14.7-2.8
									c-6-2-12-3.8-18.1-5.2c-8.6-2.2-17.3-4.5-25.3-8.2c-3-1.4-4.3-2.2-3.4-5.4c0.7-2.9,2.1-5.7,3.9-8.1c1.7-2.2,2-3.7,4.5-4
									c2.5-0.3,5.9,0.9,8.4,1.4c5.6,0.9,11,2.3,16.4,4c3.5,1.2,6.9,2.6,10.2,4.2c2.7,1.3,6.6,4.3,9.4,4.4c0.3-4.4-1.9-9.4-3-13.6
									c-1-3.6-1.6-7.3-1.9-11c-0.4-5.3-4.4-12.1-8.2-15.6c-1.2-1.1-7.1-7.9-8.1-14.1c-1.3-8.4,1.1-16.6,10.6-17
									c5.8,0,11.5,0.4,17.2,1.2c2.2,0.3,10.2,0.4,11.2,2.8C248.3,976.3,251.1,979.2,251.8,983z"/>
								<g id="Group_2200">
									<path id="Path_2793" fill="#F29D7F" d="M286.5,992.4c-3.8-0.6-6.6,2-10.1-0.9c-3.3-2.7-2.7-7-4.9-10.2
										c-1.6-2.4-7.2-3.1-4.6-6.4c2.1-2.8,5.1-1.7,7.6,0.1c3.1,2.3,5.2,4.8,8.8,6.5s5,3.8,7.1,7.2c0.8,1.3,4.4,5.8,3.1,7.5
										C292.8,997.1,287.8,992.6,286.5,992.4z"/>
									<g id="Group_2199">
										<path id="Path_2794" fill="#CBCBCB" d="M334.9,1041.1c17.9,1.5,36,0.1,53.5-4.2l0.3-0.1c-0.1-0.1-0.2-0.1-0.3-0.2
											c0,0-0.1,0-0.1-0.1c-12.2-7.1-25.6-12.1-39.5-14.5c-3.6,2.2-7.2,4.4-10.8,6.6c-0.1,0.1-0.3,0.2-0.4,0.3l-1.5,1.8
											c-0.1,0.2-0.3,0.4-0.4,0.5c0,0.1,0,0.2,0,0.3C335.3,1034.8,335.1,1038,334.9,1041.1z"/>
										<path id="Path_2795" fill="#CBCBCB" d="M334.9,1041.1c17.9,1.5,36,0.1,53.5-4.2l0-0.3l0-0.1l-0.1,0l-52.2-5.8
											c-0.1,0.2-0.3,0.4-0.4,0.5C335.3,1034.6,335.1,1037.9,334.9,1041.1z"/>
										<path id="Path_2796" fill="#666666" d="M327.1,1023.6c-0.7-2,0.1-4.2,1.9-5.3c-6.3-3.2-13.1-5.4-20.1-6.6
											c-1.2,1.4-1.8,3.1-1.8,4.9c2.6,1.1,5.3,2.3,8.3,3.4C319.5,1021.5,323.5,1022.6,327.1,1023.6z"/>
										<path id="Path_2797" fill="#1A1A1A" d="M345.5,1031.8l-9.9-0.2l0,0.1l-5-7.2l-3.4-0.9c0,0-1.6-2.7,1.9-5.3l4.5,2.1
											l4.1,8.6c0.1-0.1,0.3-0.2,0.4-0.3L345.5,1031.8z"/>
										<path id="Path_2798" fill="#1A1A1A" d="M308.9,1011.7l-2.1-0.1c-0.2,0-0.3,0.1-0.4,0.2l-1.4,3c-0.1,0.2,0,0.4,0.1,0.5
											l1.9,1.4c0-0.5,0.1-1,0.2-1.5C307.5,1013.9,308.1,1012.7,308.9,1011.7z"/>
									</g>
									<path id="Path_2799" fill="#FFBD97" d="M329.4,946.9c-2,0.7-2.9,0.5-4.6,0.8c-2.1,0.3-3.7,2.3-5.2,3.7
										c-1.8,1.6-2.5-0.6-4.3-0.9c-2.1-0.3-4.8,0.8-7,0.2c-2.4-0.6-1.8-3.3-3.7-4.4c-1.6-0.9-4.6,1-6.3,1.1
										c-2.6,0.1-3.4-0.5-4-2.8c-0.6-2.4-0.7-4.9-0.3-7.3c0.9-4.8,3.8-6.8,8.2-8c9.7-2.8,10.5-15.1,22.8-14.1
										c8.6,0.7,15.1,13.2,13.3,21.3C336.8,942.4,334.6,945,329.4,946.9z"/>
									<path id="Path_2800" fill="#453433" d="M338.8,946.2c-1.4,0.7-4.7,1.9-5.8,0.9c-2.7-2.4,4.3-11.4-2.6-12.1
										c-2.4-0.2-6.6,1.4-8.4-0.6c-1.2-1.4,0.1-2.5-0.1-4.3c-0.2-1.6-1.7-2.7-3.4-2.5c-0.5,0.1-0.9,0.2-1.3,0.5
										c-2.9,2.2-3.1,3.4-5.5,2.4c-1.5-0.7-4.5-3.5-4.3-5.4c0.2-1.8,3.8-5.6,5-7c3.7-4.5,8.8-6.3,14.8-5.6
										c4.8,0.6,10.6,5.3,12.5,10.7c2.6,7.2,0.4,11.1,1.6,16.8C342,943.3,340.7,945.3,338.8,946.2z"/>
									<path id="Path_2801" fill="#4B48EB" d="M297.7,950.4c-1.3,0.7-2.7,2.2-4,2.7c-2.7,0.9-2.5-3.5-2-5.6c0.6-2.7,2.4-5,2.6-7.8
										c0.2-2.1-0.4-4.2-0.7-6.3c-0.2-2-0.2-4.2,1.4-5.7c2.5-2.3,4-0.3,5.4,2c1.7,3,1.9,6.3,2,9.6c0.1,1.5,1.4,8.1,0.1,8.9
										C301,949.2,299.3,949.6,297.7,950.4z"/>
									<path id="Path_2802" fill="#6253FF" d="M236.5,1008.9c-3.3-2.1-5.4-8.5-6.3-12c-1.6-7.1,1-19-7.1-22.9
										c-2-1-15.4-1.3-9.2-5.5c3.4-2.3,7.8-3.5,11.7-4.7c4.2-1.3,8-3.7,11.1-6.9c7.5-7.5,14-15.4,23.2-21.1
										c6.6-4,15.5-9.1,23.4-9.4c9-0.3,15.6,6.4,15.2,15.4c-0.4,8.6-8.4,16.5-13.5,22.8c-6.3,7.9-14.5,13.4-21.3,20.7
										c-3.3,3.6-6.5,7.9-10.9,10.3c-1.8,1-3.9,1.4-5.6,2.6c-1.9,1.3-2.9,3.3-4.1,5.2C241.6,1005.8,240.2,1011.3,236.5,1008.9z"/>
									<path id="Path_2803" fill="#FFBD97" d="M321.7,1025.8c-1.6,0.6-3.3,0.8-5,0.6c-1.5-0.2-2.8-0.8-4-1.7c-2.8-2.2-4-4.5-3.9-7
										c0.1-3.1-1.8-4-4.5-5.8c-2.8-1.8-5.9-3.3-8.3-5.6c-2.6-2.5-4.9-5.4-6.7-8.6c-1.5-2.4-3.9-4.9-2.9-7.7
										c0.8-2.2,2.2-5.8,4.3-7.1c2.2-1.4,4.4-0.1,6.3,1.3c2.2,1.6,5.3,3.5,7,5.4c2,2.3,2.5,5.9,3.3,8.7c0.7,2.8,2,5.4,4,7.6
										c1,1.4,2.2,2.8,3.4,4.1c1.2,1.1,2.1,1.2,3.6,2.1c4.2,2.3,4.4,2.9,4.6,6.5c0,1.3,0.3,2.6,0.7,3.8c0.4,0.8,1.6,1.1,0.6,2.2
										c-0.5,0.5-1.2,0.9-1.9,1C322.1,1025.7,321.9,1025.8,321.7,1025.8z"/>
									<path id="Path_2804" fill="#4B48EB" d="M296.5,977.4c0.9,2.4,1.6,4,0.4,6.5c-2.1,4.1-6.6,6.6-10.9,7.6
										c-3.3,0.7-3.5,0.1-5.2-2.7c-1.7-2.7-3-5.6-3.8-8.6c-0.8-3-0.8-6.1-1.8-9c-0.8-2.5-1.9-4.8-2.5-7.3c-1-3.6-1.7-7.7-1-11.4
										c0.8-4.5,3.7-6.6,7.7-8.3c5.5-2.4,9.6,1,12.2,5.8c3.1,5.6,1.9,11.2,2.3,17.3C294,970.7,295.3,974,296.5,977.4z"/>
								</g>
							</g>
							<g id="Group_2204">
								<path id="Path_2805" fill="#333333" d="M809.7,928.8c-1.6-3.9-3.6-7.6-6.1-11l-4-5.8c-0.8-1.2-2-1.8-3-1.5
									c-1.6,0.6-2.9,1.7-3.9,3c-1.1,1.3-2.3,2.5-3.7,3.5c-1.2,0.8-2.9,1.5-3.2,3c-0.2,1.8,0.3,3.6,1.5,4.9
									c2.1,2.4,5.9,2.8,8.7,3.7c3.3,1.2,6.4,3.1,9,5.5c1.9,1.6,4,4.7,6.7,2.9C812.9,936.2,810.3,930.2,809.7,928.8z"/>
								<path id="Path_2806" fill="#4B48EB" d="M736.8,900.2c0.2,2.1,1.5,3.4,2.7,5.1c2.2,3.2,3,8.8,4,12.5c1.4,5,2.4,10.1,4.3,15
									c1.5,4,3.5,7.7,5.9,11.2c1.9,2.7,4.1,4.7,7.5,4.9c3.5,0.2,6.7-2.8,9.3-4.7c3.6-2.5,7.3-4.9,11.1-7
									c5.3-3.2,10.7-6.4,15.4-10.4c1.8-1.5,2.4-2.3,1.2-4.3c-1.1-1.8-2.5-3.4-4.2-4.7c-1.6-1.1-2.1-2.1-3.8-1.8
									c-1.7,0.3-3.8,1.8-5.3,2.5c-3.5,1.7-6.9,3.7-10.2,5.9c-2.1,1.5-4.1,3.1-6,4.8c-1.5,1.4-3.6,4.1-5.4,4.7
									c-1-2.9-0.6-6.7-0.6-9.7c0-2.6-0.3-5.2-0.9-7.7c-0.8-3.6,0.6-8.9,2.4-12.1c0.6-1,3.2-6.6,2.7-11c-0.8-5.9-3.9-10.9-10.4-9.3
									c-3.9,1.1-7.7,2.5-11.3,4.2c-1.4,0.6-6.8,2.3-7,4.1C737.9,895.1,736.5,897.6,736.8,900.2z"/>
								<path id="Path_2807" fill="#4D4D4D" d="M801.6,946.5c0.8-0.6,1.2-2.5,1.9-4.9c0.6-2,0.8-4.1,0.8-6.1
									c-0.2-1.6-0.6-3.2-1.3-4.8c-1.1-3.4-1.9-7-3.6-10.2c-0.4-0.8-1.6-3.2-2.3-3.3c-1-0.1-3.2,1.3-4.1,1.7
									c-1.6,0.8-3.1,1.8-4.7,2.6c-1,0.5-2.1,0.8-3.2,0.9c-0.5,0.1-1.5,0-1.9,0.3c-1.3,1,0.2,3.7,0.6,4.8c0.6,1.5,0.8,3.5,1.8,4.7
									c1.9,2.1,5.6,2.9,8,4.3c1.4,0.8,2.7,1.8,3.6,3.1c1.2,1.7,0.8,3.3,1.4,5.2C799.1,946.2,800.3,947.4,801.6,946.5z"/>
								<path id="Path_2808" fill="#6253FF" d="M734.7,896.4c-0.2,2.1,0.8,3.7,1.6,5.5c1.5,3.5,1.2,9.2,1.4,13
									c0.3,5.2,0.3,10.4,1.1,15.5c0.7,4.2,1.9,8.3,3.5,12.2c1.3,3,3.1,5.4,6.3,6.4c3.3,0.9,7.2-1.4,10.1-2.8
									c4-1.7,8.1-3.3,12.3-4.6c5.9-2,11.8-4.1,17.2-7.1c2-1.1,2.8-1.8,2.1-3.9c-0.7-2-1.7-3.8-3.1-5.4c-1.3-1.4-1.6-2.5-3.3-2.5
									c-1.7,0-4,1-5.7,1.4c-3.8,1-7.5,2.2-11.2,3.7c-2.3,1-4.6,2.2-6.9,3.5c-1.8,1-4.3,3.3-6.3,3.6c-0.4-3,0.8-6.7,1.3-9.6
									c0.5-2.5,0.7-5.1,0.7-7.7c0-3.7,2.4-8.6,4.8-11.3c0.7-0.8,4.5-5.9,4.8-10.2c0.4-5.9-1.7-11.5-8.3-11.2
									c-4,0.3-8,0.9-11.9,1.8c-1.5,0.3-7.1,0.9-7.6,2.6C736.7,891.6,734.9,893.7,734.7,896.4z"/>
								<g id="Group_2203">
									<path id="Path_2809" fill="#F29D7F" d="M711.1,904.9c2.6-0.6,4.7,1,7-1.2c2.1-2.1,1.5-5,2.8-7.4c1-1.8,4.8-2.5,2.9-4.7
										c-1.6-1.8-3.7-0.9-5.2,0.5c-2.1,1.8-3.4,3.7-5.8,5s-3.3,2.9-4.6,5.4c-0.5,1-2.7,4.3-1.7,5.4
										C707,908.5,710.2,905.1,711.1,904.9z"/>
									<path id="Path_2810" fill="#FFBD97" d="M679.6,874.9c1.1,0.2,2.2,0.3,3.3,0.3c1.4,0.1,2.7,1.4,3.8,2.3c1.4,1,1.7-0.6,3-0.9
										c1.4-0.4,3.4,0.3,4.9-0.2c1.7-0.6,1.1-2.4,2.3-3.3c1.1-0.7,3.2,0.4,4.4,0.4c1.8-0.1,2.4-0.5,2.6-2.2
										c0.3-1.7,0.2-3.4-0.2-5.1c-0.9-3.3-3-4.5-6.2-5.1c-6.9-1.4-8.2-9.9-16.6-8.5c-5.9,1-9.8,10-8.1,15.5
										C674.1,872.2,675.8,873.9,679.6,874.9z"/>
									<path id="Path_2811" fill="#6253FF" d="M746.8,913.6c2.2-1.6,3.3-6.2,3.7-8.7c0.7-5-1.7-13.2,3.7-16.3
										c1.3-0.8,10.6-1.8,6.1-4.4c-2.5-1.4-5.6-2-8.4-2.6c-3-0.7-5.8-2.1-8.1-4.2c-5.6-4.8-10.6-9.9-17.3-13.3
										c-4.8-2.4-11.3-5.5-16.8-5.3c-5.5,0.1-9.9,4.6-9.9,10.1c0,0.5,0,1,0.1,1.5c0.7,6,6.8,11,10.6,15.1
										c4.8,5.1,10.8,8.5,16,13.2c2.5,2.3,4.9,5.1,8.1,6.6c1.3,0.6,2.8,0.7,4,1.5c1.3,0.9,2.3,2.1,3.1,3.4
										C743,911.7,744.3,915.4,746.8,913.6z"/>
									<g id="Group_2202">
										<path id="Path_2812" fill="#CBCBCB" d="M684.1,942.4c-11.7,3.8-24,5.6-36.3,5.4c-0.1,0-0.2,0-0.2,0
											c0.1-0.1,0.1-0.1,0.2-0.2l0.1-0.1c7-6.7,15.2-12,24.1-15.8l8.2,2.8c0.1,0,0.2,0.1,0.3,0.1c0.4,0.3,0.9,0.7,1.3,1
											c0.1,0.1,0.3,0.2,0.4,0.3l0.1,0.2C682.8,938.3,683.4,940.3,684.1,942.4z"/>
										<path id="Path_2813" fill="#CBCBCB" d="M684.1,942.4c-11.7,3.8-24,5.6-36.3,5.4l-0.1-0.2l0,0l0.1,0l34-11.9
											c0.1,0.1,0.3,0.2,0.4,0.3L684.1,942.4z"/>
										<path id="Path_2814" fill="#666666" d="M686.5,929.5c0.2-1.4-0.7-2.8-2.1-3.3c3.7-3.1,7.9-5.6,12.4-7.5c1,0.8,1.7,1.8,2,3
											c-1.5,1.2-3.2,2.3-5,3.5C691.2,926.9,688.8,928.3,686.5,929.5z"/>
										<path id="Path_2815" fill="#1A1A1A" d="M675.5,937.8l6.6-1.7l0,0l2.2-5.6l2.1-1.1c0,0,0.6-2.1-2.1-3.3l-2.7,2.1l-1.4,6.3
											c-0.1,0-0.2-0.1-0.3-0.1L675.5,937.8z"/>
										<path id="Path_2816" fill="#1A1A1A" d="M696.8,918.7l1.4-0.4c0.1,0,0.2,0,0.3,0.1l1.4,1.8c0.1,0.1,0.1,0.2,0,0.3l-1.1,1.2
											c-0.1-0.3-0.2-0.6-0.3-0.9C698.1,920,697.5,919.3,696.8,918.7z"/>
									</g>
									<path id="Path_2817" fill="#FFBD97" d="M688.5,930.1c1.1,0.3,2.3,0.3,3.5,0.1c1-0.2,1.9-0.7,2.7-1.4
										c1.8-1.7,2.5-3.4,2.3-5.1c-0.2-2.2,1.1-2.9,2.8-4.3c1.9-1.3,3.8-2.7,5.5-4.3c1.7-1.9,3.1-4,4.2-6.3
										c0.9-1.7,2.4-3.6,1.6-5.5c-0.7-1.5-1.9-3.9-3.4-4.7c-2-1-3.6,0.7-4.8,2.1c-1.3,1.5-2.5,3.1-3.6,4.8c-0.4,0.7-0.8,1.4-1,2.1
										c-0.2,0.5-0.2,1.1-0.4,1.7c-0.4,1.8-1.1,3.5-2.2,5c-1,1.6-2,3-3.2,4.4c-0.7,0.7-1.5,1.2-2.4,1.6c-2.8,1.8-2.9,2.3-2.8,4.8
										c0.1,0.9,0,1.8-0.3,2.7c-0.2,0.6-1,0.8-0.3,1.6c0.4,0.3,0.8,0.5,1.3,0.6C688.2,930,688.4,930.1,688.5,930.1z"/>
									<path id="Path_2818" fill="#4B48EB" d="M703.3,895c-0.5,1.8-0.9,2.9,0.1,4.5c1.7,2.8,4.9,4.2,8,4.6
										c2.3,0.3,2.5-0.1,3.5-2.1c1-1.9,1.7-4,2.2-6.2c0.4-2.1,0.3-4.3,0.7-6.4c0.4-1.8,1-3.5,1.3-5.2c0.6-2.6,0.6-5.4,0.1-8
										c-0.8-3.1-3-4.4-5.8-5.3c-3.9-1.3-6.6,1.2-8.1,4.7c-1.8,4.1-0.7,7.9-0.6,12.1C704.5,890.2,704.1,892.6,703.3,895z"/>
									<path id="Path_2819" fill="#2F2E41" d="M673.5,855.2L673.5,855.2c-2.2,5.7,3.2,13,12,16.4l11.2,4.3l1-2.5l-3.6-3l4,2
										l6.1-15.8l-3.3-2.8l3.6,1.8l0.7-1.8l-8.8-3.4C686.3,846.6,676,848.7,673.5,855.2z"/>
									<path id="Path_2820" fill="#2F2E41" d="M675.8,856.4c-2.4,0.7-4.4,2.4-5.3,4.8l-0.1,0.3c-2.1,5.4,1.1,11.8,7.2,14.1l0,0
										l0.7-1.8l-2.1-1.2l2.4,0.4l4.2-10.8l-1.5-1.6l1.8,1l0.8-2.1c5.3,0.9,9.7,4.3,13.1,10l1.4-3.6l-3.1-3.3l3.6,1.9l2.7-6.9
										l-8.2-4.7C686.9,850.2,679.8,851.9,675.8,856.4z"/>
								</g>
							</g>
						</g>
					</g>
				</g>
			</g>
		</g>
	</g>
</g>
</svg>
