<?xml version="1.0" encoding="utf-8"?>
<!-- Generator: Adobe Illustrator 24.0.2, SVG Export Plug-In . SVG Version: 6.00 Build 0)  -->
<svg version="1.1" id="Layer_1" xmlns="http://www.w3.org/2000/svg" xmlns:xlink="http://www.w3.org/1999/xlink" x="0px" y="0px"
	 viewBox="0 0 800 600" enable-background="new 0 0 800 600" xml:space="preserve">
<g>
	<defs>
		<rect id="SVGID_1_" width="800" height="600"/>
	</defs>
	<clipPath id="SVGID_2_">
		<use xlink:href="#SVGID_1_"  overflow="visible"/>
	</clipPath>
	<g id="custom_7" clip-path="url(#SVGID_2_)">
		<g id="Group_2187" transform="translate(2462.164 -624.687)">
			<path id="Path_2683" opacity="0.77" fill="#EEEEFF" enable-background="new    " d="M-2060.2,1190
				c-143.2-28.5-361.9-192.6-333.4-335.8s293.3-211.2,436.5-182.8S-1721,839-1749.4,982.2S-1917,1218.4-2060.2,1190z"/>
			<g id="Group_2186">
				<g>
					<defs>
						<path id="SVGID_3_" d="M-1786.7,1073.1c-100.3,95-382.4,177.2-521.5,80.7s-82.5-335.1,17.8-430.1s294.4-93.8,433.4,2.6
							S-1686.4,978.1-1786.7,1073.1z"/>
					</defs>
					<clipPath id="SVGID_4_">
						<use xlink:href="#SVGID_3_"  overflow="visible"/>
					</clipPath>
					<g id="Group_2185" clip-path="url(#SVGID_4_)">
						<g id="Group_2184">
							<rect id="Rectangle_216" x="-2450" y="621" fill="#E8E8FC" width="800" height="273"/>
							<path id="Path_2684" fill="#C3BEFF" d="M-2450,878v129.9h800v-129L-2450,878z"/>
							<path id="Path_2685" fill="#8786BD" d="M-1984.2,878l-172.3,1l-293.5,68.5V1206h800V889.2L-1984.2,878z"/>
							<g id="Group_2177">
								<path id="Path_2686" fill="#8A87F9" d="M-1989.4,868l-170.4,1L-2450,971.7V1196h791.1V901.6L-1989.4,868z"/>
								<ellipse id="Ellipse_95" fill="#B5B5EA" cx="-2179.5" cy="946" rx="42.3" ry="43"/>
								<ellipse id="Ellipse_96" fill="#4B4EDE" cx="-2071.1" cy="950" rx="42.3" ry="43"/>
								<ellipse id="Ellipse_97" fill="#8A87F9" cx="-2124.3" cy="966" rx="42.3" ry="43"/>
								<ellipse id="Ellipse_98" fill="#8A87F9" cx="-2234.6" cy="966" rx="42.3" ry="43"/>
								<ellipse id="Ellipse_99" fill="#4B4EDE" cx="-2239.6" cy="1001" rx="42.3" ry="43"/>
								<ellipse id="Ellipse_100" fill="#4B4EDE" cx="-2015" cy="1001" rx="42.3" ry="43"/>
								<ellipse id="Ellipse_101" fill="#8A87F9" cx="-2068.2" cy="1017" rx="42.3" ry="43"/>
								<ellipse id="Ellipse_102" fill="#8A87F9" cx="-2178.5" cy="1017" rx="42.3" ry="43"/>
								<ellipse id="Ellipse_103" fill="#4B4EDE" cx="-2307.5" cy="1038" rx="42.3" ry="43"/>
								<ellipse id="Ellipse_104" fill="#4B4EDE" cx="-2191.3" cy="1034" rx="42.3" ry="43"/>
								<ellipse id="Ellipse_105" fill="#8A87F9" cx="-2136.1" cy="1054" rx="42.3" ry="43"/>
								<ellipse id="Ellipse_106" fill="#8A87F9" cx="-2246.5" cy="1054" rx="42.3" ry="43"/>
								<ellipse id="Ellipse_107" fill="#4B4EDE" cx="-2003.2" cy="1089" rx="42.3" ry="43"/>
								<ellipse id="Ellipse_108" fill="#8A87F9" cx="-2056.4" cy="1105" rx="42.3" ry="43"/>
								<ellipse id="Ellipse_109" fill="#8A87F9" cx="-2166.7" cy="1105" rx="42.3" ry="43"/>
								<ellipse id="Ellipse_110" fill="#4B4EDE" cx="-2316.4" cy="1122" rx="42.3" ry="43"/>
								<ellipse id="Ellipse_111" fill="#8A87F9" cx="-2145" cy="1138" rx="42.3" ry="43"/>
								<ellipse id="Ellipse_112" fill="#8A87F9" cx="-2255.3" cy="1138" rx="42.3" ry="43"/>
								<path id="Path_2687" fill="#4B4EDE" d="M-2233.2,1196.1c3.6-6.5,5.5-13.7,5.5-21.1c0-23.7-19-43-42.4-43s-42.4,19.3-42.4,43
									c0,7.4,1.9,14.7,5.5,21.1H-2233.2z"/>
								<path id="Path_2688" fill="#8A87F9" d="M-2056.7,1196.1c0.2-1.7,0.3-3.4,0.3-5.1c0-23.7-19-43-42.4-43s-42.3,19.3-42.3,43
									c0,1.7,0.1,3.4,0.3,5.1H-2056.7z"/>
								<path id="Path_2689" fill="#8A87F9" d="M-2167,1196.1c0.2-1.7,0.3-3.4,0.3-5.1c0-23.7-19-43-42.4-43s-42.4,19.3-42.4,43
									c0,1.7,0.1,3.4,0.3,5.1H-2167z"/>
								<path id="Path_2690" fill="#8A87F9" d="M-2299.7,1196.1c1.3-4.2,2-8.7,2-13.1c0-23.7-19-43-42.4-43s-42.4,19.3-42.4,43
									c0,4.4,0.7,8.9,2,13.1H-2299.7z"/>
								<path id="Path_2691" fill="#8A87F9" d="M-2450,1140v56.1h40c1.3-4.2,2-8.7,2-13.1C-2408,1159.4-2426.8,1140.2-2450,1140z"/>
								<ellipse id="Ellipse_113" fill="#8A87F9" cx="-2335.1" cy="1091" rx="42.3" ry="43"/>
								<path id="Path_2692" fill="#8A87F9" d="M-2445.4,1048c-1.5,0-3.1,0.1-4.6,0.3v85.5c1.5,0.2,3.1,0.3,4.6,0.3
									c23.4,0,42.4-19.3,42.4-43S-2422,1048-2445.4,1048z"/>
								<ellipse id="Ellipse_114" fill="#8A87F9" cx="-2259.3" cy="930" rx="42.3" ry="43"/>
								<path id="Path_2693" fill="#8A87F9" d="M-1658.9,891.8c-3.6,6.5-5.5,13.8-5.5,21.2c0,7.4,1.9,14.7,5.5,21.2V891.8z"/>
								<path id="Path_2694" fill="#8A87F9" d="M-1658.9,890.9c-7.7-7-17.8-10.9-28.2-10.9c-23.4,0-42.3,19.3-42.3,43s19,43,42.3,43
									c10.4,0,20.5-3.9,28.2-10.9V890.9z"/>
								<ellipse id="Ellipse_115" fill="#8A87F9" cx="-2367.6" cy="1038" rx="42.3" ry="43"/>
								<path id="Path_2695" fill="#4B4EDE" d="M-2450,932.8v54.3c6.2-7.7,9.5-17.3,9.5-27.2C-2440.5,950.1-2443.8,940.5-2450,932.8
									z"/>
								<ellipse id="Ellipse_116" fill="#B5B5EA" cx="-2366.6" cy="956" rx="42.3" ry="43"/>
								<ellipse id="Ellipse_117" fill="#8A87F9" cx="-2311.5" cy="976" rx="42.3" ry="43"/>
								<ellipse id="Ellipse_118" fill="#8A87F9" cx="-2312.4" cy="979" rx="42.3" ry="43"/>
								<path id="Path_2696" fill="#8A87F9" d="M-2420.8,913c-10.9,0-21.4,4.3-29.2,11.9v62.2c7.8,7.6,18.3,11.9,29.2,11.9
									c23.4,0,42.4-19.3,42.4-43S-2397.4,913-2420.8,913z"/>
								<ellipse id="Ellipse_119" fill="#B5B5EA" cx="-2220.8" cy="917" rx="42.3" ry="43"/>
								<ellipse id="Ellipse_120" fill="#8A87F9" cx="-2098.7" cy="907" rx="42.3" ry="43"/>
								<ellipse id="Ellipse_121" fill="#8A87F9" cx="-2165.7" cy="903" rx="42.3" ry="43"/>
								<ellipse id="Ellipse_122" fill="#8A87F9" cx="-1884" cy="930" rx="42.3" ry="43"/>
								<ellipse id="Ellipse_123" fill="#8A87F9" cx="-1998.3" cy="913" rx="42.3" ry="43"/>
								<ellipse id="Ellipse_124" fill="#B5B5EA" cx="-1956" cy="923" rx="42.3" ry="43"/>
								<ellipse id="Ellipse_125" fill="#B5B5EA" cx="-1832.8" cy="931" rx="42.3" ry="43"/>
								<ellipse id="Ellipse_126" fill="#4B4EDE" cx="-1729.4" cy="950" rx="42.3" ry="43"/>
								<ellipse id="Ellipse_127" fill="#8A87F9" cx="-1743.2" cy="914" rx="42.3" ry="43"/>
								<ellipse id="Ellipse_128" fill="#8A87F9" cx="-1884" cy="930" rx="42.3" ry="43"/>
								<ellipse id="Ellipse_129" fill="#8A87F9" cx="-1716.6" cy="956" rx="42.3" ry="43"/>
								<ellipse id="Ellipse_130" fill="#8A87F9" cx="-1804.2" cy="938" rx="42.3" ry="43"/>
								<path id="Path_2697" fill="#8A87F9" d="M-1658.9,959c-19.5,4.6-33.2,22-33.1,42c-0.1,20,13.6,37.4,33.1,42V959z"/>
								<ellipse id="Ellipse_131" fill="#8A87F9" cx="-1759.9" cy="1001" rx="42.3" ry="43"/>
								<ellipse id="Ellipse_132" fill="#4B4EDE" cx="-1804.2" cy="1054" rx="42.3" ry="43"/>
								<path id="Path_2698" fill="#8A87F9" d="M-1658.9,1036.1c-10.4,8.2-16.4,20.7-16.4,33.9c0,13.2,6,25.7,16.4,33.9V1036.1z"/>
								<ellipse id="Ellipse_133" fill="#8A87F9" cx="-1743.2" cy="1070" rx="42.3" ry="43"/>
								<ellipse id="Ellipse_134" fill="#8A87F9" cx="-1905.7" cy="991" rx="42.3" ry="43"/>
								<ellipse id="Ellipse_135" fill="#8A87F9" cx="-2016" cy="991" rx="42.3" ry="43"/>
								<ellipse id="Ellipse_136" fill="#8A87F9" cx="-1867.3" cy="1039" rx="42.3" ry="43"/>
								<ellipse id="Ellipse_137" fill="#8A87F9" cx="-1977.6" cy="1039" rx="42.3" ry="43"/>
								<ellipse id="Ellipse_138" fill="#8A87F9" cx="-1823" cy="1103" rx="42.3" ry="43"/>
								<ellipse id="Ellipse_139" fill="#8A87F9" cx="-1933.3" cy="1103" rx="42.3" ry="43"/>
								<path id="Path_2699" fill="#8A87F9" d="M-1803.7,1196.1c2.9-6,4.4-12.5,4.4-19.1c0-23.7-19-43-42.3-43s-42.3,19.3-42.3,43
									c0,6.6,1.5,13.2,4.4,19.1H-1803.7z"/>
								<path id="Path_2700" fill="#8A87F9" d="M-1914,1196.1c2.9-6,4.4-12.5,4.4-19.1c0-23.7-19-43-42.3-43s-42.3,19.3-42.3,43
									c0,6.6,1.5,13.2,4.4,19.1H-1914z"/>
								<path id="Path_2701" fill="#8A87F9" d="M-1658.9,1100.7c-15.4,7-25.3,22.4-25.2,39.3c-0.1,16.9,9.8,32.3,25.2,39.3V1100.7z"
									/>
								<ellipse id="Ellipse_140" fill="#8A87F9" cx="-1752" cy="1140" rx="42.3" ry="43"/>
								<g id="Group_2176">
									<ellipse id="Ellipse_141" fill="#A9A7FC" cx="-2307.5" cy="943" rx="42.3" ry="43"/>
									<ellipse id="Ellipse_142" fill="#A9A7FC" cx="-2114.5" cy="1012" rx="42.3" ry="43"/>
									<ellipse id="Ellipse_143" fill="#A9A7FC" cx="-2074.1" cy="1053" rx="42.3" ry="43"/>
									<ellipse id="Ellipse_144" fill="#A9A7FC" cx="-2218.9" cy="1104" rx="42.3" ry="43"/>
									<ellipse id="Ellipse_145" fill="#A9A7FC" cx="-2102.7" cy="1100" rx="42.3" ry="43"/>
									<ellipse id="Ellipse_146" fill="#A9A7FC" cx="-2191.3" cy="1133" rx="42.3" ry="43"/>
									<ellipse id="Ellipse_147" fill="#A9A7FC" cx="-2083" cy="1137" rx="42.3" ry="43"/>
									<path id="Path_2702" fill="#A9A7FC" d="M-2110.6,1211.1c5.2-7.3,8-16.1,8-25.1c0-23.7-19-43-42.4-43s-42.4,19.3-42.4,43
										c0,9,2.8,17.8,8,25.1H-2110.6z"/>
									<path id="Path_2703" fill="#A9A7FC" d="M-1999.8,1211.1c3.6-6.5,5.5-13.7,5.5-21.1c0-23.7-19-43-42.3-43
										c-23.4,0-42.3,19.3-42.3,43c0,7.4,1.9,14.7,5.5,21.1H-1999.8z"/>
									<path id="Path_2704" fill="#A9A7FC" d="M-2413.3,1211.1h54c9.8-8.2,15.4-20.4,15.3-33.1c0-23.7-19-43-42.4-43
										s-42.4,19.3-42.4,43C-2428.7,1190.8-2423.1,1202.9-2413.3,1211.1z"/>
									<path id="Path_2705" fill="#A9A7FC" d="M-2246.8,1211.1c7.2-8,11.2-18.4,11.2-29.1c0-23.7-19-43-42.4-43
										s-42.4,19.3-42.4,43c0,10.8,4,21.1,11.2,29.1H-2246.8z"/>
									<ellipse id="Ellipse_148" fill="#A9A7FC" cx="-2381.4" cy="1086" rx="42.3" ry="43"/>
									<ellipse id="Ellipse_149" fill="#A9A7FC" cx="-2273" cy="1090" rx="42.3" ry="43"/>
									<path id="Path_2706" fill="#A9A7FC" d="M-2411.9,986c-10.9,0-21.4,4.3-29.2,11.9v62.2c7.8,7.6,18.3,11.9,29.2,11.9
										c23.4,0,42.4-19.3,42.4-43S-2388.5,986-2411.9,986z"/>
									<ellipse id="Ellipse_150" fill="#A9A7FC" cx="-2303.6" cy="1033" rx="42.3" ry="43"/>
									<ellipse id="Ellipse_151" fill="#A9A7FC" cx="-2195.2" cy="1037" rx="42.3" ry="43"/>
									<ellipse id="Ellipse_152" fill="#A9A7FC" cx="-2249.4" cy="975" rx="42.3" ry="43"/>
									<ellipse id="Ellipse_153" fill="#A9A7FC" cx="-2145" cy="902" rx="42.3" ry="43"/>
									<ellipse id="Ellipse_154" fill="#A9A7FC" cx="-2047.5" cy="925" rx="42.3" ry="43"/>
									<ellipse id="Ellipse_155" fill="#A9A7FC" cx="-2047.5" cy="896" rx="42.3" ry="43"/>
									<ellipse id="Ellipse_156" fill="#A9A7FC" cx="-1879.1" cy="922" rx="42.3" ry="43"/>
									<ellipse id="Ellipse_157" fill="#A9A7FC" cx="-1909.6" cy="1100" rx="42.3" ry="43"/>
									<ellipse id="Ellipse_158" fill="#A9A7FC" cx="-1740.2" cy="958" rx="42.3" ry="43"/>
									<path id="Path_2707" fill="#A9A7FC" d="M-1650,912.2c-1.5-0.2-3-0.2-4.5-0.2c-23.4,0-42.3,19.3-42.3,43s19,43,42.3,43
										c1.5,0,3-0.1,4.5-0.2V912.2z"/>
									<ellipse id="Ellipse_159" fill="#A9A7FC" cx="-1812.1" cy="1000" rx="42.3" ry="43"/>
									<ellipse id="Ellipse_160" fill="#A9A7FC" cx="-1695.9" cy="996" rx="42.3" ry="43"/>
									<path id="Path_2708" fill="#A9A7FC" d="M-1650,1033.8c-7.8-7.6-18.3-11.8-29.2-11.8c-23.4,0-42.3,19.3-42.3,43
										s19,43,42.3,43c10.9,0,21.3-4.2,29.2-11.8V1033.8z"/>
									<ellipse id="Ellipse_161" fill="#A9A7FC" cx="-2068.2" cy="990" rx="42.3" ry="43"/>
									<ellipse id="Ellipse_162" fill="#A9A7FC" cx="-1952" cy="986" rx="42.3" ry="43"/>
									<ellipse id="Ellipse_163" fill="#A9A7FC" cx="-1843.6" cy="990" rx="42.3" ry="43"/>
									<ellipse id="Ellipse_164" fill="#A9A7FC" cx="-2029.8" cy="1038" rx="42.3" ry="43"/>
									<ellipse id="Ellipse_165" fill="#A9A7FC" cx="-1913.6" cy="1034" rx="42.3" ry="43"/>
									<ellipse id="Ellipse_166" fill="#A9A7FC" cx="-1805.2" cy="1038" rx="42.3" ry="43"/>
									<ellipse id="Ellipse_167" fill="#A9A7FC" cx="-1985.5" cy="1102" rx="42.3" ry="43"/>
									<ellipse id="Ellipse_168" fill="#A9A7FC" cx="-1869.2" cy="1098" rx="42.3" ry="43"/>
									<ellipse id="Ellipse_169" fill="#A9A7FC" cx="-1760.9" cy="1102" rx="42.3" ry="43"/>
									<path id="Path_2709" fill="#A9A7FC" d="M-2028.6,1211.1h48.9c11.3-8.1,18-21.2,17.9-35.1c0-23.7-19-43-42.3-43
										s-42.3,19.3-42.3,43C-2046.6,1189.9-2039.9,1203-2028.6,1211.1z"/>
									<path id="Path_2710" fill="#A9A7FC" d="M-1905.5,1211.1h35.2c15.2-7.1,24.8-22.4,24.8-39.1c0-23.7-19-43-42.3-43
										s-42.3,19.3-42.3,43C-1930.4,1188.7-1920.7,1204-1905.5,1211.1z"/>
									<path id="Path_2711" fill="#A9A7FC" d="M-1804,1211.1h48.9c11.3-8.1,18-21.2,17.9-35.1c0-23.7-19-43-42.3-43
										s-42.3,19.3-42.3,43C-1822,1189.9-1815.3,1203-1804,1211.1z"/>
									<ellipse id="Ellipse_170" fill="#A9A7FC" cx="-1804.2" cy="1139" rx="42.3" ry="43"/>
									<path id="Path_2712" fill="#A9A7FC" d="M-1650,1116.1c-7-14.7-21.8-24-38-24.1c-23.4,0-42.3,19.3-42.3,43s19,43,42.3,43
										c16.2-0.1,31-9.4,38-24.1V1116.1z"/>
									<path id="Path_2713" fill="#A9A7FC" d="M-1695.5,1211.1c2.3-5.4,3.5-11.2,3.5-17.1c0-23.7-19-43-42.3-43
										s-42.3,19.3-42.3,43c0,5.9,1.2,11.7,3.5,17.1H-1695.5z"/>
								</g>
								<path id="Path_2714" fill="#4B4EDE" d="M-1663.8,1196.1v0.1c0.2,0.3,0.3,0.6,0.5,0.9h4.4v-50.4
									c-6.8,7.9-10.5,17.9-10.4,28.3C-1669.3,1182.4-1667.4,1189.7-1663.8,1196.1L-1663.8,1196.1z"/>
								<path id="Path_2715" fill="#8A87F9" d="M-1663.8,1197.1h4.9v-38c-6.9-4.6-15-7.1-23.2-7.1c-23.4,0-42.3,19.3-42.3,43
									c0,0.4,0,0.7,0,1.1h60.7L-1663.8,1197.1z"/>
							</g>
							<g id="Group_2178">
								<path id="Path_2716" fill="#8380F9" d="M-2452.7,832c0.1,1.2,0.1,2.4,0,3.6v46.7h344.4c-0.4-0.9-0.9-1.9-1.3-2.8
									c-8.6-17.1-24.7-29.3-43.6-33c-9.6-1.8-19.4-1.7-29,0.4c-4.4,0.9-8.7,3.7-12.7,1c-4.8-3.3-8.7-7.9-13.5-11.2
									c-2.1-1.5-4.4-2.8-6.6-4.2c-11-6.8-22.8-12.2-33.7-19.1c-4.9-3.1-9.8-6.5-15.5-8.3c-13.1-4.3-28,0.3-41.4-3
									c-9.1-2.2-16.9-7.9-26.2-9.4c-11.1-1.7-22.2,2.9-33.4,2.8c-12.7-0.2-24.2-6.4-35.8-11s-25.6-7.7-36.7-1.9
									c-7.3,3.8-11.9,11-13.9,18.4c-0.5,1.8-0.9,3.6-1.1,5.4L-2452.7,832z"/>
								<path id="Path_2717" fill="#6253FF" d="M-2146.6,881.8c-1.5-3-9.1-8.8-18.7-7.2c-10.5,1.7-12.8-2-17.1-3.6
									c-7.9-2.9-14,6.6-16.8,0.6c-3.5-7.6-9.2-11.4-26.5-3.9c-4.1,1.8-3.8-2.2-5.7-4.5c-3.6-4.5-8,3.8-10,3.3
									c-2.3-0.5-1.6-4-2.9-7.1c-2.8-6.3-7.6-0.4-10.9-0.9s-5.1-7.4-8.8-6c-8,3-5.5,20.6-5,24.5c-2.3-3.3-6.3-5.8-6.3,4.8
									L-2146.6,881.8z"/>
								<path id="Path_2718" fill="#433DD9" d="M-2239.8,876.8c0,0-3-12.7,0.1-11.4c3,1.3,4.3,11.1,4.3,11.1s1.6-16.1,5.1-17.2
									c2.3-0.7,0.5,15.3,0.5,15.3c0.8-1,2-1.6,3.3-1.8c1.6,0,1.2,3.1,1.2,3.1s3.4-10.4,5.2-10.3c2.2,0.2-0.2,11.1-0.2,11.1
									s4.4-7.1,6.1-6.9c2.4,0.3-1.8,10.4-1.8,10.4s3.2-2.8,7-2.4c2.5,0.3,3.6,1.8,2.7,4.2c1,0.6-0.1,1-2.7,1.1
									c-2.2,0.1-4.4-0.1-6.5-0.5h-0.3c0.7,0.5,3.8,2.5,1.6,2.5c-1.7,0-6.1-1.7-6.1-1.7s2.4,2.7,0.2,2.8c-1.8,0-5.2-2.6-5.2-2.6
									s0.4,0.8-1.2,0.8c-1.1,0-2.2-0.1-3.3-0.4c0,0,1.8,4-0.5,3.9c-3.5-0.3-5.1-4.3-5.1-4.3c-0.9,1.6-2.5,2.6-4.3,2.8
									c-3.1,0.3-0.1-2.9-0.1-2.9s-7.7,1.5-6.1-1.4C-2247.6,871-2239.8,876.8-2239.8,876.8z"/>
								<path id="Path_2719" fill="#6253FF" d="M-2422.6,880.8c1.2-5.7,7-16.8,14.4-13.8c8.1,3.3,9.9-3.9,13.2-6.9
									c6.1-5.5,9.1,8.1,12.9,1.1c5.3-9.7,9.7-10.7,13.1-1.8c5,12.9,13.1-1.4,14.9,21.3L-2422.6,880.8z"/>
								<path id="Path_2720" fill="#433DD9" d="M-2409.4,883.8c-2.3-1.8-2.8-3.7,0.7-3.2c2.1,0.3,4.1,0.8,6.1,1.6
									c0,0-3.3-4.2-0.2-3.8c1.2,0.3,2.3,0.9,3.1,1.7c0,0-1.4-4.6,0.6-4.7c1.7-0.1,4.2,4.5,4.2,4.5s-0.8-2.1,1.2-2
									c1.1,0.1,2.2,0.4,3.1,1.1c0,0-1.7-10.1,0.5-9.8c2.5,0.4,4.3,10.9,4.3,10.9s0.8-7.4,2.5-7.1c1.8,0.3,2.6,7.5,2.6,7.5
									s2.4-6.1,2.6,3h0c0,0,0,0.1,0,0.1c0,0.1,0,0.3,0,0.4h-0.1c-0.4,2-2.6,0.5-2.6,0.5s-0.8,2-2.6,2.1c-1.7,0.1-2.5-2-2.5-2
									s-1.9,2.9-4.3,3c-2.2,0.1-0.5-2.7-0.5-2.7c-1,0.2-2,0.3-3.1,0.3c-2,0-1.2-0.5-1.2-0.5c-1.3,0.7-2.7,1.1-4.2,1.2
									c-2.1,0-0.6-1.3-0.6-1.3c-1,0.3-2.1,0.4-3.1,0.5c-3.1,0.1,0.2-1,0.2-1s-2.2,0.3-6.1,0.4
									C-2412.1,884.8-2411.7,884.3-2409.4,883.8z"/>
								<path id="Path_2721" fill="#433DD9" d="M-2426.4,889.6c0.6-2-0.5-3.2-2.9-3.5c-3.8-0.4-7,2.3-7,2.3s4.2-9.7,1.8-9.9
									c-1.7-0.2-6.1,6.6-6.1,6.6s2.4-10.4,0.2-10.6c-1.8-0.1-5.2,9.8-5.2,9.8s0.4-3-1.2-2.9c-1.3,0.1-2.5,0.7-3.3,1.7
									c0,0,1.8-15.3-0.5-14.6c-0.8,0.2-1.5,1.2-2.1,2.5v23.5c0.6,0.4,1.3,0.6,2.1,0.6c2.3,0.2,0.5-3.7,0.5-3.7
									c1.1,0.3,2.2,0.4,3.3,0.4c1.6,0,1.2-0.7,1.2-0.7s3.4,2.5,5.2,2.5c2.2,0-0.2-2.7-0.2-2.7s4.4,1.7,6.1,1.7
									c1.5,0,0.4-1-0.6-1.7h8.2c0.1-0.2,0.2-0.4,0.2-0.5C-2426.2,890-2426.2,889.8-2426.4,889.6z"/>
								<path id="Path_2722" fill="#8380F9" d="M-1650,828.4c-22.7,6.6-45.7,12.5-67.4,21.7c-7.9,3.4-15.8,7.2-24.4,8.1
									c-7,0.7-14-0.6-20.9-1.9l-0.4-0.1c-13.5-2.6-26.9-5.4-40.4-8.2c-6.2-1.3-12.5-2.3-18.4-4.3c-6-1.9-12.2-3-18.5-3.5
									c-10.3-1-20.4,0-30.7-0.6c-10.3-0.6-20.5-1.8-30.6-3.7c-8.4-1.6-16.7-3.7-24.2-7.7c-3.3-1.8-6.4-3.9-10-5.2
									c-4.2-1.5-8.6-2.2-13.1-2.1c-16.5-0.2-33.3,5-45.1,16.2c-3.7,3.5-6.8,7.6-9.2,12.1c-3.4,6.2-9.8,23.6-4.3,30.2
									c2.2,2.7,3.6,1.8,7,2c6.6,0.5,13.4,0,20,0h306.1c8.1,0,16.3-0.2,24.5,0.1L-1650,828.4z"/>
								<path id="Path_2723" fill="#6253FF" d="M-1696,881.8c-1.5-3-9.1-8.8-18.7-7.2c-10.5,1.7-12.8-2-17.1-3.6
									c-7.9-2.9-14,6.6-16.8,0.6c-3.5-7.6-9.2-11.4-26.5-3.9c-4.1,1.8-3.8-2.2-5.7-4.5c-3.6-4.5-8,3.8-10,3.3
									c-2.3-0.5-1.6-4-2.9-7.1c-2.8-6.3-7.6-0.4-10.9-0.9c-3.3-0.5-5.1-7.4-8.8-6c-8,3-5.5,20.6-5,24.5c-2.3-3.3-6.3-5.8-6.3,4.8
									L-1696,881.8z"/>
								<path id="Path_2724" fill="#433DD9" d="M-1789.2,874.8c0,0-3-12.7,0.1-11.4c3,1.3,4.3,11.1,4.3,11.1s1.6-16.1,5.1-17.2
									c2.3-0.7,0.5,15.3,0.5,15.3c0.8-1,2-1.6,3.3-1.8c1.6,0,1.2,3.1,1.2,3.1s3.4-10.4,5.2-10.3c2.2,0.2-0.2,11.1-0.2,11.1
									s4.4-7.1,6.1-6.9c2.4,0.3-1.8,10.4-1.8,10.4s3.2-2.8,7-2.4c2.5,0.3,3.6,1.8,2.7,4.2c1,0.6-0.1,1-2.7,1.1
									c-2.2,0.1-4.4-0.1-6.5-0.5h-0.3c0.7,0.5,3.8,2.5,1.6,2.5c-1.7,0-6.1-1.7-6.1-1.7s2.4,2.7,0.2,2.8c-1.8,0-5.2-2.6-5.2-2.6
									s0.4,0.8-1.2,0.8c-1.1,0-2.2-0.1-3.3-0.4c0,0,1.8,4-0.5,3.9c-3.5-0.3-5.1-4.3-5.1-4.3c-0.9,1.6-2.5,2.6-4.3,2.8
									c-3.1,0.3-0.1-2.9-0.1-2.9s-7.7,1.5-6.1-1.4C-1796.9,869-1789.2,874.8-1789.2,874.8z"/>
								<path id="Path_2725" fill="#6253FF" d="M-1972,881.8c1.2-5.7,7-16.8,14.4-13.8c8.1,3.3,9.9-3.9,13.2-6.9
									c6.1-5.5,9.1,8.1,12.9,1.1c5.3-9.7,9.7-10.7,13.1-1.8c5,12.9,13.1-1.4,14.9,21.3L-1972,881.8z"/>
								<path id="Path_2726" fill="#433DD9" d="M-1958.7,881.8c-2.3-1.8-2.8-3.7,0.7-3.2c2.1,0.3,4.1,0.8,6.1,1.6
									c0,0-3.3-4.2-0.2-3.8c1.2,0.3,2.3,0.9,3.1,1.7c0,0-1.4-4.6,0.6-4.7c1.7-0.1,4.2,4.5,4.2,4.5s-0.8-2.1,1.2-2
									c1.1,0.1,2.2,0.4,3.1,1.1c0,0-1.7-10.1,0.5-9.8c2.5,0.4,4.3,10.9,4.3,10.9s0.8-7.4,2.5-7.1c1.8,0.3,2.6,7.5,2.6,7.5
									s2.4-6.1,2.7,3h0c0,0,0,0.1,0,0.1c0,0.1,0,0.3,0,0.4h-0.1c-0.4,2-2.6,0.5-2.6,0.5s-0.8,2-2.6,2.1c-1.7,0.1-2.5-2-2.5-2
									s-1.9,2.9-4.3,3c-2.2,0.1-0.5-2.7-0.5-2.7c-1,0.2-2,0.3-3.1,0.3c-2,0-1.2-0.5-1.2-0.5c-1.3,0.7-2.7,1.1-4.2,1.2
									c-2.1,0-0.6-1.3-0.6-1.3c-1,0.3-2.1,0.4-3.1,0.5c-3.1,0.1,0.2-1,0.2-1s-2.2,0.3-6.1,0.4
									C-1961.5,882.8-1961,882.3-1958.7,881.8z"/>
								<path id="Path_2727" fill="#433DD9" d="M-1860.6,875.3c0,0-3-12.1,0.1-10.8c3,1.2,4.3,10.6,4.3,10.6s1.6-15.4,5.1-16.4
									c2.3-0.7,0.5,14.6,0.5,14.6c0.8-1,2-1.6,3.3-1.7c1.6,0,1.2,2.9,1.2,2.9s3.4-9.9,5.2-9.8c2.2,0.2-0.2,10.6-0.2,10.6
									s4.4-6.8,6.1-6.6c2.4,0.2-1.8,9.9-1.8,9.9s3.2-2.7,7-2.3c2.3,0.3,3.4,1.5,2.8,3.5c0.3,0.2,0.2,0.4-0.2,0.6
									c-0.1,0.2-0.2,0.4-0.2,0.5h-8.2c1,0.7,2.1,1.7,0.6,1.7c-1.7,0-6.1-1.7-6.1-1.7s2.4,2.6,0.2,2.7c-1.8,0-5.2-2.5-5.2-2.5
									s0.4,0.8-1.2,0.7c-1.1,0-2.2-0.1-3.3-0.4c0,0,1.8,3.8-0.5,3.7c-3.5-0.3-5.1-4.1-5.1-4.1c-0.9,1.5-2.5,2.5-4.3,2.7
									c-3.1,0.3-0.1-2.7-0.1-2.7s-7.5,1.3-6.1-1.2C-1868,869.9-1860.6,875.3-1860.6,875.3z"/>
							</g>
							<path id="Path_2728" fill="#EEEEFF" d="M-2058.9,894h-58.8l-332.3,175.9V1221h800V985.1L-2058.9,894z"/>
							<g id="Group_2179">
								<path id="Rectangle_217" fill="#363A49" d="M-2076.2,878.3h11.9c0.8,0,1.5,0.7,1.5,1.5v19.7c0,0.8-0.7,1.5-1.5,1.5h-11.9
									c-0.8,0-1.5-0.7-1.5-1.5v-19.7C-2077.7,879-2077.1,878.3-2076.2,878.3z"/>
								<rect id="Rectangle_218" x="-2127.9" y="884.2" fill="#363A49" width="14.9" height="7.1"/>
								<rect id="Rectangle_219" x="-2085.6" y="884.2" fill="#363A49" width="14.9" height="7.1"/>
								<path id="Rectangle_220" fill="#363A49" d="M-2133.5,878.3h12.1c0.8,0,1.4,0.6,1.4,1.4v19.9c0,0.8-0.6,1.4-1.4,1.4h-12.1
									c-0.8,0-1.4-0.6-1.4-1.4v-19.9C-2134.9,878.9-2134.3,878.3-2133.5,878.3z"/>
								<path id="Rectangle_221" fill="#DD6D57" d="M-2127.7,846.9h65.6l0,0v21.6c0,3.2-2.6,5.9-5.9,5.9h-66.7l0,0v-20.5
									C-2134.6,850.1-2131.5,846.9-2127.7,846.9C-2127.7,846.9-2127.7,846.9-2127.7,846.9z"/>
								<rect id="Rectangle_222" x="-2113.8" y="870.4" fill="#FF8364" width="29" height="13.3"/>
								<rect id="Rectangle_223" x="-2113.8" y="892.4" fill="#FF8364" width="29" height="8.6"/>
								<rect id="Rectangle_224" x="-2113.8" y="883.8" fill="#FFCBC2" width="29" height="8.6"/>
								<rect id="Rectangle_225" x="-2087.9" y="828.9" fill="#FFCBC2" width="25.9" height="36.8"/>
								<rect id="Rectangle_226" x="-2134.6" y="859.5" fill="#363A49" width="29.5" height="3.9"/>
								<rect id="Rectangle_227" x="-2134.6" y="854" fill="#363A49" width="29.5" height="3.9"/>
								<rect id="Rectangle_228" x="-2086.4" y="832.1" fill="#FC9A86" width="21.9" height="32.1"/>
								<rect id="Rectangle_229" x="-2105.2" y="812.5" fill="#DD6D57" width="13.3" height="3.9"/>
								<rect id="Rectangle_230" x="-2086.4" y="851.6" fill="#FFCBC2" width="21.9" height="3.1"/>
								<rect id="Rectangle_231" x="-2108.3" y="831.3" fill="#363A49" width="3.1" height="39.2"/>
								<rect id="Rectangle_232" x="-2107.5" y="812.5" fill="#CCCCCC" width="1.6" height="58"/>
								<rect id="Rectangle_233" x="-2092.6" y="831.3" fill="#363A49" width="3.1" height="39.2"/>
								<rect id="Rectangle_234" x="-2091.8" y="812.5" fill="#CCCCCC" width="1.6" height="58"/>
								<path id="Path_2729" fill="#FC9A86" d="M-2094.2,796.8h-0.8v-14.1h-1.6V778h-1.6v4.7h-2.4V778h-1.6v4.7h-0.8v14.1h-0.8V865
									h0.8v18.8h7.8V865h0.8L-2094.2,796.8z"/>
								<path id="Path_2730" fill="#FFCBC2" d="M-2091.8,872v-0.8h-0.8v-1.6h-0.8v1.6h-0.8v-7.1h-0.8v0.8h-1.6v-11h-0.8v11h-3.1v-11
									h-0.8v11h-1.6v-0.8h-0.8v7.1h-0.8v-1.6h-0.8v1.6h-0.8v0.8h0.8v3.9h-0.8v0.8h0.8v7.1h0.8v-7.1h11v7.1h0.8v-7.1h0.8v-0.8h-0.8
									V872L-2091.8,872z M-2102.8,865.7h1.6v0.8h0.8v-0.8h3.1v0.8h0.8v-0.8h1.6v2.4h-7.8L-2102.8,865.7z M-2102.8,868.9h7.8v2.3
									h-7.8V868.9z M-2095,872v1.6h-7.8V872H-2095z M-2104.4,875.9V872h0.8v3.9H-2104.4z M-2102.8,875.9v-1.6h7.8v1.6H-2102.8z
									 M-2093.4,875.9h-0.8V872h0.8V875.9z"/>
								<rect id="Rectangle_235" x="-2100.5" y="854" fill="#363A49" width="3.1" height="3.9"/>
								<rect id="Rectangle_236" x="-2108.3" y="812.5" fill="#363A49" width="3.1" height="3.9"/>
								<rect id="Rectangle_237" x="-2091.8" y="812.5" fill="#363A49" width="3.1" height="3.9"/>
								<rect id="Rectangle_238" x="-2100.5" y="796" fill="#363A49" width="3.1" height="39.2"/>
								<rect id="Rectangle_239" x="-2099.7" y="796" fill="#CCCCCC" width="1.6" height="58"/>
							</g>
							<g id="Group_2183">
								<g id="Group_2180">
									<path id="Path_2731" fill="#51586D" d="M-1937.7,1029.5h-80.8c-7.7,0-13.9-6.3-14-14v-85.1c0-7.7,6.3-13.9,14-14h80.8
										c7.7,0,13.9,6.3,14,14v85.1C-1923.7,1023.3-1930,1029.5-1937.7,1029.5z M-2018.5,919.9c-5.8,0-10.5,4.7-10.5,10.5v85.1
										c0,5.8,4.7,10.5,10.5,10.5h80.8c5.8,0,10.5-4.7,10.5-10.5v-85.1c0-5.8-4.7-10.5-10.5-10.5L-2018.5,919.9z"/>
								</g>
								<path id="Path_2732" fill="#FC9A86" d="M-2038.6,1044.4v-17.5l7-15.8h105.2l7.9,16.7v16.7H-2038.6z"/>
								<rect id="Rectangle_240" x="-2049.1" y="1048" fill="#FF8364" width="141.2" height="69.3"/>
								<rect id="Rectangle_241" x="-2053.5" y="1048" fill="#FF8364" width="2.6" height="25.4"/>
								<rect id="Rectangle_242" x="-1906.2" y="1048" fill="#FF8364" width="2.6" height="25.4"/>
								<rect id="Rectangle_243" x="-2051.7" y="1044.4" fill="#DD6D57" width="147.3" height="3.5"/>
								<path id="Rectangle_244" fill="#CCCCCC" d="M-2022.5,1118.1h94.9c5,0,9.1,4.1,9.1,9.1v10.8c0,5-4.1,9.1-9.1,9.1h-94.9
									c-5,0-9.1-4.1-9.1-9.1v-10.8C-2031.6,1122.2-2027.5,1118.1-2022.5,1118.1z"/>
								<path id="Rectangle_245" fill="#363A49" d="M-2025.9,1103.2h101.7c3.1,0,5.7,2.6,5.7,5.7v0c0,3.1-2.6,5.7-5.7,5.7h-101.7
									c-3.1,0-5.7-2.6-5.7-5.7v0C-2031.6,1105.7-2029,1103.2-2025.9,1103.2z"/>
								<rect id="Rectangle_246" x="-2052.6" y="1101.4" fill="#DD6D57" width="3.5" height="16.7"/>
								<rect id="Rectangle_247" x="-1907.9" y="1101.4" fill="#DD6D57" width="3.5" height="16.7"/>
								<rect id="Rectangle_248" x="-2031.6" y="1032.2" fill="#DD6D57" width="3.5" height="40.3"/>
								<rect id="Rectangle_249" x="-1930.7" y="1032.2" fill="#DD6D57" width="4.4" height="41.2"/>
								<path id="Rectangle_250" fill="#363A49" d="M-2023.4,1004.1h89.8c2.1,0,3.7,1.7,3.7,3.7v24.9c0,2.1-1.7,3.7-3.7,3.7h-89.8
									c-2.1,0-3.7-1.7-3.7-3.7v-24.9C-2027.2,1005.8-2025.5,1004.1-2023.4,1004.1z"/>
								<path id="Path_2733" fill="#FC9A86" d="M-1930.7,1032.2v40.3h-97.3v-40.3h17.4l6.3,3.6h55.2l4.9-3.6H-1930.7z"/>
								<path id="Rectangle_251" fill="#51586D" d="M-2044.4,1072h20.2c2.7,0,4.8,2.2,4.8,4.8v65.6c0,2.7-2.2,4.8-4.8,4.8h-20.2
									c-2.7,0-4.8-2.2-4.8-4.8v-65.6C-2049.3,1074.2-2047.1,1072-2044.4,1072z"/>
								<path id="Rectangle_252" fill="#51586D" d="M-2012.6,1072h20.2c2.7,0,4.8,2.2,4.8,4.8v65.6c0,2.7-2.2,4.8-4.8,4.8h-20.2
									c-2.7,0-4.8-2.2-4.8-4.8v-65.6C-2017.5,1074.2-2015.3,1072-2012.6,1072z"/>
								<path id="Rectangle_253" fill="#51586D" d="M-1964.5,1072h20.2c2.7,0,4.8,2.2,4.8,4.8v65.6c0,2.7-2.2,4.8-4.8,4.8h-20.2
									c-2.7,0-4.8-2.2-4.8-4.8v-65.6C-1969.4,1074.2-1967.2,1072-1964.5,1072z"/>
								<path id="Rectangle_254" fill="#51586D" d="M-1932.7,1072h20.2c2.7,0,4.8,2.2,4.8,4.8v65.6c0,2.7-2.2,4.8-4.8,4.8h-20.2
									c-2.7,0-4.8-2.2-4.8-4.8v-65.6C-1937.5,1074.2-1935.4,1072-1932.7,1072z"/>
								<rect id="Rectangle_255" x="-2047.4" y="1078.6" fill="#DD6D57" width="138.5" height="12.3"/>
								<path id="Rectangle_256" fill="#51586D" d="M-1986.1,977.8h15.9c4.3,0,7.8,3.5,7.8,7.8v4.5c0,4.3-3.5,7.8-7.8,7.8h-15.9
									c-4.3,0-7.8-3.5-7.8-7.8v-4.5C-1993.9,981.3-1990.4,977.8-1986.1,977.8z"/>
								<path id="Path_2734" fill="#FC9A86" d="M-2015,1004.1l6-13c0.2-0.5,0.8-0.9,1.4-0.9l58.4-0.1c0.6,0,1.2,0.3,1.4,0.9
									l6.3,13.1L-2015,1004.1z"/>
								<path id="Path_2735" fill="#DD6D57" d="M-1925.9,915.6h-104.3c-0.7,0-1.3-0.6-1.3-1.3l0,0c0-0.7,0.6-1.3,1.3-1.3h104.3
									c0.7,0,1.3,0.6,1.3,1.3l0,0C-1924.6,915-1925.2,915.5-1925.9,915.6z"/>
								<path id="Path_2736" fill="#FC9A86" d="M-2020.7,906.8h85.1c1.4,0,2.7,0.6,3.6,1.6l3.9,4.5h-100l3.9-4.5
									C-2023.3,907.4-2022,906.8-2020.7,906.8z"/>
								<rect id="Rectangle_257" x="-2015.8" y="915.6" fill="#363A49" width="74.5" height="5.3"/>
								<rect id="Rectangle_258" x="-2035.1" y="985.7" fill="#51586D" width="7.9" height="23.7"/>
								<rect id="Rectangle_259" x="-1929.9" y="985.7" fill="#51586D" width="7.9" height="23.7"/>
								<path id="Rectangle_260" fill="#F15A24" d="M-1944.8,906.9h-12.1l0,0v-10.8c0-2.8,2.3-5.1,5.1-5.1h2c2.8,0,5.1,2.3,5.1,5.1
									V906.9L-1944.8,906.9z"/>
								<rect id="Rectangle_261" x="-1956.9" y="904.5" fill="#1A1A1A" width="12.1" height="2.3"/>
								<g id="Group_2181">
									<path id="Path_2737" fill="#DD6D57" d="M-2050.9,1087.4c-0.7,0-1.3-0.4-1.6-1l-4.4-8.8c-0.1-0.2-0.2-0.5-0.2-0.8l-0.4-40.3
										c0-1,0.8-1.8,1.7-1.8c0,0,0,0,0,0h0c1,0,1.7,0.8,1.8,1.7l0.4,39.9l4.2,8.4c0.4,0.9,0.1,1.9-0.8,2.4c0,0,0,0,0,0
										C-2050.3,1087.3-2050.6,1087.4-2050.9,1087.4z"/>
								</g>
								<g id="Group_2182">
									<path id="Path_2738" fill="#DD6D57" d="M-1906.5,1087.4c0.7,0,1.3-0.4,1.6-1l4.4-8.8c0.1-0.2,0.2-0.5,0.2-0.8l0.4-40.3
										c0-1-0.8-1.8-1.7-1.8c0,0,0,0,0,0h0c-1,0-1.7,0.8-1.8,1.7l-0.4,39.9l-4.2,8.4c-0.4,0.9-0.1,1.9,0.8,2.4
										C-1907.1,1087.3-1906.8,1087.4-1906.5,1087.4z"/>
								</g>
							</g>
						</g>
					</g>
				</g>
			</g>
		</g>
	</g>
</g>
</svg>
