<?xml version="1.0" encoding="utf-8"?>
<!-- Generator: Adobe Illustrator 24.0.2, SVG Export Plug-In . SVG Version: 6.00 Build 0)  -->
<svg version="1.1" id="Layer_1" xmlns="http://www.w3.org/2000/svg" xmlns:xlink="http://www.w3.org/1999/xlink" x="0px" y="0px"
	 viewBox="0 0 800 600" enable-background="new 0 0 800 600" xml:space="preserve">
<g>
	<defs>
		<rect id="SVGID_1_" width="800" height="600"/>
	</defs>
	<clipPath id="SVGID_2_">
		<use xlink:href="#SVGID_1_"  overflow="visible"/>
	</clipPath>
	<g id="custom_8" clip-path="url(#SVGID_2_)">
		<g id="Group_2223" transform="translate(1632.164 -623.687)">
			<path id="Path_2822" opacity="0.77" fill="#EEEEFF" enable-background="new    " d="M-1083,1168.8
				c-137.5,55-414.1,36.3-469.1-101.2s132.6-341.7,270.1-396.7s293.5,11.9,348.4,149.4S-945.5,1113.8-1083,1168.8z"/>
			<g id="Group_2222">
				<g>
					<defs>
						<path id="SVGID_3_" d="M-1201.6,663.1c140.3,47.3,338.8,240.9,291.5,381.2s-322.5,174.2-462.8,126.9s-215.7-199.4-168.4-339.7
							S-1341.9,615.8-1201.6,663.1z"/>
					</defs>
					<clipPath id="SVGID_4_">
						<use xlink:href="#SVGID_3_"  overflow="visible"/>
					</clipPath>
					<g id="Group_2221" clip-path="url(#SVGID_4_)">
						<g id="Group_2220">
							<g id="Group_2210">
								<rect id="Rectangle_286" x="-1597.9" y="1000.9" fill="#BBBBF9" width="736.5" height="185.9"/>
								<rect id="Rectangle_287" x="-1597" y="1000" fill="#A9A7FC" width="736.5" height="38.5"/>
								<rect id="Rectangle_288" x="-1597" y="636" fill="#EEEEFF" width="736.5" height="308.5"/>
								<g id="Group_2209">
									<path id="Path_18755" fill="#A4A4FF" d="M-1545.7,950.2c0,0,124.7-24.5,241.3-5.9s231.6-3.5,245-5.2s96-21.4,163.7-1
										c17.3,5.2,38.7,17.9-20.2,22.9c-173.2,14.7-622.5,18-628.5,4.3C-1552.5,947.1-1545.7,950.2-1545.7,950.2z"/>
									<path id="Path_18756" fill="#B4B4FC" d="M-1596.2,999.8v-66.3c0,0,96.6,35,148.2,30.7s164.3-45.5,275.5-20.9
										s312-6.7,312-6.7v63.2"/>
								</g>
							</g>
							<g id="Group_2219">
								<g id="Group_2212">
									<path id="Path_2823" fill="#C4BEFF" d="M-1333.6,914.1c-26.9,13.9-25.5,36.3-25.1,40.6h162.4c2.1-6.7,3.4-17.3-5.7-27.3
										C-1223.8,903.6-1295.6,894.5-1333.6,914.1z"/>
									<g id="Group_2211">
										
											<ellipse id="Ellipse_180" transform="matrix(1 -5.999892e-03 5.999892e-03 1 -5.5709 -7.8356)" fill="#8380F9" cx="-1308.7" cy="924.6" rx="2.8" ry="2.1"/>
										
											<ellipse id="Ellipse_181" transform="matrix(1 -5.999892e-03 5.999892e-03 1 -5.6347 -7.2334)" fill="#8380F9" cx="-1208.4" cy="935.5" rx="2.8" ry="2.1"/>
										
											<ellipse id="Ellipse_182" transform="matrix(1 -5.999892e-03 5.999892e-03 1 -5.5776 -7.4843)" fill="#8380F9" cx="-1250.2" cy="925.9" rx="2.8" ry="2.1"/>
										
											<ellipse id="Ellipse_183" transform="matrix(1 -5.999892e-03 5.999892e-03 1 -5.5174 -7.7561)" fill="#8380F9" cx="-1295.4" cy="915.7" rx="2.8" ry="2.1"/>
										
											<ellipse id="Ellipse_184" transform="matrix(1 -5.999892e-03 5.999892e-03 1 -5.7242 -7.438)" fill="#8380F9" cx="-1242.5" cy="950.3" rx="2.8" ry="2.1"/>
										
											<ellipse id="Ellipse_185" transform="matrix(1 -5.999892e-03 5.999892e-03 1 -5.554 -7.5665)" fill="#8380F9" cx="-1263.9" cy="921.9" rx="2.8" ry="2.1"/>
										
											<ellipse id="Ellipse_186" transform="matrix(1 -5.999892e-03 5.999892e-03 1 -5.7668 -7.9697)" fill="#8380F9" cx="-1331.2" cy="957.2" rx="1.9" ry="1.4"/>
										
											<ellipse id="Ellipse_187" transform="matrix(1 -5.999892e-03 5.999892e-03 1 -5.7556 -7.3676)" fill="#8380F9" cx="-1230.8" cy="955.6" rx="1.9" ry="1.4"/>
										
											<ellipse id="Ellipse_188" transform="matrix(1 -5.999892e-03 5.999892e-03 1 -5.6926 -7.2785)" fill="#8380F9" cx="-1215.9" cy="945.1" rx="1.9" ry="1.4"/>
										
											<ellipse id="Ellipse_189" transform="matrix(1 -5.999892e-03 5.999892e-03 1 -5.7743 -7.8025)" fill="#8380F9" cx="-1303.3" cy="958.5" rx="1.9" ry="1.4"/>
										
											<ellipse id="Ellipse_190" transform="matrix(1 -5.999892e-03 5.999892e-03 1 -5.6074 -7.2911)" fill="#8380F9" cx="-1218" cy="930.9" rx="1.4" ry="1"/>
										
											<ellipse id="Ellipse_191" transform="matrix(1 -5.999892e-03 5.999892e-03 1 -5.5661 -7.3692)" fill="#8380F9" cx="-1231" cy="924" rx="1.4" ry="1"/>
										
											<ellipse id="Ellipse_192" transform="matrix(1 -5.999892e-03 5.999892e-03 1 -5.6771 -7.9155)" fill="#8380F9" cx="-1322.1" cy="942.2" rx="1.4" ry="1"/>
										
											<ellipse id="Ellipse_193" transform="matrix(1 -5.999892e-03 5.999892e-03 1 -5.4965 -7.704)" fill="#8380F9" cx="-1286.8" cy="912.2" rx="1.4" ry="1"/>
										
											<ellipse id="Ellipse_194" transform="matrix(1 -5.999892e-03 5.999892e-03 1 -5.5858 -7.9485)" fill="#8380F9" cx="-1327.6" cy="927" rx="0.9" ry="0.7"/>
										
											<ellipse id="Ellipse_195" transform="matrix(1 -5.999892e-03 5.999892e-03 1 -5.5587 -7.7394)" fill="#8380F9" cx="-1292.7" cy="922.6" rx="0.9" ry="0.7"/>
										
											<ellipse id="Ellipse_196" transform="matrix(1 -5.999892e-03 5.999892e-03 1 -5.6236 -7.3714)" fill="#8380F9" cx="-1231.4" cy="933.6" rx="0.9" ry="0.7"/>
										
											<ellipse id="Ellipse_197" transform="matrix(1 -5.999892e-03 5.999892e-03 1 -5.6342 -7.8397)" fill="#8380F9" cx="-1309.4" cy="935.1" rx="0.9" ry="0.7"/>
										
											<ellipse id="Ellipse_198" transform="matrix(1 -5.999892e-03 5.999892e-03 1 -5.6793 -7.9947)" fill="#8380F9" cx="-1335.3" cy="942.6" rx="0.9" ry="0.7"/>
										
											<ellipse id="Ellipse_199" transform="matrix(1 -5.999892e-03 5.999892e-03 1 -5.7343 -7.2977)" fill="#8380F9" cx="-1219.2" cy="952.1" rx="0.9" ry="0.7"/>
										
											<ellipse id="Ellipse_200" transform="matrix(1 -5.999892e-03 5.999892e-03 1 -5.5146 -7.5377)" fill="#8380F9" cx="-1259.1" cy="915.3" rx="0.9" ry="0.7"/>
										
											<ellipse id="Ellipse_201" transform="matrix(1 -5.999892e-03 5.999892e-03 1 -5.513 -7.5878)" fill="#8380F9" cx="-1267.4" cy="915" rx="0.9" ry="0.7"/>
										
											<ellipse id="Ellipse_202" transform="matrix(1 -5.999892e-03 5.999892e-03 1 -5.6227 -7.7246)" fill="#8380F9" cx="-1290.3" cy="933.3" rx="1.9" ry="1.4"/>
									</g>
								</g>
								<g id="Group_2215">
									
										<rect id="Rectangle_289" x="-1260.7" y="1061.2" transform="matrix(0.9979 -6.499255e-02 6.499255e-02 0.9979 -71.9257 -78.1538)" fill="#E57565" width="46.9" height="10.4"/>
									<path id="Path_2824" fill="#DD6D57" d="M-1351.5,1019.6l181.9,23.2l-7,19.7l-175-25L-1351.5,1019.6z"/>
									<circle id="Ellipse_203" fill="#363A49" cx="-1314.3" cy="1071.7" r="56.6"/>
									<circle id="Ellipse_204" fill="#FF8364" cx="-1314.3" cy="1071.7" r="27.5"/>
									<path id="Path_2825" fill="#51586D" d="M-1437.8,975.6l44.7-23.8h243.4l-49.1,87.8l-215.2-45.4L-1437.8,975.6z"/>
									<path id="Path_2826" fill="#363A49" d="M-1141.5,939.9l-8.9,12h-66.6l-12.3,61.7l-18.6-3l13.9-58.7h-27.3l-10.4,54.1
										l-17.9-3.8l11.3-50.4h-28.5l-6.9,43.7l-18.3-2.3l8.4-41.4h-26.5l-6,37.7l-16.3-2.6l5.6-35h-26.5l-43.9,25.6
										c-0.9,0.5-1.9,0.8-3,0.8c-2.1,0-4.1-1.1-5.2-3c-1.6-2.9-0.7-6.5,2.2-8.2l45.6-26.6c0.9-0.5,2-0.8,3.1-0.8l2.3,0.1
										c0.3,0,0.6,0.1,1,0.1L-1141.5,939.9z"/>
									<path id="Path_2827" fill="#363A49" d="M-1198.9,1039.7l-215.2-45.4l-23.8-17.9l252.7,38.7L-1198.9,1039.7z"/>
									<path id="Path_2828" fill="#51586D" d="M-1125.2,891.5l84.9,6.7v8.2h-68.1c-2.6,0-5.1,1.1-6.8,3.1l-26.3,30.4l-31.8-0.2
										L-1125.2,891.5z"/>
									<path id="Path_2829" fill="#363A49" d="M-1044.7,996.5l-116.9-0.7l45.7-73c2.6-4.1,7.2-6.6,12.1-6.5l38.5,1
										c5,0.1,9.2,3.8,10,8.8L-1044.7,996.5z"/>
									<path id="Path_2830" fill="#51586D" d="M-1194.2,1082h-18.9c-4.3,0-7.9-3.1-8.6-7.4l-3.2-21.3c-0.7-4.7,2.5-9.1,7.3-9.8
										c0.4-0.1,0.9-0.1,1.3-0.1h25.3c4.8,0,8.7,3.9,8.7,8.7c0,0.4,0,0.9-0.1,1.3l-3.2,21.3C-1186.3,1078.9-1190,1082-1194.2,1082
										z"/>
									<path id="Path_2831" fill="#FFCBC2" d="M-1121.4,995.7v-25.3l17.9-43.9h48.4l10.4,69.2L-1121.4,995.7z"/>
									<path id="Path_2832" opacity="0.16" fill="#FFFFFF" enable-background="new    " d="M-1087.2,970.7L-1087.2,970.7
										c-3-1.3-4.5-4.7-3.2-7.8l15.1-36.4h13.4l-17.5,41C-1080.7,970.5-1084.2,972-1087.2,970.7z"/>
									<path id="Path_2833" opacity="0.16" fill="#FFFFFF" enable-background="new    " d="M-1092,949.1L-1092,949.1
										c-1.6-0.6-2.3-2.4-1.6-4l7.7-18.6h6.8l-9,21C-1088.7,949-1090.5,949.7-1092,949.1C-1092,949.1-1092,949.1-1092,949.1z"/>
									<path id="Path_2834" fill="#DD6D57" d="M-1054.4,995.7h-116.1v12.7h116.1v66.3h32v-78.9H-1054.4z"/>
									<path id="Path_2835" fill="#FF8364" d="M-1190.7,1041.9l20.1-33.5l116.1,0v66.2h-15.6l-99.5-31.9L-1190.7,1041.9z"/>
									<circle id="Ellipse_205" fill="#363A49" cx="-1120.7" cy="1071.7" r="56.6"/>
									<circle id="Ellipse_206" fill="#FF8364" cx="-1120.7" cy="1071.7" r="27.5"/>
									
										<rect id="Rectangle_290" x="-1252.5" y="1021.8" transform="matrix(0.9074 -0.4202 0.4202 0.9074 -556.4337 -426.9801)" fill="#FF8364" width="10.4" height="55.1"/>
									<g id="Group_2213">
										<circle id="Ellipse_207" fill="#DD6D57" cx="-1260.6" cy="1019.5" r="10.3"/>
										<circle id="Ellipse_208" fill="#FC9A86" cx="-1260.6" cy="1019.5" r="4.1"/>
									</g>
									<g id="Group_2214">
										<circle id="Ellipse_209" fill="#DD6D57" cx="-1234.7" cy="1074.4" r="10.3"/>
										<circle id="Ellipse_210" fill="#FC9A86" cx="-1234.7" cy="1074.4" r="4.1"/>
									</g>
									<path id="Path_2836" fill="#FF8364" d="M-1381.6,1001.1l30.9,22.1c3.9,2.8,9.4,1.9,12.3-2c0.1-0.1,0.1-0.2,0.2-0.3l6-9.2
										L-1381.6,1001.1z"/>
									<circle id="Ellipse_211" fill="#FC9A86" cx="-1345.5" cy="1018.1" r="3"/>
									<path id="Path_2837" fill="#363A49" d="M-1021.4,959.6h-82.5c-0.1,0-0.1,0-0.2,0c-3.3-0.2-6.6,1-9.1,3.3
										c-2.4,2.2-3,5.4-3.4,8.5c0,0.2,0,0.4,0,0.5c0,0.1,0,0.2,0,0.3v24.1h3.8v-24.1c0-0.1,0-0.2,0-0.4c0.3-2,0.6-4.2,1.9-5.8
										c1.8-2.1,4.6-3.1,7.3-2.8c0.2,0,0.4,0,0.6,0h19.7v33.1h3.8v-33.1h28.5V1080c0,0.6,0.6,1.1,1.2,1.1c0.3,0,0.7-0.2,0.9-0.5
										h23.4c0.4,0.5,1.1,0.6,1.6,0.2c0.3-0.2,0.4-0.5,0.5-0.9V963.3h2.2c1,0,1.9-0.9,1.8-1.9
										C-1019.6,960.4-1020.4,959.6-1021.4,959.6z M-1025.9,1078.4h-23.1v-15.6h23.1V1078.4z M-1025.9,1060.5h-23.1v-15.6h23.1
										V1060.5z M-1025.9,1042.7h-23.1V1027h23.1V1042.7z M-1025.9,1024.8h-23.1v-15.6h23.1V1024.8z M-1025.9,1006.9h-23.1v-43.6
										h23.1V1006.9z"/>
								</g>
								<g id="Group_2216">
									<path id="Path_2838" fill="#9F616A" d="M-1012.8,1109.5l1.6,6.7h-3.8l-1.6-7.6L-1012.8,1109.5z"/>
									<path id="Path_2839" fill="#9F616A" d="M-1031.2,1109.5v6.3l-3.8,0.4v-6.7H-1031.2z"/>
									<path id="Path_2840" fill="#51586D" d="M-1037.7,1110.4l-2.2,4.3c0,0-3.8-1.2-2.9,2.3c3.7,0.1,7.4-0.1,11-0.7
										c0,0,1.5,0.5,1.8-0.4s-0.9-4.1-1.9-4C-1033.8,1111.5-1035.8,1111-1037.7,1110.4z"/>
									<path id="Path_2841" fill="#51586D" d="M-1018.6,1109.9c0,0-2.2,5.6-1.2,5.8s9.2,1.1,9.8,1.4s3.7,0.4,3.9-1.4
										c0.1-1.1-0.6-2.1-1.6-2.3c0,0-3.4-0.4-4.4-3.4S-1018.6,1109.9-1018.6,1109.9z"/>
									<circle id="Ellipse_212" fill="#2F2E41" cx="-1021.7" cy="1006.1" r="8.2"/>
									<path id="Path_2842" fill="#FCA286" d="M-1011.7,1038.2c0,0-0.4,9.6-0.9,10.3s-4.5,10.3-4.5,10.3l-2-6.3
										c0,0,3.1-5.2,2.7-8.1c-0.3-2.2-0.3-4.3-0.2-6.5L-1011.7,1038.2z"/>
									<circle id="Ellipse_213" fill="#FCA286" cx="-1024.5" cy="1008.6" r="6.3"/>
									<path id="Path_2843" fill="#FCA286" d="M-1019.3,1009.3c0,0-0.2,9,1.3,10.3s-9,0.2-9,0.2s2.2-6.3,0.4-7.6
										S-1019.3,1009.3-1019.3,1009.3z"/>
									<path id="Path_2844" fill="#433DD9" d="M-1027.6,1019.4c0,0,1.3-2.5,3.1-2.2s7.6,0.7,7.8,1.1c0.4,0.9,0.8,1.7,1.3,2.5
										c0.4,0.4,3.8,1.1,4,3.8s-8.1,19.1-8.1,19.1s1.1,3.8,0.9,4.7s1.1,3.6,0.9,4.7s3.4,7.8,1.6,16.6v14.1c0,0,6.1,24.4,4.3,26.2
										s-7.8,0.7-9,0s-5.8-34.5-5.8-34.5l-2.2-11.4l-0.2,25.1c0,0,0.4,21.1-1.1,21.7s-7.6,0.9-8.1-0.4c-0.3-1-2.1-29-2.8-41.2
										c-0.3-4.2,0.1-8.5,1-12.6c0.9-4.2,2.3-9.2,3.8-11.2c2.9-3.8,4.7-15.9,4.7-15.9l-3.8-7c0,0,2.2-2.2,3.6-2.2
										C-1030.3,1020.1-1028.9,1019.8-1027.6,1019.4z"/>
									<path id="Path_2845" fill="#433DD9" d="M-1012.6,1023l1.2,0.8c0,0,0.8,14.4,0.2,15.3s-5.3,0.5-5.7-0.3
										S-1012.6,1023-1012.6,1023z"/>
									<path id="Path_2846" fill="#FCA286" d="M-1032.6,1036.1c0.7,4.6,1.2,8.6-2.1,12.3c-3.4,3.7-7.2,7-11.3,9.8
										c-0.4,1.1-6.5,9.1-6.8,5.9s1.8-5.7,4.7-8.4s7.1-8.6,9.5-11.8s1.4-5.2,1.3-7.9S-1033.5,1036.1-1032.6,1036.1z"/>
									<path id="Path_2847" fill="#433DD9" d="M-1032.1,1021.8l-3.1,0.7c0,0,0,4.9-0.9,7s-2.5,6.7-1.8,6.9s6.9,3.4,7.4,1.6
										S-1028.9,1021.8-1032.1,1021.8z"/>
									<circle id="Ellipse_214" fill="#2F2E41" cx="-1012.8" cy="995.2" r="8.2"/>
									<path id="Path_2848" fill="#2F2E41" d="M-1005.6,1002.1c-3.7,2.7-8.8,1.8-11.5-1.9c0,0,0,0,0,0c-0.5-0.8-1-1.6-1.2-2.5
										c0.6,4.5,4.7,7.7,9.2,7.2c4.5-0.6,7.7-4.7,7.2-9.2c-0.1-0.4-0.2-0.9-0.3-1.3C-1001.9,997.4-1003.2,1000.3-1005.6,1002.1z"
										/>
									<circle id="Ellipse_215" fill="#2F2E41" cx="-1019.5" cy="1007.5" r="6.1"/>
									<ellipse id="Ellipse_216" fill="#2F2E41" cx="-1024.6" cy="1005.2" rx="5.4" ry="4.2"/>
									<ellipse id="Ellipse_217" fill="#FCA286" cx="-1026" cy="1009.5" rx="1" ry="1.8"/>
								</g>
								<g id="Group_2218">
									<path id="Path_2849" fill="#A0616A" d="M-1251.3,883.8c0.1,0.1,0.2,0.2,0.2,0.3c0,0.1,0,0.2,0,0.4l-0.2,0.7
										c0,0.1-0.1,0.3-0.1,0.4c-0.1,0.1-0.2,0.3-0.3,0.4c-0.3,0.4-0.5,0.9-1,1.2c-0.2,0.1-0.5,0.2-0.7,0.2
										c-0.3,0.1-0.6,0.1-0.9,0.1c-0.3-0.1-0.6-0.2-0.9-0.4c-0.4-0.2-0.8-0.5-1-0.8c-0.2-0.4-0.2-0.8-0.1-1.2
										c0.1-0.4,0.2-0.8,0.2-1.2c0-0.2,0-0.3,0-0.5c0.1-0.1,0.3-0.3,0.4-0.3c0.4-0.2,0.9-0.3,1.3-0.5c0.3-0.1,0.6-0.2,0.9-0.2
										c0.4,0,0.8,0.1,1.2,0.3C-1252,883-1251.6,883.4-1251.3,883.8z"/>
									<path id="Path_2850" fill="#A0616A" d="M-1248.5,810.5c0,0,1.4,4.5,0.6,5.9s1.4,4.4,4.9,3s3.8-3,3.8-3
										c-1.1-2.1-1.7-4.4-1.8-6.7L-1248.5,810.5z"/>
									<circle id="Ellipse_218" fill="#A0616A" cx="-1245.6" cy="807" r="5.9"/>
									<path id="Path_2851" fill="#2F2E41" d="M-1243.3,904.1c0,0-1.4,0.4-1.3-1.3c0,0-5,2.7-3.7,4.6l0,0.1c2,2.8,4.6,5,7.7,6.3
										c1.5,0.7,2.9,1.1,3.1,0.7c0.6-1.2,0.6-2.5,0.2-3.8c-0.4-0.8-2.4-2.2-1.8-3.4s-0.2-4.4-1.2-4.4
										C-1241.2,903.3-1242.3,903.6-1243.3,904.1z"/>
									<path id="Path_2852" fill="#6253FF" d="M-1231.1,845.3c-1.2,0.8-2.3,0.4-2.7,0.6c-0.2,0.1-0.2,0.3,0.1,0.8
										c0.1,0.2,0.2,0.3,0.3,0.5c0.8,1.2,1.8,1.5,0.7,1.9c-0.1,0-0.2,0-0.2,0c-1.7-0.2-8.4-5.7-13.6-4.2c-5.5,1.6-8.3,0.4-8.3,0.4
										l-0.1-0.5l-2.4-21c-0.2-1.7,0.5-3.3,1.8-4.4c0.9-0.7,1.8-1.3,2.8-1.8c0.3-0.1,0.5-0.2,0.8-0.3c0.3-0.1,0.6-0.2,0.8-0.2
										c3.2-0.6,3.3-0.9,3.3-0.9l0.7,1.3c0,0,6.7,1.8,7.6-1.6c1,0.2,2.1,0.5,3,0.9c0.4,0.2,0.8,0.3,1.2,0.5
										c2.2,1.1,4.6,2.8,5.3,5.5c1.4,5.3-3.4,18.2-3.4,18.6S-1229.3,844.1-1231.1,845.3z"/>
									<path id="Path_2853" fill="#6253FF" d="M-1235.5,869.2l-0.2,5.5c0.7,3.8-0.7,15.2-0.7,15.2l-2.3,16.2l-6.9-0.6l0.9-7.2
										c0.5-3.6,0.5-7.3,0.1-10.9c-0.6-5.6,1.2-10.6,1-12.4c-0.1-1.3-0.3-3.7-0.4-5.4c0,0-0.1,0-0.1,0c-0.2-0.4,0-5.9,0-9.1
										c-0.1-2-1-3.9-2.6-5.1c0,0-6.3,4.2-7.5,4.5c-1,0.3-4.4,1.6-5.6,2l-2.1,1.2c0,0,5.5,6.9,5.5,9.1s4.5,9.9,4.5,9.9l-4.6,4.7
										l-6-11.5c-2.9-4-6.8-9.4-8.9-12.1c-2.6-3.5,1.1-6.4,3.2-7.6c0.8-2.8,5.1-5.3,7.3-6.8c1.5-1.1,3.1-2.2,4.6-3.2
										c0.4-0.3,0.8-0.6,1.2-0.9c1-0.7,1.8-1.6,2.6-2.5c1.4-1.7,2.5-3.6,3-5.7c0.5-3.1,1.3-6,0.5-9.2c-0.7-2.9-2.6-5.3-3.8-8
										c-0.2-0.6-0.2-1.2-0.2-1.8c0.3-0.1,0.5-0.2,0.8-0.3c0,0,0,0,0,0.1c2.3,3.8,4,7.9,5.3,12.2c0,0.2,0.1,0.4,0.3,0.5
										c0.2,0.2,0.6,0,0.8-0.1c2.3-0.9,7.9,1.4,7.7-2.4c0-1,0-2,0.2-3c0.2-2.2,0.5-4.3,0.7-6.5c0-0.4,0.1-0.9,0.4-1.3
										c0.4,0.2,0.8,0.3,1.2,0.5c0.1,1.1,0.1,2.2,0,3.2c-0.2,1.9-0.4,3.8-0.6,5.7c-0.5,3.2-0.5,6.5-0.1,9.7
										c0.6,3.2,1.3,6.7,2.2,9.9c0.1,0.4,0.2,0.8,0.4,1.3c0,0,0,0.1,0.1,0.2c0.2,0.6,0.3,1.2,0.4,1.8c0.3,2.2,0.3,4.4,0,6.5
										L-1235.5,869.2C-1235.5,869.2-1235.5,869.2-1235.5,869.2z"/>
									<g id="Group_2217">
										<path id="Path_2854" fill="#51586D" d="M-1260.4,911.8c-0.3-0.6-0.6-1.2-0.9-1.8c-0.8-1.9-1.1-3.9-0.9-6
											c0.4-3.7,0.9-7.3,1.4-11c0-0.4,0.1-0.7,0.6-0.8c0.1,0.6,0.5,0.7,1.1,0.7c1.8,0.2,3.7,0.5,5.5,0.7c0.6,0.1,0.7,0.1,0.6,0.8
											c-0.3,2-0.5,4.1-0.8,6.2c-0.1,1,0.1,2.1,0.5,3c0.1,0.2,0.3,0.4,0.5,0.4c0.3,0,0.7-0.2,0.9-0.4c0.7-0.9,1.2-2,1.3-3.1
											c0.3-1.8,0.5-3.7,0.7-5.5c0.1-0.7,0.1-0.7,0.9-0.7c1.9,0.2,3.8,0.5,5.6,0.7c0.7,0.1,0.7,0.1,0.8-0.5
											c0.4,0.2,0.5,0.6,0.4,1c-0.4,2.7-0.7,5.5-1.1,8.2c-0.1,1.5-0.4,3.1-0.8,4.6c-0.6,1.9-1.7,3.6-3.1,5
											c-0.1,0.1-0.2,0.1-0.2,0.2l-1.8,1.4c-0.7,0.5-1.4,0.9-2.1,1.2c-0.9,0.4-1.8,0.6-2.8,0.9c-0.3,0.1-0.7,0-1-0.1
											c-1.6-0.7-2.9-1.8-4-3.1c0-0.1-0.1-0.1-0.2-0.1L-1260.4,911.8z"/>
										
											<rect id="Rectangle_291" x="-1268.6" y="867.7" transform="matrix(0.1295 -0.9916 0.9916 0.1295 -1948.0726 -481.4382)" width="40.8" height="2.1"/>
										<path id="Path_2855" d="M-1244.5,851.1l-1.2-0.2l-1.3-0.1c-0.4-0.2-0.4-0.5-0.3-0.8c0.2-1.2,0.3-2.5,0.5-3.7
											c0.1-0.3,0-0.5-0.3-0.7c-2.3-1.8-3.4-4.7-3-7.5c0-0.2,0.1-0.4,0.3-0.5c0.3-0.1,0.4,0.1,0.5,0.3c0.3,0.3,0,0.6,0.1,0.9
											c0,0.2,0,0.4,0,0.5c0,2,0.9,3.9,2.3,5.2c1.3,1.1,3.2,1.2,4.5,0.2c1.4-1,2.4-2.4,2.9-4.1c0.2-0.5,0.1-1,0.4-1.4
											c0.1-0.2,0.4-0.3,0.6-0.2c0.2,0.1,0.2,0.3,0.2,0.6c-0.3,2.9-2.1,5.4-4.8,6.5c-0.2,0.1-0.4,0.3-0.4,0.5
											c-0.2,1.3-0.3,2.6-0.5,3.8C-1244.1,850.8-1244.2,851.1-1244.5,851.1z"/>
										<path id="Path_2856" fill="#1A1A1A" d="M-1243.2,894.2c-2-0.3-4-0.5-5.9-0.8c-0.3,0-0.5-0.1-0.4-0.5
											c0.2-1.3,0.3-2.6,0.5-3.8c0.1-0.4,0-0.8-0.4-1c-0.1,0.1-0.2,0.2-0.4,0l-0.9,0l0,0l-1.2-0.2c-0.4,0.1-0.5,0.3-0.5,0.7
											c-0.2,1.3-0.3,2.6-0.5,3.9c0,0.4-0.2,0.5-0.6,0.4c-2-0.3-4-0.5-6-0.8c-0.2-0.1-0.5,0-0.7,0.1c0,0.6,0,0.7,0.7,0.8
											c2,0.3,4,0.5,6,0.8c0.3,0,0.4,0.1,0.4,0.5c-0.3,1.8-0.5,3.6-0.7,5.3c-0.2,0.9-0.2,1.9,0,2.8c0.2,0.7,0.2,1.4,1,1.7
											c0.4,0.1,0.7-0.1,0.9-0.4c0.8-0.9,1.3-2,1.4-3.2c0.3-1.8,0.5-3.7,0.7-5.5c0.1-0.9,0-0.8,0.8-0.7c1.9,0.2,3.9,0.5,5.8,0.8
											c0.6,0.1,0.8-0.1,0.6-0.7C-1242.8,894.3-1243,894.2-1243.2,894.2z"/>
										<path id="Path_2857" d="M-1249.4,839.2l0.1-1.4c0.3-0.3,0.7-0.2,1.1-0.1c2.8,0.4,5.6,0.7,8.4,1.1c0.3,0,0.5,0.2,0.7,0.4
											c-0.1,0.4-0.2,0.9-0.2,1.3c-0.6,0.2-1.2,0.2-1.7,0c-0.9-0.2-1.9-0.2-2.8-0.4c-1.5-0.2-3.1-0.4-4.6-0.6
											C-1248.8,839.6-1249.1,839.5-1249.4,839.2z"/>
									</g>
									<path id="Path_2858" fill="#2F2E41" d="M-1255.3,886.9c0,0-1.4-1.6-2.2,0.6c-0.8,1.8-1.8,3.4-3,4.9c0,0-4.7,5.3-1.4,5.5
										s8.1-4.7,8.1-4.7l5.5-5.1c0,0-1.8-4.5-2.7-4.5S-1251.5,888.9-1255.3,886.9z"/>
									<path id="Path_2859" fill="#A0616A" d="M-1253.5,852c0,0,1.8,10.1,4.2,8.7s-0.6-8.7-0.6-8.7H-1253.5z"/>
									<path id="Path_2860" fill="#A0616A" d="M-1245.2,853.3c0,0-3.1,9.8-0.3,9.6s3.5-8,3.5-8L-1245.2,853.3z"/>
									<path id="Path_2861" fill="#2F2E41" d="M-1250.8,802c0,0,1.9-4.1,5.6-3.2s5.7,2.4,5.9,3.8c0.1,1.2,0.1,2.4-0.1,3.6
										c0,0-0.4-2.9-2.9-2.3c-2.2,0.4-4.4,0.4-6.5,0.2l-0.6,5.7c0,0-0.7-1-1.5-0.4S-1253.4,803.2-1250.8,802z"/>
									<path id="Path_2862" fill="#433DD9" d="M-1233.3,822.5c0,0-4.7,12.9-4.4,14.4s0,1.8-0.6,2.2s-2.2,4.5-2.2,4.5
										c-0.4,1.1-1,2.1-1.8,3c-0.8,0.6-0.8,2.2-0.8,2.2s-2,2-1.6,2.4s0.4,1-0.4,1.6s-1.6,1.4-1.2,1.6s3.2,2.4,4,2.2
										s-0.4-1,0.6-1.4s1.6-1,1.2-1.2s-1.6-0.2-0.4-0.6s5.3-3,6.7-6.1s8-22.3,4-25c-0.6-0.8-1.7-1.1-2.5-0.5
										C-1232.9,821.9-1233.1,822.2-1233.3,822.5z"/>
									<path id="Path_2863" fill="#433DD9" d="M-1255.2,820.4L-1255.2,820.4c-1.6,0.7-2.7,2-3,3.6c-0.6,2.6-0.8,5.2-0.5,7.9
										c0.6,4.9,1,7.1,1.8,8.7s1,1,0.8,2.2s-1.2,0.2-0.2,1.8s1.6,1.2,1.2,2s-1,0.8-0.2,1.8c0.4,0.5,0.8,1.1,1,1.8
										c0.2,0.4,0.8,3.4,0.8,3.4s3.2-1,4.9-0.6c0,0-1.6-2.8-1.2-3.4s1-0.8,0.4-1.4s-1.6-0.4-0.6-1s-0.8-6.7-0.8-6.7L-1255.2,820.4
										z"/>
								</g>
							</g>
							<path id="Path_19814" fill="#C4BEFF" d="M-1136.2,774.3c3.9,1.4,7.9,2.2,12,2.3c6.2,0.1,12.1-2.6,16-7.4
								c5.9,2.4,13,0.2,15.8-4.9s0.2-11.2-5.7-13.6c-1.6-0.6-3.3-1-5-1c-0.1,0-0.3,0-0.4,0c0.3-1.1,0.4-2.2,0.4-3.3
								c0.1-8.6-8.1-15.7-18.1-15.7c-5.1-0.1-9.9,1.8-13.7,5.2c-6.2-7.4-18.2-9.2-26.8-3.9c-3.9,2.3-6.7,6-7.8,10.4
								c-8.8-1.9-17.7,2.6-20,10.2s3.1,15.2,11.9,17.1c2.9,0.6,5.8,0.6,8.7-0.1c4.5,4.2,11.8,6.9,20.1,6.9
								C-1144.5,776.7-1140.3,775.9-1136.2,774.3z"/>
							<path id="Path_19814-2" fill="#A9A7FC" d="M-1165.5,766.4c3.8,1.7,7.9,2.6,12,2.8c6.5,0,12.5-3.3,16-8.7
								c5.9,2.8,12.9,0.3,15.7-5.6c0-0.1,0.1-0.1,0.1-0.2c2.8-6,0.3-13.2-5.7-16.1c-1.6-0.7-3.3-1.1-5-1.1c-0.1,0-0.3,0-0.4,0
								c0.3-1.3,0.4-2.6,0.4-3.9c0.1-10.2-8-18.5-18.1-18.6c-5.2,0-10.2,2.2-13.7,6.2c-6-8.6-17.8-10.8-26.5-4.9
								c-0.1,0.1-0.2,0.2-0.4,0.3c-4.1,3-6.8,7.4-7.8,12.3c-8.8-2.2-17.7,3.1-19.9,11.9c0,0.1,0,0.1,0,0.2
								c-2.3,8.9,3,17.9,11.9,20.3c2.8,0.7,5.8,0.7,8.7-0.2c4.5,5,11.8,8.2,20.1,8.2C-1173.7,769.2-1169.4,768.3-1165.5,766.4z"/>
						</g>
					</g>
				</g>
			</g>
		</g>
	</g>
</g>
</svg>
