<?xml version="1.0" encoding="utf-8"?>
<!-- Generator: Adobe Illustrator 24.0.2, SVG Export Plug-In . SVG Version: 6.00 Build 0)  -->
<svg version="1.1" id="Layer_1" xmlns="http://www.w3.org/2000/svg" xmlns:xlink="http://www.w3.org/1999/xlink" x="0px" y="0px"
	 viewBox="0 0 800 600" enable-background="new 0 0 800 600" xml:space="preserve">
<g>
	<defs>
		<rect id="SVGID_1_" width="800" height="600"/>
	</defs>
	<clipPath id="SVGID_2_">
		<use xlink:href="#SVGID_1_"  overflow="visible"/>
	</clipPath>
	<g id="custom_9" clip-path="url(#SVGID_2_)">
		<g id="Group_2232" transform="translate(840.164 -631.687)">
			<path id="Path_2865" opacity="0.77" fill="#EEEEFF" enable-background="new    " d="M-291,1176.8
				c-137.5,55-414.1,36.3-469.1-101.2S-627.5,733.9-490,678.9s293.5,11.9,348.4,149.4S-153.5,1121.8-291,1176.8z"/>
			<g id="Group_2228">
				<g>
					<defs>
						<path id="SVGID_3_" d="M-409.6,671.1c140.3,47.3,338.8,240.9,291.5,381.2s-322.5,174.2-462.8,126.9s-215.7-199.4-168.4-339.7
							S-549.9,623.8-409.6,671.1z"/>
					</defs>
					<clipPath id="SVGID_4_">
						<use xlink:href="#SVGID_3_"  overflow="visible"/>
					</clipPath>
					<g id="Group_2227" clip-path="url(#SVGID_4_)">
						<g id="Group_2226">
							<g id="Group_2225">
								<rect id="Rectangle_292" x="-805.9" y="1008.9" fill="#BBBBF9" width="736.5" height="185.9"/>
								<rect id="Rectangle_293" x="-805" y="1008" fill="#808080" width="736.5" height="94"/>
								<rect id="Rectangle_294" x="-805" y="644" fill="#EEEEFF" width="736.5" height="308.5"/>
								<g id="Group_2224">
									<path id="Path_18755" fill="#A4A4FF" d="M-753.7,958.2c0,0,124.7-24.5,241.3-5.9s231.6-3.5,245-5.2s96-21.4,163.7-1
										c17.3,5.2,38.7,17.9-20.2,22.9c-173.2,14.7-622.5,18-628.5,4.3C-760.5,955.1-753.7,958.2-753.7,958.2z"/>
									<path id="Path_18756" fill="#B4B4FC" d="M-804.2,1007.8v-66.3c0,0,96.6,35,148.2,30.7s164.3-45.5,275.5-20.9
										s312-6.7,312-6.7v63.2"/>
								</g>
							</g>
							<path id="Path_19814" fill="#C4BEFF" d="M-318.2,792.3c3.9,1.4,7.9,2.2,12,2.3c6.2,0.1,12.1-2.6,16-7.4
								c5.9,2.4,13,0.2,15.8-4.9s0.2-11.2-5.7-13.6c-1.6-0.6-3.3-1-5-1c-0.1,0-0.3,0-0.4,0c0.3-1.1,0.4-2.2,0.4-3.3
								c0.1-8.6-8.1-15.7-18.1-15.7c-5.1-0.1-9.9,1.8-13.7,5.2c-6.2-7.4-18.2-9.2-26.8-3.9c-3.9,2.3-6.7,6-7.8,10.4
								c-8.8-1.9-17.7,2.6-20,10.2s3.1,15.2,11.9,17.1c2.9,0.6,5.8,0.6,8.7-0.1c4.5,4.2,11.8,6.9,20.1,6.9
								C-326.5,794.7-322.3,793.9-318.2,792.3z"/>
							<path id="Path_19814-2" fill="#A9A7FC" d="M-347.5,784.4c3.8,1.7,7.9,2.6,12,2.8c6.5,0,12.5-3.3,16-8.7
								c5.9,2.8,12.9,0.3,15.7-5.6c0-0.1,0.1-0.1,0.1-0.2c2.8-6,0.3-13.2-5.7-16.1c-1.6-0.7-3.3-1.1-5-1.1c-0.1,0-0.3,0-0.4,0
								c0.3-1.3,0.4-2.6,0.4-3.9c0.1-10.2-8-18.5-18.1-18.6c-5.2,0-10.2,2.2-13.7,6.2c-6-8.6-17.8-10.8-26.5-4.9
								c-0.1,0.1-0.2,0.2-0.4,0.3c-4.1,3-6.8,7.4-7.8,12.3c-8.8-2.2-17.7,3.1-19.9,11.9c0,0.1,0,0.1,0,0.2
								c-2.3,8.9,3,17.9,11.9,20.3c2.8,0.7,5.8,0.7,8.7-0.2c4.5,5,11.8,8.2,20.1,8.2C-355.7,787.2-351.4,786.3-347.5,784.4z"/>
						</g>
					</g>
				</g>
			</g>
			<g id="Group_2231">
				<path id="Path_2867" fill="#363A49" d="M-626.8,983.2h19.2v-9.4h32.5v11.5h-16.6l-15.9,38.8l-27.9-10.9l-0.4-18.4
					C-635.9,986.3-626.8,983.2-626.8,983.2z"/>
				<path id="Path_2868" fill="#DD6D57" d="M-607.6,1024.1h17.8l180.4-40.9v-9.4h-130c-17.9-6.3-37.6-2.8-51.4,9.4
					C-608.5,998.9-607.8,1021.2-607.6,1024.1z"/>
				<path id="Path_2869" fill="#DD6D57" d="M-398.9,948.6l5,5l-15.5,20.2l-15.2,0.6C-424.6,974.4-411.5,947.5-398.9,948.6z"/>
				<rect id="Rectangle_295" x="-511.1" y="983.2" fill="#51586D" width="74.5" height="40.9"/>
				<path id="Path_2870" fill="#FF8364" d="M-421,973.8h-186.7c0,0-1-37.1,46.1-44.3l62.9-22.8l101.7,21l-2.1,20.4
					C-398.9,948-416.8,957.3-421,973.8z"/>
				<circle id="Ellipse_219" fill="#51586D" cx="-341.9" cy="1008.8" r="75.9"/>
				<circle id="Ellipse_220" fill="#363A49" cx="-542.2" cy="1030.8" r="56"/>
				<circle id="Ellipse_221" fill="#FF8364" cx="-542.2" cy="1030.8" r="27.3"/>
				<path id="Path_2871" fill="#FBB03B" d="M-437.7,1044l183.5-15.6c2.1-7.2,3.1-14.7,3.2-22.3c0.1-7.9-1-15.8-3.2-23.4
					c-61.2-3-122.3-8.2-183.5-11.1V1044z"/>
				<path id="Path_2872" fill="#FF8364" d="M-437.7,1044l183.5-15.6c2.1-7.2,3.1-14.7,3.2-22.3c0.1-7.9-1-15.8-3.2-23.4
					c-61.2-3-122.3-8.2-183.5-11.1V1044z"/>
				<g id="Group_2230">
					<g id="Group_2229">
						<path id="Path_2873" fill="#FFCBC2" d="M-498.6,906.6l9.4,33.6c0,5.4,10.3,9.4,15.7,9.4l47.2,1c3.4-5.8,25.9-17.2,29.4-23.1
							l-0.3-39.2c-2.4-12.7-4.8-25.4-7.2-38.1h-76.1c-0.5,1.5-0.9,3-1.4,4.5c-1.1,3.6-2.3,7.2-3.4,10.8v0c-1.6,5-3.2,10.1-4.8,15.1
							C-493.4,891.2-495.3,896.2-498.6,906.6z"/>
						<path id="Rectangle_296" fill="#FF8364" d="M-404.3,850.4h-75.1c-2.3,0-4.1-1.8-4.1-4.1l0,0c0-2.3,1.8-4.1,4.1-4.1h75.1
							c2.3,0,4.1,1.8,4.1,4.1l0,0C-400.2,848.5-402,850.4-404.3,850.4z"/>
						<path id="Rectangle_297" fill="#F15A24" d="M-416.7,842.2h-15.4l0,0v-8.6c0-3,2.5-5.5,5.5-5.5l0,0h4.4c3,0,5.5,2.5,5.5,5.5
							V842.2L-416.7,842.2z"/>
						<rect id="Rectangle_298" x="-432.1" y="840.1" fill="#363A49" width="15.4" height="2.1"/>
						<path id="Path_2874" opacity="0.16" fill="#FFFFFF" enable-background="new    " d="M-481.9,854.9l13.7,33.1
							c1.8,4.5,6.9,6.6,11.4,4.8c4.5-1.8,6.6-6.9,4.8-11.4l-12.9-31h-15.6C-480.9,851.9-481.4,853.4-481.9,854.9z"/>
						<path id="Path_2875" opacity="0.16" fill="#FFFFFF" enable-background="new    " d="M-490.1,880.8l1.6,3.7
							c1.1,2.6,4,3.8,6.6,2.8c2.6-1.1,3.8-4,2.8-6.6l-6.2-15C-486.9,870.7-488.5,875.8-490.1,880.8z"/>
					</g>
				</g>
				
					<line id="Line_51" fill="none" stroke="#363A49" stroke-width="1.279" stroke-miterlimit="10" x1="-450.8" y1="984.8" x2="-450.8" y2="1034.1"/>
				
					<line id="Line_52" fill="none" stroke="#363A49" stroke-width="1.279" stroke-miterlimit="10" x1="-479.2" y1="984.8" x2="-479.2" y2="1034.1"/>
				
					<line id="Line_53" fill="none" stroke="#363A49" stroke-width="1.279" stroke-miterlimit="10" x1="-479.2" y1="1034.1" x2="-450.8" y2="1034.1"/>
				
					<line id="Line_54" fill="none" stroke="#363A49" stroke-width="1.279" stroke-miterlimit="10" x1="-479.2" y1="1016.2" x2="-450.8" y2="1016.2"/>
				
					<line id="Line_55" fill="none" stroke="#363A49" stroke-width="1.279" stroke-miterlimit="10" x1="-479.2" y1="1000.5" x2="-450.8" y2="1000.5"/>
				
					<line id="Line_56" fill="none" stroke="#363A49" stroke-width="1.279" stroke-miterlimit="10" x1="-479.2" y1="985" x2="-450.8" y2="985"/>
				<circle id="Ellipse_222" fill="#FFCBC2" cx="-341.9" cy="1005.7" r="15.1"/>
				<circle id="Ellipse_223" fill="#FF8364" cx="-341.9" cy="1005.6" r="7.4"/>
				<path id="Path_2876" fill="#363A49" d="M-396.6,927.1c0,0-21.5-47.3-102-20.5c-3.4,1.1,16,59.5,16,59.5h51.6L-396.6,927.1z"/>
				<path id="Path_2877" fill="#FBB03B" d="M-399.4,930"/>
			</g>
		</g>
	</g>
</g>
</svg>
