<svg xmlns="http://www.w3.org/2000/svg" xmlns:xlink="http://www.w3.org/1999/xlink" viewBox="0 0 1349.75 864.67"><defs><style>.a{fill:url(#a);}.ac,.b,.ba,.bq,.bs,.bw,.c,.cb,.cc,.ce,.cf,.ci,.cj,.cl,.co,.cq,.ct,.cx,.db,.de,.dg,.dv,.dy,.ea,.ed,.ei,.en,.eo,.es,.ey,.ez,.fc,.ff,.fi,.fl,.fo,.ft,.fw,.fx,.i,.j,.l,.o,.q,.w{opacity:0.4;}.ac,.ae,.af,.aj,.al,.ar,.as,.b,.ba,.bc,.bi,.bj,.bq,.bs,.bu,.bw,.by,.c,.cb,.cc,.ce,.cf,.ch,.ci,.cj,.cl,.co,.cq,.ct,.cx,.cz,.db,.de,.dg,.di,.du,.dv,.dx,.dy,.ea,.ed,.eh,.ei,.en,.eo,.er,.es,.ey,.ez,.fc,.ff,.fh,.fi,.fl,.fo,.fs,.ft,.fw,.fx,.fz,.i,.j,.l,.o,.q,.w{isolation:isolate;}.b{fill:url(#b);}.c{fill:url(#c);}.d{fill:#243155;}.e{fill:url(#d);}.f{fill:url(#e);}.g{fill:url(#f);}.h{fill:url(#g);}.i{fill:url(#h);}.j{fill:url(#i);}.k{fill:url(#j);}.l{fill:url(#k);}.m{fill:#263157;}.n{fill:url(#l);}.o{fill:url(#m);}.p{fill:url(#n);}.q{fill:url(#o);}.r{fill:url(#p);}.s{fill:url(#q);}.t{fill:url(#r);}.u{fill:url(#s);}.v{fill:url(#t);}.w{fill:url(#u);}.x{fill:url(#v);}.y{fill:url(#w);}.z{fill:url(#x);}.aa{fill:url(#y);}.ab{fill:url(#z);}.ac{fill:url(#aa);}.ad{fill:url(#ab);}.ae,.af,.aj,.al,.ar,.as,.di,.fz{opacity:0.56;}.ae{fill:url(#ac);}.af{fill:url(#ad);}.ag{fill:url(#ae);}.ah,.ba,.bc,.bi,.bj{fill:#fff;}.ai{fill:url(#af);}.aj{fill:url(#ag);}.ak{fill:url(#ah);}.al{fill:url(#ai);}.am{fill:url(#aj);}.an{fill:url(#ak);}.ao{fill:url(#al);}.ap{fill:url(#am);}.aq{fill:url(#an);}.ar{fill:url(#ao);}.as{fill:url(#ap);}.at{fill:#52cac4;}.au{fill:url(#aq);}.av{fill:url(#ar);}.aw{fill:url(#as);}.ax{fill:url(#at);}.ay{fill:url(#au);}.az{fill:url(#av);}.bb{fill:url(#aw);}.bc{opacity:0.66;}.bd{fill:url(#ax);}.be{fill:url(#ay);}.bf{fill:url(#az);}.bg{fill:url(#ba);}.bh{fill:url(#bb);}.bi{opacity:0.49;}.bj{opacity:0.6;}.bk{fill:#955323;}.bl{fill:url(#bc);}.bm{fill:url(#bd);}.bn{fill:url(#be);}.bo{fill:url(#bf);}.bp{fill:url(#bg);}.bq{fill:url(#bh);}.br{fill:url(#bi);}.bs{fill:url(#bj);}.bt{fill:url(#bk);}.bu,.by{opacity:0.89;}.bu{fill:url(#bl);}.bv{fill:url(#bm);}.bw{fill:url(#bn);}.bx{fill:url(#bo);}.by{fill:url(#bp);}.bz{fill:url(#bq);}.ca{fill:url(#br);}.cb{fill:url(#bs);}.cc{fill:url(#bt);}.cd{fill:url(#bu);}.ce{fill:url(#bv);}.cf{fill:url(#bw);}.cg{fill:url(#bx);}.ch,.fh,.fs{opacity:0.2;}.ch{fill:url(#by);}.ci{fill:url(#bz);}.cj{fill:url(#ca);}.ck{fill:url(#cb);}.cl{fill:url(#cc);}.cm{fill:url(#cd);}.cn{fill:url(#ce);}.co{fill:url(#cf);}.cp{fill:url(#cg);}.cq{fill:url(#ch);}.cr{fill:url(#ci);}.cs{fill:url(#cj);}.ct{fill:url(#ck);}.cu{fill:url(#cl);}.cv{fill:url(#cm);}.cw{fill:url(#cn);}.cx{fill:url(#co);}.cy{fill:#6f3131;}.cz{fill:#492a29;opacity:0.31;}.da{fill:url(#cp);}.db{fill:url(#cq);}.dc{fill:url(#cr);}.dd{fill:url(#cs);}.de{fill:url(#ct);}.df{fill:url(#cu);}.dg{fill:url(#cv);}.dh{fill:url(#cw);}.di{fill:url(#cx);}.dj{fill:url(#cy);}.dk{fill:url(#cz);}.dl{fill:url(#da);}.dm{fill:url(#db);}.dn{fill:url(#dc);}.do{fill:url(#dd);}.dp{fill:url(#de);}.dq{fill:url(#df);}.dr{fill:url(#dg);}.ds{fill:url(#dh);}.dt{fill:url(#di);}.du,.dx,.eh,.er{opacity:0.69;}.du{fill:url(#dj);}.dv{fill:url(#dk);}.dw{fill:url(#dl);}.dx{fill:url(#dm);}.dy{fill:url(#dn);}.dz{fill:#dbe5f5;}.ea{fill:url(#do);}.eb{fill:url(#dp);}.ec{fill:url(#dq);}.ed{fill:url(#dr);}.ee{fill:#633012;}.ef{fill:#e45125;}.eg{fill:#421c1b;}.eh{fill:url(#ds);}.ei{fill:url(#dt);}.ej{fill:url(#du);}.ek{fill:url(#dv);}.el{fill:url(#dw);}.em{fill:url(#dx);}.en{fill:url(#dy);}.eo{fill:url(#dz);}.ep{fill:url(#ea);}.eq{fill:url(#eb);}.er{fill:url(#ec);}.es{fill:url(#ed);}.et{fill:url(#ee);}.eu{fill:url(#ef);}.ev{fill:url(#eg);}.ew{fill:url(#eh);}.ex{fill:url(#ei);}.ey{fill:url(#ej);}.ez{fill:url(#ek);}.fa{fill:url(#el);}.fb{fill:#1f1448;}.fc{fill:url(#em);}.fd{fill:url(#en);}.fe{fill:url(#eo);}.ff{fill:url(#ep);}.fg{fill:url(#eq);}.fh{fill:url(#er);}.fi{fill:url(#es);}.fj{fill:url(#et);}.fk{fill:url(#eu);}.fl{fill:url(#ev);}.fm{fill:url(#ew);}.fn{fill:url(#ex);}.fo{fill:url(#ey);}.fp{fill:url(#ez);}.fq{fill:#de5f45;}.fr{fill:url(#fa);}.fs{fill:url(#fb);}.ft{fill:url(#fc);}.fu{fill:url(#fd);}.fv{fill:url(#fe);}.fw{fill:url(#ff);}.fx{fill:url(#fg);}.fy{fill:url(#fh);}.fz{fill:url(#fi);}</style><linearGradient id="a" x1="-437.79" y1="1596.62" x2="-437.49" y2="1595.46" gradientTransform="matrix(70.32, 0, 0, -98.41, 30874.17, 157673.85)" gradientUnits="userSpaceOnUse"><stop offset="0" stop-color="#ffa99a"/><stop offset="1" stop-color="#c96759"/></linearGradient><linearGradient id="b" x1="-465.42" y1="1582.25" x2="-467.73" y2="1582.73" gradientTransform="matrix(39.72, 0, 0, -23.85, 18643.19, 38367.29)" gradientUnits="userSpaceOnUse"><stop offset="0" stop-color="#171a35"/><stop offset="1" stop-color="#172038" stop-opacity="0"/></linearGradient><linearGradient id="c" x1="-471.01" y1="1593.21" x2="-471.75" y2="1594.53" gradientTransform="matrix(37.27, 0, 0, -66, 17686.24, 105787.35)" xlink:href="#b"/><linearGradient id="d" x1="-431.28" y1="1597.17" x2="-431.56" y2="1596.17" gradientTransform="matrix(84.12, 0, 0, -112.41, 36506.84, 180137.57)" gradientUnits="userSpaceOnUse"><stop offset="0" stop-color="#7ac8a4"/><stop offset="1" stop-color="#16a699"/></linearGradient><linearGradient id="e" x1="-429.46" y1="1598.32" x2="-429.63" y2="1596.98" gradientTransform="matrix(89.38, 0, 0, -159.73, 38540.85, 255747.46)" xlink:href="#d"/><linearGradient id="f" x1="-425.46" y1="1595.21" x2="-425.96" y2="1594.64" gradientTransform="matrix(102.95, 0, 0, -77.84, 43887.67, 124823.07)" xlink:href="#d"/><linearGradient id="g" x1="-414.24" y1="1597.57" x2="-415.34" y2="1597.42" gradientTransform="matrix(176.25, 0, 0, -142.08, 73254.28, 227732.81)" gradientUnits="userSpaceOnUse"><stop offset="0" stop-color="#8796d9"/><stop offset="1" stop-color="#3e4e95"/></linearGradient><linearGradient id="h" x1="-439.29" y1="1598.62" x2="-438.98" y2="1596.99" gradientTransform="matrix(67.84, 0, 0, -142.08, 29891.04, 227734.07)" xlink:href="#b"/><linearGradient id="i" x1="-415.59" y1="1589.56" x2="-414.23" y2="1589.48" gradientTransform="matrix(176.25, 0, 0, -38.79, 73254.28, 62372.92)" xlink:href="#b"/><linearGradient id="j" x1="-385.58" y1="1599.52" x2="-385.83" y2="1598.17" gradientTransform="translate(-73883.22 466507.04) rotate(180) scale(194.44 291.28)" gradientUnits="userSpaceOnUse"><stop offset="0" stop-color="#a3e3e0"/><stop offset="1" stop-color="#3c8b89"/></linearGradient><linearGradient id="k" x1="-329.75" y1="1595.86" x2="-329.69" y2="1597.02" gradientTransform="translate(-11501.49 169451.55) rotate(180) scale(38.48 105.62)" xlink:href="#b"/><linearGradient id="l" x1="-363.41" y1="1600.07" x2="-363.44" y2="1599.01" gradientTransform="translate(-25859.07 688054.03) rotate(180) scale(74.43 429.75)" xlink:href="#a"/><linearGradient id="m" x1="-352.47" y1="1597.81" x2="-352.75" y2="1598.42" gradientTransform="translate(-18965.42 302927.56) rotate(180) scale(57.2 189.05)" xlink:href="#b"/><linearGradient id="n" x1="-384.62" y1="1599.74" x2="-384.78" y2="1598.4" gradientTransform="translate(-68460.43 546083.4) rotate(180) scale(181.3 341.02)" xlink:href="#j"/><linearGradient id="o" x1="-344.29" y1="1595.4" x2="-344.16" y2="1596.56" gradientTransform="translate(-15469.04 151674.08) rotate(180) scale(48.58 94.51)" xlink:href="#j"/><linearGradient id="p" x1="1229.58" y1="733.09" x2="1314.99" y2="733.09" gradientTransform="matrix(1, 0, 0, 1, 0, 0)" xlink:href="#j"/><linearGradient id="q" x1="1203.67" y1="829.68" x2="1234.15" y2="829.68" gradientTransform="matrix(1, 0, 0, 1, 0, 0)" xlink:href="#j"/><linearGradient id="r" x1="1253.57" y1="736.29" x2="1329.42" y2="736.29" gradientTransform="matrix(1, 0, 0, 1, 0, 0)" xlink:href="#j"/><linearGradient id="s" x1="1251.78" y1="666.07" x2="1273.29" y2="666.07" gradientTransform="matrix(1, 0, 0, 1, 0, 0)" xlink:href="#j"/><linearGradient id="t" x1="-339.25" y1="1596.54" x2="-339.42" y2="1595.48" gradientTransform="translate(-13872.91 151690.73) rotate(180) scale(44.63 94.52)" xlink:href="#a"/><linearGradient id="u" x1="-313.85" y1="1593.6" x2="-313.75" y2="1594.76" gradientTransform="translate(-8547.76 108746.92) rotate(180) scale(31.32 67.7)" xlink:href="#b"/><linearGradient id="v" x1="-351.21" y1="1594.68" x2="-351.74" y2="1593.61" gradientTransform="translate(-18332.28 108666.05) rotate(180) scale(55.84 67.65)" xlink:href="#a"/><linearGradient id="w" x1="-420.97" y1="1598.99" x2="-421.16" y2="1597.64" gradientTransform="matrix(124.58, 0, 0, -212.88, 53593.5, 340587.23)" xlink:href="#j"/><linearGradient id="x" x1="-422.93" y1="1598.21" x2="-423.24" y2="1596.87" gradientTransform="matrix(114.17, 0, 0, -153.85, 49289.05, 246100.47)" xlink:href="#d"/><linearGradient id="y" x1="-449.68" y1="1594.9" x2="-450" y2="1593.56" gradientTransform="matrix(53.4, 0, 0, -70.2, 25044.31, 112403.02)" xlink:href="#d"/><linearGradient id="z" x1="-412.01" y1="1600.21" x2="-412.25" y2="1598.75" gradientTransform="matrix(212.14, 0, 0, -378.08, 88517.5, 605403.8)" gradientUnits="userSpaceOnUse"><stop offset="0" stop-color="#ff7f6a"/><stop offset="1" stop-color="#ef7822"/></linearGradient><linearGradient id="aa" x1="-424.74" y1="1598.87" x2="-424.8" y2="1599.77" gradientTransform="matrix(106.29, 0, 0, -378.08, 46283.75, 605404.9)" xlink:href="#b"/><linearGradient id="ab" x1="-415.31" y1="1599.72" x2="-415.6" y2="1597.03" gradientTransform="matrix(168.48, 0, 0, -220.48, 70975.27, 352803.44)" xlink:href="#a"/><linearGradient id="ac" x1="-414.71" y1="1599.92" x2="-415.41" y2="1598.67" gradientTransform="matrix(168.48, 0, 0, -220.48, 70975.51, 352803.44)" xlink:href="#b"/><linearGradient id="ad" x1="-419.33" y1="1598.38" x2="-420.23" y2="1597.07" gradientTransform="matrix(131.04, 0, 0, -136.24, 55999.44, 218019.39)" xlink:href="#b"/><linearGradient id="ae" x1="-442.62" y1="1594.14" x2="-443.04" y2="1593.01" gradientTransform="matrix(62.03, 0, 0, -62.69, 28501.28, 100181.91)" gradientUnits="userSpaceOnUse"><stop offset="0" stop-color="#bb88bc"/><stop offset="1" stop-color="#654c9f"/></linearGradient><linearGradient id="af" x1="-419.56" y1="1597.93" x2="-420.45" y2="1596.35" gradientTransform="matrix(131.4, 0, 0, -132, 55622.16, 210905.45)" xlink:href="#g"/><linearGradient id="ag" x1="-430.2" y1="1596.44" x2="-430.85" y2="1595.32" gradientTransform="matrix(85.83, 0, 0, -91.8, 37420.28, 146654.03)" xlink:href="#b"/><linearGradient id="ah" x1="-501.19" y1="1595.89" x2="-501.21" y2="1594.65" gradientTransform="matrix(26.4, 0, 0, -83.4, 13687.35, 133132.87)" gradientUnits="userSpaceOnUse"><stop offset="0" stop-color="#52cac4"/><stop offset="1" stop-color="#3c8b89"/></linearGradient><linearGradient id="ai" x1="-427.86" y1="1596.5" x2="-429.07" y2="1595.28" gradientTransform="matrix(92.57, 0, 0, -90.74, 40132.26, 144942.47)" xlink:href="#b"/><linearGradient id="aj" x1="-428.52" y1="1596.28" x2="-428.49" y2="1595.66" gradientTransform="matrix(92.57, 0, 0, -90.74, 40132.48, 144938.1)" xlink:href="#z"/><linearGradient id="ak" x1="-406" y1="1599.72" x2="-406.51" y2="1598.45" gradientTransform="matrix(397.5, 0, 0, -303, 162113.02, 484863.95)" gradientUnits="userSpaceOnUse"><stop offset="0" stop-color="#596dca"/><stop offset="1" stop-color="#3e4e95"/></linearGradient><linearGradient id="al" x1="-406.25" y1="1594.76" x2="-406.25" y2="1593.76" gradientTransform="matrix(397.5, 0, 0, -68.26, 162136.49, 109189.1)" xlink:href="#a"/><linearGradient id="am" x1="-406.25" y1="1597.29" x2="-406.25" y2="1596.29" gradientTransform="matrix(397.5, 0, 0, -114.96, 162136.96, 183924.25)" xlink:href="#a"/><linearGradient id="an" x1="-406.12" y1="1596.99" x2="-406.51" y2="1596.86" gradientTransform="matrix(397.5, 0, 0, -120, 162136.37, 192132.5)" gradientUnits="userSpaceOnUse"><stop offset="0" stop-color="#ff917f"/><stop offset="1" stop-color="#f47d6b"/></linearGradient><linearGradient id="ao" x1="-408.7" y1="1595.71" x2="-409.75" y2="1595.43" gradientTransform="matrix(272.13, 0, 0, -87, 112113.55, 139332.5)" xlink:href="#b"/><linearGradient id="ap" x1="-422.46" y1="1596.54" x2="-423.79" y2="1595.68" gradientTransform="matrix(112.3, 0, 0, -93, 48056.27, 148932.5)" xlink:href="#b"/><linearGradient id="aq" x1="-413.52" y1="1591.93" x2="-414.04" y2="1591.78" gradientTransform="matrix(189, 0, 0, -49.5, 78968.88, 79220.45)" xlink:href="#ak"/><linearGradient id="ar" x1="-420.89" y1="1585.07" x2="-421.68" y2="1584.97" gradientTransform="matrix(124.74, 0, 0, -27.64, 53097.61, 44109.69)" xlink:href="#d"/><linearGradient id="as" x1="-430.3" y1="1582.62" x2="-430.7" y2="1582.47" gradientTransform="matrix(87, 0, 0, -24, 38107.15, 38216)" xlink:href="#z"/><linearGradient id="at" x1="-426.45" y1="1582.79" x2="-427.02" y2="1582.58" gradientTransform="matrix(99, 0, 0, -24, 42820.15, 38216)" gradientUnits="userSpaceOnUse"><stop offset="0" stop-color="#3c54c1"/><stop offset="1" stop-color="#1f1448"/></linearGradient><linearGradient id="au" x1="-424.28" y1="1589.41" x2="-424.61" y2="1588.36" gradientTransform="matrix(107.75, 0, 0, -37.08, 46517.06, 59146.45)" xlink:href="#z"/><linearGradient id="av" x1="-410.35" y1="1599.47" x2="-410.85" y2="1598.52" gradientTransform="matrix(242.4, 0, 0, -293.4, 99730.7, 469362.8)" gradientUnits="userSpaceOnUse"><stop offset="0" stop-color="#d9e6f5"/><stop offset="1" stop-color="#adc7e8"/></linearGradient><linearGradient id="aw" x1="-411.76" y1="1599.15" x2="-411.76" y2="1598.22" gradientTransform="matrix(219, 0, 0, -239.39, 90382.76, 382928.89)" gradientUnits="userSpaceOnUse"><stop offset="0" stop-color="#fff"/><stop offset="1" stop-color="#adc7e8"/></linearGradient><linearGradient id="ax" x1="-612.55" y1="1586.44" x2="-612.76" y2="1583.43" gradientTransform="matrix(12.6, 0, 0, -29.4, 7944.8, 46822.45)" xlink:href="#av"/><linearGradient id="ay" x1="-612.55" y1="1586.44" x2="-612.76" y2="1583.43" gradientTransform="matrix(12.6, 0, 0, -29.4, 8004.2, 46760.65)" xlink:href="#av"/><linearGradient id="az" x1="-612.55" y1="1586.44" x2="-612.76" y2="1583.43" gradientTransform="matrix(12.6, 0, 0, -29.4, 8021, 46816.45)" xlink:href="#av"/><linearGradient id="ba" x1="-612.55" y1="1586.44" x2="-612.76" y2="1583.43" gradientTransform="matrix(12.6, 0, 0, -29.4, 7944.8, 46888.45)" xlink:href="#av"/><linearGradient id="bb" x1="-612.55" y1="1586.44" x2="-612.76" y2="1583.43" gradientTransform="matrix(12.6, 0, 0, -29.4, 7901, 46871.65)" xlink:href="#av"/><linearGradient id="bc" x1="-673.17" y1="1587.07" x2="-674.92" y2="1587.07" gradientTransform="matrix(9.74, 0, 0, -31.74, 6952.82, 51239.92)" xlink:href="#ae"/><linearGradient id="bd" x1="-505.28" y1="1580.61" x2="-505.99" y2="1580.69" gradientTransform="matrix(25.23, 0, 0, -21.53, 13306.12, 34456.33)" gradientUnits="userSpaceOnUse"><stop offset="0" stop-color="#dc9746"/><stop offset="1" stop-color="#b86729"/></linearGradient><linearGradient id="be" x1="-467.59" y1="1591.78" x2="-468.22" y2="1591.53" gradientTransform="matrix(39.33, 0, 0, -48.74, 18933.2, 78007.6)" xlink:href="#bd"/><linearGradient id="bf" x1="-419.82" y1="1594.41" x2="-420.53" y2="1593.97" gradientTransform="matrix(131.35, 0, 0, -70.62, 55623.88, 113077.55)" xlink:href="#z"/><linearGradient id="bg" x1="-906.05" y1="1520.39" x2="-907.58" y2="1519.45" gradientTransform="matrix(5.29, 0, 0, -5.29, 5293.92, 8418.36)" xlink:href="#ae"/><linearGradient id="bh" x1="-428.58" y1="1587.61" x2="-428.58" y2="1586.61" gradientTransform="matrix(92.32, 0, 0, -31.84, 40014.58, 51028.4)" xlink:href="#b"/><linearGradient id="bi" x1="-433.13" y1="1597.73" x2="-433.38" y2="1598.56" gradientTransform="matrix(79.73, 0, 0, -167.54, 34991.7, 268523.47)" xlink:href="#bd"/><linearGradient id="bj" x1="-474.96" y1="1574" x2="-472.73" y2="1574.14" gradientTransform="matrix(36.38, 0, 0, -16.16, 17650.86, 26151.52)" xlink:href="#b"/><linearGradient id="bk" x1="-443.16" y1="1591.26" x2="-444.7" y2="1591.47" gradientTransform="matrix(59.99, 0, 0, -47.2, 27111.72, 75974.54)" xlink:href="#ae"/><linearGradient id="bl" x1="-478.55" y1="1512.27" x2="-476.5" y2="1512.28" gradientTransform="matrix(34.55, 0, 0, -4.83, 16964.02, 8189.74)" xlink:href="#b"/><linearGradient id="bm" x1="-458.7" y1="1597.75" x2="-458.78" y2="1598.58" gradientTransform="matrix(45.33, 0, 0, -167.54, 21162.5, 268524.03)" gradientUnits="userSpaceOnUse"><stop offset="0" stop-color="#dc9746"/><stop offset="1" stop-color="#b86729"/></linearGradient><linearGradient id="bn" x1="-464.62" y1="1569.11" x2="-462.57" y2="1569.12" gradientTransform="matrix(42.09, 0, 0, -13.6, 19868.35, 22061.64)" xlink:href="#b"/><linearGradient id="bo" x1="-476.16" y1="1591.42" x2="-476.96" y2="1591.76" gradientTransform="matrix(34.77, 0, 0, -48.29, 16938.78, 77719.53)" xlink:href="#ae"/><linearGradient id="bp" x1="-495.21" y1="1512.29" x2="-493.16" y2="1512.3" gradientTransform="matrix(28.45, 0, 0, -4.83, 14411.22, 8184.7)" xlink:href="#b"/><linearGradient id="bq" x1="-470.61" y1="1586.42" x2="-471.42" y2="1586.76" gradientTransform="matrix(37.53, 0, 0, -30.51, 18068.7, 48872.23)" xlink:href="#bd"/><linearGradient id="br" x1="-470.84" y1="1597.52" x2="-470.85" y2="1596.48" gradientTransform="matrix(37.63, 0, 0, -123.55, 18132.75, 197848.92)" gradientUnits="userSpaceOnUse"><stop offset="0" stop-color="#ff7f6a"/><stop offset="1" stop-color="#ff7f6a"/></linearGradient><linearGradient id="bs" x1="-606.61" y1="1589.19" x2="-606.7" y2="1590.22" gradientTransform="matrix(12.96, 0, 0, -38.5, 8292.34, 61759.93)" gradientUnits="userSpaceOnUse"><stop offset="0" stop-color="#fef2f7"/><stop offset="1" stop-color="#f6e2ee" stop-opacity="0"/></linearGradient><linearGradient id="bt" x1="-605.06" y1="1596.61" x2="-605.07" y2="1595.45" gradientTransform="matrix(13.06, 0, 0, -93.7, 8309.09, 150083.97)" xlink:href="#b"/><linearGradient id="bu" x1="-443.73" y1="1597.51" x2="-443.82" y2="1596.72" gradientTransform="matrix(60.6, 0, 0, -120.71, 27276.79, 193295.1)" xlink:href="#br"/><linearGradient id="bv" x1="-498.52" y1="1587.24" x2="-498.96" y2="1586.08" gradientTransform="matrix(27.04, 0, 0, -30.53, 13898.82, 48972.97)" xlink:href="#b"/><linearGradient id="bw" x1="-475.42" y1="1596.4" x2="-475.42" y2="1595.4" gradientTransform="matrix(35.36, 0, 0, -92.77, 17183.17, 148599.9)" xlink:href="#b"/><linearGradient id="bx" x1="-426.69" y1="1597.66" x2="-426.69" y2="1596.66" gradientTransform="matrix(98.73, 0, 0, -127.55, 42528.57, 204365.11)" gradientUnits="userSpaceOnUse"><stop offset="0" stop-color="#263157"/><stop offset="1" stop-color="#182c45"/></linearGradient><linearGradient id="by" x1="-612.45" y1="1596.15" x2="-612.46" y2="1596.99" gradientTransform="matrix(12.61, 0, 0, -105.14, 8165.3, 168505.78)" xlink:href="#bs"/><linearGradient id="bz" x1="-493.14" y1="1597.82" x2="-493.17" y2="1596.66" gradientTransform="matrix(28.67, 0, 0, -127.55, 14503.21, 204367.89)" xlink:href="#b"/><linearGradient id="ca" x1="-529.82" y1="1573.69" x2="-527.99" y2="1573.99" gradientTransform="matrix(20.78, 0, 0, -15.98, 11377.28, 25607.68)" xlink:href="#b"/><linearGradient id="cb" x1="-446.67" y1="1592.66" x2="-446.67" y2="1591.66" gradientTransform="matrix(56.92, 0, 0, -51.13, 25832.52, 81799.99)" gradientUnits="userSpaceOnUse"><stop offset="0" stop-color="#52cac4"/><stop offset="1" stop-color="#52b3b0"/></linearGradient><linearGradient id="cc" x1="-462" y1="1592.95" x2="-461.78" y2="1592.09" gradientTransform="matrix(43.13, 0, 0, -51.13, 20316.3, 81799.82)" xlink:href="#b"/><linearGradient id="cd" x1="-480.7" y1="1577.13" x2="-482.23" y2="1576.85" gradientTransform="matrix(32.77, 0, 0, -18.16, 16175.74, 29046.74)" xlink:href="#ae"/><linearGradient id="ce" x1="-579.09" y1="1581.29" x2="-579.82" y2="1580.35" gradientTransform="matrix(14.92, 0, 0, -21.51, 9041.43, 34395.4)" xlink:href="#g"/><linearGradient id="cf" x1="-580.11" y1="1581.42" x2="-579.81" y2="1580.22" gradientTransform="matrix(14.88, 0, 0, -21.51, 9027.14, 34395.4)" xlink:href="#b"/><linearGradient id="cg" x1="-327.95" y1="1484.77" x2="-328.69" y2="1483.84" gradientTransform="matrix(-7.9, -12.65, 18.24, -11.4, -29259.66, 13163.48)" xlink:href="#g"/><linearGradient id="ch" x1="-598.13" y1="1563.82" x2="-597.5" y2="1562.96" gradientTransform="matrix(13.55, 0, 0, -11.45, 8508.36, 18287.94)" xlink:href="#b"/><linearGradient id="ci" x1="-579.81" y1="1562.62" x2="-581.35" y2="1562.09" gradientTransform="matrix(14.83, 0, 0, -11.19, 9009.33, 17878.73)" xlink:href="#g"/><linearGradient id="cj" x1="-451.8" y1="1589.46" x2="-452.43" y2="1589.07" gradientTransform="matrix(51.04, 0, 0, -38.3, 23467.7, 61292.73)" xlink:href="#d"/><linearGradient id="ck" x1="-492.69" y1="1590.11" x2="-492.33" y2="1588.91" gradientTransform="matrix(28.86, 0, 0, -38.3, 14596, 61292.73)" xlink:href="#b"/><linearGradient id="cl" x1="-572.27" y1="1574.62" x2="-574.04" y2="1573.73" gradientTransform="matrix(15.42, 0, 0, -16.04, 9213.22, 25685.26)" xlink:href="#bd"/><linearGradient id="cm" x1="-225.73" y1="1574.08" x2="-224.23" y2="1573.29" gradientTransform="translate(-3062.97 25685.26) rotate(180) scale(15.42 16.04)" xlink:href="#bd"/><linearGradient id="cn" x1="-463.86" y1="1591.73" x2="-464.59" y2="1591.48" gradientTransform="matrix(41.58, 0, 0, -48.2, 19684.77, 77149.12)" xlink:href="#bd"/><linearGradient id="co" x1="-544.69" y1="1588.89" x2="-544.26" y2="1589.39" gradientTransform="matrix(18.53, 0, 0, -38.19, 10467.78, 61135.27)" xlink:href="#b"/><linearGradient id="cp" x1="-493.81" y1="1596.27" x2="-493.77" y2="1595.17" gradientTransform="matrix(28.48, 0, 0, -85.84, 14417.93, 137483.16)" xlink:href="#br"/><linearGradient id="cq" x1="-493.77" y1="1593.59" x2="-493.77" y2="1592.59" gradientTransform="matrix(28.48, 0, 0, -57.61, 14417.93, 92322.5)" xlink:href="#b"/><linearGradient id="cr" x1="-474.08" y1="1589.74" x2="-474.08" y2="1588.74" gradientTransform="matrix(36, 0, 0, -37.88, 17418.36, 60753.7)" xlink:href="#z"/><linearGradient id="cs" x1="-493" y1="1591.54" x2="-493.22" y2="1590.82" gradientTransform="matrix(28.7, 0, 0, -46.92, 14491.3, 75194.33)" xlink:href="#bd"/><linearGradient id="ct" x1="-565.34" y1="1583.29" x2="-565.34" y2="1582.29" gradientTransform="matrix(16.19, 0, 0, -24.08, 9485.78, 38648.68)" xlink:href="#b"/><linearGradient id="cu" x1="-550.05" y1="1579.07" x2="-550.83" y2="1578.82" gradientTransform="matrix(17.81, 0, 0, -19.86, 10128.24, 31899.81)" xlink:href="#bd"/><linearGradient id="cv" x1="-524.07" y1="1594.89" x2="-524.12" y2="1593.73" gradientTransform="matrix(21.55, 0, 0, -67.99, 11703.22, 109056.67)" xlink:href="#b"/><linearGradient id="cw" x1="-417.16" y1="1598.29" x2="-418.07" y2="1596.72" gradientTransform="matrix(148.8, 0, 0, -148.8, 63080.02, 238219.28)" xlink:href="#ak"/><linearGradient id="cx" x1="-418.82" y1="1598.37" x2="-420.03" y2="1596.95" gradientTransform="matrix(133.28, 0, 0, -138.4, 56894.97, 221647.89)" xlink:href="#b"/><linearGradient id="cy" x1="-424.42" y1="1597.14" x2="-424.82" y2="1596.26" gradientTransform="matrix(106.73, 0, 0, -111.99, 46292.93, 179379.08)" gradientUnits="userSpaceOnUse"><stop offset="0" stop-color="#e57665"/><stop offset="1" stop-color="#ff9b8a"/></linearGradient><linearGradient id="cz" x1="-449.83" y1="1593.39" x2="-450.04" y2="1592.16" gradientTransform="matrix(53.28, 0, 0, -56, 24974.85, 89725.4)" gradientUnits="userSpaceOnUse"><stop offset="0" stop-color="#6dd2cd"/><stop offset="1" stop-color="#429592"/></linearGradient><linearGradient id="da" x1="-403.33" y1="1564.23" x2="-404.06" y2="1564.23" gradientTransform="matrix(657.3, 0, 0, -11.76, 265887.04, 19008.22)" xlink:href="#av"/><linearGradient id="db" x1="-403.33" y1="1598.28" x2="-404.06" y2="1598.2" gradientTransform="matrix(657.3, 0, 0, -189.84, 265887.04, 304131.06)" xlink:href="#ak"/><linearGradient id="dc" x1="-513.65" y1="1516.37" x2="-513.65" y2="1515.37" gradientTransform="matrix(23.52, 0, 0, -5.04, 12391.56, 8261.25)" xlink:href="#bx"/><linearGradient id="dd" x1="-513.65" y1="1574.73" x2="-513.65" y2="1573.73" gradientTransform="matrix(23.52, 0, 0, -16.24, 12391.56, 26387.33)" xlink:href="#bx"/><linearGradient id="de" x1="-513.65" y1="1574.73" x2="-513.65" y2="1573.73" gradientTransform="matrix(23.52, 0, 0, -16.24, 12997.34, 26387.33)" xlink:href="#bx"/><linearGradient id="df" x1="-513.65" y1="1516.37" x2="-513.65" y2="1515.37" gradientTransform="matrix(23.52, 0, 0, -5.04, 12997.34, 8261.25)" xlink:href="#bx"/><linearGradient id="dg" x1="-484.61" y1="1579.79" x2="-484.22" y2="1579.13" gradientTransform="matrix(31.63, 0, 0, -19.96, 15525.93, 32110.69)" gradientUnits="userSpaceOnUse"><stop offset="0" stop-color="#fecc93"/><stop offset="1" stop-color="#d07d40"/></linearGradient><linearGradient id="dh" x1="-453.15" y1="1595.34" x2="-453.15" y2="1594.34" gradientTransform="matrix(50.04, 0, 0, -75.35, 22877.21, 120719.12)" xlink:href="#d"/><linearGradient id="di" x1="-468.74" y1="1596.97" x2="-468.75" y2="1598.02" gradientTransform="matrix(38.77, 0, 0, -138.52, 18385.71, 222114.67)" gradientUnits="userSpaceOnUse"><stop offset="0" stop-color="#fecc93"/><stop offset="1" stop-color="#e3935b"/></linearGradient><linearGradient id="dj" x1="-558.16" y1="1596.33" x2="-558.11" y2="1595.14" gradientTransform="matrix(16.93, 0, 0, -87.49, 9643.55, 140407.55)" xlink:href="#bs"/><linearGradient id="dk" x1="-468.73" y1="1598.82" x2="-468.75" y2="1597.2" gradientTransform="matrix(38.77, 0, 0, -138.52, 18385.71, 222114.67)" xlink:href="#b"/><linearGradient id="dl" x1="-460.91" y1="1596.91" x2="-460.92" y2="1597.95" gradientTransform="matrix(43.72, 0, 0, -135.76, 20432.02, 217705.99)" xlink:href="#di"/><linearGradient id="dm" x1="-657.46" y1="1597.65" x2="-657.45" y2="1596.46" gradientTransform="matrix(10.41, 0, 0, -119.85, 7119.15, 192179.11)" xlink:href="#bs"/><linearGradient id="dn" x1="-480.09" y1="1598.76" x2="-480.11" y2="1597.13" gradientTransform="matrix(33.31, 0, 0, -135.76, 16268.33, 217705.99)" xlink:href="#b"/><linearGradient id="do" x1="-490.32" y1="1597.79" x2="-490.35" y2="1596.49" gradientTransform="matrix(29.55, 0, 0, -121.49, 14725.48, 194739.61)" xlink:href="#b"/><linearGradient id="dp" x1="-491.25" y1="1598.24" x2="-491.25" y2="1597.24" gradientTransform="matrix(29.26, 0, 0, -154.44, 14652.25, 247465.78)" xlink:href="#bx"/><linearGradient id="dq" x1="-447.54" y1="1596.23" x2="-447.54" y2="1595.23" gradientTransform="matrix(55.88, 0, 0, -89.53, 25253.13, 143330.87)" xlink:href="#di"/><linearGradient id="dr" x1="-701.6" y1="1558.54" x2="-703.52" y2="1559.94" gradientTransform="matrix(8.86, 0, 0, -10.33, 6467.59, 16600.99)" xlink:href="#b"/><linearGradient id="ds" x1="-621.09" y1="1585.79" x2="-620.85" y2="1584.61" gradientTransform="matrix(12.12, 0, 0, -27.68, 7791.43, 44312.88)" xlink:href="#bs"/><linearGradient id="dt" x1="-467.53" y1="1595.25" x2="-467.05" y2="1593.63" gradientTransform="matrix(39.63, 0, 0, -66.86, 18746.08, 107029.21)" xlink:href="#b"/><linearGradient id="du" x1="-448.71" y1="1590.02" x2="-448.71" y2="1589.02" gradientTransform="matrix(54.57, 0, 0, -38.85, 24717.51, 62268.61)" xlink:href="#d"/><linearGradient id="dv" x1="-488.35" y1="1584.71" x2="-487.97" y2="1584.33" gradientTransform="matrix(30.51, -2.13, -1.03, -14.68, 16823.73, 22828.82)" xlink:href="#dg"/><linearGradient id="dw" x1="-453.91" y1="1593.13" x2="-453.91" y2="1592.13" gradientTransform="matrix(49.65, -3.47, -2.12, -30.26, 26205.79, 47220.9)" xlink:href="#di"/><linearGradient id="dx" x1="-457.93" y1="1599.17" x2="-457.93" y2="1598.17" gradientTransform="matrix(46.24, -3.23, -9.08, -129.87, 35994.04, 206676.95)" xlink:href="#di"/><linearGradient id="dy" x1="-553.28" y1="1595.77" x2="-553.4" y2="1597.72" gradientTransform="matrix(17.56, -1.23, -4.79, -68.52, 17673.87, 109295.81)" xlink:href="#b"/><linearGradient id="dz" x1="-553.56" y1="1591.72" x2="-552.84" y2="1590.1" gradientTransform="matrix(17.6, -1.23, -1.69, -24.12, 12704.31, 38165.7)" xlink:href="#b"/><linearGradient id="ea" x1="-564.6" y1="1592.93" x2="-564.18" y2="1590.64" gradientTransform="matrix(16.36, -1.14, -2.14, -30.62, 12939.89, 48613.34)" xlink:href="#di"/><linearGradient id="eb" x1="-427.28" y1="1597.94" x2="-427.28" y2="1596.83" gradientTransform="matrix(96.63, 0, 0, -134.7, 41524.29, 215736.85)" gradientUnits="userSpaceOnUse"><stop offset="0" stop-color="#3c54c1"/><stop offset="1" stop-color="#654c9f"/></linearGradient><linearGradient id="ec" x1="-635.17" y1="1595.15" x2="-635.14" y2="1593.96" gradientTransform="matrix(11.39, 0, 0, -70.45, 7514.89, 112927.73)" xlink:href="#bs"/><linearGradient id="ed" x1="-442.59" y1="1597.2" x2="-442.01" y2="1595.57" gradientTransform="matrix(62.87, 0, 0, -96.61, 28018.67, 154788.27)" xlink:href="#b"/><linearGradient id="ee" x1="-453.68" y1="1583.9" x2="-454.39" y2="1583.7" gradientTransform="matrix(49.13, 0, 0, -25.46, 22528.94, 41240.35)" xlink:href="#a"/><linearGradient id="ef" x1="-454.15" y1="1535.51" x2="-454.15" y2="1534.51" gradientTransform="matrix(49.13, 0, 0, -6.51, 22529.76, 10929.91)" xlink:href="#bx"/><linearGradient id="eg" x1="-445.34" y1="1583.86" x2="-446.06" y2="1583.71" gradientTransform="matrix(57.99, 0, 0, -25.46, 26157.7, 41240.35)" xlink:href="#a"/><linearGradient id="eh" x1="-445.8" y1="1535.59" x2="-445.8" y2="1534.59" gradientTransform="matrix(57.99, 0, 0, -6.52, 26157.7, 10932.92)" xlink:href="#bx"/><linearGradient id="ei" x1="-462.36" y1="1594.82" x2="-462.36" y2="1593.82" gradientTransform="matrix(42.72, 0, 0, -69.05, 20037.48, 110649.8)" xlink:href="#d"/><linearGradient id="ej" x1="-476.17" y1="1594.93" x2="-475.76" y2="1593.31" gradientTransform="matrix(35.17, 0, 0, -63.98, 17020.48, 102528.08)" xlink:href="#b"/><linearGradient id="ek" x1="-519.15" y1="1586.77" x2="-519.7" y2="1587.68" gradientTransform="matrix(22.39, 0, 0, -32.18, 11928.39, 51662.05)" xlink:href="#b"/><linearGradient id="el" x1="-318" y1="1595.45" x2="-318" y2="1594.72" gradientTransform="translate(-9543.34 112762.63) rotate(180) scale(32.94 70.34)" gradientUnits="userSpaceOnUse"><stop offset="0" stop-color="#7ac8a4"/><stop offset="1" stop-color="#109287"/></linearGradient><linearGradient id="em" x1="-286.17" y1="1599.1" x2="-286.17" y2="1598.1" gradientTransform="translate(-5850.94 359175.81) rotate(180) scale(23.69 224.19)" xlink:href="#b"/><linearGradient id="en" x1="-300.24" y1="1568.64" x2="-300.24" y2="1572.36" gradientTransform="translate(-7195.02 22707.32) rotate(180) scale(27.05 13.9)" xlink:href="#di"/><linearGradient id="eo" x1="-350.88" y1="1586.71" x2="-352.07" y2="1586.39" gradientTransform="translate(-18647.72 49692.82) rotate(180) scale(55.69 30.74)" xlink:href="#a"/><linearGradient id="ep" x1="-277.82" y1="1587.13" x2="-277.82" y2="1586.13" gradientTransform="translate(-5197.08 49696.49) rotate(180) scale(22.06 30.74)" xlink:href="#b"/><linearGradient id="eq" x1="-351.28" y1="1516.37" x2="-351.28" y2="1515.37" gradientTransform="translate(-18647.72 8567.64) rotate(180) scale(55.69 5.04)" xlink:href="#bx"/><linearGradient id="er" x1="-222.68" y1="1597.57" x2="-222.69" y2="1598.41" gradientTransform="translate(-2551.89 259701.29) rotate(180) scale(15.18 162.02)" xlink:href="#bs"/><linearGradient id="es" x1="-354.35" y1="1599.11" x2="-354.35" y2="1598.11" gradientTransform="translate(-20205.33 360418.21) rotate(180) scale(59.47 224.96)" xlink:href="#b"/><linearGradient id="et" x1="-307.71" y1="1568.66" x2="-307.71" y2="1572.39" gradientTransform="translate(-8165.8 22709.57) rotate(180) scale(29.25 13.9)" xlink:href="#di"/><linearGradient id="eu" x1="-360.98" y1="1586.68" x2="-362.17" y2="1586.48" gradientTransform="translate(-24639.8 49692.82) rotate(180) scale(70.43 30.74)" xlink:href="#a"/><linearGradient id="ev" x1="-297.19" y1="1587.13" x2="-297.19" y2="1586.13" gradientTransform="translate(-6966.93 49693.38) rotate(180) scale(26.24 30.74)" xlink:href="#b"/><linearGradient id="ew" x1="-359.99" y1="1516.41" x2="-359.99" y2="1515.41" gradientTransform="translate(-23658.09 8567.09) rotate(180) scale(67.97 5.04)" xlink:href="#bx"/><linearGradient id="ex" x1="-373.53" y1="1591.61" x2="-374.73" y2="1591.51" gradientTransform="translate(-38234.85 76933.43) rotate(180) scale(104.65 47.91)" xlink:href="#z"/><linearGradient id="ey" x1="-373.14" y1="1591.48" x2="-371.59" y2="1591.65" gradientTransform="translate(-35288.44 76933.43) rotate(180) scale(97.28 47.91)" gradientUnits="userSpaceOnUse"><stop offset="0" stop-color="#401e1d"/><stop offset="1" stop-color="#172038" stop-opacity="0"/></linearGradient><linearGradient id="ez" x1="-356.29" y1="1595.46" x2="-356.29" y2="1594.46" gradientTransform="translate(-21253.05 123453.42) rotate(180) scale(62.15 77.1)" xlink:href="#di"/><linearGradient id="fa" x1="-373" y1="1598.46" x2="-373" y2="1597.46" gradientTransform="translate(-36901.53 268408.27) rotate(180) scale(101.32 167.6)" xlink:href="#d"/><linearGradient id="fb" x1="-274.97" y1="1595.87" x2="-275.01" y2="1596.71" gradientTransform="translate(-5078.77 157397.5) rotate(180) scale(21.56 98.22)" xlink:href="#bs"/><linearGradient id="fc" x1="-358.41" y1="1598.46" x2="-358.41" y2="1597.46" gradientTransform="translate(-22509.04 268408.27) rotate(180) scale(65.34 167.6)" xlink:href="#b"/><linearGradient id="fd" x1="-322.39" y1="1591.59" x2="-322.39" y2="1590.59" gradientTransform="translate(-10465.22 72584.37) rotate(180) scale(34.82 45.3)" xlink:href="#di"/><linearGradient id="fe" x1="-371.88" y1="1595.17" x2="-371.48" y2="1594.42" gradientTransform="translate(-35148.14 118769.41) rotate(180) scale(96.73 74.13)" xlink:href="#d"/><linearGradient id="ff" x1="21.35" y1="1574.13" x2="21.68" y2="1572.48" gradientTransform="translate(922.78 25136.35) rotate(180) scale(6.38 15.67)" xlink:href="#b"/><linearGradient id="fg" x1="-350.64" y1="1588.58" x2="-350.64" y2="1587.58" gradientTransform="translate(-18438.57 55089.13) rotate(180) scale(54.95 34.33)" xlink:href="#b"/><linearGradient id="fh" x1="-412.8" y1="1598.27" x2="-413.32" y2="1597.02" gradientTransform="matrix(198, 0, 0, -150, 82721.84, 239723.45)" xlink:href="#ak"/><linearGradient id="fi" x1="-416.39" y1="1596.96" x2="-416.56" y2="1596.29" gradientTransform="matrix(157.82, 0, 0, -105.86, 66674.92, 169174.39)" xlink:href="#b"/></defs><title>office_analytics</title><path class="a" d="M62.47,542.05q-4.35,56.28,13,80.85c17.35,24.58,52.16,24.42,56-7.25s-21-53.24-33.23-60.58Q86.1,547.73,62.47,542.05Z" transform="translate(-23.35 -68.55)"/><path class="b" d="M111.37,640l-.13,0c-11.93,2.22-26.39-3.84-35.76-17.11a53.08,53.08,0,0,1-3.82-6.29Q98.59,624.47,111.37,640Z" transform="translate(-23.35 -68.55)"/><path class="c" d="M95,554.19l-.38-1.14c1.28.66,2.49,1.34,3.63,2l.74.46c12.42,7.74,36.28,29.08,32.49,60.12-.14,1.17-.33,2.31-.55,3.4Q110.56,600.72,95,554.19l-.38-1.14Z" transform="translate(-23.35 -68.55)"/><path class="d" d="M61.88,542.51Q112,605.24,196.37,775.37a.75.75,0,1,0,1.34-.67Q113.32,604.45,63.05,541.58a.75.75,0,0,0-1.17.93Z" transform="translate(-23.35 -68.55)"/><path class="d" d="M85.32,612.62q16.7,4.27,28.73,8.48a.74.74,0,0,0,1-.46.73.73,0,0,0-.46-.95q-12.09-4.23-28.85-8.52a.75.75,0,0,0-.91.54A.73.73,0,0,0,85.32,612.62Z" transform="translate(-23.35 -68.55)"/><path class="d" d="M101.2,596.94l.47-1.39.45-1.36a113.48,113.48,0,0,0,3.53-12.88.75.75,0,0,0-1.47-.29l-.19.91-.2,1a140.88,140.88,0,0,1-4,13.57.76.76,0,0,0,.47,1A.75.75,0,0,0,101.2,596.94Z" transform="translate(-23.35 -68.55)"/><path class="e" d="M255.49,597.18Q261.28,662,241,690.42c-20.31,28.41-54.86,21.39-63.38,3.82s-8.3-50.31,18.92-73.68Q223.74,597.18,255.49,597.18Z" transform="translate(-23.35 -68.55)"/><path class="d" d="M254.92,596.69q-65.73,75-83.61,173.71a.76.76,0,0,0,.6.88.75.75,0,0,0,.87-.61q17.82-98.32,83.27-173a.75.75,0,1,0-1.13-1Z" transform="translate(-23.35 -68.55)"/><path class="d" d="M196.39,638.78a229.54,229.54,0,0,0,6.57,35,.75.75,0,0,0,1.46-.38,226.81,226.81,0,0,1-6.54-34.79.75.75,0,1,0-1.49.14Z" transform="translate(-23.35 -68.55)"/><path class="d" d="M215.68,653.34a105.28,105.28,0,0,1,28-9.17.75.75,0,0,0-.29-1.47A106.53,106.53,0,0,0,215,652a.75.75,0,0,0,.68,1.34Z" transform="translate(-23.35 -68.55)"/><path class="f" d="M155.85,444.55c6.28,7.81,50.08,67.59,33.44,120.17S126,613.54,109.78,576.43,109.78,473.34,155.85,444.55Z" transform="translate(-23.35 -68.55)"/><path class="d" d="M155.12,444.39Q119,616.32,181,779a.75.75,0,1,0,1.41-.53Q120.58,616.2,156.58,444.7a.75.75,0,1,0-1.46-.31Z" transform="translate(-23.35 -68.55)"/><path class="d" d="M114.37,522.91a219.09,219.09,0,0,0,27.69,31.55.75.75,0,0,0,1.06,0,.75.75,0,0,0,0-1.06A216.58,216.58,0,0,1,115.6,522a.76.76,0,0,0-1.23.88Z" transform="translate(-23.35 -68.55)"/><path class="d" d="M145.41,521.42q8.86-10.5,25.85-25.93a.76.76,0,0,0,.05-1.06.75.75,0,0,0-1.06-.05l-2.15,1.95-1.39,1.29a268,268,0,0,0-22.44,22.84.75.75,0,1,0,1.14,1Z" transform="translate(-23.35 -68.55)"/><path class="g" d="M24.1,627.32q20.43,56.65,50,69.41c29.57,12.75,55.85.07,52.7-23.11s-23.34-39.55-45.95-46.3Q58.22,620.57,24.1,627.32Z" transform="translate(-23.35 -68.55)"/><path class="d" d="M173.35,778.44q-42.53-112.91-149-151.83a.75.75,0,1,0-.51,1.41Q129.67,666.69,172,779a.74.74,0,0,0,1,.44A.75.75,0,0,0,173.35,778.44Z" transform="translate(-23.35 -68.55)"/><path class="d" d="M66.16,631.85a88.91,88.91,0,0,1,6.33,19.23.75.75,0,1,0,1.47-.32,90.32,90.32,0,0,0-6.45-19.56.75.75,0,0,0-1.35.65Z" transform="translate(-23.35 -68.55)"/><path class="d" d="M66.79,676.85l2.41.14a258.11,258.11,0,0,0,36.41-.14.75.75,0,0,0,.68-.82.74.74,0,0,0-.81-.68,262.81,262.81,0,0,1-38.6,0,.74.74,0,0,0-.79.7A.76.76,0,0,0,66.79,676.85Z" transform="translate(-23.35 -68.55)"/><polygon class="h" points="103.23 838.67 70.22 696.6 246.46 696.6 213.44 838.67 103.23 838.67"/><polygon class="i" points="120.9 696.6 138.06 838.67 103.23 838.67 70.22 696.6 120.9 696.6"/><polygon class="j" points="246.46 696.6 237.45 735.39 79.23 735.39 70.22 696.6 246.46 696.6"/><path class="k" d="M1199.19,880.27q17.24-125.16-14.06-102c-31.28,23.15-40.29,11-29.24-37.26s1.93-101.51-21.43-80.39-29.83,15.6-57.81-49.9-35.13,34.85-35.13,68.36,5.84,37.5-16.74,31.17-16,28.52,7.65,51.9,51.72,41.08,37.67,41.08-45.32-8.92-45.32,0,48.61,56.79,104.29,77Z" transform="translate(-23.35 -68.55)"/><path class="l" d="M1185.57,777.94v.58q-1.36,55-18.73,101.75h32.36Q1216.3,756,1185.57,777.94Z" transform="translate(-23.35 -68.55)"/><path class="m" d="M1063.57,634q20.28,157.38,99.85,242.49a1,1,0,1,1-1.46,1.37q-80-85.62-100.38-243.6a1,1,0,0,1,2-.26Z" transform="translate(-23.35 -68.55)"/><path class="m" d="M1130.12,697.21l-2.86,7.67q-17.51,46.77-27.91,71a1,1,0,0,1-1.84-.79l1.47-3.45q11-26,29.27-75.1a1,1,0,1,1,1.87.7Z" transform="translate(-23.35 -68.55)"/><path class="m" d="M1134.25,843.74a605.93,605.93,0,0,1-82.79-25.58,1,1,0,0,1-.56-1.3,1,1,0,0,1,1.3-.56,603.24,603.24,0,0,0,82.51,25.49,1,1,0,0,1-.46,2Z" transform="translate(-23.35 -68.55)"/><path class="n" d="M1208.32,880.3q34.22-104.28,12.09-187.08c-22.12-82.8-46.16-147.82-34.14-206.83s-31.61-41.65-31.61,26.42,33.79,164.28,41.72,195.36,8.84,120.39-24.48,172.13Z" transform="translate(-23.35 -68.55)"/><path class="o" d="M1198.24,717.31l.09.6c5.87,37.11,3.89,115.31-26.43,162.39h36.42q34.22-104.28,12.09-187.08l-.53-2Q1207.73,704.9,1198.24,717.31Z" transform="translate(-23.35 -68.55)"/><path class="p" d="M1262.4,880.27q74.3-59.09,51.42-73.88c-22.88-14.79-13.62-32.57,13.88-56.84s28.92-45.67,14.46-52.69,22-33.63,28.61-55-.26-36.6-28.61-21.34,5.83-59.55-6.83-78.34-51.88,57.55-62.4,83.4S1257.66,614,1248.14,614s-9.44,48.25-4.72,79.22-9.43,34.31-13.83,22.38-17.3-4.14-17.3,14.9,4,36.8,4,54-8.8-2.4-20.25,4.11,4.14,81.36,4.14,91.63Q1219.37,880.3,1262.4,880.27Z" transform="translate(-23.35 -68.55)"/><path class="q" d="M1252.78,785.77q-2.55,53.52-25.11,94.52l34.73,0h0l2.65-2.11h0l11.19-77Z" transform="translate(-23.35 -68.55)"/><path class="r" d="M1314.9,589.4q-63.35,139.49-83.33,287.93a1,1,0,1,1-2-.27q20-148.74,83.49-288.49a1,1,0,0,1,1.82.83Z" transform="translate(-23.35 -68.55)"/><path class="s" d="M1205.58,805.53a237.15,237.15,0,0,0,28.36,47.29,1,1,0,1,1-1.59,1.21,238.67,238.67,0,0,1-28.6-47.7,1,1,0,0,1,.51-1.32A1,1,0,0,1,1205.58,805.53Z" transform="translate(-23.35 -68.55)"/><path class="t" d="M1328.88,717.8,1255,756.56a1,1,0,1,1-.93-1.77L1297.59,732q13.74-7.22,30.36-15.92a1,1,0,0,1,.93,1.77Z" transform="translate(-23.35 -68.55)"/><path class="u" d="M1253.74,638.28l1,3.23.66,2.12q10.08,32,17.8,49.53a1,1,0,1,1-1.83.81l-.51-1.18-.52-1.2q-8.05-18.9-18.51-52.72a1,1,0,0,1,.66-1.25A1,1,0,0,1,1253.74,638.28Z" transform="translate(-23.35 -68.55)"/><path class="v" d="M1249,880.27q13.52-48.74,13.52-94.5,13.11,9.21,31.1,0,.31,59.37-14.05,94.53Z" transform="translate(-23.35 -68.55)"/><path class="w" d="M1262.53,785.77q0,5.79-.21,11.62,9,37.25,25.36,56.08,6.16-28.59,6-67.7Q1275.63,795,1262.53,785.77Z" transform="translate(-23.35 -68.55)"/><path class="x" d="M1262.53,785.77q27.2,54.71,55.84,67.65-20.68-35.34-24.74-67.65a95.61,95.61,0,0,1-15,1.11A116.39,116.39,0,0,1,1262.53,785.77Z" transform="translate(-23.35 -68.55)"/><path class="y" d="M1190.3,187.55q22,91.15,3.61,158.65c-18.39,67.49-91.33,67.32-109.68,25.11s4.31-98.24,38.53-132.68Q1157,204.18,1190.3,187.55Z" transform="translate(-23.35 -68.55)"/><path class="d" d="M1188.59,186.51q-95.52,158.34-95.51,368.56a2,2,0,1,0,4,0q0-209.15,94.93-366.49a2,2,0,1,0-3.42-2.07Z" transform="translate(-23.35 -68.55)"/><path class="d" d="M1102.5,303.61l14.89,51.71a2,2,0,1,0,3.85-1.11l-14.89-51.71a2,2,0,0,0-3.85,1.11Z" transform="translate(-23.35 -68.55)"/><path class="d" d="M1139.25,298.34a240,240,0,0,1,41.92-18.59,2,2,0,1,0-1.25-3.8,243.89,243.89,0,0,0-42.61,18.89,2,2,0,1,0,1.94,3.5Z" transform="translate(-23.35 -68.55)"/><path class="z" d="M937.1,206.36q.51,125.75,51.23,148.41c50.71,22.66,80.45-29.7,51.7-76.92Q1011.28,230.63,937.1,206.36Z" transform="translate(-23.35 -68.55)"/><path class="d" d="M1086.19,541.45q-43-201.41-147.51-336.31a2,2,0,1,0-3.16,2.45q103.92,134.15,146.76,334.7a2,2,0,1,0,3.91-.84Z" transform="translate(-23.35 -68.55)"/><path class="d" d="M977.21,304.81l29.32,16a2,2,0,0,0,1.92-3.52l-29.33-16a2,2,0,0,0-1.91,3.51Z" transform="translate(-23.35 -68.55)"/><path class="d" d="M986.74,241.78a204.9,204.9,0,0,1,0,41.3,2,2,0,1,0,4,.42,209.9,209.9,0,0,0,0-42.1,2,2,0,1,0-4,.38Z" transform="translate(-23.35 -68.55)"/><path class="aa" d="M998.16,434.89q3,30.24,9,46c6.67,17.34,21.72,29.1,35.51,22.24s10.19-28.6-1.81-42.4Q1032.5,451.05,998.16,434.89Z" transform="translate(-23.35 -68.55)"/><path class="d" d="M996.63,436.18q35.43,42.19,59.71,102.19a2,2,0,0,0,3.71-1.5q-24.51-60.56-60.36-103.26a2,2,0,1,0-3.06,2.57Z" transform="translate(-23.35 -68.55)"/><path class="ab" d="M1084.23,901l-4.2,0c-135.66-2.93-110.18-148.33-69-223l1.25-2.25q41.82-73.95-21.07-151l-1.39-1.7H1178.7q-64,77.13-23.37,151.12l.9,1.62c42.28,74.76,69.79,225.34-72,225.34l-4.2,0Z" transform="translate(-23.35 -68.55)"/><path class="ac" d="M1178.7,522.89q-64,77.13-23.37,151.12l.9,1.62c41.86,74,69.23,222.34-67.8,225.3l-4.42,0c106-46.35,53.91-190.23,35.31-252q-16.86-56,14.7-126.08Z" transform="translate(-23.35 -68.55)"/><path class="ad" d="M1005.59,241.55l62,62.69V451.63a10.4,10.4,0,0,1-10.4,10.4H909.54a10.4,10.4,0,0,1-10.4-10.4V252a10.39,10.39,0,0,1,10.4-10.4Z" transform="translate(-23.35 -68.55)"/><path class="ae" d="M1005.59,241.55l62,62.69L932.46,462H909.54a10.4,10.4,0,0,1-10.4-10.4v-85Z" transform="translate(-23.35 -68.55)"/><path class="af" d="M936.58,325.79l93.6,75.92L985.3,462H909.54a10.4,10.4,0,0,1-10.4-10.4V370.51Z" transform="translate(-23.35 -68.55)"/><path class="ag" d="M1005.59,241.55v54.37a8.32,8.32,0,0,0,8.32,8.32h53.71Z" transform="translate(-23.35 -68.55)"/><rect class="ah" x="913.23" y="254.12" width="95.68" height="79.04" rx="4.16"/><rect class="ah" x="913.23" y="254.12" width="95.68" height="79.04" rx="4.16"/><rect class="ah" x="913.23" y="220.84" width="52" height="14.56" rx="2.08"/><rect class="ah" x="975.63" y="343.56" width="33.28" height="10.4" rx="2.08"/><rect class="ah" x="988.11" y="364.36" width="20.8" height="10.4" rx="2.08"/><rect class="ai" x="377.75" width="131.4" height="132" rx="11.4"/><path class="aj" d="M465.9,108.75l23.4,79.16-8.4,12.64H412.5a11.35,11.35,0,0,1-9-4.45Z" transform="translate(-23.35 -68.55)"/><rect class="ak" x="442.55" y="36" width="26.4" height="83.4" rx="2.4"/><path class="al" d="M506.13,103a3,3,0,1,1,5.08,3.2c-3.88,6.15-12.76,12.44-22.18,16.73,0,.34.05.69.05,1a10.2,10.2,0,0,1-17.28,7.34,38.32,38.32,0,0,0-3.05,2.67c-6.07,5.9-10.91,14.62-14.26,27.15h0l-.17.61C448.84,181.54,438,192,422.15,192.28a3,3,0,0,1-.11-6c13.06-.23,21.86-8.87,26.65-26.75h0l.15-.55c3.62-13.25,8.93-22.76,15.73-29.35a43,43,0,0,1,4.31-3.69,10.33,10.33,0,0,1-.2-2,10.21,10.21,0,0,1,18-6.57C495.09,113.49,503,107.91,506.13,103ZM482.81,125.4l-.44.17a53.43,53.43,0,0,0-5.09,2.23,4,4,0,0,0,1.6.32A4.2,4.2,0,0,0,482.81,125.4Zm-3.93-5.68a4.19,4.19,0,0,0-3.83,2.48c1.61-.79,3.33-1.53,5.21-2.25A4.21,4.21,0,0,0,478.88,119.72Z" transform="translate(-23.35 -68.55)"/><rect class="ah" x="390.35" y="13.2" width="43.2" height="12.6"/><rect class="ah" x="390.35" y="33" width="21.6" height="7.2"/><path class="am" d="M506.35,98.57a3,3,0,1,1,5.07,3.2c-3.88,6.16-12.75,12.45-22.18,16.74a8.94,8.94,0,0,1,.06,1A10.2,10.2,0,0,1,472,126.89a35.09,35.09,0,0,0-3,2.67c-6.08,5.89-10.91,14.62-14.27,27.15h0l-.16.6c-5.48,19.86-16.29,30.32-32.18,30.6a3,3,0,1,1-.1-6c13.06-.23,21.86-8.87,26.65-26.75h0l.15-.56c3.62-13.24,8.93-22.75,15.73-29.35a42,42,0,0,1,4.31-3.68,10.4,10.4,0,0,1-.2-2,10.2,10.2,0,0,1,18-6.57C495.31,109.12,503.22,103.53,506.35,98.57ZM483,121l-.45.16a54.53,54.53,0,0,0-5.09,2.24,4.32,4.32,0,0,0,1.61.32A4.21,4.21,0,0,0,483,121Zm-3.93-5.68a4.2,4.2,0,0,0-3.84,2.48c1.62-.8,3.34-1.53,5.21-2.25A4.15,4.15,0,0,0,479.1,115.35Z" transform="translate(-23.35 -68.55)"/><circle class="ah" cx="455.75" cy="51" r="5.4"/><rect class="an" x="429.75" y="187.5" width="397.5" height="303" rx="9"/><path class="ao" d="M687.28,357.22l12.17,5.71c-4.54,2.2-9.67,4.77-15.74,7.85l-1,.51c-19.46,9.87-29,14.3-41.15,18.73a162.09,162.09,0,0,1-48.71,10,237.47,237.47,0,0,1-68.61-7.13l8-8.9a224.7,224.7,0,0,0,60.12,5.54A151.87,151.87,0,0,0,638,380.15c11.67-4.24,20.89-8.55,40-18.23l1-.51Zm-169.67,23-7.81,8.63a331.71,331.71,0,0,1-56.7-23.7v-11.9A321.07,321.07,0,0,0,517.61,380.24ZM778.14,332q16.67,0,32.33,1.33l-8.83,9.88q-11.48-.72-23.5-.71a152.66,152.66,0,0,0-50.95,8.72c-5.45,1.88-10.35,3.78-15.79,6.16l-11.93-6.1a226.09,226.09,0,0,1,24.29-10A163.12,163.12,0,0,1,778.14,332Zm50.21,3.33q11.4,1.59,22.25,4V350a293.08,293.08,0,0,0-30.88-5.23Z" transform="translate(-23.35 -68.55)"/><path class="ap" d="M850.6,302v11.09a66,66,0,0,0-11,5.27c-7.83,4.63-14.58,10.11-26.2,20.7l-1.75,1.6-1.76,1.61c-13.58,12.41-20.92,18.42-30.4,24-12.61,7.47-25.58,11.36-40.12,11.36A112,112,0,0,1,700,370.71c-9.59-3.51-17.58-7.6-30.22-14.95l-4.62-2.69-4.54-2.63c-18.77-10.73-31.07-15.15-46.88-15.15-29.2,0-50,9.64-75,31.95-6.79,6-7.6,6.83-26.35,25.25s-38.77,26.64-59.25,24V405.85c17.66,2.77,34.8-4.07,51.89-20.85,18.93-18.6,19.75-19.39,26.73-25.61,26.85-23.88,49.94-34.6,82-34.6,18,0,31.88,5,52.09,16.54,1.37.78,2.77,1.59,4.62,2.67l4.6,2.68c25.41,14.77,41,20.47,64.37,20.47,12.56,0,23.72-3.35,34.78-9.89,8.66-5.13,15.59-10.8,28.66-22.74l1.76-1.61,1.76-1.61c12.12-11.05,19.3-16.88,27.93-22A75,75,0,0,1,850.6,302Z" transform="translate(-23.35 -68.55)"/><path class="ah" d="M615.1,332.55v10.5h3v-10.5Zm0,16.5v10.5h3v-10.5Zm0,16.5v10.5h3v-10.5Zm0,16.5v10.5h3v-10.5Zm0,16.5v10.5h3v-10.5Zm0,16.5v10.5h3v-10.5Zm0,16.5v10.5h3v-10.5Z" transform="translate(-23.35 -68.55)"/><path class="ah" d="M747.1,335.55v10.5h3v-10.5Zm0,16.5v10.5h3v-10.5Zm0,16.5v10.5h3v-10.5Zm0,16.5v10.5h3v-10.5Zm0,16.5v10.5h3v-10.5Zm0,16.5v10.5h3v-10.5Zm0,16.5v10.5h3v-10.5Z" transform="translate(-23.35 -68.55)"/><circle class="ah" cx="593.25" cy="261" r="12"/><circle class="ah" cx="725.25" cy="270" r="12"/><path class="aq" d="M850.6,439.05v111a9,9,0,0,1-9,9H462.1a9,9,0,0,1-9-9v-111Z" transform="translate(-23.35 -68.55)"/><path class="ar" d="M708.1,472.05l142.5,14.69v63.31a9,9,0,0,1-8.94,9H578.47Z" transform="translate(-23.35 -68.55)"/><path class="as" d="M535.05,466.05l20.59,12,9.75,25.5-16.25,31-41.5,24.5H462.1a9,9,0,0,1-9-9v-52l45.23-28.28,14.1-3.75Z" transform="translate(-23.35 -68.55)"/><path class="at" d="M526.6,457.05a42,42,0,1,1-42,42A42,42,0,0,1,526.6,457.05Zm0,15a27,27,0,1,0,27,27A27,27,0,0,0,526.6,472.05Z" transform="translate(-23.35 -68.55)"/><path class="ah" d="M526.6,457.05a42,42,0,0,1,42,42h-15a27,27,0,0,0-27-27Z" transform="translate(-23.35 -68.55)"/><rect class="ah" x="569.25" y="393" width="73.5" height="16.5" rx="3"/><rect class="ah" x="569.25" y="418.5" width="52.5" height="16.5" rx="3"/><rect class="au" x="684.75" y="397.5" width="189" height="49.5" rx="4.5"/><path class="ah" d="M481.6,277.05h16.49a4.5,4.5,0,0,1,4.5,4.5v18.64a4.5,4.5,0,0,1-4.5,4.5H481.6a4.49,4.49,0,0,1-4.5-4.5V281.55A4.49,4.49,0,0,1,481.6,277.05Z" transform="translate(-23.35 -68.55)"/><path class="av" d="M520.6,277.05H636.34a4.49,4.49,0,0,1,4.5,4.5v18.64a4.49,4.49,0,0,1-4.5,4.5H520.6a4.49,4.49,0,0,1-4.5-4.5V281.55A4.49,4.49,0,0,1,520.6,277.05Z" transform="translate(-23.35 -68.55)"/><path class="aw" d="M697.6,218.55a12,12,0,1,1-11.62,15H622.6v-4.5h63.09A12,12,0,0,1,697.6,218.55Z" transform="translate(-23.35 -68.55)"/><path class="ax" d="M622.6,218.55a12,12,0,1,1-10.4,18H558a12,12,0,1,1,.73-10.5h52.75A12,12,0,0,1,622.6,218.55Z" transform="translate(-23.35 -68.55)"/><path class="ay" d="M738.1,209.55h98.74a4.49,4.49,0,0,1,4.5,4.5v28.07a4.49,4.49,0,0,1-4.5,4.5H738.1a4.49,4.49,0,0,1-4.5-4.5V214.05A4.49,4.49,0,0,1,738.1,209.55Z" transform="translate(-23.35 -68.55)"/><rect class="az" x="86.75" y="56" width="242.4" height="293.4"/><rect class="ba" x="98.75" y="68.6" width="219" height="268.2"/><polygon class="bb" points="98.75 137.72 259.94 137.72 259.94 97.41 317.75 97.41 317.75 336.8 98.75 336.8 98.75 137.72"/><polygon class="bc" points="98.75 232.73 159.74 232.73 159.74 163.18 249.01 163.18 249.01 276.81 317.75 276.81 317.75 336.8 98.75 336.8 98.75 232.73"/><rect class="bd" x="219.95" y="179.6" width="12.6" height="29.4"/><rect class="be" x="279.35" y="117.8" width="12.6" height="29.4"/><rect class="bf" x="296.15" y="173.6" width="12.6" height="29.4"/><rect class="bg" x="219.95" y="245.6" width="12.6" height="29.4"/><rect class="bh" x="176.15" y="228.8" width="12.6" height="29.4"/><path class="bi" d="M312.93,137.15,125.14,405.35h-3V378.3L291,137.15Zm28.17,0V207.8L202.78,405.34H145.64l187.8-268.19Z" transform="translate(-23.35 -68.55)"/><polygon class="bj" points="239.85 68.6 98.75 271.55 98.75 189.95 183.72 68.6 239.85 68.6"/><path class="bk" d="M376.12,461.82q3.75-3.54,15.13-4.07t15.65,3.08l-.32,6.83-5.37,6.41-20.51-1.7L377.4,465Z" transform="translate(-23.35 -68.55)"/><path class="bl" d="M371.13,881.06h7.46q3.42-23.59,1.71-30.15T372,864.72Z" transform="translate(-23.35 -68.55)"/><path class="bm" d="M537.8,416.87q16.14,2.75,16.14,4.3c0,1.55-3.46,13-4.59,14.12q-1.12,1.14-12.68,3.11l-8-10.77Z" transform="translate(-23.35 -68.55)"/><path class="bn" d="M517,441.25q10.11-19.75,14.23-23.76c4.11-4,20.67-14.82,23-16.78s3.58,3-.94,7.46-14.89,11-16.62,14.47-.35,4.33,1.9,3.89,7.76-5.83,11.71-7.44,4,2,0,6.64-9.42,13.84-13.61,17.23A42.8,42.8,0,0,1,526.08,449Z" transform="translate(-23.35 -68.55)"/><path class="bo" d="M427.19,503.22q39.24,2.7,52.62,2.69c13.39,0,19.87-9.81,26.59-20.68q6.74-10.89,24.83-37.63l-13.74-12.31L476.86,476q-60.42-8.37-73.55-8.37T427.19,503.22Z" transform="translate(-23.35 -68.55)"/><path class="ah" d="M517.49,435.29l13.74,12.31-4.54,6.71-4.14,6.17-11.83-18.4Z" transform="translate(-23.35 -68.55)"/><circle class="bp" cx="494.88" cy="375.06" r="2.65"/><path class="bq" d="M412.92,474.07c12.5,7.18,25.31,13.87,31.13,20.08,8.72,9.32,25.29-1.14,37.79,1.46q7.53,1.58,11.69,5.78a21.94,21.94,0,0,1-13.72,4.52h-1.14q-13.86-.11-51.48-2.69l-1.35-1.31q-20.1-19.43-24.63-27.84Z" transform="translate(-23.35 -68.55)"/><path class="br" d="M415,760.23c-3.36-15.9,0-29.87,0-40.09,0-1.73-.12-4-.35-6.63h35.17l.42,3.45.42,3.63c.11.94.22,1.9.33,2.91l.11,1c2,18.53,3.14,39.72,3.21,56.42v1.55c0,10.66,4,48.67,8,57.95,6.32,14.54,22,26.6,27.12,30q5,3.3,3.41,10.18l-.11.44H461.48l-12.59-21.73L446,881.06H440.6l-.16-1.6q-1.65-15.76-4.53-22.23l-.14-.32c-3.06-6.55-3.24-13.35-1.07-16.29l.15-.19q2.23-2.71,1.75-8.89l-.05-.52L430,810.36Q416.48,767.27,415,760.23Z" transform="translate(-23.35 -68.55)"/><path class="bs" d="M449.81,713.51l.42,3.45.42,3.63c.05.4.1.81.14,1.23l-36.38,7.85.18-2c.23-2.67.4-5.18.4-7.49,0-1.73-.12-4-.35-6.63Z" transform="translate(-23.35 -68.55)"/><path class="bt" d="M445.63,841.09l1.57,1.71c6.71,7.37,20.32,22.39,28.33,22.39a6.12,6.12,0,0,0,4.79-1.88l.91.79a90.44,90.44,0,0,0,8.22,6.34q5,3.3,3.41,10.18l-.11.44H461.48l-12.59-21.73L446,881.06H440.6l-.16-1.6q-1.65-15.76-4.53-22.23l-.14-.32c-3.06-6.55-3.24-13.35-1.07-16.29l.15-.19q1.78-2.17,1.83-6.57A33.66,33.66,0,0,1,445.63,841.09Z" transform="translate(-23.35 -68.55)"/><path class="bu" d="M492.86,880.62l-.11.44H461.48l-2.8-4.84h34.47A12.77,12.77,0,0,1,492.86,880.62Z" transform="translate(-23.35 -68.55)"/><path class="bv" d="M356.07,821.92l-.51-4.27c-5.37-45.43-8.68-74.22-7.34-86l.2-1.77c1-8.07,1.92-12.31,2.66-16.33h39.78c-.17,2.72-.26,5.54-.29,8.64v2.36c0,18.51-11.61,87.07-12.46,96.79a70.7,70.7,0,0,0,1.24,20.26q1.64,8.33.47,10.91l-.07.15c-1.95,3.78-2.79,11.46-4.2,18.52q-1.35,6.76-4.17,9.67l-.24.25H347.82a9.78,9.78,0,0,1-2.29-6.78c0-4.21,4-10.08,8.57-20.17a39.43,39.43,0,0,0,3.38-14Q357.63,837.48,356.07,821.92Z" transform="translate(-23.35 -68.55)"/><path class="bw" d="M390.86,713.51c-.12,1.78-.19,3.61-.24,5.52l-41.85,8.08c.85-6.35,1.66-10.06,2.31-13.6Z" transform="translate(-23.35 -68.55)"/><path class="bx" d="M379.2,840.87l.14.69q1.64,8.33.47,10.91l-.07.15c-1.95,3.78-2.79,11.46-4.2,18.52q-1.35,6.76-4.17,9.67l-.24.25H347.82a9.78,9.78,0,0,1-2.29-6.78c0-4.21,4-10.08,8.57-20.17.49-1.08.92-2.17,1.31-3.29l-.06,1.06q-.51,10.47,2.08,12c3.44,2,10.12-6.46,13.31-13.28l.15-.33q2.89-6.37,7.18-17.48a74.84,74.84,0,0,0,1.13,8.1Z" transform="translate(-23.35 -68.55)"/><path class="by" d="M371.37,880.81l-.24.25H347.82a9,9,0,0,1-2.16-4.83h28.45A13.44,13.44,0,0,1,371.37,880.81Z" transform="translate(-23.35 -68.55)"/><path class="bz" d="M380.7,452.41q1.73,14.68-.74,17.42T372.49,473q15.79,10.29,28.86,9.86c13.06-.44,8.38-11.25,5-13.07s-4.91-2.93-4.91-7.17V452.54Z" transform="translate(-23.35 -68.55)"/><path class="ca" d="M401.21,466.71l-.21,1c8.78.14,14.75,6.55,17.73,10.51,12.32,16.38,15.08,24.2,16.37,35.06,1,8.34-2.78,25.62-5.33,34-.77,2.55,5.76,32.5,5.39,33.31l-.06.14c-.3.87-1.24,4.26-4.05,5.24-5.28,1.83-14.27,3.47-24.06,4.3l-2.27-21.09q-7.08-66.3-7.08-75.36a124.39,124.39,0,0,1,3.11-25l.25-1.18Z" transform="translate(-23.35 -68.55)"/><path class="cb" d="M429.77,547.28c-.77,2.55,5.76,32.5,5.39,33.31l-.06.14-.18.55c-.42,1.2-1.35,3.52-3.42,4.5,1.16-23.1-7.38-22.42-9-22.42q-1.55,0,5.87-13.51Z" transform="translate(-23.35 -68.55)"/><path class="cc" d="M403.13,496A89.87,89.87,0,0,1,412,534.19l0,5.26q.17,18.94.93,50.21l-6-.37-2.17-20.11-2-18.58Q401,533.89,399.86,522Z" transform="translate(-23.35 -68.55)"/><path class="cd" d="M384.05,473l8.58-2.91,1,1.9q15.47,30.64,16.42,45.33c1,14.56-1.17,49,2.9,72.3-12.2,1.48-26.79,1.79-37.22-.45A10.7,10.7,0,0,1,370,586c-2.1-2.68-3.87-6.49-3.87-8.39v-.44c.09-5,1.47-23.4,1.06-24.61l-.25-.79c-3.18-10-19.6-66.61-13.13-71.08q6.42-4.46,17.82-7.41l.85-.21Z" transform="translate(-23.35 -68.55)"/><path class="ce" d="M401.21,542q13.59-17.44,21.68-22.33c8.09-4.88-3.6,16-16.31,25.67Q393.88,555,401.21,542Z" transform="translate(-23.35 -68.55)"/><path class="cf" d="M364.85,497.39a52.67,52.67,0,0,1,5.25,12.83l.26,1.14c1.24,5.29,1.86,1.35,6.36-5.45l.39-.57c3.89-5.54-1.85,8.71-4.32,18.24s-1.17,23.68,7.38,31.08l.41.35c8.73,7.16,15.45,24.33.94,35.15-2-.24-4-.56-5.82-.95A10.7,10.7,0,0,1,370,586c-2.1-2.68-3.87-6.49-3.87-8.39v-.44c.09-5,1.47-23.4,1.06-24.61l-.43-1.34c-2.13-6.78-8.63-29.15-12.14-47Z" transform="translate(-23.35 -68.55)"/><path class="cg" d="M444.75,655.67l.54,8.54c1.82,27.75,3.13,37.88,4.52,49.3H351.08l.18-1c.77-4.41,1.28-8.9,1.28-18.28V692.8c-.19-19.48-3.89-53.58,3.37-77.33l.5-1.63A107.29,107.29,0,0,1,370,586h61l.36,1.37C435,601,442.54,622.45,444.75,655.67Z" transform="translate(-23.35 -68.55)"/><path class="ch" d="M444.75,655.67l.54,8.54c1.82,27.75,3.13,37.88,4.52,49.31h-8q1.44-45.06-4.57-105.14l.4,1.61A257.45,257.45,0,0,1,444.75,655.67Z" transform="translate(-23.35 -68.55)"/><path class="ci" d="M371.57,637.79l1.12,5c5.27,23.68,10.26,49.46,3.55,70.76H351.08l.18-1,.22-1.33a100.38,100.38,0,0,0,1.06-17V692.8c-.19-19.48-3.89-53.58,3.37-77.33l.5-1.63A107.29,107.29,0,0,1,370,586h9.74Q365.77,612,371.57,637.79Z" transform="translate(-23.35 -68.55)"/><path class="cj" d="M380.7,452.41l20.78.13v6.09q-8.91,9.56-20.74,9.75Q382.1,464.35,380.7,452.41Z" transform="translate(-23.35 -68.55)"/><path class="ck" d="M379.56,398.92q-1.17-15.36,8.85-24.59c10-9.23,30.26-11.86,40.6-4.63s9.24,27.1,0,37.55-17.94,9.4-22.58,9.4Q401.79,416.65,379.56,398.92Z" transform="translate(-23.35 -68.55)"/><path class="cl" d="M414.28,365.55l-.06,0q-11,4.56-12.43,14C400,391.72,417.46,390,422.57,412.91c-6.7,4.35-12.6,3.74-16.14,3.74q-4.64,0-26.87-17.73-1.17-15.36,8.85-24.59C394.67,368.56,404.94,365.36,414.28,365.55Z" transform="translate(-23.35 -68.55)"/><path class="cm" d="M382,396A18.77,18.77,0,0,1,399,393.26c9,2.74,15.85,5.69,15.85,14.58Q414.81,416.74,382,396Z" transform="translate(-23.35 -68.55)"/><path class="cn" d="M397.35,397.15q-7.16-5.07-7.16-19.16c5.43,5.77,8.61,3,12.81,6.28q4.22,3.3,0,15.24Z" transform="translate(-23.35 -68.55)"/><path class="co" d="M390.19,378a15.08,15.08,0,0,0,3.16,2.64c.19,4.88,2.49,10.64,5.08,9.88a11.79,11.79,0,0,1,6.64.25,34.26,34.26,0,0,1-2.07,8.75l-5.65-2.36Q390.19,392.08,390.19,378Z" transform="translate(-23.35 -68.55)"/><path class="cp" d="M407.15,401.31q8.1,3.39,20-4.08c-7.77-1.55-7.08-5.72-12.11-7.54q-5-1.81-12.92,8.08Z" transform="translate(-23.35 -68.55)"/><path class="cq" d="M413,397.53l.12.41a7.55,7.55,0,0,0,2.57,4.14,15.07,15.07,0,0,1-8.1-.59l-.46-.18-5-3.54a31.65,31.65,0,0,1,7-6.85,18.2,18.2,0,0,1,3.88,6.61Z" transform="translate(-23.35 -68.55)"/><path class="cr" d="M394.38,396.79q4.64-4.44,8.93-4.44c4.3,0,7.65,6.53,4.89,10.17Q405.44,406.17,394.38,396.79Z" transform="translate(-23.35 -68.55)"/><path class="cs" d="M412.86,432.29q5.82-17.67,2.52-25.18t-10.73-7.45q-5.28-4.61-15.44-5.6c-10.15-1-21.21,8.28-23.09,16.53q-1.89,8.25,2.35,21.7Z" transform="translate(-23.35 -68.55)"/><path class="ct" d="M366,411.08l.11-.49c1.88-8.25,12.94-17.53,23.09-16.53a42.81,42.81,0,0,1,5.19.81q-20,9.54-18.33,33.26l.05.64L374,432.29h-5.5q-4.11-13.05-2.46-21.21l.11-.49Z" transform="translate(-23.35 -68.55)"/><path class="cu" d="M369.76,427.62c-1.68-2.22-3.75-2.66-6.23-1.33-3.72,2-2.31,15.29,8.63,15.29Q383.11,441.58,369.76,427.62Z" transform="translate(-23.35 -68.55)"/><path class="cv" d="M410.64,427.62q2.52-3.33,6.24-1.33c3.72,2,2.31,15.29-8.63,15.29Q397.3,441.58,410.64,427.62Z" transform="translate(-23.35 -68.55)"/><path class="cw" d="M369.4,426.85q.47,17.36,7.94,26.1c7.49,8.73,12.72,9.85,16.77,8.28s7.17-5.18,10.49-10.11S411,430.26,411,426.85,404.5,415,402.3,413.8s-7.82,4.06-15.17,0Q381.88,423.22,369.4,426.85Z" transform="translate(-23.35 -68.55)"/><path class="cx" d="M380,441.58c0,6.19,5.76,11.39,8,19.72-3-1-6.43-3.49-10.6-8.35q-7.47-8.74-7.94-26.1a35.4,35.4,0,0,0,8.68-3.74l.33,2.29A131.75,131.75,0,0,1,380,441.58Z" transform="translate(-23.35 -68.55)"/><path class="cy" d="M380.84,429.76c1.14,0,2.06,1.23,2.06,2.75s-.92,2.75-2.06,2.75-2.07-1.23-2.07-2.75S379.7,429.76,380.84,429.76Z" transform="translate(-23.35 -68.55)"/><path class="cy" d="M400,429.76c1.14,0,2.06,1.23,2.06,2.75s-.92,2.75-2.06,2.75-2.07-1.23-2.07-2.75S398.81,429.76,400,429.76Z" transform="translate(-23.35 -68.55)"/><path class="cy" d="M375.09,427.24q3.6-2.44,10-2.05a.69.69,0,0,0,.09-1.37q-6.78-.45-10.81,2.28a.67.67,0,0,0-.18.95A.68.68,0,0,0,375.09,427.24Z" transform="translate(-23.35 -68.55)"/><path class="cy" d="M407.19,427.73c-2.4-1.63-5.71-2.32-9.95-2a.69.69,0,0,1-.09-1.37c4.52-.3,8.13.45,10.81,2.28a.68.68,0,1,1-.77,1.13Z" transform="translate(-23.35 -68.55)"/><path class="cy" d="M389.9,434.91a38.58,38.58,0,0,0,2,6.95l.24.59c.76,1.78.27,2.54-1.75,2.62a.49.49,0,0,0-.46.5.47.47,0,0,0,.5.46c2.59-.11,3.57-1.46,2.69-3.73l-.09-.23a35.91,35.91,0,0,1-2.14-7.34.49.49,0,0,0-.57-.38A.48.48,0,0,0,389.9,434.91Z" transform="translate(-23.35 -68.55)"/><path class="cz" d="M388.18,457c.09.55,3.15,1.18,4.86,1.37s.9-1.47-.41-2.36S388.08,456.49,388.18,457Z" transform="translate(-23.35 -68.55)"/><path class="cy" d="M384.59,448.46q7.91,1.53,13.23,0c-2.34,4-5.32,4.67-8.53,4A6.66,6.66,0,0,1,384.59,448.46Z" transform="translate(-23.35 -68.55)"/><path class="da" d="M370.26,556.59q-3.43-37-3.43-52.09t-13-23.84Q347,485,343.59,496c-3.41,11.06-1.45,41.1,1.39,55.28s10.34,15.82,14.1,15Q362.86,565.5,370.26,556.59Z" transform="translate(-23.35 -68.55)"/><path class="db" d="M341.9,508.88q10.53,10.89,12.32,19.84l.09.48a15.23,15.23,0,0,0,14.61,12.17l.24,2.88q.49,5.82,1.1,12.34l-.81,1q-6.81,8-10.37,8.78c-3.76.81-11.26-.82-14.1-15-2-10-3.56-27.78-3.12-41.32Z" transform="translate(-23.35 -68.55)"/><path class="dc" d="M335.58,551.32q1.86,12.58,8.34,18.85c6.48,6.26,21.2,3.67,24.37,0s4.35-16,2.17-18.85S350.93,537,347.82,536.18s-7.77,2.88-10,5.92C336.32,544.12,335.58,547.2,335.58,551.32Z" transform="translate(-23.35 -68.55)"/><path class="ah" d="M337.81,542.1c2.24-3,6.89-6.7,10-5.92a40.52,40.52,0,0,1,7.15,3.87q5.4,8.67,1.34,16.8c-3.44,6.88-10.66,8.7-16.21,8.42a38.24,38.24,0,0,1-4.52-13.95C335.58,547.2,336.32,544.12,337.81,542.1Z" transform="translate(-23.35 -68.55)"/><path class="dd" d="M344.36,530.54q-10.19-15.19-12.66-18.38c-2.47-3.19-5.07-2.93-5.07.71s8.89,17,8,20.1-10,9.27-10,11.23,12,11.28,15.08,12.45,12.55-3,12.55-6.72-1.55-13.49-.77-20.5,3.73-12.34,0-13.73Q347.82,514.3,344.36,530.54Z" transform="translate(-23.35 -68.55)"/><path class="de" d="M334.31,530.51l.29.34h0q11.65,14.1,1.67,23.73l-.59-.41c-4.64-3.24-11-8.55-11-10,0-2,9.1-8.13,10-11.23A4.78,4.78,0,0,0,334.31,530.51Z" transform="translate(-23.35 -68.55)"/><path class="df" d="M322.44,545.77a17.38,17.38,0,0,0,11.4,2c6.48-.87,5.71-8.43,3.35-13.23s-4-6.43-6.4-6.43-3.85,1.78-6.1,6.43-3.59,7.86-3.59,9.11A2.46,2.46,0,0,0,322.44,545.77Z" transform="translate(-23.35 -68.55)"/><polygon class="ah" points="352.77 393.28 349.62 402.06 363.77 414.37 368.79 400.63 352.77 393.28"/><path class="ah" d="M401.21,467.66l5.69,11.41q5.06-8,5.06-8.47t-5.06-9.77Z" transform="translate(-23.35 -68.55)"/><path class="dg" d="M400.45,680.89q5.42-29.16,16-51.87c10.6-22.69-3,30.65-11.86,51.87Q395.71,702.12,400.45,680.89Z" transform="translate(-23.35 -68.55)"/><rect class="dh" x="875.75" y="417" width="148.8" height="148.8" rx="8.8"/><path class="di" d="M979.1,496l40,28,13.24,8.49-3.21,5.91-1.75,43.34-2.4,2-6.74,4.72-3.9,9.65-31.1,36.28H907.9a8.8,8.8,0,0,1-8.8-8.8v-68l38.09-39.34L973.5,504Z" transform="translate(-23.35 -68.55)"/><path class="dj" d="M973.5,504v56L1025,583.7A56,56,0,1,1,973.37,504Z" transform="translate(-23.35 -68.55)"/><path class="dk" d="M979.9,496a56,56,0,0,1,52.48,36.4L979.1,552V496Z" transform="translate(-23.35 -68.55)"/><path class="ah" d="M1029.17,538.35a56.09,56.09,0,0,1-1.75,43.34L975.9,557.94Z" transform="translate(-23.35 -68.55)"/><polygon class="dl" points="284.75 607 942.05 607 942.05 618.76 284.75 618.76 284.75 607"/><polygon class="dm" points="284.75 623.8 942.05 623.8 942.05 813.64 284.75 813.64 284.75 623.8"/><rect class="dn" x="298.75" y="618.76" width="23.52" height="5.04"/><rect class="do" x="298.75" y="813.64" width="23.52" height="16.24"/><rect class="dp" x="904.53" y="813.64" width="23.52" height="16.24"/><rect class="dq" x="904.53" y="618.76" width="23.52" height="5.04"/><path class="dr" d="M187.26,587.59q2.94,18.76,13.08,18.77t18.56-20Z" transform="translate(-23.35 -68.55)"/><path class="ds" d="M185.57,517.76l15.24,28,27,44.6v.12a2.65,2.65,0,0,1-2.65,2.66H186.2a2.88,2.88,0,0,1-.59-.07c-1.43-.33-1.8-1.67-2-3.18-5.13-39.53-7-44.11-5.13-55.74S182.09,519.5,185.57,517.76Z" transform="translate(-23.35 -68.55)"/><path class="ah" d="M193.14,512.4Q187,514,185,515.92c-2.1,2-12.85,34.58,13.54,58.06Q224.88,597.45,193.14,512.4Z" transform="translate(-23.35 -68.55)"/><path class="dt" d="M200,773.93q-6.87,24.17-5.62,52.9t0,85.62l24.48-1.59L233,773.93Z" transform="translate(-23.35 -68.55)"/><polygon class="du" points="204.5 755.34 195.55 842.31 187.58 842.83 204.5 755.34"/><path class="dv" d="M233,773.93l-1.43,14q-21.33,2.21-24.46,19.77l-.12.73q-2.94,18.47-.45,103.28l-12.11.79.17-8.48q1-49.2-.11-75.66l-.06-1.48q-1.23-28,5.26-51.63l.36-1.27Z" transform="translate(-23.35 -68.55)"/><path class="dw" d="M261.48,776.94a178.26,178.26,0,0,0,4.46,61.64q7.53,29.24,14.91,74.13l23.46-2.81-11.63-133Z" transform="translate(-23.35 -68.55)"/><polygon class="dx" points="273.28 842.27 270.56 722.42 280.97 841.35 273.28 842.27"/><path class="dy" d="M292.68,776.94l1.22,14q-17,6.85-17,23.83c0,16.53,14.81,76.35,16.05,96.47l-12.06,1.45-.82-4.94q-7-41.58-14.09-69.19a177.81,177.81,0,0,1-4.59-60.17l.13-1.47Z" transform="translate(-23.35 -68.55)"/><path class="dz" d="M203.8,643.47Q191,720.57,187.26,781.82h63.27q-2.35-106.7-10.2-138.35T203.8,643.47Z" transform="translate(-23.35 -68.55)"/><path class="ea" d="M243.42,660.33q5.25,37.49,7.11,121.49H221q5.13-68,17.23-106,2.72-8.53,5.1-15.14Z" transform="translate(-23.35 -68.55)"/><path class="dz" d="M227.57,630.58q3.26,58.33,8,88.36t7.51,62.88h61.22q-16.53-109.44-27.45-138.35T227.57,630.58Z" transform="translate(-23.35 -68.55)"/><path class="eb" d="M263.42,627.37a23.5,23.5,0,0,1,7.44,5.7q7.47,57,9.3,80.16c.18,2.23.68,8.72.76,9.67.24,3.11.41,5.17.58,6.91.59,6.05,1.12,8.24,2.4,10.33a37,37,0,0,0,2.6,3.55,10.27,10.27,0,0,1,2.2,6.63c0,1.65,0,2-.75,6.32-1.46,8.92-.73,15.5,4.73,25.18h-7.51c-4.7-9.51-5.29-17-3.76-26.25.9-5.51.89-6.49-.12-7.78a40.89,40.89,0,0,1-3.05-4.19c-1.93-3.15-2.66-6.18-3.34-13.15-.17-1.79-.35-3.89-.6-7-.07-.95-.57-7.45-.75-9.67q-1.91-24.12-10-85.54Z" transform="translate(-23.35 -68.55)"/><polygon class="ah" points="180.46 569.25 180.46 574.92 253.51 574.92 252.85 569.25 243.96 562.04 180.46 569.25"/><path class="ec" d="M268.31,460.8c-1.12,3.17-3.42,6.53-2.27,9.16s6.15,2.94,3.89,6.57-8.16,19.59-11.86,18.46-10.83-5.11-11.87-3.49q-1,1.62-3.79,24.42l-27.79-5.71q8.52-30.18,7.3-37c-1.23-6.8-11-29.16,2.87-40.22s26.27-6.5,34.89,1.08S269.42,457.62,268.31,460.8Z" transform="translate(-23.35 -68.55)"/><path class="ed" d="M239.15,486.7l8.86,4.51c-.89-.17-1.55-.12-1.81.29s-.73,2.32-1.25,5.53a22.36,22.36,0,0,1-5.66-9.77Z" transform="translate(-23.35 -68.55)"/><path class="ee" d="M262.7,460.82c1,.11,1.73,1.6,1.55,3.34s-1.17,3-2.21,2.93-1.73-1.6-1.55-3.33S261.66,460.71,262.7,460.82Z" transform="translate(-23.35 -68.55)"/><path class="ee" d="M256.13,459.65A12.27,12.27,0,0,1,267,456a.62.62,0,0,0,.71-.54.64.64,0,0,0-.55-.71,13.49,13.49,0,0,0-11.88,4,.62.62,0,0,0,0,.89A.63.63,0,0,0,256.13,459.65Z" transform="translate(-23.35 -68.55)"/><path class="ef" d="M263.59,483.34c-2.18-.09-4.4-1.44-6.65-4.12a.63.63,0,1,0-1,.81c2.46,2.93,5,4.47,7.58,4.57a.63.63,0,0,0,0-1.26Z" transform="translate(-23.35 -68.55)"/><path class="eg" d="M254.69,442.33a27.37,27.37,0,0,1-.95,8.18,23.37,23.37,0,0,1-3.21,6.89,1.41,1.41,0,0,1-.44.4,1.32,1.32,0,0,1-1.81-.48,5,5,0,0,0-4.45-2.79c-3.7,0-6.45,6.38-4.74,11.7s5.34,4.93,6.43,4.93-1.09,7.93-4.54,11.65-8.81,2.66-15.9,1.5-11-5.12-14.61-20.35-2.13-23.14,1.37-29.9,15.24-9.61,16.43-9.61,1.5-2.85,7.15-5.28,23,2.43,29,10.76,7.12,23.64,3.46,21.78C265.4,450.48,263.18,446.07,254.69,442.33Z" transform="translate(-23.35 -68.55)"/><path class="eh" d="M264.38,429.93c6,8.32,7.12,23.64,3.46,21.78a4.28,4.28,0,0,1-.57-.34,54.61,54.61,0,0,0-9.47-27.18A22,22,0,0,1,264.38,429.93Z" transform="translate(-23.35 -68.55)"/><path class="ei" d="M245.39,419.29l-1.24.37q-10.68,3.34-11.58,6.74c-1,4,15.44,10.52,15.44,10.52l-3.87-.79c-3.83-.76-9.32-1.8-10.6-1.8-1.94,0-8.92,17.29,5,28.38a11.21,11.21,0,0,0,.52,3.52c1.72,5.33,5.34,4.93,6.43,4.93s-1.09,7.93-4.54,11.65c-3.14,3.4-7.85,2.82-14,1.81l-1.89-.31c-7-1.14-10.87-5-14.46-19.74l-.15-.61c-3.63-15.24-2.13-23.14,1.37-29.9s14.82-9.51,16.36-9.61h.07c1.2,0,1.5-2.85,7.15-5.28C237.52,418.27,241.24,418.37,245.39,419.29Z" transform="translate(-23.35 -68.55)"/><path class="ej" d="M206.26,512.12q3.57-15.81,6.59-18.55c3-2.74,15.09-2.74,24.94,0s21.17,12.05,22.92,22.88S245,531.69,230.42,530Q215.89,528.38,206.26,512.12Z" transform="translate(-23.35 -68.55)"/><path class="ah" d="M198.49,509.67q8.81-12.53,29.14-11.41c20.33,1.12,30.69,10.78,36.5,15.34Q269.92,518.16,198.49,509.67Z" transform="translate(-23.35 -68.55)"/><path class="ek" d="M292.46,601.45a59.87,59.87,0,0,1,13.2,6.25c4.58,3.14,7.37,4.4,9.28,4.26s.16-.8,3.1-.21,5.77-.37,5.66-1.93q-.1-1.55-16.75-11.74Z" transform="translate(-23.35 -68.55)"/><path class="el" d="M277.46,604q15,8.1,20.34,10.36c5.37,2.26,9,1.86,8.07-.56s-6.58-5.42-9.27-7-3-4.65,2.07-5,11.28,2.44,15.18,3.8,7.65,5.22,9.82,5.07,3.69-2-1.63-6.59a70.82,70.82,0,0,0-15.66-9.89c-3.22-1.39-15.95-6.12-21.9-6.84a23.13,23.13,0,0,0-10.17.71Z" transform="translate(-23.35 -68.55)"/><path class="em" d="M281.62,474.71l.23-.77c1.34-4.57,4.5-7.35,8.42-6.51l2.48.55c5.38,1.2,15,3.6,15.16,5.65v.17c.07,2-2.13,25-1.48,27.77s22.52,70.78,21.7,78.29q-1.29,11.73-7,15c-9.81,3.2-27.63-.25-31.19-4.09-2.93-3.18,11.34-13.44,10.34-16.83l-.13-.46Q297,562,294.06,509.66q-.65-3.46-1.22-5.5c-.58-2-6.92-10.85-5.34-15.42s6.66-7.73,4.08-8.46-4.88,5.77-8.59,9.92-9.22,1.5-7.07-2.24l.11-.18A56.59,56.59,0,0,0,281.62,474.71Z" transform="translate(-23.35 -68.55)"/><path class="en" d="M293.85,508.55l0-.16a19.92,19.92,0,0,1,7.17,15.1v.56c0,11.37,3.72,23.83,8.82,33.77l.4.76c5.23,9.91,6.82,18.14,5.37,17L305,563.13l-6.9-1.71-.14-1.16q-2-16.72-3.89-50.6l-.1-.57-.14-.7Z" transform="translate(-23.35 -68.55)"/><path class="eo" d="M287.49,467.45l.08,0c2.55,1.53,6.32,6.21,7.39,8.93l.11.31c.72,2-.22,4.52.67,11.41l.29,2.31-6-5.94,1.29-1.65c1-1.3,1.48-2.18.27-2.52-2.59-.73-4.88,5.77-8.59,9.92a5.68,5.68,0,0,1-4.35,2.07q3.94-4.42,3.7-7.85a25.45,25.45,0,0,0-1.7-6.71c.36-1,.69-2,1-3l.22-.73c1-3.31,2.89-5.68,5.37-6.41l.35-.1Z" transform="translate(-23.35 -68.55)"/><path class="ep" d="M298.85,494.58c-.31-4.46-8.48-17.75-10.23-20.69s-3.79-5.34-6.91-3.85,2.94,10.87,4.38,16.1,3.83,11.43,5.71,12.92S299.16,499.05,298.85,494.58Z" transform="translate(-23.35 -68.55)"/><path class="eq" d="M191.7,513c8.68-6.53,17-9.93,31.5-9.93,26.8,0,50.29,10.84,53,14.76s4.27,26.21,3.48,47.89,1.52,47.2,3.78,56.51q2.27,9.32-7.26,15.54H203.8q-7.19-9.24-6.3-15.54c.89-6.29,2.89-30,0-44.38-1.79-8.9-3.47-7.13-9.46-34.55C186,533.94,188.27,515.61,191.7,513Z" transform="translate(-23.35 -68.55)"/><path class="er" d="M283.29,621.55l.17.71q2.27,9.32-7.26,15.54h-3.7c4.65-7.36,2.78-26.25,2.78-47.2v-1.38q.17-18.12,4.35-21.87l0,1.63c-.46,20.38,1.61,43.21,3.7,52.57Z" transform="translate(-23.35 -68.55)"/><path class="es" d="M187.67,541.19l.3.83q11.31,31,25.24,40.88c14.36,10.21,37.32,4.12,37.32,7.7s-25,5.23-35.91,7.41c-7.2,1.44-6.15,23.26-4.19,39.79H203.8q-7.19-9.24-6.3-15.54l.15-1.13c.92-7.53,2.54-29.06,0-42.68l-.11-.57c-1.79-8.9-3.47-7.13-9.46-34.55C187.9,542.66,187.77,541.94,187.67,541.19Z" transform="translate(-23.35 -68.55)"/><path class="et" d="M191.7,907.76h31.82q15.16,12,16.91,19.92a21.31,21.31,0,0,1,.38,2.62,2.64,2.64,0,0,1-2.38,2.9l-.26,0H194.35a2.65,2.65,0,0,1-2.65-2.66Z" transform="translate(-23.35 -68.55)"/><path class="eu" d="M240.43,927.68a21.31,21.31,0,0,1,.38,2.62,2.64,2.64,0,0,1-2.38,2.9l-.26,0H194.35a2.65,2.65,0,0,1-2.65-2.66V926.7h48.48C240.27,927,240.36,927.36,240.43,927.68Z" transform="translate(-23.35 -68.55)"/><path class="ev" d="M277.93,907.76h30.64q18,7.62,22.81,10,4.32,2.12,4.54,12.76v0a2.66,2.66,0,0,1-2.65,2.66H280.59a2.66,2.66,0,0,1-2.66-2.66Z" transform="translate(-23.35 -68.55)"/><path class="ew" d="M335.92,930.51v0a2.66,2.66,0,0,1-2.65,2.66H280.59a2.66,2.66,0,0,1-2.66-2.66V926.7h57.75Q335.88,928.44,335.92,930.51Z" transform="translate(-23.35 -68.55)"/><path class="ah" d="M280.9,576.12q-6.31,12.33-15.28,2.23c-9-10.11-8.58-38.33,0-50.38s10.43-11.56,13.43-8,6.07,21.38,4.85,35.93Q282.67,570.45,280.9,576.12Z" transform="translate(-23.35 -68.55)"/><path class="ex" d="M288.31,593.05q-16.35-10.72-20.79-22.6c-4.43-11.87.55-34.68,6.64-41.67s6.58-6.44,13.06,3.07q6.48,9.51,20,32.43,3.33,12.12-1.79,20.8T288.31,593.05Z" transform="translate(-23.35 -68.55)"/><path class="ey" d="M273.74,560.92c5.14,11.19,23.35,11.62,27.26,29.08q-4.89,3.51-12.69,3-16.35-10.72-20.79-22.6c-4.36-11.68.39-34,6.34-41.32Q268.6,549.71,273.74,560.92Z" transform="translate(-23.35 -68.55)"/><path class="ez" d="M307.23,564.28q3.33,12.12-1.79,20.8t-17.13,8c-.74-.52-1.46-1-2.16-1.57q11-2,15.28-8.58,4.05-6.17,3.51-22C305.69,562,306.45,563.13,307.23,564.28Z" transform="translate(-23.35 -68.55)"/><path class="fa" d="M949.49,596.92q-13.11,38.7-16,49.32t-15.13-24.66l-1.82-43.22Z" transform="translate(-23.35 -68.55)"/><path class="fb" d="M940.23,901.72V805.8c0-18.72-7.34-37.16-7.34-44s3.67-42.81,3.67-57q0-14.16-20-27.23l-28.63,12.73q3.32,60.93,7.69,85.28c4.37,24.35,16,75.06,18.47,126.17Z" transform="translate(-23.35 -68.55)"/><path class="fc" d="M916.54,677.54v20.69l.38,3.42a570.83,570.83,0,0,1,3.69,59V762c0,27.36,6,35.31,6.1,68V831q0,31.58,5.57,70.68h8V805.8c0-18.72-7.34-37.16-7.34-44v-.44c.14-7.87,3.67-42.66,3.67-56.54Q936.56,690.61,916.54,677.54Z" transform="translate(-23.35 -68.55)"/><path class="fd" d="M914.07,901.72h26.17V887.83H913.18C913.55,892.44,913.85,897.08,914.07,901.72Z" transform="translate(-23.35 -68.55)"/><path class="fe" d="M940.23,901.72l3.37,30.75H887.91q1.1-10.44,9.82-15.38t16.34-15.37Z" transform="translate(-23.35 -68.55)"/><path class="ff" d="M925.92,932.47H943.6l-3.37-30.75H921.54Q923.87,916.12,925.92,932.47Z" transform="translate(-23.35 -68.55)"/><path class="fg" d="M943.05,927.43H889a22.69,22.69,0,0,0-1,4.37l-.08.67H943.6l-.55-5h0Z" transform="translate(-23.35 -68.55)"/><path class="fb" d="M897.57,692q-13.05,45.76-20.14,64.46c-7.1,18.7-2.45,27.51-7,53.95q-4.53,26.43-24.62,91.29h-25q7.68-70.89,10.59-102.92c2.9-32,2.9-42.2,7.5-96.5Q843.51,648,897.57,692Z" transform="translate(-23.35 -68.55)"/><path class="fh" d="M836.54,735.11l-.09-2.36L835.9,740c-1.74,23.22-2.36,35-4.2,55.71l-.46,5q-2.78,30.31-9.56,93.14l3.25.95,1-9q6.93-61,9.5-96.19a489.3,489.3,0,0,0,1.09-54.52Z" transform="translate(-23.35 -68.55)"/><path class="fi" d="M874.9,676.76v21.47q-6,37.1-15.14,59.8l-.33.82c-9.35,22.85-3.38,51-13.61,90l-.47,1.8q-9.69,37.51-6.43,51.09h6.9l1.58-5.12q18.5-60.17,23-85.64l.09-.53c4.48-26.14,0-35,6.75-53.31l.92-2.46q7-19,19.46-62.64Q884.87,681.69,874.9,676.76Z" transform="translate(-23.35 -68.55)"/><path class="fj" d="M850.08,887.83H822.33l-1.5,13.89h25l1.87-6.07C848.51,893,849.3,890.38,850.08,887.83Z" transform="translate(-23.35 -68.55)"/><path class="fk" d="M845.82,901.72l-2.94,30.75H775.39q.09-11.79,14.65-16.89a214.2,214.2,0,0,0,30.79-13.86Z" transform="translate(-23.35 -68.55)"/><path class="fl" d="M845.82,901.72h-25l-1.26.68h0a127.19,127.19,0,0,1,2.57,30.07h20.74Z" transform="translate(-23.35 -68.55)"/><path class="fm" d="M843.36,927.43H776.19a16,16,0,0,0-.78,4.44l0,.6h67.49l.48-5h0Z" transform="translate(-23.35 -68.55)"/><path class="fn" d="M940.23,704.77q-.66-22.39-5-39.41t-91.5,0a267.48,267.48,0,0,0-8.2,39.41Z" transform="translate(-23.35 -68.55)"/><path class="fo" d="M843.78,665.36c-.28,1-.56,2-.83,2.94l3,4,2,.29q48.2,7.35,63.15,32.17h29.17q-.66-22.39-5-39.41T843.78,665.36Z" transform="translate(-23.35 -68.55)"/><path class="fp" d="M873,444.34a21.33,21.33,0,0,0-6.05,15.41c0,9.17.05,14.43-7.91,16.42,4.27,12.15,5.72,21.3,7.91,21.3s7.75-2.52,9.08,0q1.32,2.5,0,16.64h22.88q-2.13-11.1,5.35-23c7.49-11.89,16.93-19.46,16.93-30.28s-6.93-16.95-12.79-20.83-19.74-3.47-24.76-1.74A38.52,38.52,0,0,0,873,444.34Z" transform="translate(-23.35 -68.55)"/><path class="ee" d="M869,466.39c-.94,0-1.69,1.31-1.66,2.88s.82,2.84,1.76,2.82,1.69-1.31,1.66-2.88S870,466.37,869,466.39Z" transform="translate(-23.35 -68.55)"/><path class="ee" d="M875,465.85a11.08,11.08,0,0,0-9.47-4.15.56.56,0,0,1-.59-.54.58.58,0,0,1,.55-.6,12.22,12.22,0,0,1,10.39,4.57.57.57,0,1,1-.88.72Z" transform="translate(-23.35 -68.55)"/><path class="fq" d="M864.72,486.5c2,.1,4.08-.95,6.32-3.19a.57.57,0,0,1,.81.81c-2.45,2.44-4.85,3.63-7.19,3.52a.58.58,0,0,1-.54-.6A.56.56,0,0,1,864.72,486.5Z" transform="translate(-23.35 -68.55)"/><path class="fr" d="M888.68,505.81q-37.3,6-41,8.3c-3.66,2.33.84,29.88,5.36,61.09s.58,41.66-5.36,64.79q-5.94,23.12-8.8,33.43H940.23a189,189,0,0,0-8.48-41.52c-6.83-21.58-13.16-32.2-8.37-56.7s9.78-56.58,2.54-61.93Q918.69,507.92,888.68,505.81Z" transform="translate(-23.35 -68.55)"/><path class="fs" d="M853.08,575.2l.26,1.9c4,29.43.27,40-5.44,62.17l-4.3,16.61q-2.93,11.19-4.68,17.54h10.54L850,671q3.07-14.44,7.78-32.34Q865,611.12,853.08,575.2Z" transform="translate(-23.35 -68.55)"/><path class="ft" d="M888.68,505.81l-4.74.77-6.57,1.09q-8.4,42.26,11.75,73.26l.46.69c19.59,29.57,21,60.65,8,91.8h42.64a189,189,0,0,0-8.48-41.52l-.71-2.22c-6.47-19.87-12.15-30.58-7.83-53.63l.74-3.83c4.59-24.05,8.92-53.81,2-59Q918.69,507.92,888.68,505.81Z" transform="translate(-23.35 -68.55)"/><path class="fu" d="M778.94,516.56q-1.07-12-2.06-17.2c-1-5.14-2.92-6.7-7-9.53s-6.42-4.8-7.49-3.82-.35,4,1.88,5.72,4.41,3.57,4.41,5.93-.52,3.5-1.68,2.12-9.78-12-12.88-15.57-6.72-6.3-8.12-2.65-2.2,14.53-1.8,19.19,3.7,9.52,9.92,14.93A92.91,92.91,0,0,0,767,525.13Z" transform="translate(-23.35 -68.55)"/><path class="fv" d="M812.37,556q32.68-41.06,35.35-41.89c2.66-.84,9.47,6.61,11.3,20.94s-2.51,26.81-11.3,32.35-35.37,20.27-41.32,20.27-7.47-2.42-14.57-12.51q-7.1-10.11-29.13-51.41l17.1-10.21Z" transform="translate(-23.35 -68.55)"/><polygon class="fw" points="782.65 479.14 782.64 494.81 789.02 487.45 782.65 479.14"/><path class="fx" d="M831.87,568.16l-.77.19c-15,3.57-24.48,10.19-28.31,18.85a11.5,11.5,0,0,0,3.61.47c6,0,32.52-14.74,41.32-20.27,4.7-3,8.13-7.91,10-14.06Q848,564.11,831.87,568.16Z" transform="translate(-23.35 -68.55)"/><path class="fb" d="M882.8,468q-13.59-8.37-15-20.17c-1.46-11.81,11.47-23.43,36.51-20.9s31.39,24.43,31.39,45.39,10.23,38.23,30,61.74S984,588,957.42,597.17s-60.95-4.59-70.79-35.08-8.58-51.35-2.56-82.82c9.17,0,10.09-8.43,9.17-11.83s-3.09-4.63-5.8-4.23C885.62,463.47,884.08,465.06,882.8,468Z" transform="translate(-23.35 -68.55)"/><rect class="fy" x="837.75" width="198" height="150" rx="15"/><path class="fz" d="M861.1,203.55v-24L898,142l36.58-5.55L921.8,154.25l4.75,3.94,38.05-45.51-11.49,50.15,29.23-36.18,36.58,22.82-45.5,69.08H876.1A15,15,0,0,1,861.1,203.55Z" transform="translate(-23.35 -68.55)"/><path class="ah" d="M898,149.47v-7.41l36.58-15.41v9.79l-22,9.43,22,9.15v9.86Zm53.14,21.82L943,168.63l22.25-55.95,8.14,2.81Zm31.17-6.41V155l22-9.15-22-9.43v-9.79l36.58,15.41v7.41Z" transform="translate(-23.35 -68.55)"/></svg>